<!-- Generated by IcoMoon.io -->
<svg version="1.1" xmlns="http://www.w3.org/2000/svg" style="fill:#fff;" width="32" height="32" viewBox="0 0 32 32">
<path d="M16 32c-8.837 0-16-7.163-16-16s7.163-16 16-16c8.837 0 16 7.163 16 16s-7.163 16-16 16zM16 30.667c8.1 0 14.667-6.567 14.667-14.667s-6.566-14.667-14.667-14.667c-8.1 0-14.667 6.566-14.667 14.667s6.566 14.667 14.667 14.667zM9.959 18.667v-1.4h-2.277c1.549-1.083 2.231-1.895 2.231-2.856 0-1.241-1.055-2.063-2.52-2.063-0.868 0-1.857 0.308-2.52 1.036l0.887 1.064c0.448-0.42 0.971-0.681 1.661-0.681 0.457 0 0.859 0.224 0.859 0.644 0 0.625-0.504 1.055-3.201 3.005v1.251h4.881zM15.129 18.667h-1.615v-1.139h-2.977v-1.251l2.361-3.836h2.231v3.677h0.756v1.409h-0.756v1.139zM13.515 16.119v-2.277l-1.419 2.277h1.419zM18.378 20l2.956-9.333h-1.044l-2.956 9.333zM24.861 18.667l2.193-5.115v-1.111h-4.881v1.4h3.033l-2.109 4.825z"></path>
</svg>
