<svg version="1.1" xmlns="http://www.w3.org/2000/svg" width="36" height="32" viewBox="0 0 36 32">
<path style="fill:#fff;" d="M14.279 25.891c0.395 0.303 0.5 0.848 0.25 1.296l-1.363 2.293c-0.245 0.437-0.772 0.619-1.242 0.441l-1.377-0.538c-0.21 0.137-0.422 0.258-0.639 0.364l-0.205 1.391c-0.064 0.501-0.497 0.862-0.997 0.862h-2.741c-0.499 0-0.932-0.361-0.996-0.849l-0.207-1.403c-0.221-0.107-0.435-0.228-0.642-0.364l-1.394 0.544c-0.452 0.16-0.978-0.014-1.214-0.434l-1.379-2.321c-0.243-0.433-0.138-0.979 0.26-1.284l1.148-0.874c-0.009-0.12-0.013-0.235-0.013-0.349s0.004-0.229 0.013-0.349l-1.151-0.875c-0.399-0.307-0.512-0.863-0.249-1.296l1.362-2.293c0.246-0.437 0.773-0.62 1.242-0.441l1.377 0.538c0.21-0.137 0.423-0.258 0.639-0.364l0.205-1.393c0.065-0.499 0.498-0.86 0.997-0.86h2.741c0.5 0 0.933 0.361 0.995 0.849l0.207 1.403c0.221 0.107 0.435 0.228 0.642 0.364l1.395-0.544c0.452-0.16 0.977 0.014 1.213 0.435l1.38 2.322c0.241 0.432 0.137 0.976-0.261 1.282l-1.148 0.873c0.009 0.119 0.013 0.233 0.013 0.349s-0.004 0.231-0.013 0.35l1.15 0.875zM12.024 25.851c-0.19-0.145-0.288-0.38-0.258-0.616 0.029-0.223 0.043-0.396 0.043-0.568s-0.014-0.345-0.043-0.568c-0.031-0.237 0.068-0.472 0.258-0.616l1.204-0.916-1.077-1.812-1.449 0.566c-0.215 0.084-0.458 0.051-0.642-0.087-0.318-0.238-0.651-0.427-1.005-0.568-0.221-0.088-0.378-0.287-0.413-0.522l-0.218-1.477h-2.18l-0.218 1.477c-0.035 0.235-0.192 0.434-0.413 0.522-0.34 0.136-0.674 0.326-1.012 0.573-0.184 0.134-0.423 0.165-0.635 0.082l-1.448-0.566-1.076 1.812 1.204 0.916c0.19 0.144 0.288 0.378 0.258 0.615-0.028 0.221-0.042 0.403-0.042 0.569s0.014 0.348 0.042 0.569c0.030 0.236-0.068 0.47-0.258 0.615l-1.204 0.916 1.076 1.812 1.449-0.566c0.215-0.084 0.457-0.051 0.642 0.087 0.317 0.237 0.651 0.426 1.006 0.568 0.221 0.088 0.378 0.287 0.412 0.522l0.218 1.477h2.18l0.218-1.477c0.035-0.235 0.192-0.434 0.412-0.522 0.341-0.136 0.675-0.327 1.012-0.573 0.184-0.134 0.423-0.165 0.635-0.082l1.449 0.566 1.077-1.812-1.204-0.916zM12.012 28.813l0.008-0.013c-0.003 0.004-0.005 0.008-0.008 0.013zM8.382 30.956l0.002-0.013c-0.001 0.004-0.001 0.009-0.002 0.013zM12.004 20.507c0.003 0.006 0.006 0.011 0.010 0.016l-0.010-0.016zM8.667 24.672c0-0.736-0.597-1.333-1.333-1.333s-1.333 0.597-1.333 1.333c0 0.736 0.597 1.333 1.333 1.333s1.333-0.597 1.333-1.333zM10 24.672c0 1.473-1.194 2.667-2.667 2.667s-2.667-1.194-2.667-2.667c0-1.473 1.194-2.667 2.667-2.667s2.667 1.194 2.667 2.667zM6.667 0.667c0-0.368 0.298-0.667 0.667-0.667s0.667 0.298 0.667 0.667v13.333c0 0.368-0.298 0.667-0.667 0.667s-0.667-0.298-0.667-0.667v-13.333zM18 25.333c-0.368 0-0.667-0.298-0.667-0.667s0.298-0.667 0.667-0.667h16.667c0.368 0 0.667 0.298 0.667 0.667s-0.298 0.667-0.667 0.667h-16.667zM22.791 12.946c0.125-0.175 0.327-0.279 0.543-0.279h8c0.368 0 0.667 0.298 0.667 0.667s-0.298 0.667-0.667 0.667h-7.657l-3.134 4.387c-0.32 0.448-1.015 0.337-1.179-0.189l-2.869-9.182-2.578 4.641c-0.179 0.322-0.585 0.438-0.907 0.259s-0.438-0.585-0.259-0.907l3.333-6c0.285-0.512 1.044-0.434 1.219 0.125l2.934 9.387 2.554-3.576zM28.805 15.471c-0.26 0.26-0.682 0.26-0.943 0s-0.26-0.682 0-0.943l3.333-3.333c0.26-0.26 0.682-0.26 0.943 0l3.333 3.333c0.26 0.26 0.26 0.682 0 0.943s-0.682 0.26-0.943 0l-2.862-2.862-2.862 2.862z"></path>
</svg>
