<svg width="53px" height="48px" viewBox="0 0 53 48" version="1.1" xmlns="http://www.w3.org/2000/svg" xmlns:xlink="http://www.w3.org/1999/xlink">
    <g id="icn-graph-path" stroke="none" stroke-width="1" fill="none" fill-rule="evenodd" transform="translate(-3.000000, -6.000000)">
        <g id="icn-graph" transform="translate(2.000000, 6.000000)" fill="#fff" fill-rule="nonzero">
            <path d="M22.4188867,38.8370402 C23.0119902,39.29222 23.1690305,40.1091303 22.7932627,40.7812648 L20.7490594,44.2200724 C20.3809772,44.8753795 19.5907119,45.1490136 18.8861872,44.8818035 L16.8205455,44.0749209 C16.5055186,44.2800182 16.1867734,44.462024 15.8618479,44.6205191 L15.5540372,46.7069422 C15.4579518,47.4577408 14.8078794,48 14.0585503,48 L9.94636346,48 C9.19785431,48 8.54864216,47.4589957 8.45277044,46.7258826 L8.14250882,44.6218451 C7.81133533,44.4617417 7.49062145,44.2798644 7.17964438,44.0763827 L5.08822992,44.8928949 C4.40983763,45.1333352 3.62129112,44.8719414 3.26730931,44.2411336 L1.19940374,40.7600724 C0.834463284,40.1103587 0.991910555,39.2913314 1.58925416,38.834574 L3.31178166,37.5236954 C3.2987115,37.3436695 3.2920173,37.1712893 3.2920173,37 C3.2920173,36.8289847 3.29872202,36.6565415 3.31179284,36.4764522 L1.58566639,35.1633725 C0.986795907,34.7033339 0.817136966,33.8691205 1.21157305,33.219556 L3.25514,29.7806173 C3.6234435,29.1249164 4.415003,28.8502236 5.11801225,29.1188862 L7.18353141,29.925721 C7.49873613,29.7204228 7.81751247,29.5383712 8.14234823,29.3799769 L8.45053807,27.2901548 C8.54864216,26.5410043 9.19785431,26 9.94636346,26 L14.0585503,26 C14.8078794,26 15.4579518,26.5422592 15.5514345,27.2741546 L15.8616348,29.3783242 C16.1928309,29.5382738 16.5136822,29.720308 16.8249104,29.9241748 L18.9169062,29.1074633 C19.5956189,28.8676683 20.3829796,29.1288752 20.7368122,29.7594249 L22.8067177,33.2427736 C23.1688379,33.8912146 23.0120195,34.7063525 22.415373,35.1663337 L20.6933324,36.4758628 C20.7063539,36.6540735 20.7128964,36.825393 20.7128964,37 C20.7128964,37.1746517 20.7063506,37.3460142 20.6933224,37.5242741 L22.4188867,38.8370402 Z M19.0352812,38.7758669 C18.7503794,38.5591222 18.6030675,38.2066197 18.6490296,37.8516059 C18.6923269,37.5171752 18.7128964,37.2572016 18.7128964,37 C18.7128964,36.7427984 18.6923269,36.4828248 18.6490296,36.1483941 C18.6030582,35.793309 18.7504388,35.440742 19.0354415,35.2240111 L20.8417492,33.8504241 L19.2269005,31.1329663 L17.0538541,31.9818035 C16.7317563,32.1076216 16.3675143,32.0581026 16.0906962,31.8508613 C15.6142128,31.4941395 15.1144164,31.2109839 14.5829939,30.9994356 C14.2515987,30.8675141 14.0155594,30.5690639 13.9635382,30.2161903 L13.6369763,28 L10.3673759,28 L10.0406613,30.2161903 C9.98866044,30.5689255 9.75278298,30.8672912 9.42156953,30.9992907 C8.91090749,31.2028064 8.41015258,31.4885955 7.90359773,31.8581823 C7.62778515,32.0594176 7.26836474,32.1060285 6.95034531,31.9818035 L4.77761807,31.133066 L3.16307582,33.8504244 L4.96888421,35.2241072 C5.25318291,35.4403739 5.40053469,35.7918654 5.35544942,36.146216 C5.31322328,36.4780951 5.2920173,36.7501342 5.2920173,37 C5.2920173,37.2502961 5.31316543,37.5214502 5.35544942,37.853784 C5.40052561,38.2080632 5.25324237,38.5594904 4.96904451,38.7757708 L3.16303328,40.1501795 L4.77736102,42.8676991 L6.95034531,42.0188862 C7.27223076,41.893151 7.63622184,41.9425171 7.91299008,42.1494445 C8.38915808,42.5054541 8.88947468,42.7887553 9.42245156,43.001751 C9.75321209,43.1339341 9.98869315,43.4320778 10.0406558,43.7844623 L10.3672491,46 L13.6368402,46 L13.9635436,43.7844623 C14.0155267,43.4319391 14.2511698,43.1337107 14.5821124,43.0016054 C15.0936834,42.7973971 15.5946964,42.5114607 16.100768,42.142386 C16.3765629,41.9412506 16.7359028,41.8946877 17.0538541,42.0188862 L19.2266613,42.8676751 L20.8420198,40.1503791 L19.0352812,38.7758669 Z M19.0175556,43.2194249 L19.0288027,43.2005055 C19.0249006,43.2066996 19.0211504,43.2130051 19.0175556,43.2194249 Z M13.5728252,46.4341174 L13.5757047,46.4145896 C13.5746204,46.4210504 13.5736595,46.4275604 13.5728252,46.4341174 Z M19.0053084,30.7600724 C19.0099825,30.7683939 19.0148121,30.7765182 19.0197913,30.7844442 L19.0053084,30.7600724 Z" id="Stroke-1"></path>
            <path d="M14,37.0076 C14,35.9028847 13.1047153,35.0076 12,35.0076 C10.8952847,35.0076 10,35.9028847 10,37.0076 C10,38.1123153 10.8952847,39.0076 12,39.0076 C13.1047153,39.0076 14,38.1123153 14,37.0076 Z M16,37.0076 C16,39.2168847 14.2092847,41.0076 12,41.0076 C9.79071525,41.0076 8,39.2168847 8,37.0076 C8,34.7983153 9.79071525,33.0076 12,33.0076 C14.2092847,33.0076 16,34.7983153 16,37.0076 Z" id="Stroke-2104"></path>
            <path d="M11,1 C11,0.44771525 11.4477153,0 12,0 C12.5522847,0 13,0.44771525 13,1 L13,21 C13,21.5522847 12.5522847,22 12,22 C11.4477153,22 11,21.5522847 11,21 L11,1 Z" id="Stroke-36"></path>
            <path d="M28,38 C27.4477153,38 27,37.5522847 27,37 C27,36.4477153 27.4477153,36 28,36 L53,36 C53.5522847,36 54,36.4477153 54,37 C54,37.5522847 53.5522847,38 53,38 L28,38 Z" id="Stroke-38"></path>
            <path d="M31.3548143,24.7827949 L35.1862665,19.4187618 C35.373978,19.1559657 35.6770489,19 36,19 L50,19 C50.5522847,19 51,19.4477153 51,20 C51,20.5522847 50.5522847,21 50,21 L36.5146179,21 L31.8137335,27.5812382 C31.3336521,28.2533522 30.2918842,28.0866404 30.04552,27.298275 L25.741303,13.5247806 L21.8741573,20.4856429 C21.6059441,20.9684267 20.9971408,21.1423705 20.5143571,20.8741573 C20.0315733,20.6059441 19.8576295,19.9971408 20.1258427,19.5143571 L25.1258427,10.5143571 C25.5527711,9.745886 26.6922666,9.8626423 26.95448,10.701725 L31.3548143,24.7827949 Z" id="Stroke-40"></path>
            <path d="M48.5,18.9142136 L44.2071068,23.2071068 C43.8165825,23.5976311 43.1834175,23.5976311 42.7928932,23.2071068 C42.4023689,22.8165825 42.4023689,22.1834175 42.7928932,21.7928932 L47.7928932,16.7928932 C48.1834175,16.4023689 48.8165825,16.4023689 49.2071068,16.7928932 L54.2071068,21.7928932 C54.5976311,22.1834175 54.5976311,22.8165825 54.2071068,23.2071068 C53.8165825,23.5976311 53.1834175,23.5976311 52.7928932,23.2071068 L48.5,18.9142136 Z" id="Stroke-43" transform="translate(48.500000, 20.000000) rotate(90.000000) translate(-48.500000, -20.000000) "></path>
        </g>
    </g>
</svg>
