<?xml version="1.0" encoding="UTF-8"?>
<svg width="53px" height="48px" viewBox="0 0 53 48" version="1.1" xmlns="http://www.w3.org/2000/svg" xmlns:xlink="http://www.w3.org/1999/xlink">
    <!-- Generator: Sketch 48.2 (47327) - http://www.bohemiancoding.com/sketch -->
    <title>Group 426 Copy</title>
    <desc>Created with Sketch.</desc>
    <defs></defs>
    <g id="Homepage-–-Desktop" stroke="none" stroke-width="1" fill="none" fill-rule="evenodd" transform="translate(-526.000000, -7022.000000)" stroke-linecap="round" stroke-linejoin="round">
        <g id="Value" transform="translate(0.000000, 6713.000000)" stroke="#FFFFFF" stroke-width="2">
            <g id="List" transform="translate(93.000000, 306.000000)">
                <g id="04" transform="translate(434.000000, 4.000000)">
                    <g id="Group-426-Copy">
                        <path d="M17.6407528,36.98 C17.6821818,36.66 17.7128964,36.34 17.7128964,36 C17.7128964,35.66 17.6821818,35.34 17.6407528,35.02 L19.8100617,33.3703448 C20.0050638,33.22 20.0564929,32.9503448 19.9336345,32.7303448 L17.8771839,29.2703448 C17.7536112,29.0503448 17.4764653,28.9703448 17.2500343,29.0503448 L14.690007,30.0503448 C14.1557155,29.6503448 13.5799951,29.32 12.9528455,29.0703448 L12.5621271,26.42 C12.5314125,26.18 12.3156959,26 12.0585503,26 L7.94636346,26 C7.68921785,26 7.47350126,26.18 7.44207235,26.42 L7.05135389,29.0703448 C6.42491862,29.32 5.84919818,29.66 5.31419246,30.0503448 L2.7541651,29.0503448 C2.517734,28.96 2.25058829,29.0503448 2.12701554,29.2703448 L0.0712792773,32.7303448 C-0.0622935791,32.9503448 -0.000864351016,33.22 0.194852027,33.3703448 L2.36344664,35.02 C2.32273192,35.34 2.2920173,35.6703448 2.2920173,36 C2.2920173,36.3303448 2.32273192,36.66 2.36344664,36.98 L0.194852027,38.6303448 C-0.000864351016,38.78 -0.0522934722,39.0503448 0.0712792773,39.2703448 L2.12701554,42.7303448 C2.25058829,42.9503448 2.5284484,43.0303448 2.7541651,42.9503448 L5.31419246,41.9503448 C5.84919818,42.3503448 6.42491862,42.68 7.05135389,42.9303448 L7.44207235,45.58 C7.47350126,45.82 7.68921785,46 7.94636346,46 L12.0585503,46 C12.3156959,46 12.5314125,45.82 12.5621271,45.58 L12.9528455,42.9303448 C13.5799951,42.68 14.1557155,42.34 14.690007,41.9503448 L17.2500343,42.9503448 C17.4864654,43.04 17.7536112,42.9503448 17.8771839,42.7303448 L19.9336345,39.2703448 C20.0564929,39.0503448 20.0050638,38.78 19.8100617,38.6303448 L17.6407528,36.98 L17.6407528,36.98 Z" id="Stroke-1"></path>
                        <path d="M13,36.0076 C13,37.6646 11.657,39.0076 10,39.0076 C8.343,39.0076 7,37.6646 7,36.0076 C7,34.3506 8.343,33.0076 10,33.0076 C11.657,33.0076 13,34.3506 13,36.0076 Z" id="Stroke-2104"></path>
                        <path d="M10,0 L10,20" id="Stroke-36"></path>
                        <path d="M26,36 L51,36" id="Stroke-38"></path>
                        <polyline id="Stroke-40" points="46 19 34 19 29 26 24 10 19 19"></polyline>
                        <polyline id="Stroke-43" transform="translate(46.500000, 19.000000) rotate(90.000000) translate(-46.500000, -19.000000) " points="51.5 21.5 46.5 16.5 41.5 21.5"></polyline>
                    </g>
                </g>
            </g>
        </g>
    </g>
</svg>