<!-- Generated by IcoMoon.io -->
<svg version="1.1" xmlns="http://www.w3.org/2000/svg" width="30" height="32" viewBox="0 0 30 32" style="fill:#fff;">
<path d="M14.526 11.043c0-0.349 0.283-0.632 0.632-0.632s0.632 0.283 0.632 0.632v20.237c0 0.41-0.385 0.712-0.783 0.613l-10.656-2.64c-0.282-0.070-0.48-0.323-0.48-0.613v-10.43c0-0.349 0.283-0.632 0.632-0.632s0.632 0.283 0.632 0.632v9.936l9.393 2.327v-19.43zM13.938 11.787l-8.205 0.739-3.655 5.052h8.185l3.675-5.791zM10.61 18.841h-9.768c-0.515 0-0.814-0.584-0.512-1.002l4.548-6.287c0.107-0.148 0.273-0.242 0.455-0.259l9.768-0.88c0.522-0.047 0.871 0.525 0.59 0.967l-4.548 7.167c-0.116 0.183-0.317 0.293-0.533 0.293zM25.182 18.21c0-0.349 0.283-0.632 0.632-0.632s0.632 0.283 0.632 0.632v10.43c0 0.29-0.198 0.543-0.48 0.613l-10.656 2.64c-0.398 0.099-0.783-0.203-0.783-0.613v-20.237c0-0.349 0.283-0.632 0.632-0.632s0.632 0.283 0.632 0.632v19.43l9.393-2.327v-9.936zM19.706 18.841c-0.216 0-0.417-0.111-0.533-0.293l-4.548-7.167c-0.281-0.442 0.068-1.014 0.59-0.967l9.768 0.88c0.182 0.016 0.348 0.111 0.455 0.259l4.548 6.287c0.302 0.418 0.004 1.002-0.512 1.002h-9.768zM28.237 17.578l-3.654-5.052-8.205-0.739 3.675 5.791h8.185zM15.158 1.687l-3.37 2.995c-0.261 0.232-0.66 0.208-0.892-0.052s-0.208-0.66 0.052-0.892l3.789-3.368c0.239-0.213 0.6-0.213 0.839 0l3.789 3.368c0.261 0.232 0.284 0.631 0.052 0.892s-0.631 0.284-0.892 0.052l-3.37-2.995zM14.526 1.263c0-0.349 0.283-0.632 0.632-0.632s0.632 0.283 0.632 0.632v7.158c0 0.349-0.283 0.632-0.632 0.632s-0.632-0.283-0.632-0.632v-7.158z"></path>
</svg>
