<!-- Generated by IcoMoon.io -->
<svg version="1.1" xmlns="http://www.w3.org/2000/svg" width="29" height="32" viewBox="0 0 29 32">
<path style="fill:#fff;" d="M1.391 9.016v13.967l13.217 7.52 13.217-7.52v-13.967l-13.217-7.52-13.217 7.52zM0.352 8.007l13.913-7.916c0.213-0.121 0.475-0.121 0.688 0l13.913 7.916c0.217 0.124 0.352 0.355 0.352 0.605v14.777c0 0.25-0.134 0.481-0.352 0.605l-13.913 7.916c-0.213 0.121-0.475 0.121-0.688 0l-13.913-7.916c-0.217-0.124-0.352-0.355-0.352-0.605v-14.777c0-0.25 0.134-0.481 0.352-0.605zM14.954 17.216c-0.334 0.191-0.758 0.075-0.949-0.258s-0.075-0.759 0.258-0.949l13.913-7.958c0.334-0.191 0.759-0.075 0.949 0.258s0.075 0.758-0.258 0.949l-13.913 7.958zM0.439 9.073c-0.329-0.199-0.433-0.627-0.234-0.956s0.627-0.433 0.956-0.234l13.706 8.31c0.329 0.199 0.433 0.627 0.234 0.956s-0.627 0.433-0.956 0.234l-13.706-8.31zM15.125 30.838c0.041 0.046 0.077 0.098 0.106 0.156-0.023-0.046-0.050-0.089-0.085-0.131l-0.021-0.025zM14.016 30.808c0.022-0.339 0.037-0.877 0.045-1.59 0.014-1.264 0.006-3.041-0.020-5.198-0.013-1.070-0.030-2.203-0.050-3.37-0.017-0.98-0.035-1.928-0.053-2.809-0.006-0.308-0.012-0.586-0.018-0.829-0.005-0.247-0.005-0.247-0.007-0.3-0.009-0.384 0.296-0.703 0.68-0.711s0.703 0.296 0.711 0.68c0.001 0.053 0.001 0.053 0.007 0.301 0.005 0.243 0.011 0.522 0.018 0.831 0.018 0.882 0.036 1.832 0.053 2.814 0.020 1.169 0.037 2.305 0.050 3.377 0.026 2.167 0.034 3.953 0.020 5.23-0.008 0.736-0.024 1.294-0.048 1.665-0.014 0.22-0.031 0.379-0.057 0.499-0.038 0.174-0.079 0.287-0.223 0.426-0.221 0.214-0.565 0.272-0.853 0.102-0.146-0.087-0.224-0.189-0.284-0.309-0.108-0.216-0.093-0.461 0.018-0.656 0.004-0.043 0.008-0.094 0.012-0.152z"></path>
</svg>
