<!-- Generated by IcoMoon.io -->
<svg version="1.1" xmlns="http://www.w3.org/2000/svg" width="51" height="32" viewBox="0 0 51 32">
<path style="fill:#fff;" d="M35.765 12.235c-0.52 0-0.941-0.421-0.941-0.941s0.421-0.941 0.941-0.941h1.882c0.52 0 0.941 0.421 0.941 0.941s0.422 0.941 0.941 0.941c0.52 0 0.941 0.421 0.941 0.941v11.294c0 0.52-0.421 0.941-0.941 0.941s-0.941 0.422-0.941 0.941c0 0.52-0.421 0.941-0.941 0.941h-1.882c-0.52 0-0.941-0.421-0.941-0.941s0.421-0.941 0.941-0.941h1.102c0.284-0.802 0.92-1.438 1.722-1.722v-9.733c-0.802-0.284-1.438-0.92-1.722-1.722h-1.102zM9.412 25.412c0.52 0 0.941 0.421 0.941 0.941s-0.421 0.941-0.941 0.941h-1.882c-0.52 0-0.941-0.421-0.941-0.941s-0.422-0.941-0.941-0.941c-0.52 0-0.941-0.421-0.941-0.941v-11.294c0-0.52 0.421-0.941 0.941-0.941s0.941-0.422 0.941-0.941c0-0.52 0.421-0.941 0.941-0.941h1.882c0.52 0 0.941 0.421 0.941 0.941s-0.421 0.941-0.941 0.941h-1.102c-0.284 0.802-0.92 1.438-1.722 1.722v9.733c0.802 0.284 1.438 0.92 1.722 1.722h1.102zM0.941 32c-0.52 0-0.941-0.421-0.941-0.941v-24.471c0-0.52 0.421-0.941 0.941-0.941h43.294c0.52 0 0.941 0.421 0.941 0.941v24.471c0 0.52-0.421 0.941-0.941 0.941h-43.294zM1.882 30.118h41.412v-22.588h-41.412v22.588zM27.57 19.099c0.368-0.368 0.963-0.368 1.331 0s0.368 0.963 0 1.331l-5.647 5.647c-0.368 0.368-0.963 0.368-1.331 0l-5.647-5.647c-0.368-0.368-0.368-0.963 0-1.331s0.963-0.368 1.331 0l4.982 4.982 4.982-4.982zM21.647 12.235c0-0.52 0.421-0.941 0.941-0.941s0.941 0.421 0.941 0.941v11.294c0 0.52-0.421 0.941-0.941 0.941s-0.941-0.421-0.941-0.941v-11.294zM7.529 1.882v4.706c0 0.52-0.421 0.941-0.941 0.941s-0.941-0.421-0.941-0.941v-5.647c0-0.52 0.421-0.941 0.941-0.941h43.294c0.52 0 0.941 0.421 0.941 0.941v24.471c0 0.52-0.421 0.941-0.941 0.941h-5.176c-0.52 0-0.941-0.421-0.941-0.941s0.421-0.941 0.941-0.941h4.235v-22.588h-41.412z"></path>
</svg>
