<svg width="49px" height="36px" viewBox="0 0 49 36" version="1.1" xmlns="http://www.w3.org/2000/svg" xmlns:xlink="http://www.w3.org/1999/xlink">
    <g id="icn-piggy-bank-path" stroke="none" stroke-width="1" fill="none" fill-rule="evenodd" transform="translate(-5.000000, -12.000000)">
        <g id="icn-piggy-bank" transform="translate(5.000000, 12.000000)" fill="#fff">
            <path d="M41.9351702,15.7332301 C41.1399592,8.25851393 33.5344801,2.37564499 24.2951848,2.37564499 C21.4960004,2.37564499 18.731845,2.9251806 16.2568097,3.97058824 C15.2127359,2.6620227 13.5391854,2 11.2711873,2 L8.27908193,2 C8.00460083,2 7.74946411,2.14189886 7.60777958,2.37409701 C7.46609505,2.60629515 7.45720709,2.89473684 7.58529827,3.13467492 L10.2020181,8.04231166 C10.2292048,8.09391125 10.2030637,8.15118679 10.1722173,8.18421053 C9.18669943,9.25696594 8.38835154,10.4324045 7.80017776,11.6769866 C7.44622785,12.4210526 6.76446908,12.8839009 6.02101741,12.8839009 L4.17807288,12.8839009 C2.97715272,12.8828689 2,13.8472652 2,15.0325077 L2,19.0180599 C2,20.2033024 2.97715272,21.1676987 4.17807288,21.1676987 L6.02154023,21.1676987 C6.76551472,21.1676987 7.44675067,21.631063 7.79965494,22.377193 C8.74386992,24.378225 10.2495948,26.2167183 12.1516181,27.6934985 C12.6707795,28.0990712 12.9802896,28.753354 12.9802896,29.4427245 L12.9802896,33.2260062 C12.9802896,33.6532508 13.3311026,34 13.7645214,34 L18.5153971,34 C18.9488158,34 19.2996288,33.6532508 19.2996288,33.2260062 L19.2996288,31.0866873 C22.5965389,31.8885449 26.188843,31.871517 29.4549067,31.0459236 L29.4549067,33.2260062 C29.4549067,33.6532508 29.8057197,34 30.2391384,34 L34.9900141,34 C35.4234328,34 35.7742458,33.6532508 35.7742458,33.2260062 L35.7742458,29.3152735 C35.7742458,28.6367389 36.0769593,27.9886481 36.5814817,27.5846233 C40.0070058,24.8632611 41.921054,21.2120743 42,17.2801858 C42,16.2105571 42,16.2331256 41.9351702,15.7332301 Z M43.9719445,15.9304834 C43.9979547,16.2205818 44,16.3627722 44,17.2801858 C43.9082316,21.8707692 41.7008684,26.0719082 37.8316392,29.1457467 C37.8074277,29.1651354 37.7742458,29.2362478 37.7742458,29.3152735 L37.7742458,33.2260062 C37.7742458,34.7637151 36.5221848,36 34.9900141,36 L30.2391384,36 C28.7867823,36 27.5861129,34.8891627 27.4649622,33.4637297 C25.4271679,33.7404897 23.3320128,33.7477478 21.2877039,33.484777 C21.1565845,34.9000825 19.960597,36 18.5153971,36 L13.7645214,36 C12.2323506,36 10.9802896,34.7637151 10.9802896,33.2260062 L10.9802896,29.4427245 C10.9802896,29.3603838 10.9472226,29.2905559 10.925068,29.2732373 C8.7791513,27.607092 7.07214222,25.5220874 5.9916867,23.232325 C5.97354646,23.1939719 5.36900852,23.1724298 4.17807288,23.1676987 C1.87842338,23.1676987 0,21.3137975 0,19.0180599 L0,15.0325077 C0,12.736177 1.87940184,10.8819249 4.17807288,10.8839009 L6.00193149,10.8839009 C6.48304466,9.78324187 7.09921195,8.78971069 7.83376879,7.85154726 L5.82097176,4.07656237 C5.35910645,3.21140464 5.39029234,2.16851763 5.9005151,1.33234464 C6.40657,0.503002094 7.30967953,0 8.27908193,0 L11.2711873,0 C13.4760691,0 15.3313619,0.54039196 16.7345872,1.64397021 C19.1207612,0.808905212 21.6961565,0.375644995 24.2951848,0.375644995 C34.4284488,0.375644995 42.9917662,6.89498086 43.9214114,15.498001 C43.9535762,15.7462381 43.9608495,15.8067376 43.9719445,15.9304834 Z M6.02154023,23.1676987 L5.99779172,23.1676987 C6.00438608,23.1675834 6.01228569,23.1676987 6.02154023,23.1676987 Z M8.71064319,6.81899949 C8.70616052,6.82379857 8.70169985,6.82862242 8.69726148,6.83347085 C8.70174913,6.82868547 8.70619446,6.82384162 8.71064319,6.81899949 Z" id="Path" fill-rule="nonzero"></path>
            <path d="M20.1529552,8.10874015 C19.6266495,8.27613414 19.0642948,7.98517871 18.8969008,7.458873 C18.7295068,6.9325673 19.0204622,6.37021258 19.5467679,6.20281859 C23.3619042,4.98939666 27.1744081,5.08764835 30.87249,6.57196379 C31.3850302,6.77768433 31.6337568,7.35994974 31.4280362,7.87248999 C31.2223157,8.38503024 30.6400503,8.63375675 30.12751,8.42803621 C26.8678843,7.11970586 23.5328203,7.03375823 20.1529552,8.10874015 Z" id="Line" fill-rule="nonzero"></path>
            <path d="M47,11 C47,10.4477153 47.4477153,10 48,10 C48.5522847,10 49,10.4477153 49,11 C49,13.7602847 46.7602847,16 44,16 C43.4477153,16 43,15.5522847 43,15 C43,14.4477153 43.4477153,14 44,14 C45.6557153,14 47,12.6557153 47,11 Z" id="Stroke-957" fill-rule="nonzero"></path>
            <circle id="Oval-5" cx="13" cy="13" r="2"></circle>
        </g>
    </g>
</svg>
