<!-- Generated by IcoMoon.io -->
<svg version="1.1" xmlns="http://www.w3.org/2000/svg" style="fill:#fff" width="44" height="32" viewBox="0 0 44 32">
<path d="M37.276 13.985c-0.707-6.644-7.467-11.873-15.68-11.873-2.488 0-4.945 0.488-7.145 1.418-0.928-1.163-2.416-1.752-4.432-1.752h-2.66c-0.244 0-0.471 0.126-0.597 0.333s-0.134 0.463-0.020 0.676l2.326 4.362c0.024 0.046 0.001 0.097-0.027 0.126-0.876 0.954-1.586 1.998-2.108 3.105-0.315 0.661-0.921 1.073-1.581 1.073h-1.638c-1.067-0.001-1.936 0.856-1.936 1.91v3.543c0 1.054 0.869 1.911 1.936 1.911h1.639c0.661 0 1.267 0.412 1.581 1.075 0.839 1.779 2.178 3.413 3.868 4.726 0.461 0.36 0.737 0.942 0.737 1.555v3.363c0 0.38 0.312 0.688 0.697 0.688h4.223c0.385 0 0.697-0.308 0.697-0.688v-1.902c2.931 0.713 6.124 0.698 9.027-0.036v1.938c0 0.38 0.312 0.688 0.697 0.688h4.223c0.385 0 0.697-0.308 0.697-0.688v-3.476c0-0.603 0.269-1.179 0.718-1.538 3.045-2.419 4.746-5.665 4.816-9.159 0-0.951 0-0.931-0.058-1.375zM39.086 14.16c0.023 0.258 0.025 0.384 0.025 1.2-0.082 4.081-2.044 7.815-5.483 10.547-0.022 0.017-0.051 0.080-0.051 0.151v3.476c0 1.367-1.113 2.466-2.475 2.466h-4.223c-1.291 0-2.358-0.987-2.466-2.254-1.811 0.246-3.674 0.252-5.491 0.019-0.117 1.258-1.18 2.236-2.464 2.236h-4.223c-1.362 0-2.475-1.099-2.475-2.466v-3.363c0-0.073-0.029-0.135-0.049-0.151-1.907-1.481-3.425-3.334-4.385-5.37-0.016-0.034-0.553-0.053-1.612-0.057-2.044 0-3.714-1.648-3.714-3.689v-3.543c0-2.041 1.671-3.689 3.714-3.688h1.621c0.428-0.978 0.975-1.861 1.628-2.695l-1.789-3.356c-0.411-0.769-0.383-1.696 0.071-2.439 0.45-0.737 1.253-1.184 2.114-1.184h2.66c1.96 0 3.609 0.48 4.856 1.461 2.121-0.742 4.41-1.127 6.721-1.127 9.007 0 16.619 5.795 17.446 13.442 0.029 0.221 0.035 0.274 0.045 0.384zM18.933 29.534v-1.902l-2.198 1.727c0.717 0.174 1.449 0.309 2.187 0.404 0.007-0.076 0.011-0.152 0.011-0.23zM5.352 20.593h-0.021c0.006-0 0.013 0 0.021 0zM7.743 6.061c-0.004 0.004-0.008 0.009-0.012 0.013 0.004-0.004 0.008-0.009 0.012-0.013zM17.914 7.208c-0.468 0.149-0.968-0.11-1.116-0.578s0.11-0.968 0.578-1.117c3.391-1.079 6.78-0.991 10.067 0.328 0.456 0.183 0.677 0.7 0.494 1.156s-0.7 0.677-1.156 0.494c-2.897-1.163-5.862-1.239-8.866-0.284zM41.778 9.778c0-0.491 0.398-0.889 0.889-0.889s0.889 0.398 0.889 0.889c0 2.454-1.991 4.444-4.444 4.444-0.491 0-0.889-0.398-0.889-0.889s0.398-0.889 0.889-0.889c1.472 0 2.667-1.195 2.667-2.667zM13.333 11.556c0 0.982-0.796 1.778-1.778 1.778s-1.778-0.796-1.778-1.778c0-0.982 0.796-1.778 1.778-1.778s1.778 0.796 1.778 1.778z"></path>
</svg>
