<svg width="47px" height="41px" viewBox="0 0 47 41" version="1.1" xmlns="http://www.w3.org/2000/svg" xmlns:xlink="http://www.w3.org/1999/xlink">
    <g id="Homepage-–-Desktop" stroke="none" stroke-width="1" fill="none" fill-rule="evenodd" transform="translate(-96.000000, -6974.000000)">
        <g id="Value" transform="translate(0.000000, 6665.000000)" stroke-width="2">
            <g id="List" transform="translate(93.000000, 306.000000)">
                <g id="01" transform="translate(4.000000, 4.000000)">
                    <g id="Ett-icon">
                        <path d="M10.4999345,38 L11.5247154,24.9333333 L12.1897029,24.9333333 C13.2788826,24.9333333 14.1202668,23.9493333 13.9858693,22.8346667 L12.826691,13.2706667 C12.5998953,11.4026667 11.0599241,10 9.23435821,10 L7,10 L4.76564179,10 C2.94007594,10 1.40010474,11.4026667 1.17330899,13.2706667 L0.0141306693,22.8346667 C-0.120266817,23.9493333 0.721117445,24.9333333 1.81029707,24.9333333 L2.47528463,24.9333333 L3.50006547,38 L10.4999345,38 L10.4999345,38 Z" id="Stroke-105-Copy" stroke="#FCFCFC" stroke-linecap="round" stroke-linejoin="round"></path>
                        <path d="M10,3 C10,4.6572 8.6572,6 7,6 C5.3428,6 4,4.6572 4,3 C4,1.3428 5.3428,0 7,0 C8.6572,0 10,1.3428 10,3 L10,3 Z" id="Stroke-107-Copy" stroke="#FCFCFC" stroke-linecap="round" stroke-linejoin="round"></path>
                        <path d="M20,20 L32,20" id="Stroke-109-Copy" stroke="#FCFCFC" stroke-linecap="round" stroke-linejoin="round"></path>
                        <circle id="Oval-Copy" stroke="#FFFFFF" cx="41" cy="5" r="4"></circle>
                        <circle id="Oval-Copy-2" stroke="#FFFFFF" cx="41" cy="20" r="4"></circle>
                        <circle id="Oval-Copy-3" stroke="#FFFFFF" cx="41" cy="35" r="4"></circle>
                        <path d="M31,5 L28,5 C26.3428,5 25,6.49181818 25,8.33272727 L25,31.6672727 C25,33.5081818 26.3428,35 28,35 L31,35" id="Stroke-117-Copy" stroke="#FCFCFC" stroke-linecap="round" stroke-linejoin="round"></path>
                    </g>
                </g>
            </g>
        </g>
    </g>
</svg>
