<?xml version="1.0" encoding="UTF-8"?>
<svg width="47px" height="41px" viewBox="0 0 47 41" version="1.1" xmlns="http://www.w3.org/2000/svg" xmlns:xlink="http://www.w3.org/1999/xlink">
    <!-- Generator: Sketch 48.2 (47327) - http://www.bohemiancoding.com/sketch -->
    <title>icn-entry</title>
    <desc>Created with Sketch.</desc>
    <defs></defs>
    <g id="-icn-entry-path" stroke="none" stroke-width="1" fill="none" fill-rule="evenodd" transform="translate(-6.000000, -9.000000)">
        <g id="icn-entry" transform="translate(6.000000, 9.000000)" fill="#fff" fill-rule="nonzero">
            <path d="M12.4968732,39.078187 C12.4560626,39.5985507 12.0218961,40 11.4999345,40 L4.50006547,40 C3.97810395,40 3.54393737,39.5985507 3.50312676,39.078187 L2.54969663,26.9212913 C0.982743898,26.7756164 -0.173284062,25.3289797 0.0213957167,23.714345 L1.18059881,14.1501407 C1.46767544,11.7856382 3.42868213,10 5.76564179,10 L10.2343582,10 C12.5713179,10 14.5323246,11.7856382 14.819426,14.150345 L15.9786788,23.7149617 C16.1732879,25.3290117 15.0172563,26.7756181 13.4503034,26.9212914 L12.4968732,39.078187 Z M11.5277767,25.8551463 C11.5685873,25.3347827 12.0027538,24.9333333 12.5247154,24.9333333 L13.1897029,24.9333333 C13.6704507,24.9333333 14.0566693,24.4819361 13.9931344,23.9549884 L12.8339808,14.3911926 C12.6674098,13.0192323 11.5480781,12 10.2343582,12 L5.76564179,12 C4.4519219,12 3.33259025,13.0192323 3.16604394,14.3909884 L2.00694018,23.9543716 C1.94333072,24.4819361 2.32954927,24.9333333 2.81029707,24.9333333 L3.47528463,24.9333333 C3.99724615,24.9333333 4.43141273,25.3347827 4.47222334,25.8551463 L5.42470905,38 L10.5752909,38 L11.5277767,25.8551463 Z" id="Stroke-105-Copy"></path>
            <path d="M10,4 C10,2.89508475 9.10491525,2 8,2 C6.89508475,2 6,2.89508475 6,4 C6,5.10491525 6.89508475,6 8,6 C9.10491525,6 10,5.10491525 10,4 Z M12,4 C12,6.20948475 10.2094847,8 8,8 C5.79051525,8 4,6.20948475 4,4 C4,1.79051525 5.79051525,0 8,0 C10.2094847,0 12,1.79051525 12,4 Z" id="Stroke-107-Copy"></path>
            <path d="M21,22 C20.4477153,22 20,21.5522847 20,21 C20,20.4477153 20.4477153,20 21,20 L33,20 C33.5522847,20 34,20.4477153 34,21 C34,21.5522847 33.5522847,22 33,22 L21,22 Z" id="Stroke-109-Copy"></path>
            <path d="M42,11 C39.2385763,11 37,8.76142375 37,6 C37,3.23857625 39.2385763,1 42,1 C44.7614237,1 47,3.23857625 47,6 C47,8.76142375 44.7614237,11 42,11 Z M42,9 C43.6568542,9 45,7.65685425 45,6 C45,4.34314575 43.6568542,3 42,3 C40.3431458,3 39,4.34314575 39,6 C39,7.65685425 40.3431458,9 42,9 Z" id="Oval-Copy"></path>
            <path d="M42,26 C39.2385763,26 37,23.7614237 37,21 C37,18.2385763 39.2385763,16 42,16 C44.7614237,16 47,18.2385763 47,21 C47,23.7614237 44.7614237,26 42,26 Z M42,24 C43.6568542,24 45,22.6568542 45,21 C45,19.3431458 43.6568542,18 42,18 C40.3431458,18 39,19.3431458 39,21 C39,22.6568542 40.3431458,24 42,24 Z" id="Oval-Copy-2"></path>
            <path d="M42,41 C39.2385763,41 37,38.7614237 37,36 C37,33.2385763 39.2385763,31 42,31 C44.7614237,31 47,33.2385763 47,36 C47,38.7614237 44.7614237,41 42,41 Z M42,39 C43.6568542,39 45,37.6568542 45,36 C45,34.3431458 43.6568542,33 42,33 C40.3431458,33 39,34.3431458 39,36 C39,37.6568542 40.3431458,39 42,39 Z" id="Oval-Copy-3"></path>
            <path d="M32,5 C32.5522847,5 33,5.44771525 33,6 C33,6.55228475 32.5522847,7 32,7 L29,7 C27.9199373,7 27,8.02198568 27,9.33272727 L27,32.6672727 C27,33.9780143 27.9199373,35 29,35 L32,35 C32.5522847,35 33,35.4477153 33,36 C33,36.5522847 32.5522847,37 32,37 L29,37 C26.7657183,37 25,35.0384111 25,32.6672727 L25,9.33272727 C25,6.96158889 26.7657183,5 29,5 L32,5 Z" id="Stroke-117-Copy"></path>
        </g>
    </g>
</svg>
