<!-- Generated by IcoMoon.io -->
<svg version="1.1" xmlns="http://www.w3.org/2000/svg" width="43" height="32" viewBox="0 0 43 32">
<path style="fill:#fff;" d="M19.934 12.158v-1.703c0-0.57 0.462-1.032 1.032-1.032h21.357c0.833 0 1.323 0.936 0.848 1.621l-5.695 8.205c-0.168 0.242-0.432 0.401-0.725 0.436l-11.39 1.367c-1.055 0.126-1.908 0.839-2.116 1.749-1.191 5.2-6.075 9.198-11.532 9.198-6.593 0-11.905-5.247-11.706-11.637 0.192-6.112 5.681-10.94 12.153-10.94h3.112c0.57 0 1.032 0.462 1.032 1.032v1.703h3.631zM21.998 13.191c0 0.57-0.462 1.032-1.032 1.032h-5.695c-0.57 0-1.032-0.462-1.032-1.032v-1.703h-2.080c-5.399 0-9.934 3.989-10.089 8.94-0.162 5.203 4.195 9.508 9.642 9.508 4.484 0 8.541-3.322 9.52-7.595 0.411-1.79 1.991-3.111 3.883-3.338l10.93-1.312 4.306-6.203h-18.351v1.703zM11.895 4.029c0.404 0.402 0.407 1.055 0.005 1.46s-1.055 0.407-1.46 0.005l-2.815-2.797c-0.404-0.402-0.407-1.055-0.005-1.46s1.055-0.407 1.46-0.005l2.815 2.797zM18.581 5.228c0 0.57-0.462 1.032-1.032 1.032s-1.032-0.462-1.032-1.032v-4.196c0-0.57 0.462-1.032 1.032-1.032s1.032 0.462 1.032 1.032v4.196z"></path>
</svg>
