<?xml version="1.0" encoding="UTF-8"?>
<svg width="50px" height="36px" viewBox="0 0 50 36" version="1.1" xmlns="http://www.w3.org/2000/svg" xmlns:xlink="http://www.w3.org/1999/xlink">
    <!-- Generator: Sketch 48.2 (47327) - http://www.bohemiancoding.com/sketch -->
    <title>icn-performance</title>
    <desc>Created with Sketch.</desc>
    <defs></defs>
    <g id="icn-performance-path" stroke="none" stroke-width="1" fill="none" fill-rule="evenodd" transform="translate(-5.000000, -12.000000)">
        <g id="icn-performance" transform="translate(5.000000, 12.000000)" fill="#fff" fill-rule="nonzero">
            <path d="M26.875,25.2352941 C26.875,24.1303726 25.9795092,23.2352941 24.875,23.2352941 C23.7704908,23.2352941 22.875,24.1303726 22.875,25.2352941 C22.875,26.3390094 23.7712847,27.2352941 24.875,27.2352941 C25.9787153,27.2352941 26.875,26.3390094 26.875,25.2352941 Z M28.875,25.2352941 C28.875,27.4435789 27.0832847,29.2352941 24.875,29.2352941 C22.6667153,29.2352941 20.875,27.4435789 20.875,25.2352941 C20.875,23.0255969 22.6661274,21.2352941 24.875,21.2352941 C27.0838726,21.2352941 28.875,23.0255969 28.875,25.2352941 Z" id="Stroke-3082"></path>
            <path d="M6,27 C5.44771525,27 5,26.5522847 5,26 C5,25.4477153 5.44771525,25 6,25 L10,25 C10.5522847,25 11,25.4477153 11,26 C11,26.5522847 10.5522847,27 10,27 L6,27 Z" id="Stroke-3084"></path>
            <path d="M44,25 C44.5522847,25 45,25.4477153 45,26 C45,26.5522847 44.5522847,27 44,27 L40,27 C39.4477153,27 39,26.5522847 39,26 C39,25.4477153 39.4477153,25 40,25 L44,25 Z" id="Stroke-3085"></path>
            <path d="M42.7574644,17.0298575 C43.2932593,16.8959088 43.8361938,17.2216695 43.9701425,17.7574644 C44.1040912,18.2932593 43.7783305,18.8361938 43.2425356,18.9701425 L39.2425356,19.9701425 C38.7067407,20.1040912 38.1638062,19.7783305 38.0298575,19.2425356 C37.8959088,18.7067407 38.2216695,18.1638062 38.7574644,18.0298575 L42.7574644,17.0298575 Z" id="Stroke-3086"></path>
            <path d="M6.75746437,18.9701425 C6.22166947,18.8361938 5.89590877,18.2932593 6.0298575,17.7574644 C6.16380623,17.2216695 6.70674072,16.8959088 7.24253563,17.0298575 L11.2425356,18.0298575 C11.7783305,18.1638062 12.1040912,18.7067407 11.9701425,19.2425356 C11.8361938,19.7783305 11.2932593,20.1040912 10.7574644,19.9701425 L6.75746437,18.9701425 Z" id="Stroke-3091"></path>
            <path d="M10.2928932,11.7071068 C9.90236893,11.3165825 9.90236893,10.6834175 10.2928932,10.2928932 C10.6834175,9.90236893 11.3165825,9.90236893 11.7071068,10.2928932 L14.7071068,13.2928932 C15.0976311,13.6834175 15.0976311,14.3165825 14.7071068,14.7071068 C14.3165825,15.0976311 13.6834175,15.0976311 13.2928932,14.7071068 L10.2928932,11.7071068 Z" id="Stroke-3091-Copy"></path>
            <path d="M26.2928932,11.7071068 C25.9023689,11.3165825 25.9023689,10.6834175 26.2928932,10.2928932 C26.6834175,9.90236893 27.3165825,9.90236893 27.7071068,10.2928932 L39.7071068,22.2928932 C40.0976311,22.6834175 40.0976311,23.3165825 39.7071068,23.7071068 C39.3165825,24.0976311 38.6834175,24.0976311 38.2928932,23.7071068 L26.2928932,11.7071068 Z" id="Stroke-3091-Copy-5" transform="translate(33.000000, 17.000000) scale(-1, 1) translate(-33.000000, -17.000000) "></path>
            <path d="M16.1055728,7.4472136 C15.8585836,6.9532351 16.0588079,6.35256206 16.5527864,6.10557281 C17.0467649,5.85858356 17.6474379,6.05880791 17.8944272,6.5527864 L19.8944272,10.5527864 C20.1414164,11.0467649 19.9411921,11.6474379 19.4472136,11.8944272 C18.9532351,12.1414164 18.3525621,11.9411921 18.1055728,11.4472136 L16.1055728,7.4472136 Z" id="Stroke-3091-Copy-2"></path>
            <path d="M24,5 C24,4.44771525 24.4477153,4 25,4 C25.5522847,4 26,4.44771525 26,5 L26,10 C26,10.5522847 25.5522847,11 25,11 C24.4477153,11 24,10.5522847 24,10 L24,5 Z" id="Stroke-3091-Copy-4"></path>
            <path d="M30.1055728,7.4472136 C29.8585836,6.9532351 30.0588079,6.35256206 30.5527864,6.10557281 C31.0467649,5.85858356 31.6474379,6.05880791 31.8944272,6.5527864 L33.8944272,10.5527864 C34.1414164,11.0467649 33.9411921,11.6474379 33.4472136,11.8944272 C32.9532351,12.1414164 32.3525621,11.9411921 32.1055728,11.4472136 L30.1055728,7.4472136 Z" id="Stroke-3091-Copy-3" transform="translate(32.000000, 9.000000) scale(-1, 1) translate(-32.000000, -9.000000) "></path>
            <path d="M25,0 C38.8120094,0 50,11.3926226 50,25.4375 L50,35 C50,35.5522847 49.5522847,36 49,36 L1,36 C0.44771525,36 0,35.5522847 0,35 L0,25.4375 C0,11.3926226 11.1879906,0 25,0 Z M48,34 L48,25.4375 C48,12.4891595 37.6992447,2 25,2 C12.3007553,2 2,12.4891595 2,25.4375 L2,34 L48,34 Z" id="Stroke-3092"></path>
        </g>
    </g>
</svg>
