<!-- Generated by IcoMoon.io -->
<svg version="1.1" xmlns="http://www.w3.org/2000/svg" style="fill:#fff" width="44" height="32" viewBox="0 0 44 32">
<path d="M23.889 22.431c0-0.982-0.796-1.778-1.778-1.778s-1.778 0.796-1.778 1.778c0 0.981 0.797 1.778 1.778 1.778s1.778-0.797 1.778-1.778zM25.667 22.431c0 1.963-1.593 3.556-3.556 3.556s-3.556-1.593-3.556-3.556c0-1.964 1.592-3.556 3.556-3.556s3.556 1.591 3.556 3.556zM5.333 24c-0.491 0-0.889-0.398-0.889-0.889s0.398-0.889 0.889-0.889h3.556c0.491 0 0.889 0.398 0.889 0.889s-0.398 0.889-0.889 0.889h-3.556zM39.111 22.222c0.491 0 0.889 0.398 0.889 0.889s-0.398 0.889-0.889 0.889h-3.556c-0.491 0-0.889-0.398-0.889-0.889s0.398-0.889 0.889-0.889h3.556zM38.007 15.138c0.476-0.119 0.959 0.171 1.078 0.647s-0.17 0.959-0.647 1.078l-3.556 0.889c-0.476 0.119-0.959-0.171-1.078-0.647s0.17-0.959 0.647-1.078l3.556-0.889zM6.007 16.862c-0.476-0.119-0.766-0.602-0.647-1.078s0.602-0.766 1.078-0.647l3.556 0.889c0.476 0.119 0.766 0.602 0.647 1.078s-0.602 0.766-1.078 0.647l-3.556-0.889zM9.149 10.406c-0.347-0.347-0.347-0.91 0-1.257s0.91-0.347 1.257 0l2.667 2.667c0.347 0.347 0.347 0.91 0 1.257s-0.91 0.347-1.257 0l-2.667-2.667zM34.038 9.149c0.347-0.347 0.91-0.347 1.257 0s0.347 0.91 0 1.257l-10.667 10.667c-0.347 0.347-0.91 0.347-1.257 0s-0.347-0.91 0-1.257l10.667-10.667zM14.316 6.62c-0.22-0.439-0.042-0.973 0.398-1.193s0.973-0.042 1.193 0.398l1.778 3.556c0.22 0.439 0.042 0.973-0.398 1.193s-0.973 0.042-1.193-0.398l-1.778-3.556zM21.333 4.444c0-0.491 0.398-0.889 0.889-0.889s0.889 0.398 0.889 0.889v4.444c0 0.491-0.398 0.889-0.889 0.889s-0.889-0.398-0.889-0.889v-4.444zM28.571 5.826c0.226-0.436 0.763-0.606 1.198-0.379s0.606 0.763 0.379 1.198l-1.832 3.528c-0.226 0.436-0.763 0.606-1.198 0.379s-0.606-0.763-0.379-1.198l1.832-3.528zM22.222 0c12.277 0 22.222 10.127 22.222 22.611v8.5c0 0.491-0.398 0.889-0.889 0.889h-42.667c-0.491 0-0.889-0.398-0.889-0.889v-8.5c0-12.484 9.945-22.611 22.222-22.611zM42.667 30.222v-7.611c0-11.51-9.156-20.833-20.444-20.833s-20.444 9.324-20.444 20.833v7.611h40.889z"></path>
</svg>
