<!-- Generated by IcoMoon.io -->
<svg version="1.1" xmlns="http://www.w3.org/2000/svg" width="27" height="32" viewBox="0 0 27 32" style="fill:#fff">
<path d="M26.122 23.023c0-1.65-1.344-2.989-3.004-2.989s-3.004 1.338-3.004 2.989c0 1.65 1.344 2.989 3.004 2.989s3.004-1.338 3.004-2.989zM27.429 23.023c0 2.373-1.93 4.295-4.31 4.295s-4.31-1.922-4.31-4.295c0-2.373 1.93-4.295 4.31-4.295s4.31 1.922 4.31 4.295zM20.748 31.954c-0.429 0.171-0.895-0.145-0.895-0.607v-5.723c0-0.361 0.292-0.653 0.653-0.653s0.653 0.292 0.653 0.653v4.759l1.718-0.684c0.155-0.062 0.328-0.062 0.483 0l1.718 0.684v-4.759c0-0.361 0.292-0.653 0.653-0.653s0.653 0.292 0.653 0.653v5.723c0 0.462-0.466 0.778-0.895 0.607l-2.371-0.944-2.371 0.944zM16.718 28.093c0.361 0 0.653 0.292 0.653 0.653s-0.292 0.653-0.653 0.653h-16.065c-0.361 0-0.653-0.292-0.653-0.653v-19.769c0-0.174 0.069-0.34 0.192-0.463l8.359-8.324c0.122-0.122 0.288-0.19 0.461-0.19h14.629c0.361 0 0.653 0.292 0.653 0.653v14.954c0 0.361-0.292 0.653-0.653 0.653s-0.653-0.292-0.653-0.653v-14.301h-13.706l-7.976 7.942v18.845h15.412zM10.165 14.596c-1.188 1.183-1.188 3.101 0 4.284 1.19 1.185 3.12 1.185 4.31 0 0.409-0.407 0.675-1.214 1.063-3.042 0.018-0.084 0.085-0.403 0.1-0.475 0.040-0.188 0.072-0.339 0.104-0.484 0.295-1.345 0.585-2.332 0.975-3.098-2.683 0.287-5.148 1.418-6.552 2.815zM9.243 19.806c-1.701-1.694-1.701-4.441 0-6.135 1.874-1.866 5.266-3.266 8.781-3.266 0.583 0 0.874 0.705 0.461 1.116-0.644 0.641-1.046 1.713-1.468 3.638-0.031 0.142-0.063 0.29-0.102 0.475-0.015 0.072-0.082 0.39-0.1 0.476-0.449 2.12-0.75 3.030-1.419 3.696-1.699 1.692-4.454 1.692-6.153 0zM13.492 16.499c0.003-0.002 0.007-0.003 0.010-0.005-0.001 0.001-0.003 0.001-0.004 0.002l-0.006 0.003zM13.416 16.546c-0.105 0.069-0.245 0.177-0.403 0.311-0.371 0.315-0.786 0.728-1.166 1.171-0.95 1.107-1.528 2.209-1.528 3.047 0 0.361-0.292 0.653-0.653 0.653s-0.653-0.292-0.653-0.653c0-2.193 3.142-5.855 4.31-5.855 0.361 0 0.653 0.292 0.653 0.653s-0.292 0.653-0.653 0.653c0.089 0 0.135-0.012 0.17-0.027-0.011 0.006-0.039 0.023-0.076 0.047zM8.359 8.324v-7.671c0-0.361 0.292-0.653 0.653-0.653s0.653 0.292 0.653 0.653v8.324c0 0.361-0.292 0.653-0.653 0.653h-8.359c-0.361 0-0.653-0.292-0.653-0.653s0.292-0.653 0.653-0.653h7.706z"></path>
</svg>
