<?xml version="1.0" encoding="UTF-8"?>
<svg width="42px" height="49px" viewBox="0 0 42 49" version="1.1" xmlns="http://www.w3.org/2000/svg" xmlns:xlink="http://www.w3.org/1999/xlink">
    <!-- Generator: Sketch 48.2 (47327) - http://www.bohemiancoding.com/sketch -->
    <title>icn-certificate</title>
    <desc>Created with Sketch.</desc>
    <defs></defs>
    <g id="icn-certificate-path" stroke="none" stroke-width="1" fill="none" fill-rule="evenodd" transform="translate(-9.000000, -5.000000)">
        <g id="icn-certificate" transform="translate(9.000000, 5.000000)" fill="#fff" fill-rule="nonzero">
            <path d="M40,35.2542373 C40,32.7271426 37.9421036,30.6779661 35.4,30.6779661 C32.8578964,30.6779661 30.8,32.7271426 30.8,35.2542373 C30.8,37.781332 32.8578964,39.8305085 35.4,39.8305085 C37.9421036,39.8305085 40,37.781332 40,35.2542373 Z M42,35.2542373 C42,38.887807 39.0447764,41.8305085 35.4,41.8305085 C31.7552236,41.8305085 28.8,38.887807 28.8,35.2542373 C28.8,31.6206675 31.7552236,28.6779661 35.4,28.6779661 C39.0447764,28.6779661 42,31.6206675 42,35.2542373 Z" id="Stroke-1000"></path>
            <path d="M31.7700329,48.9290187 C31.1133651,49.1905728 30.4,48.7068402 30.4,48 L30.4,39.2372881 C30.4,38.6850034 30.8477153,38.2372881 31.4,38.2372881 C31.9522847,38.2372881 32.4,38.6850034 32.4,39.2372881 L32.4,46.5252903 L35.0299671,45.477761 C35.2675784,45.3831192 35.5324216,45.3831192 35.7700329,45.477761 L38.4,46.5252903 L38.4,39.2372881 C38.4,38.6850034 38.8477153,38.2372881 39.4,38.2372881 C39.9522847,38.2372881 40.4,38.6850034 40.4,39.2372881 L40.4,48 C40.4,48.7068402 39.6866349,49.1905728 39.0299671,48.9290187 L35.4,47.4831843 L31.7700329,48.9290187 Z" id="Stroke-1002"></path>
            <path d="M25.6,43.0169492 C26.1522847,43.0169492 26.6,43.4646644 26.6,44.0169492 C26.6,44.5692339 26.1522847,45.0169492 25.6,45.0169492 L1,45.0169492 C0.44771525,45.0169492 0,44.5692339 0,44.0169492 L0,13.7457627 C0,13.4798104 0.105940589,13.2248132 0.294396097,13.0371562 L13.0943961,0.291393528 C13.2818089,0.104774806 13.5355191,0 13.8,0 L36.2,0 C36.7522847,0 37.2,0.44771525 37.2,1 L37.2,23.8983051 C37.2,24.4505898 36.7522847,24.8983051 36.2,24.8983051 C35.6477153,24.8983051 35.2,24.4505898 35.2,23.8983051 L35.2,2 L14.2129704,2 L2,14.1612205 L2,43.0169492 L25.6,43.0169492 Z" id="Stroke-1004"></path>
            <path d="M15.5645816,22.3506777 C13.7451395,24.1625497 13.7451395,27.098687 15.5645816,28.910559 C17.3863312,30.7247289 20.3419383,30.7247289 22.1636879,28.910559 C22.7900199,28.286833 23.1975562,27.0522776 23.791048,24.2527122 C23.8184098,24.1236438 23.9212158,23.636332 23.944842,23.5247947 C24.005958,23.236272 24.0553632,23.0059894 24.1041966,22.7831275 C24.5553772,20.7240672 25.0007321,19.2123068 25.5968754,18.039966 C21.4889531,18.4788769 17.7135184,20.210682 15.5645816,22.3506777 Z M14.1533193,30.3277177 C11.5488936,27.7341282 11.5488936,23.5271086 14.1533193,20.9335191 C17.0229412,18.0758367 22.2170547,15.9322034 27.6,15.9322034 C28.4920013,15.9322034 28.9376699,17.011611 28.3054975,17.6409158 C27.3196721,18.6222694 26.7037008,20.2637113 26.0578458,23.2112104 C26.0101593,23.4288379 25.9616618,23.6548895 25.9014284,23.9392459 C25.8780415,24.0496533 25.7751903,24.5371791 25.7475667,24.667483 C25.0595197,27.9130752 24.599101,29.3078281 23.5749502,30.3277177 C20.972832,32.9190094 16.7554375,32.9190094 14.1533193,30.3277177 Z" id="Stroke-486"></path>
            <path d="M20.6598444,25.2633544 C20.6651206,25.2610344 20.6702295,25.258665 20.6752194,25.2562594 C20.6732146,25.2572259 20.6710438,25.2583074 20.6687118,25.2595024 L20.6598444,25.2633544 Z M20.5430963,25.335851 C20.3823591,25.4420519 20.1678993,25.606638 19.9260647,25.8119728 C19.3585473,26.2938353 18.7220217,26.9273474 18.1401772,27.6056187 C16.6856056,29.3012508 15.8,30.9887776 15.8,32.2711864 C15.8,32.8234712 15.3522847,33.2711864 14.8,33.2711864 C14.2477153,33.2711864 13.8,32.8234712 13.8,32.2711864 C13.8,28.9127536 18.6104514,23.3050847 20.4,23.3050847 C20.9522847,23.3050847 21.4,23.7528 21.4,24.3050847 C21.4,24.8573695 20.9522847,25.3050847 20.4,25.3050847 C20.5365692,25.3050847 20.6066976,25.2867234 20.6598444,25.2633544 C20.6435501,25.2723964 20.5996305,25.2984983 20.5430963,25.335851 Z" id="Stroke-487"></path>
            <path d="M12.8,12.7457627 L12.8,1 C12.8,0.44771525 13.2477153,0 13.8,0 C14.3522847,0 14.8,0.44771525 14.8,1 L14.8,13.7457627 C14.8,14.2980475 14.3522847,14.7457627 13.8,14.7457627 L1,14.7457627 C0.44771525,14.7457627 0,14.2980475 0,13.7457627 C0,13.193478 0.44771525,12.7457627 1,12.7457627 L12.8,12.7457627 Z" id="Stroke-1006"></path>
        </g>
    </g>
</svg>
