<?xml version="1.0" encoding="UTF-8"?>
<svg width="270px" height="79px" viewBox="0 0 270 79" version="1.1" xmlns="http://www.w3.org/2000/svg" xmlns:xlink="http://www.w3.org/1999/xlink">
    <!-- Generator: Sketch 48.1 (47250) - http://www.bohemiancoding.com/sketch -->
    <title>frontier-logo</title>
    <desc>Created with Sketch.</desc>
    <defs></defs>
    <g id="Homepage" stroke="none" stroke-width="1" fill="none" fill-rule="evenodd" transform="translate(-80.000000, -40.000000)">
        <g id="frontier-logo" transform="translate(80.000000, 40.000000)" fill-rule="nonzero">
            <g id="Group" transform="translate(100.509079, 40.225352)" fill="#192A67">
                <path d="M0.237423021,3.86478873 L0.237423021,0.709859155 L4.43189638,0.709859155 L4.43189638,3.86478873 L0.237423021,3.86478873 Z M0.237423021,19.2450704 L0.237423021,5.36338028 L4.43189638,5.36338028 L4.43189638,19.2450704 L0.237423021,19.2450704 Z" id="Shape"></path>
                <path d="M16.1447654,19.2450704 L16.1447654,11.6732394 C16.1447654,10.0957746 15.8282014,8.83380282 13.9288172,8.83380282 C12.029433,8.83380282 11.554587,10.0957746 11.554587,11.7521127 L11.554587,19.3239437 L7.36011364,19.3239437 L7.36011364,5.44225352 L11.238023,5.44225352 L11.238023,6.94084507 L11.317164,6.94084507 C12.1877151,5.52112676 13.4539712,4.96901408 15.1159323,4.96901408 C16.3030474,4.96901408 17.8067265,5.44225352 18.6772776,6.15211268 C20.0226747,7.25633803 20.2600978,8.9915493 20.2600978,10.6478873 L20.2600978,19.3239437 L16.1447654,19.3239437 L16.1447654,19.2450704 Z" id="Shape"></path>
                <path d="M27.7784934,8.51830986 L27.7784934,19.2450704 L23.58402,19.2450704 L23.58402,8.51830986 L22.0011999,8.51830986 L22.0011999,5.36338028 L23.58402,5.36338028 L23.58402,4.65352113 C23.58402,1.26197183 25.9582502,0.394366197 28.8864675,0.394366197 L29.5195956,0.394366197 L29.5195956,3.54929577 C28.0159164,3.54929577 27.7784934,3.86478873 27.7784934,5.36338028 L29.5195956,5.36338028 L29.5195956,8.51830986 L27.7784934,8.51830986 Z" id="Shape"></path>
                <path d="M35.6925941,11.5943662 L35.6925941,19.2450704 L31.4981207,19.2450704 L31.4981207,5.36338028 L35.3760301,5.36338028 L35.3760301,6.86197183 L35.4551711,6.86197183 C36.1674401,5.44225352 37.3545552,4.89014085 38.9373754,4.89014085 L38.9373754,9.07042254 C37.1171322,9.07042254 35.6925941,9.46478873 35.6925941,11.5943662 Z" id="Shape"></path>
                <path d="M51.1250904,19.2450704 L51.1250904,17.7464789 L51.0459494,17.7464789 C50.2545393,19.1661972 48.5134372,19.7183099 47.0097581,19.7183099 C42.7361437,19.7183099 40.0453495,16.4056338 40.0453495,12.3042254 C40.0453495,8.28169014 42.8152847,4.89014085 47.0097581,4.89014085 C48.5134372,4.89014085 50.2545393,5.44225352 51.0459494,6.86197183 L51.1250904,6.86197183 L51.1250904,5.36338028 L55.3195638,5.36338028 L55.3195638,19.2450704 L51.1250904,19.2450704 Z M47.6428861,8.75492958 C45.5852199,8.75492958 44.2398228,10.3323944 44.2398228,12.3042254 C44.2398228,14.1971831 45.743502,15.7746479 47.7220271,15.7746479 C49.7796933,15.7746479 51.2042314,14.1971831 51.2042314,12.2253521 C51.1250904,10.2535211 49.7005523,8.75492958 47.6428861,8.75492958 Z" id="Shape"></path>
                <path d="M63.3128055,19.7183099 C60.3845882,19.7183099 58.010358,18.1408451 57.614653,15.143662 L61.7299853,15.143662 C61.8882674,16.0112676 62.5213954,16.4056338 63.3128055,16.4056338 C63.9459335,16.4056338 64.7373436,16.0901408 64.7373436,15.3014085 C64.7373436,14.2760563 63.6293695,14.0394366 62.8379594,13.7239437 C62.2048314,13.4873239 61.6508443,13.3295775 61.0177163,13.0929577 C59.3557551,12.4619718 57.693794,11.4366197 57.693794,9.46478873 C57.693794,6.54647887 60.3845882,4.89014085 63.0753825,4.89014085 C65.8453177,4.89014085 68.1404069,6.30985915 68.3778299,9.22816901 L64.2624976,9.22816901 C64.2624976,8.43943662 63.7085105,8.2028169 62.9962414,8.2028169 C62.4422544,8.2028169 61.8091263,8.51830986 61.8091263,9.14929577 C61.8091263,11.3577465 68.7735349,10.0957746 68.7735349,14.9859155 C68.931817,18.0619718 66.1618817,19.7183099 63.3128055,19.7183099 Z" id="Shape"></path>
                <polygon id="Shape" points="76.1336486 8.51830986 76.1336486 19.2450704 72.0183162 19.2450704 72.0183162 8.51830986 69.96065 8.51830986 69.96065 5.36338028 72.0183162 5.36338028 72.0183162 0.709859155 76.2127896 0.709859155 76.2127896 5.36338028 78.1913148 5.36338028 78.1913148 8.51830986"></polygon>
                <path d="M84.2851723,11.5943662 L84.2851723,19.2450704 L80.0906989,19.2450704 L80.0906989,5.36338028 L83.9686083,5.36338028 L83.9686083,6.86197183 L84.0477493,6.86197183 C84.7600183,5.44225352 85.9471334,4.89014085 87.5299536,4.89014085 L87.5299536,9.07042254 C85.7097104,9.07042254 84.2851723,9.46478873 84.2851723,11.5943662 Z" id="Shape"></path>
                <path d="M98.2139895,19.2450704 L98.2139895,17.7464789 L98.1348485,17.7464789 C97.4225794,19.2450704 96.0771823,19.6394366 94.4943622,19.6394366 C92.990683,19.6394366 91.4078629,19.0873239 90.3790298,17.9042254 C89.2710557,16.484507 89.1127737,15.3802817 89.1127737,13.6450704 L89.1127737,5.36338028 L93.3072471,5.36338028 L93.3072471,13.0140845 C93.3072471,14.5915493 93.6238111,15.7746479 95.5231953,15.7746479 C97.2642974,15.7746479 97.8974255,14.5126761 97.8974255,12.9352113 L97.8974255,5.28450704 L102.091899,5.28450704 L102.091899,19.1661972 L98.2139895,19.1661972 L98.2139895,19.2450704 Z" id="Shape"></path>
                <path d="M111.905384,19.6394366 C107.71091,19.6394366 104.466129,16.4056338 104.466129,12.2253521 C104.466129,8.12394366 107.71091,4.89014085 111.826243,4.89014085 C115.387588,4.89014085 118.474087,7.17746479 119.186356,10.7267606 L114.991883,10.7267606 C114.358755,9.46478873 113.329922,8.75492958 111.905384,8.75492958 C109.926859,8.75492958 108.660602,10.4112676 108.660602,12.3042254 C108.660602,14.2760563 109.926859,15.8535211 111.984525,15.8535211 C113.329922,15.8535211 114.358755,15.2225352 114.991883,14.0394366 L119.265497,14.0394366 C118.394946,17.3521127 115.387588,19.6394366 111.905384,19.6394366 Z" id="Shape"></path>
                <polygon id="Shape" points="126.388188 8.51830986 126.388188 19.2450704 122.193715 19.2450704 122.193715 8.51830986 120.136048 8.51830986 120.136048 5.36338028 122.193715 5.36338028 122.193715 0.709859155 126.388188 0.709859155 126.388188 5.36338028 128.366713 5.36338028 128.366713 8.51830986"></polygon>
                <path d="M139.209031,19.2450704 L139.209031,17.7464789 L139.12989,17.7464789 C138.417621,19.2450704 137.072224,19.6394366 135.489404,19.6394366 C133.985725,19.6394366 132.402904,19.0873239 131.374071,17.9042254 C130.266097,16.484507 130.107815,15.3802817 130.107815,13.6450704 L130.107815,5.36338028 L134.302289,5.36338028 L134.302289,13.0140845 C134.302289,14.5915493 134.618853,15.7746479 136.518237,15.7746479 C138.259339,15.7746479 138.892467,14.5126761 138.892467,12.9352113 L138.892467,5.28450704 L143.08694,5.28450704 L143.08694,19.1661972 L139.209031,19.1661972 L139.209031,19.2450704 Z" id="Shape"></path>
                <path d="M150.367913,11.5943662 L150.367913,19.2450704 L146.17344,19.2450704 L146.17344,5.36338028 L150.051349,5.36338028 L150.051349,6.86197183 L150.13049,6.86197183 C150.842759,5.44225352 152.029874,4.89014085 153.612694,4.89014085 L153.612694,9.07042254 C151.871592,9.07042254 150.367913,9.46478873 150.367913,11.5943662 Z" id="Shape"></path>
                <path d="M169.203473,13.5661972 L158.75686,13.5661972 C158.994283,15.2225352 160.418821,16.1690141 162.001641,16.1690141 C163.109615,16.1690141 163.821884,15.6957746 164.534153,14.9070423 L168.807768,14.9070423 C167.620652,17.6676056 165.167281,19.7183099 162.001641,19.7183099 C157.96545,19.7183099 154.641527,16.4056338 154.641527,12.3830986 C154.641527,8.36056338 157.886309,4.96901408 161.9225,4.96901408 C166.196114,4.96901408 169.282614,8.36056338 169.282614,12.5408451 C169.282614,12.7774648 169.282614,13.171831 169.203473,13.5661972 Z M162.001641,8.36056338 C160.497962,8.36056338 159.152565,9.22816901 158.836001,10.7267606 L165.167281,10.7267606 C164.771576,9.22816901 163.50532,8.36056338 162.001641,8.36056338 Z" id="Shape"></path>
            </g>
            <g id="Group" transform="translate(0.791410, 33.126761)" fill="#192A67">
                <path d="M57.614653,15.8535211 C55.0029998,15.8535211 52.2330645,15.4591549 49.3048473,14.5126761 C53.6576026,17.5887324 58.7226271,18.9295775 64.4999206,18.5352113 C70.4354961,18.1408451 75.4213795,15.8535211 77.2416227,14.9859155 C77.7956097,12.6197183 78.1121738,10.1746479 78.1913148,7.72957746 C75.9753666,9.62253521 72.7305853,11.8309859 68.852676,13.5661972 C65.6870357,14.7492958 61.8882674,15.8535211 57.614653,15.8535211 Z" id="Shape"></path>
                <path d="M62.5213954,22.8732394 C55.2404228,22.8732394 45.901784,20.2704225 38.6208113,9.54366197 L12.8208431,35.1774648 C20.0226747,41.6450704 29.2030315,45.115493 38.9373754,45.115493 C39.7287854,45.115493 40.5201955,45.115493 41.3116056,45.0366197 C56.8232429,44.0901408 70.0397911,34.3887324 75.5005205,20.2704225 C72.7305853,21.2957746 69.010958,22.4 64.7373436,22.715493 C64.0250745,22.8732394 63.3128055,22.8732394 62.5213954,22.8732394 Z" id="Shape"></path>
                <path d="M3.56134531,22.8732394 C5.14416544,26.2647887 7.28097263,29.4197183 9.81348485,32.1802817 L34.980325,7.09859155 C14.5619453,1.34084507 5.38158847,18.771831 3.56134531,22.8732394 Z" id="Shape"></path>
                <path d="M8.38894673,8.9915493 C12.4251381,5.36338028 18.4398546,1.73521127 26.5122373,1.57746479 C21.3680718,0.0788732394 16.1447654,0.473239437 10.8423179,2.76056338 C5.38158847,5.12676056 1.42453812,8.83380282 0,10.3323944 C0.237423021,12.7774648 0.791410068,15.2225352 1.50367913,17.5098592 C2.92821725,15.0647887 5.22330645,11.9098592 8.38894673,8.9915493 Z" id="Shape"></path>
            </g>
            <g id="Group" fill="#E63331">
                <g transform="translate(98.926259, 13.408451)" id="Shape">
                    <path d="M6.09385753,8.83380282 L6.09385753,19.5605634 L1.89938416,19.5605634 L1.89938416,8.83380282 L0.316564027,8.83380282 L0.316564027,5.67887324 L1.89938416,5.67887324 L1.89938416,4.96901408 C1.89938416,1.57746479 4.27361437,0.709859155 7.20183162,0.709859155 L7.83495968,0.709859155 L7.83495968,3.86478873 C6.33128055,3.86478873 6.09385753,4.18028169 6.09385753,5.67887324 L7.83495968,5.67887324 L7.83495968,8.83380282 L6.09385753,8.83380282 Z"></path>
                    <path d="M14.0079582,11.9887324 L14.0079582,19.6394366 L9.81348485,19.6394366 L9.81348485,5.67887324 L13.6913942,5.67887324 L13.6913942,7.17746479 L13.7705352,7.17746479 C14.4828043,5.75774648 15.6699194,5.2056338 17.2527395,5.2056338 L17.2527395,9.38591549 C15.5116373,9.46478873 14.0079582,9.78028169 14.0079582,11.9887324 Z"></path>
                    <path d="M25.8791092,20.0338028 C21.6054949,20.0338028 18.3607136,16.8788732 18.3607136,12.6985915 C18.3607136,8.51830986 21.6054949,5.36338028 25.8791092,5.36338028 C30.1527236,5.36338028 33.3975049,8.51830986 33.3975049,12.6985915 C33.3975049,16.8788732 30.1527236,20.0338028 25.8791092,20.0338028 Z M25.8791092,9.14929577 C23.9797251,9.14929577 22.555187,10.8056338 22.555187,12.6197183 C22.555187,14.4338028 23.9797251,16.0901408 25.8791092,16.0901408 C27.7784934,16.0901408 29.2030315,14.4338028 29.2030315,12.6197183 C29.2030315,10.8056338 27.7784934,9.14929577 25.8791092,9.14929577 Z"></path>
                    <path d="M44.3981048,19.5605634 L44.3981048,11.9887324 C44.3981048,10.4112676 44.0815408,9.14929577 42.1821566,9.14929577 C40.2827725,9.14929577 39.8079264,10.4112676 39.8079264,12.0676056 L39.8079264,19.6394366 L35.6134531,19.6394366 L35.6134531,5.67887324 L39.4913624,5.67887324 L39.4913624,7.17746479 L39.5705034,7.17746479 C40.4410545,5.75774648 41.7073106,5.2056338 43.3692717,5.2056338 C44.5563869,5.2056338 46.060066,5.67887324 46.9306171,6.38873239 C48.2760142,7.49295775 48.5134372,9.22816901 48.5134372,10.884507 L48.5134372,19.5605634 L44.3981048,19.5605634 Z"></path>
                    <polygon points="56.4275379 8.83380282 56.4275379 19.5605634 52.2330645 19.5605634 52.2330645 8.83380282 50.1753983 8.83380282 50.1753983 5.67887324 52.2330645 5.67887324 52.2330645 1.02535211 56.4275379 1.02535211 56.4275379 5.67887324 58.406063 5.67887324 58.406063 8.83380282"></polygon>
                    <path d="M60.4637292,4.25915493 L60.4637292,1.10422535 L64.6582026,1.10422535 L64.6582026,4.25915493 L60.4637292,4.25915493 Z M60.4637292,19.5605634 L60.4637292,5.67887324 L64.6582026,5.67887324 L64.6582026,19.5605634 L60.4637292,19.5605634 Z"></path>
                    <path d="M81.436096,13.8816901 L70.9894831,13.8816901 C71.2269062,15.5380282 72.6514443,16.484507 74.2342644,16.484507 C75.3422385,16.484507 76.0545076,16.0112676 76.7667766,15.2225352 L81.040391,15.2225352 C79.8532759,17.9830986 77.3999047,20.0338028 74.2342644,20.0338028 C70.1980731,20.0338028 66.8741508,16.7211268 66.8741508,12.6985915 C66.8741508,8.67605634 70.1189321,5.28450704 74.1551234,5.28450704 C78.4287378,5.28450704 81.515237,8.67605634 81.515237,12.856338 C81.515237,13.171831 81.515237,13.5661972 81.436096,13.8816901 Z M74.2342644,8.75492958 C72.7305853,8.75492958 71.3851882,9.62253521 71.0686241,11.1211268 L77.3999047,11.1211268 C77.0833407,9.62253521 75.7379435,8.75492958 74.2342644,8.75492958 Z"></path>
                    <path d="M88.0047996,11.9887324 L88.0047996,19.6394366 L83.8103262,19.6394366 L83.8103262,5.67887324 L87.6882356,5.67887324 L87.6882356,7.17746479 L87.7673766,7.17746479 C88.4796457,5.75774648 89.6667608,5.2056338 91.2495809,5.2056338 L91.2495809,9.38591549 C89.4293377,9.46478873 88.0047996,9.78028169 88.0047996,11.9887324 Z"></path>
                </g>
                <path d="M70.3563551,36.4394366 C66.3201637,40.0676056 60.3845882,43.6957746 52.2330645,43.8535211 C57.37723,45.3521127 62.6005364,44.9577465 67.9029839,42.6704225 C73.3637133,40.3042254 77.3207637,36.5971831 78.7453018,35.0985915 C78.5078788,32.6535211 77.9538917,30.2084507 77.2416227,27.9211268 C75.8170846,30.3661972 73.5219954,33.6 70.3563551,36.4394366 Z" id="Shape"></path>
                <path d="M75.2630975,22.5577465 C73.6802774,19.1661972 71.5434702,16.0112676 69.010958,13.2507042 L43.7649768,38.3323944 C64.1833565,44.0901408 73.3637133,26.6591549 75.2630975,22.5577465 Z" id="Shape"></path>
                <path d="M40.1244905,35.8873239 L65.9244587,10.2535211 C58.7226271,3.78591549 49.5422703,0.315492958 39.8079264,0.315492958 C39.0165164,0.315492958 38.2251063,0.315492958 37.4336962,0.394366197 C21.9220589,1.18309859 8.70551075,10.9633803 3.24478128,25.0816901 C6.01471652,24.056338 9.73434384,22.9521127 14.0079582,22.6366197 C21.5263539,22.084507 32.0521078,24.056338 40.1244905,35.8873239 Z" id="Shape"></path>
                <path d="M29.4404545,30.9183099 C17.9650086,22.9521127 4.90674242,28.7887324 1.58282014,30.5239437 C1.02883309,32.8901408 0.712269062,35.3352113 0.633128055,37.7802817 C2.84907625,35.8873239 6.09385753,33.6788732 9.97176686,31.943662 C14.8785093,29.8140845 21.7637769,28.3943662 29.4404545,30.9183099 Z" id="Shape"></path>
            </g>
        </g>
    </g>
</svg>