<!-- Generated by IcoMoon.io -->
<svg version="1.1" xmlns="http://www.w3.org/2000/svg" width="36" height="32" viewBox="0 0 36 32">
<title>LinkedIn</title>
<path d="M35.556 32h-7.858v-11.249c0-2.944-1.229-4.955-3.932-4.955-2.068 0-3.217 1.356-3.752 2.664-0.201 0.469-0.169 1.123-0.169 1.777v11.764h-7.785c0 0 0.1-19.927 0-21.738h7.785v3.412c0.46-1.492 2.948-3.621 6.918-3.621 4.925 0 8.795 3.127 8.795 9.86v12.087zM4.185 7.543h-0.050c-2.509 0-4.135-1.662-4.135-3.768 0-2.147 1.675-3.774 4.233-3.774 2.557 0 4.129 1.623 4.179 3.768 0 2.106-1.622 3.774-4.227 3.774v0 0zM0.897 10.262h6.93v21.738h-6.93v-21.738z"></path>
</svg>
