<?xml version="1.0" encoding="UTF-8"?>
<svg width="200px" height="59px" viewBox="0 0 200 59" version="1.1" xmlns="http://www.w3.org/2000/svg" xmlns:xlink="http://www.w3.org/1999/xlink">
    <!-- Generator: Sketch 48.1 (47250) - http://www.bohemiancoding.com/sketch -->
    <title>Page 1 Copy</title>
    <desc>Created with Sketch.</desc>
    <defs></defs>
    <g id="Homepage" stroke="none" stroke-width="1" fill="none" fill-rule="evenodd" transform="translate(-190.000000, -8621.000000)">
        <g id="Group" transform="translate(0.000000, 8561.000000)" fill="#FFFFFF">
            <g id="Page-1-Copy" transform="translate(190.000000, 60.000000)">
                <path d="M78.5954785,12.0351174 L78.5954785,9.69325708 L77.2971287,9.69325708 C77.2971287,8.54091314 77.4826073,8.31787883 78.5954785,8.31787883 L78.5954785,5.99460475 L78.15033,5.99460475 C75.9987789,5.99460475 74.2181848,6.64512149 74.2181848,9.1542575 L74.2181848,9.69325708 L73.0682178,9.69325708 L73.0682178,12.0351174 L74.2181848,12.0351174 L74.2181848,20.008594 L77.2971287,20.008594 L77.2971287,12.0351174 L78.5954785,12.0351174 Z M85.6445281,12.4440136 L85.6445281,9.34011942 C84.4574653,9.34011942 83.604264,9.73042947 83.0663762,10.7898424 L83.0292805,10.7898424 L83.0292805,9.69325708 L80.1358152,9.69325708 L80.1358152,20.008594 L83.2147591,20.008594 L83.2147591,14.3398052 C83.2147591,12.7413927 84.2905347,12.481186 85.6445281,12.4440136 Z M97.4177162,14.8416324 C97.4177162,18.0012852 95.0250429,20.3245593 91.8719076,20.3245593 C88.7187723,20.3245593 86.326099,18.0012852 86.326099,14.8416324 C86.326099,11.6819797 88.7187723,9.35870562 91.8719076,9.35870562 C95.0250429,9.35870562 97.4177162,11.6819797 97.4177162,14.8416324 Z M94.3387723,14.8416324 C94.3387723,13.447668 93.3000924,12.2395655 91.8719076,12.2395655 C90.4437228,12.2395655 89.4050429,13.447668 89.4050429,14.8416324 C89.4050429,16.2355969 90.4437228,17.4436994 91.8719076,17.4436994 C93.3000924,17.4436994 94.3387723,16.2355969 94.3387723,14.8416324 Z M108.745756,20.008594 L108.745756,13.5591852 C108.745756,12.3510826 108.541729,11.0500491 107.558693,10.2322567 C106.89097,9.67467089 105.796647,9.34011942 104.924898,9.34011942 C103.682191,9.34011942 102.773347,9.73042947 102.124172,10.7898424 L102.087076,10.7898424 L102.087076,9.69325708 L99.2121584,9.69325708 L99.2121584,20.008594 L102.291102,20.008594 L102.291102,14.3955638 C102.291102,13.1688751 102.624964,12.2395655 104.053149,12.2395655 C105.444238,12.2395655 105.666812,13.2246337 105.666812,14.3769776 L105.666812,20.008594 L108.745756,20.008594 Z M116.108264,12.0351174 L116.108264,9.69325708 L114.624436,9.69325708 L114.624436,6.25481145 L111.545492,6.25481145 L111.545492,9.69325708 L110.024568,9.69325708 L110.024568,12.0351174 L111.545492,12.0351174 L111.545492,20.008594 L114.624436,20.008594 L114.624436,12.0351174 L116.108264,12.0351174 Z M120.72569,8.59667172 L120.72569,6.25481145 L117.646746,6.25481145 L117.646746,8.59667172 L120.72569,8.59667172 Z M120.72569,20.008594 L120.72569,9.69325708 L117.646746,9.69325708 L117.646746,20.008594 L120.72569,20.008594 Z M133.311274,14.9717358 C133.311274,15.2505287 133.292726,15.5107354 133.237083,15.7895283 L125.521175,15.7895283 C125.706653,17.016217 126.726785,17.7410785 127.932396,17.7410785 C128.76705,17.7410785 129.304937,17.406527 129.805729,16.7745965 L132.958865,16.7745965 C132.068568,18.8376639 130.250878,20.3431455 127.932396,20.3431455 C124.927644,20.3431455 122.479327,17.889768 122.479327,14.8788048 C122.479327,11.8864278 124.853452,9.34011942 127.876752,9.34011942 C131.029888,9.34011942 133.311274,11.8678416 133.311274,14.9717358 Z M130.23233,13.7078747 C129.991208,12.5927031 129.008172,11.9421864 127.8953,11.9421864 C126.782429,11.9421864 125.799393,12.5927031 125.558271,13.7078747 L130.23233,13.7078747 Z M140.551366,12.4440136 L140.551366,9.34011942 C139.364304,9.34011942 138.511102,9.73042947 137.973215,10.7898424 L137.936119,10.7898424 L137.936119,9.69325708 L135.042653,9.69325708 L135.042653,20.008594 L138.121597,20.008594 L138.121597,14.3398052 C138.121597,12.7413927 139.197373,12.481186 140.551366,12.4440136 Z" id="frontier"></path>
                <path d="M77.1858416,28.2794497 L77.1858416,25.9375895 L74.1068977,25.9375895 L74.1068977,28.2794497 L77.1858416,28.2794497 Z M77.1858416,39.691372 L77.1858416,29.3760351 L74.1068977,29.3760351 L74.1068977,39.691372 L77.1858416,39.691372 Z M88.9455116,39.691372 L88.9455116,33.2419632 C88.9455116,32.0338606 88.7414851,30.7328272 87.7584488,29.9150347 C87.0907261,29.3574489 85.9964026,29.0228974 85.1246535,29.0228974 C83.8819472,29.0228974 82.9731023,29.4132075 82.3239274,30.4726205 L82.2868317,30.4726205 L82.2868317,29.3760351 L79.4119142,29.3760351 L79.4119142,39.691372 L82.4908581,39.691372 L82.4908581,34.0783418 C82.4908581,32.8516531 82.8247195,31.9223435 84.2529043,31.9223435 C85.6439934,31.9223435 85.8665677,32.9074117 85.8665677,34.0597556 L85.8665677,39.691372 L88.9455116,39.691372 Z M95.7603234,31.7178954 L95.7603234,29.3760351 L94.4619736,29.3760351 C94.4619736,28.2236911 94.6474521,28.0006568 95.7603234,28.0006568 L95.7603234,25.6773828 L95.3151749,25.6773828 C93.1636238,25.6773828 91.3830297,26.3278995 91.3830297,28.8370355 L91.3830297,29.3760351 L90.2330627,29.3760351 L90.2330627,31.7178954 L91.3830297,31.7178954 L91.3830297,39.691372 L94.4619736,39.691372 L94.4619736,31.7178954 L95.7603234,31.7178954 Z M102.736502,32.1267916 L102.736502,29.0228974 C101.549439,29.0228974 100.696238,29.4132075 100.15835,30.4726205 L100.121254,30.4726205 L100.121254,29.3760351 L97.2277888,29.3760351 L97.2277888,39.691372 L100.306733,39.691372 L100.306733,34.0225833 C100.306733,32.4241707 101.382508,32.163964 102.736502,32.1267916 Z M114.644554,39.691372 L111.565611,39.691372 L111.565611,38.5762004 L111.528515,38.5762004 C110.972079,39.6356134 109.636634,40.0445097 108.523762,40.0445097 C105.352079,40.0445097 103.348911,37.5911322 103.348911,34.5244105 C103.348911,31.5134472 105.426271,29.0228974 108.523762,29.0228974 C109.655182,29.0228974 110.916436,29.4503799 111.528515,30.4726205 L111.565611,30.4726205 L111.565611,29.3760351 L114.644554,29.3760351 L114.644554,39.691372 Z M111.565611,34.5244105 C111.565611,33.0189288 110.471287,31.9037573 108.968911,31.9037573 C107.466535,31.9037573 106.427855,33.0932736 106.427855,34.5615828 C106.427855,35.9927197 107.540726,37.1636498 108.987459,37.1636498 C110.489835,37.1636498 111.565611,36.0113059 111.565611,34.5244105 Z M124.736772,36.5317193 C124.736772,32.8888255 119.561921,33.7995489 119.561921,32.1825502 C119.561921,31.7178954 120.025617,31.4948611 120.43367,31.4948611 C120.971558,31.4948611 121.379611,31.6993092 121.398158,32.2754811 L124.421459,32.2754811 C124.217432,30.0823104 122.529578,29.0228974 120.470766,29.0228974 C118.486145,29.0228974 116.482977,30.2681723 116.482977,32.4241707 C116.482977,33.8738937 117.707135,34.6731 118.931294,35.1191686 C119.376442,35.2864444 119.821591,35.4351339 120.266739,35.5838234 C120.823175,35.8068577 121.657828,36.0298921 121.657828,36.7733398 C121.657828,37.3123393 121.045749,37.572546 120.582053,37.572546 C119.969974,37.572546 119.506277,37.2565808 119.413538,36.6246502 L116.353142,36.6246502 C116.594264,38.8921657 118.393406,40.0445097 120.544957,40.0445097 C122.640865,40.0445097 124.736772,38.8549933 124.736772,36.5317193 Z M131.518198,31.7178954 L131.518198,29.3760351 L130.03437,29.3760351 L130.03437,25.9375895 L126.955426,25.9375895 L126.955426,29.3760351 L125.434502,29.3760351 L125.434502,31.7178954 L126.955426,31.7178954 L126.955426,39.691372 L130.03437,39.691372 L130.03437,31.7178954 L131.518198,31.7178954 Z M138.455426,32.1267916 L138.455426,29.0228974 C137.268363,29.0228974 136.415162,29.4132075 135.877274,30.4726205 L135.840178,30.4726205 L135.840178,29.3760351 L132.946713,29.3760351 L132.946713,39.691372 L136.025657,39.691372 L136.025657,34.0225833 C136.025657,32.4241707 137.101432,32.163964 138.455426,32.1267916 Z M149.603017,39.691372 L149.603017,29.3760351 L146.524073,29.3760351 L146.524073,35.0448238 C146.524073,36.2343402 146.041828,37.1450636 144.762026,37.1450636 C143.370937,37.1450636 143.111267,36.2529264 143.111267,35.0819962 L143.111267,29.3760351 L140.032323,29.3760351 L140.032323,35.546651 C140.032323,36.8290983 140.125063,37.6840632 140.959716,38.72489 C141.70163,39.6356134 142.851597,40.0259235 143.983017,40.0259235 C145.132983,40.0259235 146.11602,39.7099582 146.653908,38.5947866 L146.691003,38.5947866 L146.691003,39.691372 L149.603017,39.691372 Z M162.223307,35.7696854 L159.088719,35.7696854 C158.625023,36.6618226 157.883109,37.1450636 156.862977,37.1450636 C155.360601,37.1450636 154.41466,35.9741335 154.41466,34.5244105 C154.41466,33.130446 155.304957,31.9037573 156.788785,31.9037573 C157.846013,31.9037573 158.643571,32.3869983 159.088719,33.3534803 L162.204759,33.3534803 C161.666871,30.7328272 159.385485,29.0228974 156.75169,29.0228974 C153.691294,29.0228974 151.317168,31.4576887 151.317168,34.5058243 C151.317168,37.5911322 153.746937,40.0259235 156.825881,40.0259235 C159.422581,40.0259235 161.629776,38.2974076 162.223307,35.7696854 Z M169.001023,31.7178954 L169.001023,29.3760351 L167.517195,29.3760351 L167.517195,25.9375895 L164.438251,25.9375895 L164.438251,29.3760351 L162.917327,29.3760351 L162.917327,31.7178954 L164.438251,31.7178954 L164.438251,39.691372 L167.517195,39.691372 L167.517195,31.7178954 L169.001023,31.7178954 Z M179.909347,39.691372 L179.909347,29.3760351 L176.830403,29.3760351 L176.830403,35.0448238 C176.830403,36.2343402 176.348158,37.1450636 175.068356,37.1450636 C173.677267,37.1450636 173.417597,36.2529264 173.417597,35.0819962 L173.417597,29.3760351 L170.338653,29.3760351 L170.338653,35.546651 C170.338653,36.8290983 170.431393,37.6840632 171.266046,38.72489 C172.00796,39.6356134 173.157927,40.0259235 174.289347,40.0259235 C175.439314,40.0259235 176.42235,39.7099582 176.960238,38.5947866 L176.997333,38.5947866 L176.997333,39.691372 L179.909347,39.691372 Z M187.675663,32.1267916 L187.675663,29.0228974 C186.488601,29.0228974 185.635399,29.4132075 185.097512,30.4726205 L185.060416,30.4726205 L185.060416,29.3760351 L182.16695,29.3760351 L182.16695,39.691372 L185.245894,39.691372 L185.245894,34.0225833 C185.245894,32.4241707 186.32167,32.163964 187.675663,32.1267916 Z M199.060667,34.6545138 C199.060667,34.9333067 199.042119,35.1935134 198.986475,35.4723063 L191.270568,35.4723063 C191.456046,36.698995 192.476178,37.4238565 193.681789,37.4238565 C194.516442,37.4238565 195.05433,37.089305 195.555122,36.4573745 L198.708257,36.4573745 C197.81796,38.5204419 196.000271,40.0259235 193.681789,40.0259235 C190.677036,40.0259235 188.228719,37.572546 188.228719,34.5615828 C188.228719,31.5692058 190.602845,29.0228974 193.626145,29.0228974 C196.779281,29.0228974 199.060667,31.5506196 199.060667,34.6545138 Z M195.981723,33.3906527 C195.740601,32.2754811 194.757564,31.6249644 193.644693,31.6249644 C192.531822,31.6249644 191.548785,32.2754811 191.307663,33.3906527 L195.981723,33.3906527 Z" id="infrastructure"></path>
                <g id="Group-17" transform="translate(0.000000, 0.247375)">
                    <path d="M42.7612211,36.3530384 C40.8354785,36.3530384 38.779703,36.0676313 36.6308581,35.3694915 C39.8632013,37.6421662 43.6176568,38.638611 47.8641914,38.3340223 C52.2830033,38.0181893 55.9255776,36.3642828 57.2853135,35.6691195 C57.6948845,33.8948326 57.9341584,32.0868127 58.0028053,30.2619264 C56.3424092,31.6588673 53.9886139,33.3329475 51.0975248,34.5757751 C48.7892739,35.5682513 45.9536304,36.3530384 42.7612211,36.3530384" id="Fill-1"></path>
                    <path d="M46.4392739,41.5934518 C41.0234323,41.5934518 34.150165,39.6498388 28.7237624,31.6911782 L9.64191419,50.7939479 C14.9732673,55.5836957 21.7749175,58.2056056 28.9689769,58.2056056 C29.550495,58.2056056 30.140264,58.1884084 30.7227723,58.1533526 C42.1910891,57.4704258 51.9765677,50.2151964 56.0458746,39.7206118 C54.0181518,40.497131 51.2389439,41.3090368 48.0920792,41.5339231 C47.559736,41.5719554 47.0072607,41.5934518 46.4392739,41.5934518" id="Fill-3"></path>
                    <path d="M51.6542244,27.0184043 C48.6793069,29.7375444 44.2482838,32.393518 38.2453135,32.516544 C42.0449835,33.6022819 45.919571,33.3102604 49.8334323,31.6279124 C53.8984488,29.8804134 56.7948185,27.1268789 57.8548845,26.0203059 C57.6581848,24.1967425 57.2981188,22.4049277 56.7694059,20.664043 C55.6588449,22.5305994 53.9819472,24.8905829 51.6542244,27.0184043" id="Fill-5"></path>
                    <path d="M55.2386469,16.7152046 C54.040297,14.1832493 52.4950825,11.852038 50.6254455,9.76456387 L31.9647195,28.4460025 C47.0518482,32.7400083 53.8660396,19.7700207 55.2386469,16.7152046" id="Fill-7"></path>
                    <path d="M29.280132,26.5972385 L48.3606601,7.49513022 C43.029637,2.7057131 36.2289769,0.0834725093 29.0359076,0.0834725093 C28.4550495,0.0834725093 27.8652805,0.101000413 27.2831023,0.135725506 C15.8134653,0.818983051 6.02666667,8.07355105 1.9570297,18.5678049 C3.98442244,17.7916164 6.7639604,16.9790492 9.91082508,16.7541629 C15.519736,16.3533361 23.2831023,17.8045143 29.280132,26.5972385" id="Fill-9"></path>
                    <path d="M2.7640264,41.5737412 C3.9620462,44.1060273 5.50726073,46.4369078 7.37722772,48.5247127 L26.0382838,29.8422819 C10.9524752,25.5505912 4.1369637,38.5192559 2.7640264,41.5737412" id="Fill-11"></path>
                    <path d="M6.3489769,31.2708723 C9.32488449,28.55074 13.7582178,25.8944357 19.7638284,25.7727325 C15.9618482,24.6846796 12.0856106,24.9763704 8.16976898,26.6600413 C4.10409241,28.4075403 1.20772277,31.162067 0.147986799,32.2686399 C0.344356436,34.0925341 0.704422442,35.8843489 1.23346535,37.6252336 C2.3440264,35.7583464 4.02092409,33.3986937 6.3489769,31.2708723" id="Fill-13"></path>
                    <path d="M21.3361386,22.9104589 C12.8674917,16.995618 3.19059406,21.3279868 0.718646865,22.6141381 C0.308415842,24.3900785 0.0688118812,26.2000827 0.000165016502,28.0269533 C1.66023102,26.6296817 4.01435644,24.9552708 6.90544554,23.7121124 C10.5985149,22.1243489 15.640429,21.0723439 21.3361386,22.9104589" id="Fill-15"></path>
                </g>
            </g>
        </g>
    </g>
</svg>