<svg width="268px" height="80px" viewBox="0 0 268 80" version="1.1" xmlns="http://www.w3.org/2000/svg" xmlns:xlink="http://www.w3.org/1999/xlink">
    <g id="Header-/-Desktop-1440" stroke="none" stroke-width="1" fill="none" fill-rule="evenodd" transform="translate(-80.000000, -40.000000)">
        <g fill-rule="nonzero" id="frontier-infrastructure-logo">
            <g transform="translate(80.000000, 40.000000)">
                <g id="Group" transform="translate(101.049180, 41.318681)" fill="#192A67">
                    <path d="M0.219672131,3.47252747 L0.219672131,0.351648352 L4.30557377,0.351648352 L4.30557377,3.47252747 L0.219672131,3.47252747 Z M0.219672131,18.6373626 L0.219672131,4.92307692 L4.30557377,4.92307692 L4.30557377,18.6373626 L0.219672131,18.6373626 Z" id="Shape"></path>
                    <path d="M15.9042623,18.6373626 L15.9042623,11.1648352 C15.9042623,9.62637363 15.5967213,8.30769231 13.7514754,8.30769231 C11.8622951,8.30769231 11.4229508,9.53846154 11.4229508,11.1648352 L11.4229508,18.6373626 L7.33704918,18.6373626 L7.33704918,4.92307692 L11.1593443,4.92307692 L11.1593443,6.37362637 L11.2032787,6.37362637 C12.0819672,4.96703297 13.2681967,4.43956044 14.9377049,4.43956044 C16.08,4.43956044 17.5737705,4.87912088 18.452459,5.62637363 C19.7704918,6.72527473 20.0340984,8.43956044 20.0340984,10.0659341 L20.0340984,18.6373626 L15.9042623,18.6373626 Z" id="Shape"></path>
                    <path d="M27.3711475,8.04395604 L27.3711475,18.6373626 L23.2852459,18.6373626 L23.2852459,8.04395604 L21.747541,8.04395604 L21.747541,4.92307692 L23.2852459,4.92307692 L23.2852459,4.21978022 C23.2852459,0.879120879 25.6577049,2.84217094e-14 28.5134426,2.84217094e-14 L29.0845902,2.84217094e-14 L29.0845902,3.07692308 C27.5908197,3.07692308 27.3711475,3.38461538 27.3711475,4.92307692 L29.0845902,4.92307692 L29.0845902,8.04395604 L27.3711475,8.04395604 Z" id="Shape"></path>
                    <path d="M35.1914754,11.1208791 L35.1914754,18.6373626 L31.1055738,18.6373626 L31.1055738,4.92307692 L34.9718033,4.92307692 L34.9718033,6.37362637 L35.0157377,6.37362637 C35.7186885,4.96703297 36.8609836,4.43956044 38.442623,4.43956044 L38.442623,8.57142857 C36.597377,8.61538462 35.1914754,8.96703297 35.1914754,11.1208791 Z" id="Shape"></path>
                    <path d="M50.3927869,18.6373626 L50.3927869,17.1428571 L50.3488525,17.1428571 C49.6019672,18.5494505 47.8445902,19.0769231 46.3508197,19.0769231 C42.1331148,19.0769231 39.4531148,15.8241758 39.4531148,11.7362637 C39.4531148,7.73626374 42.2209836,4.43956044 46.3508197,4.43956044 C47.8445902,4.43956044 49.5140984,5.01098901 50.3488525,6.37362637 L50.3927869,6.37362637 L50.3927869,4.92307692 L54.4786885,4.92307692 L54.4786885,18.6373626 L50.3927869,18.6373626 Z M46.9219672,8.30769231 C44.9009836,8.30769231 43.5390164,9.89010989 43.5390164,11.8241758 C43.5390164,13.7142857 45.0327869,15.2967033 46.9659016,15.2967033 C48.9868852,15.2967033 50.3927869,13.7582418 50.3927869,11.7802198 C50.3927869,9.75824176 48.9429508,8.30769231 46.9219672,8.30769231 Z" id="Shape"></path>
                    <path d="M62.3868852,19.1208791 C59.5311475,19.1208791 57.1147541,17.5824176 56.8072131,14.5934066 L60.8931148,14.5934066 C61.024918,15.4285714 61.64,15.8681319 62.4308197,15.8681319 C63.0459016,15.8681319 63.8806557,15.5164835 63.8806557,14.8131868 C63.8806557,13.8461538 62.7822951,13.5384615 62.0354098,13.2307692 C61.4642623,13.0549451 60.8491803,12.8351648 60.2780328,12.6153846 C58.652459,12.043956 57.0268852,10.9450549 57.0268852,9.05494505 C57.0268852,6.1978022 59.7068852,4.52747253 62.3429508,4.52747253 C65.0668852,4.52747253 67.3514754,5.93406593 67.615082,8.83516484 L63.5731148,8.83516484 C63.5291803,8.08791209 63.0019672,7.78021978 62.2990164,7.78021978 C61.7718033,7.78021978 61.1567213,8.08791209 61.1567213,8.7032967 C61.1567213,10.8571429 68.0544262,9.62637363 68.0544262,14.5054945 C67.9665574,17.5384615 65.1547541,19.1208791 62.3868852,19.1208791 Z" id="Shape"></path>
                    <polygon id="Shape" points="75.04 8.04395604 75.04 18.6373626 70.9540984 18.6373626 70.9540984 8.04395604 68.9331148 8.04395604 68.9331148 4.92307692 70.9540984 4.92307692 70.9540984 0.351648352 75.04 0.351648352 75.04 4.92307692 77.0170492 4.92307692 77.0170492 8.04395604"></polygon>
                    <path d="M83.0360656,11.1208791 L83.0360656,18.6373626 L78.9501639,18.6373626 L78.9501639,4.92307692 L82.8163934,4.92307692 L82.8163934,6.37362637 L82.8603279,6.37362637 C83.5632787,4.96703297 84.7055738,4.43956044 86.2872131,4.43956044 L86.2872131,8.57142857 C84.4859016,8.61538462 83.0360656,8.96703297 83.0360656,11.1208791 Z" id="Shape"></path>
                    <path d="M96.7436066,18.6373626 L96.7436066,17.1868132 L96.6996721,17.1868132 C95.9967213,18.6813187 94.6786885,19.0769231 93.1409836,19.0769231 C91.6472131,19.0769231 90.1095082,18.5494505 89.0990164,17.3626374 C88.0006557,16 87.8688525,14.8571429 87.8688525,13.1428571 L87.8688525,4.92307692 L91.9547541,4.92307692 L91.9547541,12.5274725 C91.9547541,14.0659341 92.3062295,15.2527473 94.1514754,15.2527473 C95.864918,15.2527473 96.48,14.021978 96.48,12.4835165 L96.48,4.96703297 L100.565902,4.96703297 L100.565902,18.6813187 L96.7436066,18.6813187 L96.7436066,18.6373626 Z" id="Shape"></path>
                    <path d="M110.27541,19.0769231 C106.189508,19.0769231 102.938361,15.8241758 102.938361,11.7362637 C102.938361,7.69230769 106.101639,4.43956044 110.187541,4.43956044 C113.702295,4.43956044 116.73377,6.72527473 117.436721,10.1978022 L113.306885,10.1978022 C112.735738,8.92307692 111.637377,8.26373626 110.231475,8.26373626 C108.254426,8.26373626 107.068197,9.89010989 107.068197,11.7362637 C107.068197,13.6703297 108.342295,15.2087912 110.319344,15.2087912 C111.681311,15.2087912 112.647869,14.5494505 113.262951,13.3626374 L117.436721,13.3626374 C116.645902,16.7912088 113.74623,19.0769231 110.27541,19.0769231 Z" id="Shape"></path>
                    <polygon id="Shape" points="124.510164 8.04395604 124.510164 18.6373626 120.424262 18.6373626 120.424262 8.04395604 118.403279 8.04395604 118.403279 4.92307692 120.424262 4.92307692 120.424262 0.351648352 124.510164 0.351648352 124.510164 4.92307692 126.487213 4.92307692 126.487213 8.04395604"></polygon>
                    <path d="M137.163279,18.6373626 L137.163279,17.1868132 L137.119344,17.1868132 C136.416393,18.6813187 135.098361,19.0769231 133.560656,19.0769231 C132.066885,19.0769231 130.52918,18.5494505 129.518689,17.3626374 C128.420328,16 128.288525,14.8571429 128.288525,13.1428571 L128.288525,4.92307692 L132.374426,4.92307692 L132.374426,12.5274725 C132.374426,14.0659341 132.725902,15.2527473 134.571148,15.2527473 C136.28459,15.2527473 136.899672,14.021978 136.899672,12.4835165 L136.899672,4.96703297 L140.985574,4.96703297 L140.985574,18.6813187 L137.163279,18.6813187 L137.163279,18.6373626 Z" id="Shape"></path>
                    <path d="M148.19082,11.1208791 L148.19082,18.6373626 L144.104918,18.6373626 L144.104918,4.92307692 L147.971148,4.92307692 L147.971148,6.37362637 L148.015082,6.37362637 C148.718033,4.96703297 149.860328,4.43956044 151.441967,4.43956044 L151.441967,8.57142857 C149.596721,8.61538462 148.19082,8.96703297 148.19082,11.1208791 Z" id="Shape"></path>
                    <path d="M166.687213,13.0549451 L156.406557,13.0549451 C156.670164,14.6813187 158.032131,15.6483516 159.61377,15.6483516 C160.712131,15.6483516 161.459016,15.2087912 162.118033,14.3736264 L166.335738,14.3736264 C165.149508,17.0989011 162.733115,19.1208791 159.657705,19.1208791 C155.659672,19.1208791 152.408525,15.8681319 152.408525,11.8681319 C152.408525,7.91208791 155.571803,4.52747253 159.61377,4.52747253 C163.831475,4.52747253 166.862951,7.86813187 166.862951,12 C166.775082,12.3076923 166.775082,12.6593407 166.687213,13.0549451 Z M159.569836,7.91208791 C158.076066,7.91208791 156.758033,8.79120879 156.450492,10.2417582 L162.68918,10.2417582 C162.381639,8.79120879 161.063607,7.91208791 159.569836,7.91208791 Z" id="Shape"></path>
                </g>
                <g id="Group" transform="translate(99.731148, 14.945055)" fill="#E63331">
                    <path d="M5.79934426,8.26373626 L5.79934426,18.8571429 L1.71344262,18.8571429 L1.71344262,8.26373626 L0.175737705,8.26373626 L0.175737705,5.14285714 L1.71344262,5.14285714 L1.71344262,4.43956044 C1.71344262,1.0989011 4.08590164,0.21978022 6.94163934,0.21978022 L7.51278689,0.21978022 L7.51278689,3.2967033 C6.01901639,3.2967033 5.79934426,3.6043956 5.79934426,5.14285714 L7.51278689,5.14285714 L7.51278689,8.26373626 L5.79934426,8.26373626 Z" id="Shape"></path>
                    <path d="M13.5757377,11.2967033 L13.5757377,18.8131868 L9.48983607,18.8131868 L9.48983607,5.14285714 L13.3560656,5.14285714 L13.3560656,6.59340659 L13.4,6.59340659 C14.1029508,5.18681319 15.2452459,4.65934066 16.8268852,4.65934066 L16.8268852,8.79120879 C15.0255738,8.83516484 13.5757377,9.18681319 13.5757377,11.2967033 Z" id="Shape"></path>
                    <path d="M25.2183607,19.2527473 C21.0006557,19.2527473 17.837377,16.1758242 17.837377,11.956044 C17.837377,7.73626374 21.0006557,4.65934066 25.2183607,4.65934066 C29.4360656,4.65934066 32.5993443,7.73626374 32.5993443,11.956044 C32.5993443,16.1758242 29.4360656,19.2527473 25.2183607,19.2527473 Z M25.2183607,8.52747253 C23.3291803,8.52747253 21.9232787,10.1538462 21.9232787,12 C21.9232787,13.8461538 23.2852459,15.4725275 25.2183607,15.4725275 C27.1514754,15.4725275 28.5134426,13.8461538 28.5134426,12 C28.5134426,10.1538462 27.1514754,8.52747253 25.2183607,8.52747253 Z" id="Shape"></path>
                    <path d="M43.5390164,18.8571429 L43.5390164,11.3846154 C43.5390164,9.84615385 43.2314754,8.52747253 41.3862295,8.52747253 C39.4970492,8.52747253 39.0577049,9.75824176 39.0577049,11.3846154 L39.0577049,18.8571429 L34.9718033,18.8571429 L34.9718033,5.14285714 L38.7940984,5.14285714 L38.7940984,6.59340659 L38.8380328,6.59340659 C39.7167213,5.18681319 40.9029508,4.65934066 42.572459,4.65934066 C43.7147541,4.65934066 45.2085246,5.0989011 46.0872131,5.84615385 C47.4052459,6.94505495 47.6688525,8.65934066 47.6688525,10.2857143 L47.6688525,18.8571429 L43.5390164,18.8571429 Z" id="Shape"></path>
                    <polygon id="Shape" points="55.4013115 8.26373626 55.4013115 18.8571429 51.3154098 18.8571429 51.3154098 8.26373626 49.2944262 8.26373626 49.2944262 5.14285714 51.3154098 5.14285714 51.3154098 0.571428571 55.4013115 0.571428571 55.4013115 5.14285714 57.3783607 5.14285714 57.3783607 8.26373626"></polygon>
                    <path d="M59.3114754,3.69230769 L59.3114754,0.571428571 L63.397377,0.571428571 L63.397377,3.69230769 L59.3114754,3.69230769 Z M59.3114754,18.8571429 L59.3114754,5.14285714 L63.397377,5.14285714 L63.397377,18.8571429 L59.3114754,18.8571429 Z" id="Shape"></path>
                    <path d="M80.0045902,13.2307692 L69.7239344,13.2307692 C69.987541,14.8571429 71.3495082,15.8241758 72.9311475,15.8241758 C74.0295082,15.8241758 74.7763934,15.3846154 75.4354098,14.5494505 L79.6531148,14.5494505 C78.4668852,17.2747253 76.0504918,19.2967033 72.975082,19.2967033 C68.9770492,19.2967033 65.7259016,16.043956 65.7259016,12.043956 C65.7259016,8.08791209 68.8891803,4.7032967 72.9311475,4.7032967 C77.1488525,4.7032967 80.1803279,8.04395604 80.1803279,12.1758242 C80.092459,12.5274725 80.092459,12.8791209 80.0045902,13.2307692 Z M72.8872131,8.13186813 C71.3934426,8.13186813 70.0754098,9.01098901 69.7678689,10.4615385 L76.0065574,10.4615385 C75.6990164,9.01098901 74.3809836,8.13186813 72.8872131,8.13186813 Z" id="Shape"></path>
                    <path d="M86.4190164,11.2967033 L86.4190164,18.8131868 L82.3331148,18.8131868 L82.3331148,5.14285714 L86.1993443,5.14285714 L86.1993443,6.59340659 L86.2432787,6.59340659 C86.9462295,5.18681319 88.0885246,4.65934066 89.6701639,4.65934066 L89.6701639,8.79120879 C87.8688525,8.83516484 86.4190164,9.18681319 86.4190164,11.2967033 Z" id="Shape"></path>
                </g>
                <g id="Group">
                    <g transform="translate(0.000000, 34.285714)" fill="#192A67" id="Shape">
                        <path d="M58.9160656,15.6483516 C56.28,15.6483516 53.4242623,15.2527473 50.4806557,14.2857143 C54.9180328,17.4065934 60.1022951,18.7692308 65.9016393,18.3736264 C71.9645902,17.9340659 76.9731148,15.6923077 78.8622951,14.7252747 C79.4334426,12.3076923 79.7409836,9.8021978 79.8288525,7.2967033 C77.5442623,9.23076923 74.2931148,11.5164835 70.3390164,13.2307692 C67.2196721,14.5494505 63.3095082,15.6483516 58.9160656,15.6483516 Z"></path>
                        <path d="M63.9685246,22.8131868 C56.5436066,22.8131868 47.0977049,20.1318681 39.6288525,9.23076923 L13.4,35.4285714 C20.7370492,41.978022 30.0511475,45.5824176 39.9803279,45.5824176 C40.7711475,45.5824176 41.6059016,45.5384615 42.3967213,45.4945055 C58.1691803,44.5714286 71.6131148,34.5934066 77.1927869,20.2197802 C74.424918,21.2747253 70.602623,22.4175824 66.2531148,22.7252747 C65.5062295,22.8131868 64.7593443,22.8131868 63.9685246,22.8131868 Z"></path>
                        <path d="M3.95409836,22.8131868 C5.57967213,26.2857143 7.73245902,29.4945055 10.2806557,32.3516484 L35.9383607,6.72527473 C15.2013115,0.791208791 5.84327869,18.5934066 3.95409836,22.8131868 Z"></path>
                        <path d="M8.8747541,8.65934066 C12.9606557,4.92307692 19.067541,1.27472527 27.3272131,1.0989011 C22.0990164,-0.395604396 16.7829508,-4.4408921e-15 11.3790164,2.32967033 C5.79934426,4.74725275 1.80131148,8.52747253 0.35147541,10.021978 C0.615081967,12.5274725 1.09836066,14.989011 1.8452459,17.3626374 C3.38295082,14.8131868 5.66754098,11.5604396 8.8747541,8.65934066 Z"></path>
                    </g>
                    <path d="M71.1298361,37.0989011 C67.0439344,40.8351648 60.9370492,44.4835165 52.7213115,44.6593407 C57.9495082,46.1538462 63.2655738,45.7582418 68.6255738,43.4285714 C74.2052459,41.010989 78.2032787,37.2747253 79.6531148,35.7362637 C79.3895082,33.2307692 78.9062295,30.7692308 78.1593443,28.3956044 C76.6216393,30.9450549 74.3370492,34.1978022 71.1298361,37.0989011 Z" id="Shape" fill="#E63331"></path>
                    <path d="M76.0504918,22.989011 C74.424918,19.5164835 72.2721311,16.3076923 69.7239344,13.4505495 L44.0662295,39.0769231 C64.8032787,44.967033 74.1613115,27.1648352 76.0504918,22.989011 Z" id="Shape" fill="#E63331"></path>
                    <path d="M40.3757377,36.5274725 L66.6045902,10.3296703 C59.267541,3.78021978 49.9534426,0.175824176 40.0681967,0.175824176 C39.277377,0.175824176 38.442623,0.21978022 37.6518033,0.263736264 C21.8793443,1.18681319 8.43540984,11.1648352 2.8557377,25.5384615 C5.62360656,24.4835165 9.44590164,23.3406593 13.7954098,23.032967 C21.4839344,22.4615385 32.16,24.4835165 40.3757377,36.5274725 Z" id="Shape" fill="#E63331"></path>
                    <path d="M29.48,31.4725275 C17.837377,23.3406593 4.5252459,29.3186813 1.14229508,31.0769231 C0.571147541,33.4945055 0.263606557,36 0.175737705,38.5054945 C2.46032787,36.5714286 5.71147541,34.2857143 9.66557377,32.5714286 C14.7180328,30.4175824 21.6596721,28.967033 29.48,31.4725275 Z" id="Shape" fill="#E63331"></path>
                </g>
            </g>
        </g>
    </g>
</svg>
