<svg xmlns="http://www.w3.org/2000/svg" width="32" height="32" viewBox="0 0 32 32" fill="#fff"><path d="M16 32C7.163 32 0 24.837 0 16S7.163 0 16 0s16 7.163 16 16-7.163 16-16 16zm0-1.333c8.1 0 14.667-6.567 14.667-14.667S24.101 1.333 16 1.333C7.9 1.333 1.333 7.899 1.333 16S7.899 30.667 16 30.667zm-6.041-12v-1.4H7.682c1.549-1.083 2.231-1.895 2.231-2.856 0-1.241-1.055-2.063-2.52-2.063-.868 0-1.857.308-2.52 1.036l.887 1.064c.448-.42.971-.681 1.661-.681.457 0 .859.224.859.644 0 .625-.504 1.055-3.201 3.005v1.251H9.96zm5.17 0h-1.615v-1.139h-2.977v-1.251l2.361-3.836h2.231v3.677h.756v1.409h-.756v1.139zm-1.614-2.548v-2.277l-1.419 2.277h1.419zM18.378 20l2.956-9.333H20.29L17.334 20zm6.483-1.333l2.193-5.115v-1.111h-4.881v1.4h3.033l-2.109 4.825z"/></svg>