<svg width="53" height="48" viewBox="0 0 53 48" xmlns="http://www.w3.org/2000/svg"><g fill="#fff"><path d="M21.419 38.837c.593.455.75 1.272.374 1.944l-2.044 3.44a1.51 1.51 0 0 1-1.863.66l-2.065-.806a8.942 8.942 0 0 1-.96.546l-.307 2.086A1.496 1.496 0 0 1 13.059 48H8.946c-.748 0-1.397-.541-1.493-1.274l-.31-2.104a8.567 8.567 0 0 1-.963-.546l-2.092.817c-.678.24-1.467-.021-1.82-.652l-2.069-3.48a1.495 1.495 0 0 1 .39-1.926l1.723-1.311a7.192 7.192 0 0 1 0-1.048L.586 35.163a1.481 1.481 0 0 1-.374-1.943l2.043-3.44a1.51 1.51 0 0 1 1.863-.661l2.066.807a8.92 8.92 0 0 1 .958-.546l.309-2.09A1.497 1.497 0 0 1 8.946 26h4.113c.749 0 1.399.542 1.492 1.274l.31 2.104c.332.16.653.342.964.546l2.092-.817c.679-.24 1.466.022 1.82.652l2.07 3.484a1.498 1.498 0 0 1-.392 1.923l-1.722 1.31a7.123 7.123 0 0 1 0 1.048l1.726 1.313zm-3.384-.061a1 1 0 0 1-.386-.924c.043-.335.064-.595.064-.852s-.02-.517-.064-.852a1 1 0 0 1 .386-.924l1.807-1.374-1.615-2.717-2.173.849a1 1 0 0 1-.963-.131 6.542 6.542 0 0 0-1.508-.852 1 1 0 0 1-.62-.783L12.638 28h-3.27l-.326 2.216a1 1 0 0 1-.62.783c-.51.204-1.01.49-1.517.86a1 1 0 0 1-.954.123l-2.172-.849-1.615 2.717 1.806 1.374a1 1 0 0 1 .386.922 6.75 6.75 0 0 0-.063.854c0 .25.021.521.063.854a1 1 0 0 1-.386.922L2.163 40.15l1.614 2.718 2.173-.85a1 1 0 0 1 .963.131c.476.356.976.64 1.51.853a1 1 0 0 1 .618.782L9.367 46h3.27l.327-2.216a1 1 0 0 1 .618-.782 6.962 6.962 0 0 0 1.519-.86 1 1 0 0 1 .953-.123l2.173.849 1.615-2.718-1.807-1.374zm-.017 4.443l.01-.018a.426.426 0 0 0-.01.018zm-5.445 3.215l.003-.02a.497.497 0 0 0-.003.02zm5.432-15.674l.015.024-.015-.024z"/><path d="M13 37.008a2 2 0 1 0-4 0 2 2 0 0 0 4 0zm2 0a4 4 0 1 1-8 0 4 4 0 0 1 8 0zM10 1a1 1 0 0 1 2 0v20a1 1 0 0 1-2 0V1zm17 37a1 1 0 0 1 0-2h25a1 1 0 0 1 0 2H27zm3.355-13.217l3.831-5.364A1 1 0 0 1 35 19h14a1 1 0 0 1 0 2H35.515l-4.701 6.581a1 1 0 0 1-1.768-.283L24.74 13.525l-3.867 6.96a1 1 0 1 1-1.748-.97l5-9c.427-.77 1.566-.652 1.828.187l4.4 14.08z"/><path d="M48.586 20l-4.293-4.293a1 1 0 0 1 1.414-1.414l5 5a1 1 0 0 1 0 1.414l-5 5a1 1 0 0 1-1.414-1.414L48.586 20z"/></g></svg>