<svg xmlns="http://www.w3.org/2000/svg" width="36" height="32" viewBox="0 0 36 32"><path d="M14.279 25.891c.395.303.5.848.25 1.296l-1.363 2.293a1.007 1.007 0 0 1-1.242.441l-1.377-.538c-.21.137-.422.258-.639.364l-.205 1.391a.996.996 0 0 1-.997.862H5.965c-.499 0-.932-.361-.996-.849l-.207-1.403a5.656 5.656 0 0 1-.642-.364l-1.394.544c-.452.16-.978-.014-1.214-.434L.133 27.173a.998.998 0 0 1 .26-1.284l1.148-.874a4.636 4.636 0 0 1 0-.698L.39 23.442a.988.988 0 0 1-.249-1.296l1.362-2.293c.246-.437.773-.62 1.242-.441l1.377.538c.21-.137.423-.258.639-.364l.205-1.393a.998.998 0 0 1 .997-.86h2.741c.5 0 .933.361.995.849l.207 1.403c.221.107.435.228.642.364l1.395-.544c.452-.16.977.014 1.213.435l1.38 2.322a.998.998 0 0 1-.261 1.282l-1.148.873a4.579 4.579 0 0 1 0 .699l1.15.875zm-2.255-.04a.67.67 0 0 1-.258-.616c.029-.223.043-.396.043-.568s-.014-.345-.043-.568a.665.665 0 0 1 .258-.616l1.204-.916-1.077-1.812-1.449.566a.666.666 0 0 1-.642-.087 4.367 4.367 0 0 0-1.005-.568.667.667 0 0 1-.413-.522l-.218-1.477h-2.18l-.218 1.477a.667.667 0 0 1-.413.522c-.34.136-.674.326-1.012.573a.666.666 0 0 1-.635.082l-1.448-.566-1.076 1.812 1.204.916c.19.144.288.378.258.615-.028.221-.042.403-.042.569s.014.348.042.569a.667.667 0 0 1-.258.615l-1.204.916 1.076 1.812 1.449-.566a.667.667 0 0 1 .642.087c.317.237.651.426 1.006.568a.664.664 0 0 1 .412.522l.218 1.477h2.18l.218-1.477a.668.668 0 0 1 .412-.522 4.628 4.628 0 0 0 1.012-.573.666.666 0 0 1 .635-.082l1.449.566 1.077-1.812-1.204-.916zm-.012 2.962l.008-.013-.008.013zm-3.63 2.143l.002-.013-.002.013zm3.622-10.449a.086.086 0 0 0 .01.016l-.01-.016zm-3.337 4.165a1.333 1.333 0 1 0-2.667 0 1.333 1.333 0 0 0 2.667 0zm1.333 0a2.667 2.667 0 1 1-5.334 0 2.667 2.667 0 0 1 5.334 0zM6.667.667a.667.667 0 1 1 1.334 0V14a.667.667 0 1 1-1.334 0V.667zM18 25.333a.667.667 0 1 1 0-1.334h16.667a.667.667 0 1 1 0 1.334H18zm4.791-12.387a.667.667 0 0 1 .543-.279h8a.667.667 0 1 1 0 1.334h-7.657l-3.134 4.387a.667.667 0 0 1-1.179-.189l-2.869-9.182-2.578 4.641a.667.667 0 1 1-1.166-.648l3.333-6a.667.667 0 0 1 1.219.125l2.934 9.387 2.554-3.576zm6.014 2.525a.668.668 0 0 1-.943-.943l3.333-3.333c.26-.26.682-.26.943 0l3.333 3.333a.668.668 0 0 1-.943.943l-2.862-2.862-2.862 2.862z" fill="#fff"/></svg>