<svg width="53" height="48" viewBox="0 0 53 48" xmlns="http://www.w3.org/2000/svg"><title>Group 426 Copy</title><g stroke="#FFF" stroke-width="2" fill="none" fill-rule="evenodd" stroke-linecap="round" stroke-linejoin="round"><path d="M18.64 37.98c.042-.32.073-.64.073-.98 0-.34-.03-.66-.072-.98l2.17-1.65a.496.496 0 0 0 .123-.64l-2.057-3.46c-.123-.22-.4-.3-.627-.22l-2.56 1c-.534-.4-1.11-.73-1.737-.98l-.39-2.65a.497.497 0 0 0-.504-.42H8.946a.498.498 0 0 0-.504.42l-.39 2.65a7.95 7.95 0 0 0-1.738.98l-2.56-1a.508.508 0 0 0-.627.22l-2.056 3.46a.484.484 0 0 0 .124.64l2.168 1.65c-.04.32-.071.65-.071.98 0 .33.03.66.071.98l-2.168 1.65a.495.495 0 0 0-.124.64l2.056 3.46c.124.22.401.3.627.22l2.56-1c.535.4 1.11.73 1.737.98l.391 2.65c.032.24.247.42.504.42h4.113c.257 0 .472-.18.503-.42l.39-2.65a7.973 7.973 0 0 0 1.738-.98l2.56 1c.236.09.504 0 .627-.22l2.057-3.46a.496.496 0 0 0-.124-.64l-2.17-1.65z"/><path d="M14 37.008a3 3 0 1 1-6 0 3 3 0 0 1 6 0zM11 1v20m16 16h25m-5-17H35l-5 7-5-16-5 9"/><path d="M45 25l5-5-5-5"/></g></svg>