<svg xmlns="http://www.w3.org/2000/svg" width="30" height="32" viewBox="0 0 30 32" fill="#fff"><path d="M14.526 11.043a.632.632 0 0 1 1.264 0V31.28c0 .41-.385.712-.783.613l-10.656-2.64a.632.632 0 0 1-.48-.613V18.21a.632.632 0 0 1 1.264 0v9.936l9.393 2.327v-19.43zm-.588.744l-8.205.739-3.655 5.052h8.185l3.675-5.791zm-3.328 7.054H.842a.632.632 0 0 1-.512-1.002l4.548-6.287a.634.634 0 0 1 .455-.259l9.768-.88a.631.631 0 0 1 .59.967l-4.548 7.167a.63.63 0 0 1-.533.293zm14.572-.631a.632.632 0 0 1 1.264 0v10.43c0 .29-.198.543-.48.613l-10.656 2.64a.631.631 0 0 1-.783-.613V11.043a.632.632 0 0 1 1.264 0v19.43l9.393-2.327V18.21zm-5.476.631a.633.633 0 0 1-.533-.293l-4.548-7.167a.631.631 0 0 1 .59-.967l9.768.88a.63.63 0 0 1 .455.259l4.548 6.287a.632.632 0 0 1-.512 1.002h-9.768zm8.531-1.263l-3.654-5.052-8.205-.739 3.675 5.791h8.185zM15.158 1.687l-3.37 2.995a.632.632 0 0 1-.84-.944L14.737.37a.63.63 0 0 1 .839 0l3.789 3.368a.631.631 0 1 1-.84.944l-3.37-2.995zm-.632-.424a.632.632 0 0 1 1.264 0v7.158a.632.632 0 0 1-1.264 0V1.263z"/></svg>