<svg xmlns="http://www.w3.org/2000/svg" width="29" height="32" viewBox="0 0 29 32"><path d="M1.391 9.016v13.967l13.217 7.52 13.217-7.52V9.016l-13.217-7.52-13.217 7.52zM.352 8.007L14.265.091a.697.697 0 0 1 .688 0l13.913 7.916a.698.698 0 0 1 .352.605v14.777c0 .25-.134.481-.352.605L14.953 31.91a.697.697 0 0 1-.688 0L.352 23.994A.698.698 0 0 1 0 23.389V8.612c0-.25.134-.481.352-.605zm14.602 9.209a.695.695 0 1 1-.691-1.207l13.913-7.958a.695.695 0 1 1 .691 1.207l-13.913 7.958zM.439 9.073a.696.696 0 1 1 .722-1.19l13.706 8.31a.696.696 0 1 1-.722 1.19L.439 9.073zm14.686 21.765a.714.714 0 0 1 .021.025l-.021-.025zm-1.109-.03c.022-.339.037-.877.045-1.59a242.24 242.24 0 0 0-.02-5.198 680.676 680.676 0 0 0-.121-7.008l-.007-.3a.695.695 0 1 1 1.391-.031l.007.301.018.831a915.249 915.249 0 0 1 .103 6.191c.026 2.167.034 3.953.02 5.23a33.95 33.95 0 0 1-.048 1.665 3.54 3.54 0 0 1-.057.499c-.038.174-.079.287-.223.426a.705.705 0 0 1-.853.102.7.7 0 0 1-.284-.309.695.695 0 0 1 .018-.656l.012-.152z" fill="#fff"/></svg>