<svg xmlns="http://www.w3.org/2000/svg" width="51" height="32" viewBox="0 0 51 32"><path d="M35.765 12.235a.94.94 0 1 1 0-1.882h1.882c.52 0 .941.421.941.941s.422.941.941.941a.94.94 0 0 1 .941.941V24.47c0 .52-.421.941-.941.941s-.941.422-.941.941a.94.94 0 0 1-.941.941h-1.882a.94.94 0 1 1 0-1.882h1.102a2.836 2.836 0 0 1 1.722-1.722v-9.733a2.836 2.836 0 0 1-1.722-1.722h-1.102zM9.412 25.412a.94.94 0 1 1 0 1.882H7.53c-.52 0-.941-.421-.941-.941s-.422-.941-.941-.941a.94.94 0 0 1-.941-.941V13.177c0-.52.421-.941.941-.941s.941-.422.941-.941a.94.94 0 0 1 .941-.941h1.882a.94.94 0 1 1 0 1.882H8.31a2.836 2.836 0 0 1-1.722 1.722v9.733c.802.284 1.438.92 1.722 1.722h1.102zM.941 32A.94.94 0 0 1 0 31.059V6.588a.94.94 0 0 1 .941-.941h43.294a.94.94 0 0 1 .941.941v24.471a.94.94 0 0 1-.941.941H.941zm.941-1.882h41.412V7.53H1.882v22.588zM27.57 19.099a.94.94 0 1 1 1.331 1.331l-5.647 5.647a.94.94 0 0 1-1.331 0l-5.647-5.647a.94.94 0 1 1 1.331-1.331l4.982 4.982 4.982-4.982zm-5.923-6.864a.94.94 0 1 1 1.882 0v11.294a.94.94 0 1 1-1.882 0V12.235zM7.529 1.882v4.706a.94.94 0 1 1-1.882 0V.941A.94.94 0 0 1 6.588 0h43.294a.94.94 0 0 1 .941.941v24.471a.94.94 0 0 1-.941.941h-5.176a.94.94 0 1 1 0-1.882h4.235V1.883H7.529z" fill="#fff"/></svg>