<svg width="49" height="36" viewBox="0 0 49 36" xmlns="http://www.w3.org/2000/svg"><g fill="#fff" fill-rule="evenodd"><path d="M41.935 15.733c-.795-7.474-8.4-13.357-17.64-13.357-2.799 0-5.563.55-8.038 1.595C15.213 2.662 13.539 2 11.27 2H8.28a.786.786 0 0 0-.671.374.766.766 0 0 0-.023.76l2.617 4.908c.027.052.001.11-.03.142A14.05 14.05 0 0 0 7.8 11.677c-.354.744-1.036 1.207-1.779 1.207H4.178C2.978 12.883 2 13.847 2 15.033v3.985c0 1.185.977 2.15 2.178 2.15h1.844c.744 0 1.425.463 1.778 1.21.944 2 2.45 3.839 4.352 5.315.519.406.828 1.06.828 1.75v3.783a.78.78 0 0 0 .785.774h4.75a.78.78 0 0 0 .785-.774v-2.14c3.297.803 6.889.786 10.155-.04v2.18c0 .427.35.774.784.774h4.751a.78.78 0 0 0 .784-.774v-3.91c0-.68.303-1.327.807-1.731 3.426-2.722 5.34-6.373 5.419-10.305 0-1.07 0-1.047-.065-1.547zm2.037.197c.026.29.028.433.028 1.35-.092 4.59-2.3 8.792-6.168 11.866-.025.02-.058.09-.058.17v3.91A2.779 2.779 0 0 1 34.99 36h-4.75a2.78 2.78 0 0 1-2.775-2.536 23.667 23.667 0 0 1-6.177.02A2.78 2.78 0 0 1 18.515 36h-4.75a2.779 2.779 0 0 1-2.785-2.774v-3.783c0-.083-.033-.152-.055-.17-2.146-1.666-3.853-3.75-4.933-6.04-.018-.039-.623-.06-1.814-.065-2.3 0-4.178-1.854-4.178-4.15v-3.985c0-2.297 1.88-4.151 4.178-4.15h1.824a13.957 13.957 0 0 1 1.832-3.031L5.82 4.077a2.766 2.766 0 0 1 .08-2.745A2.786 2.786 0 0 1 8.279 0h2.992c2.205 0 4.06.54 5.464 1.644a22.972 22.972 0 0 1 7.56-1.268c10.133 0 18.697 6.519 19.626 15.122.033.248.04.309.05.432zm-37.95 7.238h-.024.024zM8.71 6.819l-.014.014.014-.014z" fill-rule="nonzero"/><path d="M20.153 8.109a1 1 0 0 1-.606-1.906c3.815-1.214 7.627-1.115 11.325.369a1 1 0 1 1-.744 1.856c-3.26-1.308-6.595-1.394-9.975-.32zM47 11a1 1 0 0 1 2 0c0 2.76-2.24 5-5 5a1 1 0 0 1 0-2c1.656 0 3-1.344 3-3z" fill-rule="nonzero"/><circle cx="13" cy="13" r="2"/></g></svg>