<svg xmlns="http://www.w3.org/2000/svg" width="44" height="32" viewBox="0 0 44 32" fill="#fff"><path d="M37.276 13.985c-.707-6.644-7.467-11.873-15.68-11.873-2.488 0-4.945.488-7.145 1.418-.928-1.163-2.416-1.752-4.432-1.752h-2.66c-.244 0-.471.126-.597.333s-.134.463-.02.676l2.326 4.362c.024.046.001.097-.027.126a12.462 12.462 0 0 0-2.108 3.105c-.315.661-.921 1.073-1.581 1.073H3.714c-1.067-.001-1.936.856-1.936 1.91v3.543c0 1.054.869 1.911 1.936 1.911h1.639c.661 0 1.267.412 1.581 1.075.839 1.779 2.178 3.413 3.868 4.726.461.36.737.942.737 1.555v3.363c0 .38.312.688.697.688h4.223a.692.692 0 0 0 .697-.688v-1.902c2.931.713 6.124.698 9.027-.036v1.938c0 .38.312.688.697.688h4.223a.692.692 0 0 0 .697-.688V26.06c0-.603.269-1.179.718-1.538 3.045-2.419 4.746-5.665 4.816-9.159 0-.951 0-.931-.058-1.375zm1.81.175c.023.258.025.384.025 1.2-.082 4.081-2.044 7.815-5.483 10.547-.022.017-.051.08-.051.151v3.476A2.47 2.47 0 0 1 31.102 32h-4.223a2.471 2.471 0 0 1-2.466-2.254 21.071 21.071 0 0 1-5.491.019 2.472 2.472 0 0 1-2.464 2.236h-4.223a2.47 2.47 0 0 1-2.475-2.466v-3.363c0-.073-.029-.135-.049-.151-1.907-1.481-3.425-3.334-4.385-5.37-.016-.034-.553-.053-1.612-.057C1.67 20.594 0 18.946 0 16.905v-3.543c0-2.041 1.671-3.689 3.714-3.688h1.621c.428-.978.975-1.861 1.628-2.695L5.174 3.623a2.456 2.456 0 0 1 .071-2.439A2.477 2.477 0 0 1 7.359 0h2.66c1.96 0 3.609.48 4.856 1.461A20.426 20.426 0 0 1 21.596.334c9.007 0 16.619 5.795 17.446 13.442.029.221.035.274.045.384zM18.933 29.534v-1.902l-2.198 1.727c.717.174 1.449.309 2.187.404.007-.076.011-.152.011-.23zM5.352 20.593h-.021.021zM7.743 6.061l-.012.013.012-.013zm10.171 1.147a.89.89 0 0 1-.538-1.695c3.391-1.079 6.78-.991 10.067.328a.888.888 0 1 1-.662 1.65c-2.897-1.163-5.862-1.239-8.866-.284zm23.864 2.57a.889.889 0 1 1 1.778 0 4.445 4.445 0 0 1-4.444 4.444.889.889 0 1 1 0-1.778 2.668 2.668 0 0 0 2.667-2.667zm-28.445 1.778a1.778 1.778 0 1 1-3.556 0 1.778 1.778 0 0 1 3.556 0z"/></svg>