<svg width="47" height="41" viewBox="0 0 47 41" xmlns="http://www.w3.org/2000/svg"><title>icn-entry</title><g fill="#fff"><path d="M12.497 39.078A1 1 0 0 1 11.5 40h-7a1 1 0 0 1-.997-.922L2.55 26.921C.983 26.776-.173 25.33.02 23.714l1.16-9.564C1.468 11.786 3.429 10 5.766 10h4.468c2.337 0 4.298 1.786 4.585 4.15l1.16 9.565c.194 1.614-.962 3.06-2.529 3.206l-.953 12.157zm-.97-13.223a1 1 0 0 1 .998-.922h.665c.48 0 .867-.451.803-.978l-1.159-9.564C12.667 13.02 11.548 12 10.234 12H5.766c-1.314 0-2.433 1.02-2.6 2.391l-1.16 9.563c-.063.528.324.98.804.98h.665a1 1 0 0 1 .997.921L5.425 38h5.15l.953-12.145zM10 4a2 2 0 1 0-4 0 2 2 0 0 0 4 0zm2 0a4 4 0 1 1-8 0 4 4 0 0 1 8 0zm9 18a1 1 0 0 1 0-2h12a1 1 0 0 1 0 2H21zm21-11a5 5 0 1 1 0-10 5 5 0 0 1 0 10zm0-2a3 3 0 1 0 0-6 3 3 0 0 0 0 6zm0 17a5 5 0 1 1 0-10 5 5 0 0 1 0 10zm0-2a3 3 0 1 0 0-6 3 3 0 0 0 0 6zm0 17a5 5 0 1 1 0-10 5 5 0 0 1 0 10zm0-2a3 3 0 1 0 0-6 3 3 0 0 0 0 6z"/><path d="M32 5a1 1 0 0 1 0 2h-3c-1.08 0-2 1.022-2 2.333v23.334c0 1.311.92 2.333 2 2.333h3a1 1 0 0 1 0 2h-3c-2.234 0-4-1.962-4-4.333V9.333C25 6.962 26.766 5 29 5h3z"/></g></svg>