<svg width="47" height="41" viewBox="0 0 47 41" xmlns="http://www.w3.org/2000/svg"><g transform="translate(1 1)" stroke-width="2" fill="none" fill-rule="evenodd"><path d="M10.5 38l1.025-13.067h.665c1.089 0 1.93-.984 1.796-2.098l-1.16-9.564C12.6 11.403 11.06 10 9.235 10H4.766C2.94 10 1.4 11.403 1.173 13.27L.014 22.836c-.134 1.114.707 2.098 1.796 2.098h.665L3.5 38h7zM10 3a3 3 0 1 1-6 0 3 3 0 0 1 6 0zm10 17h12" stroke="#FCFCFC" stroke-linecap="round" stroke-linejoin="round"/><circle stroke="#FFF" cx="41" cy="5" r="4"/><circle stroke="#FFF" cx="41" cy="20" r="4"/><circle stroke="#FFF" cx="41" cy="35" r="4"/><path d="M31 5h-3c-1.657 0-3 1.492-3 3.333v23.334C25 33.508 26.343 35 28 35h3" stroke="#FCFCFC" stroke-linecap="round" stroke-linejoin="round"/></g></svg>