<svg xmlns="http://www.w3.org/2000/svg" width="43" height="32" viewBox="0 0 43 32"><path d="M19.934 12.158v-1.703c0-.57.462-1.032 1.032-1.032h21.357c.833 0 1.323.936.848 1.621l-5.695 8.205a1.032 1.032 0 0 1-.725.436l-11.39 1.367c-1.055.126-1.908.839-2.116 1.749-1.191 5.2-6.075 9.198-11.532 9.198-6.593 0-11.905-5.247-11.706-11.637.192-6.112 5.681-10.94 12.153-10.94h3.112c.57 0 1.032.462 1.032 1.032v1.703h3.631zm2.064 1.033c0 .57-.462 1.032-1.032 1.032h-5.695c-.57 0-1.032-.462-1.032-1.032v-1.703h-2.08c-5.399 0-9.934 3.989-10.089 8.94-.162 5.203 4.195 9.508 9.642 9.508 4.484 0 8.541-3.322 9.52-7.595.411-1.79 1.991-3.111 3.883-3.338l10.93-1.312 4.306-6.203H22v1.703zM11.895 4.029a1.033 1.033 0 0 1-1.455 1.465L7.625 2.697A1.033 1.033 0 0 1 9.08 1.232l2.815 2.797zm6.686 1.199a1.032 1.032 0 1 1-2.064 0V1.032a1.032 1.032 0 1 1 2.064 0v4.196z" fill="#fff"/></svg>