<svg width="50" height="36" viewBox="0 0 50 36" xmlns="http://www.w3.org/2000/svg"><title>icn-performance</title><g fill="#fff"><path d="M26.875 25.235a2 2 0 1 0-4 0 2 2 0 0 0 4 0zm2 0a4.001 4.001 0 0 1-8 0 4 4 0 1 1 8 0zM6 27a1 1 0 0 1 0-2h4a1 1 0 0 1 0 2H6zm38-2a1 1 0 0 1 0 2h-4a1 1 0 0 1 0-2h4zm-1.243-7.97a1 1 0 0 1 .486 1.94l-4 1a1 1 0 0 1-.486-1.94l4-1zm-36 1.94a1 1 0 1 1 .486-1.94l4 1a1 1 0 0 1-.486 1.94l-4-1zm3.536-7.263a1 1 0 0 1 1.414-1.414l3 3a1 1 0 0 1-1.414 1.414l-3-3z"/><path d="M39.707 11.707a1 1 0 0 0-1.414-1.414l-12 12a1 1 0 0 0 1.414 1.414l12-12zm-23.601-4.26a1 1 0 0 1 1.788-.894l2 4a1 1 0 0 1-1.788.894l-2-4zM24 5a1 1 0 0 1 2 0v5a1 1 0 0 1-2 0V5zm9.894 2.447a1 1 0 0 0-1.788-.894l-2 4a1 1 0 0 0 1.788.894l2-4z"/><path d="M25 0c13.812 0 25 11.393 25 25.438V35a1 1 0 0 1-1 1H1a1 1 0 0 1-1-1v-9.563C0 11.393 11.188 0 25 0zm23 34v-8.563C48 12.49 37.7 2 25 2S2 12.49 2 25.438V34h46z"/></g></svg>