<svg xmlns="http://www.w3.org/2000/svg" width="44" height="32" viewBox="0 0 44 32" fill="#fff"><path d="M23.889 22.431a1.778 1.778 0 1 0-3.556 0 1.778 1.778 0 0 0 3.556 0zm1.778 0a3.557 3.557 0 0 1-7.112 0 3.556 3.556 0 1 1 7.112 0zM5.333 24a.889.889 0 1 1 0-1.778h3.556a.889.889 0 1 1 0 1.778H5.333zm33.778-1.778a.889.889 0 1 1 0 1.778h-3.556a.889.889 0 1 1 0-1.778h3.556zm-1.104-7.084a.89.89 0 0 1 .431 1.725l-3.556.889a.89.89 0 0 1-.431-1.725l3.556-.889zm-32 1.724a.89.89 0 0 1 .431-1.725l3.556.889a.89.89 0 0 1-.431 1.725l-3.556-.889zm3.142-6.456a.889.889 0 0 1 1.257-1.257l2.667 2.667a.889.889 0 0 1-1.257 1.257l-2.667-2.667zm24.889-1.257a.889.889 0 0 1 1.257 1.257L24.628 21.073a.889.889 0 0 1-1.257-1.257L34.038 9.149zM14.316 6.62a.889.889 0 1 1 1.591-.795l1.778 3.556a.889.889 0 1 1-1.591.795L14.316 6.62zm7.017-2.176a.889.889 0 1 1 1.778 0v4.444a.889.889 0 1 1-1.778 0V4.444zm7.238 1.382a.887.887 0 1 1 1.577.819l-1.832 3.528a.887.887 0 1 1-1.577-.819l1.832-3.528zM22.222 0c12.277 0 22.222 10.127 22.222 22.611v8.5a.889.889 0 0 1-.889.889H.888a.889.889 0 0 1-.889-.889v-8.5C-.001 10.127 9.944 0 22.221 0zm20.445 30.222v-7.611c0-11.51-9.156-20.833-20.444-20.833S1.779 11.102 1.779 22.611v7.611h40.889z"/></svg>