<svg width="42" height="49" viewBox="0 0 42 49" xmlns="http://www.w3.org/2000/svg"><title>icn-certificate</title><g fill="#fff"><path d="M40 35.254c0-2.527-2.058-4.576-4.6-4.576s-4.6 2.05-4.6 4.576c0 2.527 2.058 4.577 4.6 4.577s4.6-2.05 4.6-4.577zm2 0c0 3.634-2.955 6.577-6.6 6.577-3.645 0-6.6-2.943-6.6-6.577 0-3.633 2.955-6.576 6.6-6.576 3.645 0 6.6 2.943 6.6 6.576z"/><path d="M31.77 48.929A1 1 0 0 1 30.4 48v-8.763a1 1 0 0 1 2 0v7.288l2.63-1.047a1 1 0 0 1 .74 0l2.63 1.047v-7.288a1 1 0 0 1 2 0V48a1 1 0 0 1-1.37.929l-3.63-1.446-3.63 1.446zm-6.17-5.912a1 1 0 1 1 0 2H1a1 1 0 0 1-1-1V13.746a1 1 0 0 1 .294-.709L13.094.291A1 1 0 0 1 13.8 0h22.4a1 1 0 0 1 1 1v22.898a1 1 0 0 1-2 0V2H14.213L2 14.161v28.856h23.6z"/><path d="M15.565 22.35a4.624 4.624 0 0 0 0 6.56 4.681 4.681 0 0 0 6.599 0c.626-.623 1.034-1.858 1.627-4.657l.154-.728c.061-.289.11-.519.16-.742.45-2.059.896-3.57 1.492-4.743-4.108.439-7.883 2.17-10.032 4.31zm-1.412 7.978a6.624 6.624 0 0 1 0-9.394c2.87-2.858 8.064-5.002 13.447-5.002.892 0 1.338 1.08.705 1.709-.985.981-1.601 2.623-2.247 5.57l-.157.728-.153.728c-.688 3.246-1.149 4.64-2.173 5.66a6.681 6.681 0 0 1-9.422 0z"/><path d="M20.66 25.263a.483.483 0 0 0 .009-.003l-.01.003zm-.117.073a6.9 6.9 0 0 0-.617.476 16.62 16.62 0 0 0-1.786 1.794c-1.454 1.695-2.34 3.383-2.34 4.665a1 1 0 1 1-2 0c0-3.358 4.81-8.966 6.6-8.966a1 1 0 0 1 0 2 .612.612 0 0 0 .26-.042 2.07 2.07 0 0 0-.117.073zM12.8 12.746V1a1 1 0 0 1 2 0v12.746a1 1 0 0 1-1 1H1a1 1 0 1 1 0-2h11.8z"/></g></svg>