<svg xmlns="http://www.w3.org/2000/svg" width="27" height="32" viewBox="0 0 27 32" fill="#fff"><path d="M26.122 23.023c0-1.65-1.344-2.989-3.004-2.989s-3.004 1.338-3.004 2.989c0 1.65 1.344 2.989 3.004 2.989s3.004-1.338 3.004-2.989zm1.307 0c0 2.373-1.93 4.295-4.31 4.295s-4.31-1.922-4.31-4.295 1.93-4.295 4.31-4.295 4.31 1.922 4.31 4.295zm-6.681 8.931a.653.653 0 0 1-.895-.607v-5.723a.653.653 0 1 1 1.306 0v4.759l1.718-.684a.65.65 0 0 1 .483 0l1.718.684v-4.759a.653.653 0 1 1 1.306 0v5.723a.653.653 0 0 1-.895.607l-2.371-.944-2.371.944zm-4.03-3.861a.653.653 0 1 1 0 1.306H.653A.653.653 0 0 1 0 28.746V8.977c0-.174.069-.34.192-.463L8.551.19A.652.652 0 0 1 9.012 0h14.629c.361 0 .653.292.653.653v14.954a.653.653 0 1 1-1.306 0V1.306H9.282L1.306 9.248v18.845h15.412zm-6.553-13.497a3.02 3.02 0 0 0 0 4.284 3.057 3.057 0 0 0 4.31 0c.409-.407.675-1.214 1.063-3.042l.1-.475.104-.484c.295-1.345.585-2.332.975-3.098-2.683.287-5.148 1.418-6.552 2.815zm-.922 5.21a4.326 4.326 0 0 1 0-6.135c1.874-1.866 5.266-3.266 8.781-3.266.583 0 .874.705.461 1.116-.644.641-1.046 1.713-1.468 3.638l-.102.475-.1.476c-.449 2.12-.75 3.03-1.419 3.696a4.364 4.364 0 0 1-6.153 0zm4.249-3.307l.01-.005-.004.002-.006.003zm-.076.047a4.466 4.466 0 0 0-.403.311 10.84 10.84 0 0 0-1.166 1.171c-.95 1.107-1.528 2.209-1.528 3.047a.653.653 0 1 1-1.306 0c0-2.193 3.142-5.855 4.31-5.855a.653.653 0 1 1 0 1.306.408.408 0 0 0 .17-.027 1.515 1.515 0 0 0-.076.047zM8.359 8.324V.653a.653.653 0 1 1 1.306 0v8.324a.653.653 0 0 1-.653.653H.653a.653.653 0 1 1 0-1.306h7.706z"/></svg>