<?xml version="1.0" encoding="UTF-8"?>
<svg xmlns="http://www.w3.org/2000/svg" xmlns:xlink="http://www.w3.org/1999/xlink" version="1.2" >
<font id="ITC Avant Garde Gothic Pro Bold">
<font-face  font-family="ITC Avant Garde Gothic Pro" units-per-em="1000" ascent="740" descent="-260" font-style="normal" font-weight="700" font-stretch="normal" cap-height="740" x-height="555" underline-position="-75" underline-thickness="50" />
<missing-glyph  horiz-adv-x="500" d="M12 0 L487 0 L487 665 L12 665 L12 0 Z M88 618 L411 618 L250 375 L88 618 Z M60 575 L221 333 C221 333 60 90 60 91 L60 575 Z M440 575 L440 90 L278 333 L440 575 Z M411 48 L88 48 L250 290 L411 48 Z " />
<glyph glyph-name="NULL" d="" />
<glyph glyph-name="CR" unicode="&#xd;" horiz-adv-x="250" d="" />
<glyph glyph-name="space" unicode="&#x20;" horiz-adv-x="309" d="" />
<glyph glyph-name="exclam" unicode="&#x21;" horiz-adv-x="333" d="M252 244 L252 740 L81 740 L81 244 L252 244 Z M252 0 L252 170 L81 170 L81 0 L252 0 Z " />
<glyph glyph-name="quotedbl" unicode="&#x22;" horiz-adv-x="463" d="M429 740 L255 740 L288 443 L395 443 L429 740 Z M208 740 L34 740 L67 443 L174 443 L208 740 Z " />
<glyph glyph-name="numbersign" unicode="&#x23;" horiz-adv-x="618" d="M588 514 L477 514 L499 672 L385 672 L363 514 L285 514 L307 672 L193 672 L171 514 L71 514 L56 403 L156 403 L146 330 L46 330 L31 219 L130 219 L106 45 L220 45 L244 219 L322 219 L298 45 L411 45 L435 219 L547 219 L562 330 L451 330 L461 403 L573 403 L588 514 Z M348 403 L338 330 L260 330 L270 403 L348 403 Z " />
<glyph glyph-name="dollar" unicode="&#x24;" horiz-adv-x="618" d="M538 232 C538 327 475 391 391 424 C345 442 256 465 256 527 C256 558 278 583 310 583 C348 583 363 554 365 520 L520 520 L520 525 C521 615 471 689 381 710 L381 811 L246 811 L246 710 C148 683 86 612 86 508 C86 279 367 335 367 212 C367 180 342 153 310 153 C270 153 253 189 251 224 L80 224 C80 177 94 130 124 93 C158 51 195 36 246 25 L246 -76 L381 -76 L381 29 C472 59 538 134 538 232 L538 232 Z " />
<glyph glyph-name="percent" unicode="&#x25;" horiz-adv-x="858" d="M822 166 C822 265 742 347 642 347 C542 347 461 266 461 166 C461 66 542 -15 642 -15 C741 -15 822 67 822 166 L822 166 Z M638 740 L522 740 L216 0 L331 0 L638 740 Z M396 574 C396 674 316 755 216 755 C116 755 36 673 36 574 C36 475 117 394 216 394 C315 394 396 475 396 574 L396 574 Z M711 166 C711 128 680 96 642 96 C604 96 572 128 572 166 C572 205 603 236 642 236 C681 236 711 204 711 166 L711 166 Z M285 575 C285 537 254 505 216 505 C179 505 147 537 147 574 C147 613 177 644 216 644 C254 644 285 613 285 575 L285 575 Z " />
<glyph glyph-name="ampersand" unicode="&#x26;" horiz-adv-x="758" d="M729 435 L554 435 L500 314 L413 402 C473 444 515 495 515 572 C515 680 426 754 321 754 C212 754 116 676 116 563 C116 500 142 448 186 403 C112 353 49 298 49 200 C49 67 173 -15 296 -15 C384 -15 452 19 517 75 L604 -15 L717 96 L616 200 C639 230 657 263 672 298 L729 435 Z M365 573 C365 538 342 514 319 491 C298 513 277 539 277 571 C277 598 294 620 322 620 C350 620 365 599 365 573 L365 573 Z M406 184 C381 155 354 144 316 144 C272 144 231 169 231 217 C231 256 260 281 288 303 L406 184 Z " />
<glyph glyph-name="quotesingle" unicode="&#x27;" horiz-adv-x="242" d="M208 740 L34 740 L67 443 L174 443 L208 740 Z " />
<glyph glyph-name="parenleft" unicode="&#x28;" horiz-adv-x="473" d="M430 -264 L430 -91 C315 -28 250 116 250 243 C250 371 315 516 430 580 L430 754 C211 671 65 483 65 245 C65 8 210 -181 430 -264 L430 -264 Z " />
<glyph glyph-name="parenright" unicode="&#x29;" horiz-adv-x="473" d="M408 244 C408 482 262 671 43 754 L43 580 C158 517 223 373 223 246 C223 118 158 -27 43 -91 L43 -264 C263 -182 408 7 408 244 L408 244 Z " />
<glyph glyph-name="asterisk" unicode="&#x2a;" horiz-adv-x="670" d="M555 539 L517 648 L388 600 L395 740 L276 740 L279 600 L151 648 L115 539 L246 498 L160 388 L253 318 L332 433 L414 318 L507 388 L424 498 L555 539 Z " />
<glyph glyph-name="plus" unicode="&#x2b;" horiz-adv-x="600" d="M552 173 L552 333 L380 333 L380 506 L220 506 L220 333 L48 333 L48 173 L220 173 L220 0 L380 0 L380 173 L552 173 Z " />
<glyph glyph-name="comma" unicode="&#x2c;" horiz-adv-x="314" d="M244 -40 L244 170 L71 170 L71 0 L149 0 L149 -34 C149 -78 101 -72 71 -72 L71 -161 L142 -161 C210 -161 244 -102 244 -40 L244 -40 Z " />
<glyph glyph-name="hyphen" unicode="&#x2d;" horiz-adv-x="281" d="M281 207 L281 370 L0 370 L0 207 L281 207 Z " />
<glyph glyph-name="period" unicode="&#x2e;" horiz-adv-x="314" d="M244 0 L244 170 L71 170 L71 0 L244 0 Z " />
<glyph glyph-name="slash" unicode="&#x2f;" horiz-adv-x="593" d="M521 740 L337 740 L72 -100 L257 -100 L521 740 Z " />
<glyph glyph-name="zero" unicode="0" horiz-adv-x="618" d="M585 267 L585 473 C585 589 533 683 425 730 C390 745 350 754 312 754 C274 754 236 746 200 732 C88 687 33 592 33 473 L33 267 C33 149 89 55 199 9 C235 -6 273 -14 312 -14 C354 -14 396 -5 434 13 C538 61 585 156 585 267 L585 267 Z M396 262 C396 204 377 152 309 152 C244 152 222 205 222 262 L222 478 C222 534 244 588 309 588 C377 588 396 536 396 478 L396 262 Z " />
<glyph glyph-name="one" unicode="1" horiz-adv-x="618" d="M414 0 L414 740 L104 740 L104 581 L225 581 L225 0 L414 0 Z " />
<glyph glyph-name="two" unicode="2" horiz-adv-x="618" d="M573 0 L573 159 L322 159 C433 256 568 379 568 539 C568 568 561 597 549 624 C506 714 412 754 316 754 C226 754 138 718 88 641 C53 587 46 534 44 471 L224 471 C227 526 241 588 309 588 C352 588 379 558 379 516 C379 450 320 374 277 327 C210 253 134 201 51 147 L51 0 L573 0 Z " />
<glyph glyph-name="three" unicode="3" horiz-adv-x="618" d="M579 218 C579 309 525 368 440 397 C503 431 538 478 538 552 C538 679 423 754 306 754 C167 754 55 671 53 524 L239 524 C240 562 255 588 297 588 C334 588 349 555 349 523 C349 447 278 449 224 449 L224 310 C283 310 390 323 390 235 C390 185 361 152 310 152 C263 152 234 176 224 221 L33 221 C38 173 47 131 74 90 C122 18 222 -14 305 -14 C436 -14 579 75 579 218 L579 218 Z " />
<glyph glyph-name="four" unicode="4" horiz-adv-x="618" d="M604 130 L604 278 L522 278 L522 740 L346 740 L15 268 L15 130 L341 130 L341 0 L522 0 L522 130 L604 130 Z M353 278 L205 278 L351 510 L353 510 L353 278 Z " />
<glyph glyph-name="five" unicode="5" horiz-adv-x="618" d="M592 254 C592 288 585 322 572 353 C532 449 449 502 345 502 C308 502 278 498 245 480 L261 581 L525 581 L525 740 L116 740 L52 321 L205 283 C223 325 256 347 302 347 C358 347 403 308 403 250 C403 196 357 152 303 152 C267 152 237 169 216 198 L26 198 C52 60 173 -15 308 -15 C424 -15 523 41 570 150 C584 182 592 218 592 254 L592 254 Z " />
<glyph glyph-name="six" unicode="6" horiz-adv-x="618" d="M600 268 C600 403 507 519 367 519 C355 519 342 519 331 515 L329 517 L492 740 L273 740 L89 470 C49 411 21 344 21 272 C21 101 145 -14 313 -14 C475 -14 600 105 600 268 L600 268 Z M411 252 C411 194 364 152 307 152 C249 152 207 198 207 255 C207 311 251 353 307 353 C365 353 411 311 411 252 L411 252 Z " />
<glyph glyph-name="seven" unicode="7" horiz-adv-x="618" d="M547 595 L547 740 L65 740 L65 581 L352 581 L79 0 L287 0 L547 595 Z " />
<glyph glyph-name="eight" unicode="8" horiz-adv-x="618" d="M579 220 C579 302 541 374 463 407 C510 444 535 486 535 548 C535 674 428 754 309 754 C188 754 83 673 83 546 C83 486 108 443 155 407 C78 374 39 302 39 220 C39 76 177 -14 310 -14 C443 -14 579 76 579 220 L579 220 Z M377 535 C377 497 347 465 308 465 C269 465 241 494 241 533 C241 571 272 601 310 601 C346 601 377 571 377 535 L377 535 Z M390 236 C390 193 357 152 312 152 C263 152 228 189 228 237 C228 284 261 321 309 321 C356 321 390 282 390 236 L390 236 Z " />
<glyph glyph-name="nine" unicode="9" horiz-adv-x="618" d="M602 476 C602 542 585 606 540 657 C482 723 394 754 307 754 C145 754 20 637 20 473 C20 376 66 290 155 246 C185 231 219 222 253 222 C264 222 278 222 289 226 L291 224 L128 0 L347 0 L531 271 C574 334 602 399 602 476 L602 476 Z M413 486 C413 428 367 388 311 388 C253 388 209 431 209 489 C209 546 255 588 311 588 C369 588 413 544 413 486 L413 486 Z " />
<glyph glyph-name="colon" unicode="&#x3a;" horiz-adv-x="314" d="M244 385 L244 555 L71 555 L71 385 L244 385 Z M244 0 L244 170 L71 170 L71 0 L244 0 Z " />
<glyph glyph-name="semicolon" unicode="&#x3b;" horiz-adv-x="314" d="M244 385 L244 555 L71 555 L71 385 L244 385 Z M244 -40 L244 170 L71 170 L71 0 L149 0 L149 -34 C149 -78 101 -72 71 -72 L71 -161 L142 -161 C210 -161 244 -102 244 -40 L244 -40 Z " />
<glyph glyph-name="less" unicode="&#x3c;" horiz-adv-x="600" d="M554 -38 L554 137 L214 252 L214 254 L554 369 L554 544 L46 330 L46 176 L554 -38 Z " />
<glyph glyph-name="equal" unicode="&#x3d;" horiz-adv-x="600" d="M552 305 L552 465 L48 465 L48 305 L552 305 Z M552 41 L552 201 L48 201 L48 41 L552 41 Z " />
<glyph glyph-name="greater" unicode="&#x3e;" horiz-adv-x="600" d="M554 176 L554 330 L46 544 L46 369 L386 254 L386 252 L46 137 L46 -38 L554 176 Z " />
<glyph glyph-name="question" unicode="&#x3f;" horiz-adv-x="592" d="M551 542 C551 574 542 606 527 634 C484 715 400 754 311 754 C165 754 48 655 48 505 C48 499 48 493 49 487 L232 487 C233 536 240 583 301 583 C340 583 359 559 359 521 C359 426 189 373 187 235 L361 235 C370 337 551 380 551 542 L551 542 Z M361 0 L361 170 L187 170 L187 0 L361 0 Z " />
<glyph glyph-name="at" unicode="&#x40;" horiz-adv-x="748" d="M743 428 C743 627 580 756 389 756 C169 756 -3 585 -3 365 C-3 315 7 265 25 219 C87 61 225 -16 392 -16 C470 -16 551 -6 624 20 L603 112 C536 87 464 75 392 75 C264 75 163 130 119 253 C106 288 99 326 99 363 C99 528 226 665 393 665 C533 665 649 573 649 427 C649 402 646 377 640 353 C633 324 606 253 567 253 C550 253 540 261 540 279 C540 295 544 314 547 330 L584 548 L480 548 L472 501 L470 501 C455 542 412 560 371 560 C256 560 176 443 176 336 C176 247 234 159 330 159 C387 159 420 183 449 231 C465 185 498 159 547 159 C635 159 699 244 725 320 C737 355 743 391 743 428 L743 428 Z M450 385 C450 330 425 253 358 253 C308 253 283 294 283 340 C283 396 321 466 384 466 C430 466 450 426 450 385 L450 385 Z " />
<glyph glyph-name="A" unicode="A" horiz-adv-x="758" d="M749 0 L455 740 L306 740 L9 0 L212 0 L251 107 L508 107 L544 0 L749 0 Z M458 257 L303 257 L379 510 L381 510 L382 510 L458 257 Z " />
<glyph glyph-name="B" unicode="B" horiz-adv-x="647" d="M612 225 C612 309 571 369 490 397 C545 428 576 483 576 546 C576 592 563 634 532 668 C468 739 384 740 295 740 L67 740 L67 0 L302 0 C398 0 468 -1 544 64 C590 103 612 166 612 225 L612 225 Z M395 518 C395 471 361 459 320 459 L248 459 L248 574 L321 574 C360 574 395 565 395 518 L395 518 Z M431 237 C431 182 389 166 342 166 L248 166 L248 301 L343 301 C387 301 431 290 431 237 L431 237 Z " />
<glyph glyph-name="C" unicode="C" horiz-adv-x="832" d="M801 277 L603 277 C570 204 508 152 425 152 C304 152 226 258 226 372 C226 486 304 588 424 588 C507 588 574 535 603 459 L801 459 C794 502 775 544 751 580 C677 692 559 754 425 754 C210 754 37 588 37 371 C37 154 212 -14 427 -14 C606 -14 758 102 801 277 L801 277 Z " />
<glyph glyph-name="D" unicode="D" horiz-adv-x="742" d="M697 372 C697 454 677 535 629 602 C545 718 436 740 302 740 L57 740 L57 0 L316 0 C558 0 697 129 697 372 L697 372 Z M508 369 C508 249 456 166 327 166 L246 166 L246 574 L328 574 C454 574 508 487 508 369 L508 369 Z " />
<glyph glyph-name="E" unicode="E" horiz-adv-x="528" d="M478 0 L478 166 L248 166 L248 293 L471 293 L471 459 L248 459 L248 574 L478 574 L478 740 L67 740 L67 0 L478 0 Z " />
<glyph glyph-name="F" unicode="F" horiz-adv-x="506" d="M471 574 L471 740 L67 740 L67 0 L248 0 L248 282 L463 282 L463 448 L248 448 L248 574 L471 574 Z " />
<glyph glyph-name="G" unicode="G" horiz-adv-x="854" d="M823 382 C823 395 823 408 822 421 L383 421 L383 270 L604 270 C581 188 508 151 427 151 C301 151 224 252 224 373 C224 490 305 588 426 588 C496 588 555 553 589 492 L801 492 C756 650 591 754 431 754 C214 754 35 595 35 373 C35 154 210 -15 428 -15 C655 -15 823 155 823 382 L823 382 Z " />
<glyph glyph-name="H" unicode="H" horiz-adv-x="754" d="M687 0 L687 740 L498 740 L498 462 L256 462 L256 740 L67 740 L67 0 L256 0 L256 296 L498 296 L498 0 L687 0 Z " />
<glyph glyph-name="I" unicode="I" horiz-adv-x="323" d="M256 0 L256 740 L67 740 L67 0 L256 0 Z " />
<glyph glyph-name="J" unicode="J" horiz-adv-x="578" d="M510 293 L510 740 L321 740 L321 246 C321 205 318 152 264 152 C216 152 209 201 207 238 L6 238 C6 130 50 42 155 4 C186 -8 221 -14 255 -14 C334 -14 414 21 464 83 C510 141 510 222 510 293 L510 293 Z " />
<glyph glyph-name="K" unicode="K" horiz-adv-x="707" d="M701 0 L440 371 L685 740 L487 740 L278 407 L276 407 L276 740 L87 740 L87 0 L276 0 L276 320 L278 320 L480 0 L701 0 Z " />
<glyph glyph-name="L" unicode="L" horiz-adv-x="487" d="M480 0 L480 166 L261 166 L261 740 L72 740 L72 0 L480 0 Z " />
<glyph glyph-name="M" unicode="M" horiz-adv-x="915" d="M848 0 L848 740 L604 740 L459 253 L457 253 L310 740 L67 740 L67 0 L241 0 L235 554 L237 556 L395 0 L520 0 L678 556 L680 554 L674 0 L848 0 Z " />
<glyph glyph-name="N" unicode="N" horiz-adv-x="759" d="M691 0 L691 740 L510 740 L518 277 L516 275 L230 740 L67 740 L67 0 L248 0 L243 449 L245 450 L527 0 L691 0 Z " />
<glyph glyph-name="O" unicode="O" horiz-adv-x="851" d="M816 370 C816 588 641 754 425 754 C299 754 188 702 112 602 C93 577 75 548 64 519 C44 468 35 416 35 361 C35 148 215 -14 424 -14 C641 -14 816 151 816 370 L816 370 Z M627 369 C627 256 547 152 428 152 C305 152 224 254 224 372 C224 488 305 588 426 588 C547 588 627 484 627 369 L627 369 Z " />
<glyph glyph-name="P" unicode="P" horiz-adv-x="636" d="M624 490 C624 566 595 637 537 686 C476 737 385 740 309 740 L67 740 L67 0 L248 0 L248 232 L330 232 C413 232 482 240 546 296 C598 342 624 422 624 490 L624 490 Z M443 487 C443 412 387 398 325 398 L248 398 L248 574 L318 574 C380 574 443 564 443 487 L443 487 Z " />
<glyph glyph-name="Q" unicode="Q" horiz-adv-x="866" d="M855 -13 L855 137 C823 132 782 140 758 162 C803 229 819 295 819 376 C819 592 635 754 424 754 C207 754 35 583 35 366 C35 151 214 -15 426 -15 C503 -15 568 2 634 43 C676 -1 750 -15 808 -15 C824 -15 839 -14 855 -13 L855 -13 Z M630 379 C630 341 624 303 605 270 C538 352 441 426 330 426 C290 426 261 416 225 401 C243 506 313 588 425 588 C545 588 630 498 630 379 L630 379 Z M510 170 C484 156 454 151 424 151 C345 151 274 205 244 276 C267 284 286 288 310 288 C401 288 456 235 510 170 L510 170 Z " />
<glyph glyph-name="R" unicode="R" horiz-adv-x="653" d="M637 0 L436 252 C553 271 620 371 620 485 C620 562 590 638 529 687 C465 738 379 740 301 740 L67 740 L67 0 L248 0 L248 239 L250 239 L421 0 L637 0 Z M439 474 C439 398 386 368 315 368 L248 368 L248 574 L317 574 C382 574 439 547 439 474 L439 474 Z " />
<glyph glyph-name="S" unicode="S" horiz-adv-x="573" d="M550 213 C550 329 475 380 377 425 C346 439 249 477 231 507 C225 516 224 527 224 538 C224 573 256 596 289 596 C337 596 351 565 357 524 L544 524 C542 582 533 623 495 670 C448 727 367 754 295 754 C169 754 36 674 36 536 C36 420 121 364 217 324 C239 315 261 306 283 296 C322 279 362 263 362 215 C362 175 329 144 290 144 C235 144 213 197 213 245 L25 245 L25 221 C25 63 143 -14 292 -14 C438 -14 550 58 550 213 L550 213 Z " />
<glyph glyph-name="T" unicode="T" horiz-adv-x="499" d="M490 574 L490 740 L10 740 L10 574 L156 574 L156 0 L345 0 L345 574 L490 574 Z " />
<glyph glyph-name="U" unicode="U" horiz-adv-x="698" d="M633 293 L633 740 L444 740 L444 293 C444 223 439 152 350 152 C265 152 254 226 254 293 L254 740 L65 740 L65 293 C65 199 72 136 139 65 C193 8 275 -14 352 -14 C431 -14 503 9 559 66 C623 130 633 205 633 293 L633 293 Z " />
<glyph glyph-name="V" unicode="V" horiz-adv-x="722" d="M706 740 L511 740 L361 221 L359 221 L210 740 L16 740 L263 0 L458 0 L706 740 Z " />
<glyph glyph-name="W" unicode="W" horiz-adv-x="981" d="M964 740 L773 740 L672 257 L670 257 L563 740 L418 740 L309 259 L307 259 L208 740 L16 740 L207 0 L378 0 L489 479 L491 479 L602 0 L768 0 L964 740 Z " />
<glyph glyph-name="X" unicode="X" horiz-adv-x="759" d="M748 0 L492 390 L718 740 L505 740 L382 529 L255 740 L41 740 L270 394 L11 0 L222 0 L374 262 L534 0 L748 0 Z " />
<glyph glyph-name="Y" unicode="Y" horiz-adv-x="647" d="M638 740 L435 740 L324 443 L214 740 L9 740 L230 269 L230 0 L419 0 L419 269 L638 740 Z " />
<glyph glyph-name="Z" unicode="Z" horiz-adv-x="499" d="M483 0 L483 166 L247 166 L483 587 L483 740 L16 740 L16 574 L271 574 L16 124 L16 0 L483 0 Z " />
<glyph glyph-name="bracketleft" unicode="&#x5b;" horiz-adv-x="473" d="M401 -264 L401 -90 C313 -86 292 -34 292 44 L292 446 C292 524 313 576 401 580 L401 754 C332 750 273 736 215 694 C126 629 104 543 104 439 L104 51 C104 -52 126 -141 215 -204 C272 -244 332 -260 401 -264 L401 -264 Z " />
<glyph glyph-name="backslash" unicode="&#x5c;" horiz-adv-x="593" d="M521 -100 L256 740 L72 740 L336 -100 L521 -100 Z " />
<glyph glyph-name="bracketright" unicode="&#x5d;" horiz-adv-x="473" d="M369 51 L369 439 C369 542 347 631 258 694 C201 734 141 750 72 754 L72 580 C160 576 181 524 181 446 L181 44 C181 -34 160 -86 72 -90 L72 -264 C141 -260 200 -246 258 -204 C347 -139 369 -53 369 51 L369 51 Z " />
<glyph glyph-name="asciicircum" unicode="&#x5e;" horiz-adv-x="600" d="M557 375 L383 740 L217 740 L43 375 L222 375 L299 598 L301 598 L377 375 L557 375 Z " />
<glyph glyph-name="underscore" unicode="&#x5f;" horiz-adv-x="500" d="M500 -125 L500 -75 L0 -75 L0 -125 L500 -125 Z " />
<glyph glyph-name="grave" unicode="&#x60;" horiz-adv-x="555" d="M404 721 L162 849 L111 732 L358 624 L404 721 Z " />
<glyph glyph-name="a" unicode="a" horiz-adv-x="704" d="M643 0 L643 555 L477 555 L477 496 L475 496 C442 551 374 574 313 574 C146 574 34 440 34 278 C34 113 142 -19 313 -19 C373 -19 445 3 475 60 L477 60 L477 0 L643 0 Z M477 278 C477 198 419 136 338 136 C260 136 200 199 200 276 C200 355 256 419 337 419 C418 419 477 359 477 278 L477 278 Z " />
<glyph glyph-name="b" unicode="b" horiz-adv-x="693" d="M660 281 C660 396 611 497 504 547 C467 564 427 574 387 574 C325 574 269 557 226 511 L226 740 L60 740 L60 0 L219 0 L219 59 L221 59 C250 5 323 -19 380 -19 C553 -19 660 114 660 281 L660 281 Z M494 278 C494 199 435 136 355 136 C274 136 220 200 220 279 C220 357 279 419 358 419 C436 419 494 354 494 278 L494 278 Z " />
<glyph glyph-name="c" unicode="c" horiz-adv-x="652" d="M621 211 L452 211 C427 163 387 137 332 137 C251 137 200 200 200 278 C200 353 248 419 328 419 C385 419 428 393 452 341 L620 341 C591 482 468 574 326 574 C161 574 33 443 33 279 C33 113 164 -18 330 -18 C470 -18 589 75 621 211 L621 211 Z " />
<glyph glyph-name="d" unicode="d" horiz-adv-x="698" d="M638 0 L638 740 L472 740 L472 508 C427 554 373 574 309 574 C142 574 34 440 34 279 C34 115 142 -18 312 -18 C377 -18 443 1 478 60 L480 60 L480 0 L638 0 Z M481 280 C481 198 422 137 339 137 C256 137 200 199 200 280 C200 361 261 419 341 419 C421 419 481 360 481 280 L481 280 Z " />
<glyph glyph-name="e" unicode="e" horiz-adv-x="646" d="M614 271 C614 438 491 574 321 574 C158 574 30 437 30 276 C30 114 162 -18 324 -18 C449 -18 547 63 595 174 L425 174 C398 140 369 122 324 122 C259 122 204 161 194 227 L610 227 C613 242 614 256 614 271 L614 271 Z M448 339 L196 339 C209 399 262 434 322 434 C382 434 435 399 448 339 L448 339 Z " />
<glyph glyph-name="f" unicode="f" horiz-adv-x="314" d="M302 429 L302 555 L232 555 C232 617 242 629 302 629 L302 754 L278 754 C162 754 66 719 66 584 L66 555 L4 555 L4 429 L66 429 L66 0 L232 0 L232 429 L302 429 Z " />
<glyph glyph-name="g" unicode="g" horiz-adv-x="693" d="M635 67 L635 555 L469 555 L469 503 L467 503 C435 554 371 573 314 573 C145 573 34 437 34 274 C34 112 148 -18 314 -18 C373 -18 437 7 466 61 L468 61 L468 44 C468 -44 424 -107 333 -107 C292 -107 254 -92 236 -52 L44 -52 C48 -83 60 -112 78 -138 C133 -218 227 -247 321 -247 C422 -247 547 -209 602 -116 C634 -61 635 5 635 67 L635 67 Z M469 275 C469 195 413 137 333 137 C253 137 200 203 200 280 C200 355 257 418 334 418 C416 418 469 355 469 275 L469 275 Z " />
<glyph glyph-name="h" unicode="h" horiz-adv-x="632" d="M574 0 L574 310 C574 386 575 452 522 513 C486 555 425 574 371 574 C315 574 257 556 228 504 L226 504 L226 740 L60 740 L60 0 L226 0 L226 308 C226 371 247 418 319 418 C391 418 408 362 408 302 L408 0 L574 0 Z " />
<glyph glyph-name="i" unicode="i" horiz-adv-x="286" d="M226 614 L226 740 L60 740 L60 614 L226 614 Z M226 0 L226 555 L60 555 L60 0 L226 0 Z " />
<glyph glyph-name="j" unicode="j" horiz-adv-x="321" d="M253 614 L253 740 L87 740 L87 614 L253 614 Z M253 12 L253 555 L87 555 L87 6 C87 -38 84 -78 28 -78 L6 -78 L6 -204 L47 -204 C209 -204 253 -141 253 12 L253 12 Z " />
<glyph glyph-name="k" unicode="k" horiz-adv-x="591" d="M585 555 L388 555 L234 354 L232 354 L232 740 L66 740 L66 0 L232 0 L232 267 L234 267 L391 0 L579 0 L376 311 L585 555 Z " />
<glyph glyph-name="l" unicode="l" horiz-adv-x="286" d="M226 0 L226 740 L60 740 L60 0 L226 0 Z " />
<glyph glyph-name="m" unicode="m" horiz-adv-x="969" d="M912 0 L912 303 C912 388 915 454 852 518 C813 558 761 574 706 574 C631 574 570 538 530 475 C496 538 442 574 370 574 C307 574 249 553 217 496 L215 496 L215 555 L60 555 L60 0 L226 0 L226 295 C226 360 243 418 320 418 C390 418 403 359 403 302 L403 0 L569 0 L569 303 C569 366 587 418 661 418 C738 418 746 356 746 295 L746 0 L912 0 Z " />
<glyph glyph-name="n" unicode="n" horiz-adv-x="632" d="M574 0 L574 347 C574 412 563 482 510 526 C474 556 415 574 368 574 C301 574 252 553 217 496 L215 496 L215 555 L60 555 L60 0 L226 0 L226 302 C226 368 244 418 321 418 C396 418 408 365 408 303 L408 0 L574 0 Z " />
<glyph glyph-name="o" unicode="o" horiz-adv-x="666" d="M632 278 C632 448 503 573 333 573 C163 573 34 448 34 278 C34 108 163 -17 333 -17 C503 -17 632 108 632 278 L632 278 Z M466 278 C466 203 410 138 333 138 C256 138 200 203 200 278 C200 353 256 418 333 418 C410 418 466 353 466 278 L466 278 Z " />
<glyph glyph-name="p" unicode="p" horiz-adv-x="697" d="M663 272 C663 433 564 574 392 574 C324 574 262 548 219 494 L217 494 L216 494 L216 555 L60 555 L60 -185 L226 -185 L226 50 C271 1 327 -19 393 -19 C555 -19 663 117 663 272 L663 272 Z M497 277 C497 199 437 136 358 136 C279 136 219 199 219 277 C219 356 278 419 358 419 C438 419 497 356 497 277 L497 277 Z " />
<glyph glyph-name="q" unicode="q" horiz-adv-x="698" d="M638 -185 L638 555 L479 555 L479 494 L477 494 C444 551 376 574 313 574 C138 574 34 433 34 267 C34 112 142 -18 302 -18 C368 -18 430 1 470 57 L472 57 L472 -185 L638 -185 Z M478 277 C478 200 417 137 340 137 C263 137 200 197 200 274 C200 354 255 419 338 419 C419 419 478 357 478 277 L478 277 Z " />
<glyph glyph-name="r" unicode="r" horiz-adv-x="363" d="M356 407 L356 574 C292 574 246 553 217 496 L215 496 L215 555 L59 555 L59 0 L225 0 L225 305 C225 391 283 405 356 407 L356 407 Z " />
<glyph glyph-name="s" unicode="s" horiz-adv-x="499" d="M476 170 C476 366 197 317 197 404 C197 429 222 441 244 441 C273 441 295 430 296 399 L459 399 C448 517 357 574 246 574 C139 574 31 507 31 391 C31 313 97 270 163 246 C187 237 211 229 235 221 C265 209 310 197 310 157 C310 128 277 114 252 114 C219 114 194 131 189 165 L24 165 C37 43 134 -19 250 -19 C363 -19 476 45 476 170 L476 170 Z " />
<glyph glyph-name="t" unicode="t" horiz-adv-x="351" d="M339 429 L339 555 L259 555 L259 740 L93 740 L93 555 L11 555 L11 429 L93 429 L93 0 L259 0 L259 429 L339 429 Z " />
<glyph glyph-name="u" unicode="u" horiz-adv-x="634" d="M574 0 L574 555 L408 555 L408 250 C408 186 382 137 313 137 C238 137 224 185 224 248 L224 555 L58 555 L58 223 C58 154 63 108 108 52 C148 3 210 -18 271 -18 C333 -18 386 -1 415 59 L417 59 L417 0 L574 0 Z " />
<glyph glyph-name="v" unicode="v" horiz-adv-x="592" d="M575 555 L403 555 L297 209 L295 209 L189 555 L17 555 L216 0 L375 0 L575 555 Z " />
<glyph glyph-name="w" unicode="w" horiz-adv-x="850" d="M843 555 L672 555 L589 210 L587 210 L495 555 L355 555 L264 210 L262 210 L179 555 L7 555 L177 0 L331 0 L424 359 L426 359 L519 0 L673 0 L843 555 Z " />
<glyph glyph-name="x" unicode="x" horiz-adv-x="630" d="M628 0 L413 297 L600 555 L403 555 L314 409 L224 555 L25 555 L212 297 L1 0 L201 0 L314 172 L425 0 L628 0 Z " />
<glyph glyph-name="y" unicode="y" horiz-adv-x="574" d="M573 555 L397 555 L291 233 L289 233 L178 555 L1 555 L207 28 L119 -185 L295 -185 L573 555 Z " />
<glyph glyph-name="z" unicode="z" horiz-adv-x="444" d="M428 0 L428 126 L211 126 L428 429 L428 555 L15 555 L15 429 L249 429 L15 114 L15 0 L428 0 Z " />
<glyph glyph-name="braceleft" unicode="&#x7b;" horiz-adv-x="554" d="M483 -264 L483 -138 C423 -138 370 -150 370 -73 L370 139 C370 200 316 228 262 231 L262 235 C329 240 370 266 370 340 L370 549 C370 626 423 614 483 614 L483 740 L355 740 C270 740 202 692 202 602 L202 386 C202 335 147 319 105 319 L105 147 C144 147 202 135 202 86 L202 -126 C202 -216 270 -264 355 -264 L483 -264 Z " />
<glyph glyph-name="bar" unicode="&#x7c;" horiz-adv-x="555" d="M369 -100 L369 740 L186 740 L186 -100 L369 -100 Z " />
<glyph glyph-name="braceright" unicode="&#x7d;" horiz-adv-x="554" d="M449 147 L449 319 C407 319 352 335 352 386 L352 602 C352 692 284 740 199 740 L71 740 L71 614 C131 614 184 626 184 549 L184 340 C184 266 225 240 292 235 L292 231 C238 228 184 200 184 139 L184 -73 C184 -150 131 -138 71 -138 L71 -264 L199 -264 C284 -264 352 -216 352 -126 L352 86 C352 135 410 147 449 147 L449 147 Z " />
<glyph glyph-name="asciitilde" unicode="&#x7e;" horiz-adv-x="600" d="M533 219 L497 377 C475 347 448 307 407 307 C354 307 268 375 194 375 C132 375 95 337 67 286 L103 130 C121 164 146 199 189 199 C281 199 326 131 406 131 C467 131 500 175 533 219 L533 219 Z " />
<glyph glyph-name="uni00A0" unicode="&#xa0;" horiz-adv-x="309" d="" />
<glyph glyph-name="exclamdown" unicode="&#xa1;" horiz-adv-x="333" d="M252 385 L252 555 L81 555 L81 385 L252 385 Z M252 -185 L252 311 L81 311 L81 -185 L252 -185 Z " />
<glyph glyph-name="cent" unicode="&#xa2;" horiz-adv-x="618" d="M556 325 L380 325 C363 302 342 291 313 291 C266 291 227 327 227 375 C227 422 266 460 313 460 C342 460 370 445 384 420 L556 420 C547 516 461 595 372 619 L372 720 L241 720 L241 615 C133 581 62 486 62 373 C62 260 135 172 241 136 L241 31 L378 31 L378 136 C470 157 539 233 556 325 L556 325 Z " />
<glyph glyph-name="sterling" unicode="&#xa3;" horiz-adv-x="618" d="M618 188 C618 212 614 229 607 252 L446 252 C450 240 453 229 453 216 C453 164 416 148 371 148 L330 148 C351 167 369 185 369 215 C369 243 353 264 336 284 L413 284 L413 417 L257 417 C234 445 223 469 223 506 C223 550 258 589 303 589 C355 589 383 558 388 508 L562 508 C557 558 551 594 524 637 C476 715 390 755 300 755 C198 755 104 705 58 611 C43 580 34 546 34 511 C34 477 43 445 62 417 L14 417 L14 284 L142 284 C161 259 184 235 184 202 C184 150 132 148 93 148 L44 148 L44 0 L399 0 C485 0 562 34 600 115 C611 137 618 163 618 188 L618 188 Z " />
<glyph glyph-name="currency" unicode="&#xa4;" horiz-adv-x="614" d="M546 177 C522 198 499 221 475 243 C500 287 507 327 507 354 C507 381 501 422 475 465 C499 488 522 510 546 532 C520 559 494 586 468 612 C444 589 421 566 397 543 C361 565 320 573 284 573 C248 573 208 565 170 543 C146 566 123 589 100 612 C73 586 47 559 21 532 C45 510 68 488 92 465 C67 422 61 381 61 354 C61 327 67 287 92 243 C68 221 45 198 21 177 C47 150 73 123 100 97 C123 120 146 143 170 166 C207 144 248 136 284 136 C321 136 361 144 397 166 C421 143 444 120 468 97 C494 123 520 150 546 177 L546 177 Z M395 355 C395 295 345 246 284 246 C223 246 173 295 173 355 C173 415 222 463 284 463 C340 463 395 417 395 355 L395 355 Z " />
<glyph glyph-name="yen" unicode="&#xa5;" horiz-adv-x="618" d="M618 740 L421 740 L310 503 L201 740 L1 740 L120 523 L21 523 L21 385 L189 385 L215 333 L215 306 L19 306 L19 167 L215 167 L215 0 L401 0 L401 167 L598 167 L598 306 L402 306 L402 336 L428 385 L598 385 L598 523 L501 523 L618 740 Z " />
<glyph glyph-name="brokenbar" unicode="&#xa6;" horiz-adv-x="555" d="M369 404 L369 740 L186 740 L186 404 L369 404 Z M369 -100 L369 236 L186 236 L186 -100 L369 -100 Z " />
<glyph glyph-name="section" unicode="&#xa7;" horiz-adv-x="670" d="M630 246 C630 335 580 378 505 412 L323 494 C298 505 264 521 264 553 C264 594 300 606 334 606 C375 606 409 590 421 548 L584 548 C579 679 466 754 343 754 C222 754 104 691 104 556 C104 516 113 479 135 445 C82 406 40 352 40 284 C40 186 91 142 173 104 L344 25 C376 10 432 -12 432 -55 C432 -102 381 -120 342 -120 C284 -120 239 -98 229 -35 L65 -35 C74 -150 141 -225 250 -257 C281 -266 313 -271 345 -271 C476 -271 595 -194 595 -53 C595 5 577 43 544 88 C594 134 630 174 630 246 L630 246 Z M483 218 C483 192 468 170 446 156 L244 249 C216 262 191 277 191 312 C191 338 207 356 230 367 L415 284 C442 272 483 253 483 218 L483 218 Z " />
<glyph glyph-name="dieresis" unicode="&#xa8;" horiz-adv-x="555" d="M473 634 L473 785 L314 785 L314 634 L473 634 Z M240 634 L240 785 L81 785 L81 634 L240 634 Z " />
<glyph glyph-name="copyright" unicode="&#xa9;" horiz-adv-x="800" d="M783 370 C783 579 614 754 403 754 C190 754 18 583 18 370 C18 159 190 -14 401 -14 C612 -14 783 159 783 370 L783 370 Z M700 370 C700 203 570 63 401 63 C233 63 101 204 101 370 C101 538 232 677 402 677 C570 677 700 536 700 370 L700 370 Z M599 329 L493 329 C484 282 457 242 406 242 C330 242 299 304 299 372 C299 440 329 504 406 504 C452 504 478 480 490 436 L595 436 C588 535 499 596 405 596 C275 596 192 499 192 373 C192 246 270 150 402 150 C513 150 590 218 599 329 L599 329 Z " />
<glyph glyph-name="ordfeminine" unicode="&#xaa;" horiz-adv-x="403" d="M351 458 L351 744 L252 744 L252 715 L251 715 C236 743 210 754 179 754 C92 754 37 684 37 601 C37 520 92 448 177 448 C208 448 236 458 250 487 L252 487 L252 458 L351 458 Z M253 601 C253 567 228 542 194 542 C161 542 136 568 136 601 C136 634 160 660 194 660 C228 660 253 635 253 601 L253 601 Z " />
<glyph glyph-name="guillemotleft" unicode="&#xab;" horiz-adv-x="422" d="M375 103 L375 242 L324 289 L375 334 L375 474 L246 344 L246 230 L375 103 Z M176 103 L176 242 L125 289 L176 334 L176 474 L47 344 L47 230 L176 103 Z " />
<glyph glyph-name="logicalnot" unicode="&#xac;" horiz-adv-x="600" d="M557 108 L557 445 L33 445 L33 285 L397 285 L397 108 L557 108 Z " />
<glyph glyph-name="uni00AD" unicode="&#xad;" horiz-adv-x="281" d="M281 207 L281 370 L0 370 L0 207 L281 207 Z " />
<glyph glyph-name="registered" unicode="&#xae;" horiz-adv-x="800" d="M783 370 C783 579 613 754 403 754 C191 754 18 583 18 370 C18 159 190 -14 401 -14 C612 -14 783 159 783 370 L783 370 Z M700 370 C700 203 570 63 401 63 C233 63 101 204 101 370 C101 538 232 677 402 677 C570 677 700 536 700 370 L700 370 Z M578 161 C552 232 592 327 504 364 C548 384 573 418 573 467 C573 556 494 587 417 587 L237 587 L237 161 L343 161 L343 325 L385 325 C432 325 455 309 461 263 C464 239 466 179 475 161 L578 161 Z M467 459 C467 413 442 394 398 394 L343 394 L343 514 L400 514 C438 514 467 503 467 459 L467 459 Z " />
<glyph glyph-name="macron" unicode="&#xaf;" horiz-adv-x="555" d="M457 648 L457 774 L98 774 L98 648 L457 648 Z " />
<glyph glyph-name="degree" unicode="&#xb0;" horiz-adv-x="400" d="M343 569 C343 649 280 712 200 712 C120 712 57 649 57 569 C57 489 120 426 200 426 C280 426 343 489 343 569 L343 569 Z M259 569 C259 537 233 508 200 508 C167 508 141 537 141 569 C141 601 168 630 200 630 C232 630 259 601 259 569 L259 569 Z " />
<glyph glyph-name="plusminus" unicode="&#xb1;" horiz-adv-x="600" d="M552 260 L552 420 L380 420 L380 556 L220 556 L220 420 L48 420 L48 260 L220 260 L220 130 L380 130 L380 260 L552 260 Z M552 -82 L552 78 L48 78 L48 -82 L552 -82 Z " />
<glyph glyph-name="two.superior" unicode="&#xb2;" horiz-adv-x="407" d="M376 422 L376 528 L223 528 L223 530 C252 552 286 580 314 611 C349 650 374 695 374 744 C374 832 286 875 209 875 C152 875 93 854 59 806 C36 773 31 739 30 700 L153 700 C154 730 163 768 200 768 C226 768 235 750 235 727 C235 704 226 682 211 661 C169 601 82 549 35 519 L35 422 L376 422 Z " />
<glyph glyph-name="three.superior" unicode="&#xb3;" horiz-adv-x="407" d="M379 554 C379 605 343 645 296 660 C331 679 353 712 353 752 C353 833 273 875 201 875 C113 875 36 828 35 732 L161 732 C162 755 172 767 197 767 C217 767 229 754 229 734 C229 695 193 692 163 692 L145 692 L145 602 C154 602 168 603 182 603 C214 603 249 598 249 564 C249 534 229 521 201 521 C172 521 158 532 151 559 L22 559 C25 527 31 501 50 475 C82 431 148 413 200 413 C280 413 379 463 379 554 L379 554 Z " />
<glyph glyph-name="acute" unicode="&#xb4;" horiz-adv-x="555" d="M444 723 L391 841 L151 712 L198 614 L444 723 Z " />
<glyph glyph-name="mu" unicode="&#xb5;" horiz-adv-x="634" d="M581 0 L581 555 L415 555 L415 281 C415 216 396 137 316 137 C236 137 218 216 218 281 L218 555 L52 555 L52 -190 L218 -190 L218 44 L220 44 C239 8 279 -10 318 -10 C366 -10 406 25 420 69 L422 69 L423 69 L423 0 L581 0 Z " />
<glyph glyph-name="paragraph" unicode="&#xb6;" horiz-adv-x="701" d="M607 622 L607 740 L247 740 C115 740 -7 701 -7 544 C-7 414 86 355 205 355 L205 -103 L333 -103 L333 622 L430 622 L430 -103 L558 -103 L558 622 L607 622 Z " />
<glyph glyph-name="periodcentered" unicode="&#xb7;" horiz-adv-x="314" d="M244 168 L244 338 L71 338 L71 168 L244 168 Z " />
<glyph glyph-name="cedilla" unicode="&#xb8;" horiz-adv-x="555" d="M388 -141 C388 -91 355 -50 303 -50 C296 -50 289 -51 282 -53 L311 0 L228 0 L186 -87 L251 -122 C258 -113 266 -107 278 -107 C298 -107 312 -121 312 -141 C312 -163 299 -179 276 -179 C256 -179 249 -168 243 -151 L167 -151 C175 -210 218 -245 276 -245 C338 -245 388 -205 388 -141 L388 -141 Z " />
<glyph glyph-name="one.superior" unicode="&#xb9;" horiz-adv-x="289" d="M221 422 L221 866 L20 866 L20 760 L98 760 L98 422 L221 422 Z " />
<glyph glyph-name="ordmasculine" unicode="&#xba;" horiz-adv-x="385" d="M347 601 C347 690 280 754 192 754 C104 754 37 690 37 601 C37 512 104 448 192 448 C280 448 347 512 347 601 L347 601 Z M248 601 C248 570 224 542 192 542 C160 542 136 570 136 601 C136 632 160 660 192 660 C224 660 248 632 248 601 L248 601 Z " />
<glyph glyph-name="guillemotright" unicode="&#xbb;" horiz-adv-x="422" d="M375 230 L375 343 L246 474 L246 335 L298 288 L246 243 L246 103 L375 230 Z M176 230 L176 343 L47 474 L47 335 L98 288 L47 243 L47 103 L176 230 Z " />
<glyph glyph-name="onequarter" unicode="&#xbc;" horiz-adv-x="831" d="M597 740 L460 740 L150 0 L286 0 L597 740 Z M221 296 L221 740 L20 740 L20 634 L98 634 L98 296 L221 296 Z M803 77 L803 171 L751 171 L751 444 L633 444 L419 163 L419 77 L628 77 L628 0 L751 0 L751 77 L803 77 Z M630 171 L546 171 L628 292 L630 292 L630 171 Z " />
<glyph glyph-name="onehalf" unicode="&#xbd;" horiz-adv-x="867" d="M221 296 L221 740 L20 740 L20 634 L98 634 L98 296 L221 296 Z M592 740 L455 740 L145 0 L281 0 L592 740 Z M819 0 L819 106 L666 106 L666 108 C695 130 729 158 757 189 C792 228 817 273 817 322 C817 410 729 453 652 453 C595 453 536 432 502 384 C479 351 474 317 473 278 L596 278 C597 308 606 346 643 346 C669 346 678 328 678 305 C678 282 669 260 654 239 C612 179 525 127 478 97 L478 0 L819 0 Z " />
<glyph glyph-name="threequarters" unicode="&#xbe;" horiz-adv-x="948" d="M379 428 C379 479 343 519 296 534 C331 553 353 586 353 626 C353 707 273 749 201 749 C113 749 36 702 35 606 L161 606 C162 629 172 641 197 641 C217 641 229 628 229 608 C229 569 193 566 163 566 L145 566 L145 476 C154 476 168 477 182 477 C214 477 249 472 249 438 C249 408 229 395 201 395 C172 395 158 406 151 433 L22 433 C25 401 31 375 50 349 C82 305 148 287 200 287 C280 287 379 337 379 428 L379 428 Z M719 740 L582 740 L272 0 L408 0 L719 740 Z M920 77 L920 171 L868 171 L868 444 L750 444 L536 163 L536 77 L745 77 L745 0 L868 0 L868 77 L920 77 Z M747 171 L663 171 L745 292 L747 292 L747 171 Z " />
<glyph glyph-name="questiondown" unicode="&#xbf;" horiz-adv-x="592" d="M405 385 L405 555 L231 555 L231 385 L405 385 Z M543 49 C543 55 543 61 542 67 L359 67 C358 18 351 -29 290 -29 C250 -29 233 -4 233 33 C233 128 403 182 405 319 L231 319 C222 219 41 174 41 12 C41 -20 50 -52 65 -80 C108 -161 191 -200 280 -200 C426 -200 543 -101 543 49 L543 49 Z " />
<glyph glyph-name="Agrave" unicode="&#xc0;" horiz-adv-x="758" d="M749 0 L455 740 L306 740 L9 0 L212 0 L251 107 L508 107 L544 0 L749 0 Z M458 257 L303 257 L379 510 L381 510 L382 510 L458 257 Z M506 873 L264 1001 L213 884 L460 776 L506 873 Z " />
<glyph glyph-name="Aacute" unicode="&#xc1;" horiz-adv-x="758" d="M749 0 L455 740 L306 740 L9 0 L212 0 L251 107 L508 107 L544 0 L749 0 Z M458 257 L303 257 L379 510 L381 510 L382 510 L458 257 Z M546 885 L493 1003 L253 874 L300 776 L546 885 Z " />
<glyph glyph-name="Acircumflex" unicode="&#xc2;" horiz-adv-x="758" d="M749 0 L455 740 L306 740 L9 0 L212 0 L251 107 L508 107 L544 0 L749 0 Z M458 257 L303 257 L379 510 L381 510 L382 510 L458 257 Z M586 805 L436 971 L328 971 L172 805 L334 805 L380 863 L426 805 L586 805 Z " />
<glyph glyph-name="Atilde" unicode="&#xc3;" horiz-adv-x="758" d="M749 0 L455 740 L306 740 L9 0 L212 0 L251 107 L508 107 L544 0 L749 0 Z M458 257 L303 257 L379 510 L381 510 L382 510 L458 257 Z M582 849 L522 934 C496 923 478 917 449 917 C394 917 342 942 287 942 C248 942 210 926 177 907 L237 819 C262 829 282 838 309 838 C357 838 419 812 469 812 C511 812 547 827 582 849 L582 849 Z " />
<glyph glyph-name="Adieresis" unicode="&#xc4;" horiz-adv-x="758" d="M749 0 L455 740 L306 740 L9 0 L212 0 L251 107 L508 107 L544 0 L749 0 Z M458 257 L303 257 L379 510 L381 510 L382 510 L458 257 Z M575 815 L575 966 L416 966 L416 815 L575 815 Z M342 815 L342 966 L183 966 L183 815 L342 815 Z " />
<glyph glyph-name="Aring" unicode="&#xc5;" horiz-adv-x="758" d="M749 0 L455 740 L306 740 L9 0 L212 0 L251 107 L508 107 L544 0 L749 0 Z M458 257 L303 257 L379 510 L381 510 L382 510 L458 257 Z M505 891 C505 960 448 1017 379 1017 C310 1017 253 960 253 891 C253 822 310 765 379 765 C448 765 505 822 505 891 L505 891 Z M423 892 C423 868 403 848 379 848 C355 848 335 867 335 891 C335 916 354 936 379 936 C403 936 423 916 423 892 L423 892 Z " />
<glyph glyph-name="AE" unicode="&#xc6;" horiz-adv-x="975" d="M925 0 L925 166 L697 166 L697 293 L918 293 L918 459 L697 459 L697 574 L925 574 L925 740 L504 740 L-10 0 L219 0 L299 124 L514 124 L514 0 L925 0 Z M514 270 L376 270 L512 471 L514 471 L514 270 Z " />
<glyph glyph-name="Ccedilla" unicode="&#xc7;" horiz-adv-x="832" d="M801 277 L603 277 C570 203 509 152 425 152 C304 152 226 258 226 372 C226 486 304 588 424 588 C507 588 574 535 603 459 L801 459 C794 498 778 536 757 570 C685 688 563 754 425 754 C210 754 37 588 37 371 C37 181 175 19 364 -9 L326 -87 L391 -122 C397 -113 407 -107 418 -107 C438 -107 452 -121 452 -141 C452 -163 439 -179 416 -179 C398 -179 387 -168 383 -151 L307 -151 C315 -210 358 -245 416 -245 C478 -245 528 -205 528 -141 C528 -93 493 -50 443 -50 C436 -50 429 -51 422 -53 L444 -13 C617 -6 759 109 801 277 L801 277 Z " />
<glyph glyph-name="Egrave" unicode="&#xc8;" horiz-adv-x="528" d="M478 0 L478 166 L248 166 L248 293 L471 293 L471 459 L248 459 L248 574 L478 574 L478 740 L67 740 L67 0 L478 0 Z M391 873 L149 1001 L98 884 L345 776 L391 873 Z " />
<glyph glyph-name="Eacute" unicode="&#xc9;" horiz-adv-x="528" d="M478 0 L478 166 L248 166 L248 293 L471 293 L471 459 L248 459 L248 574 L478 574 L478 740 L67 740 L67 0 L478 0 Z M431 885 L378 1003 L138 874 L185 776 L431 885 Z " />
<glyph glyph-name="Ecircumflex" unicode="&#xca;" horiz-adv-x="528" d="M478 0 L478 166 L248 166 L248 293 L471 293 L471 459 L248 459 L248 574 L478 574 L478 740 L67 740 L67 0 L478 0 Z M471 805 L321 971 L213 971 L57 805 L219 805 L265 863 L311 805 L471 805 Z " />
<glyph glyph-name="Edieresis" unicode="&#xcb;" horiz-adv-x="528" d="M478 0 L478 166 L248 166 L248 293 L471 293 L471 459 L248 459 L248 574 L478 574 L478 740 L67 740 L67 0 L478 0 Z M460 815 L460 966 L301 966 L301 815 L460 815 Z M227 815 L227 966 L68 966 L68 815 L227 815 Z " />
<glyph glyph-name="Igrave" unicode="&#xcc;" horiz-adv-x="323" d="M256 0 L256 740 L67 740 L67 0 L256 0 Z M263 873 L21 1001 L-30 884 L217 776 L263 873 Z " />
<glyph glyph-name="Iacute" unicode="&#xcd;" horiz-adv-x="323" d="M256 0 L256 740 L67 740 L67 0 L256 0 Z M353 885 L300 1003 L60 874 L107 776 L353 885 Z " />
<glyph glyph-name="Icircumflex" unicode="&#xce;" horiz-adv-x="323" d="M256 0 L256 740 L67 740 L67 0 L256 0 Z M368 805 L218 971 L110 971 L-46 805 L116 805 L162 863 L208 805 L368 805 Z " />
<glyph glyph-name="Idieresis" unicode="&#xcf;" horiz-adv-x="323" d="M256 0 L256 740 L67 740 L67 0 L256 0 Z M357 815 L357 966 L198 966 L198 815 L357 815 Z M124 815 L124 966 L-35 966 L-35 815 L124 815 Z " />
<glyph glyph-name="Eth" unicode="&#xd0;" horiz-adv-x="772" d="M737 372 C737 455 718 534 669 602 C585 717 480 740 346 740 L97 740 L97 462 L30 462 L30 296 L97 296 L97 0 L376 0 C603 0 737 150 737 372 L737 372 Z M548 369 C548 249 496 166 367 166 L286 166 L286 296 L394 296 L394 462 L286 462 L286 574 L368 574 C494 574 548 487 548 369 L548 369 Z " />
<glyph glyph-name="Ntilde" unicode="&#xd1;" horiz-adv-x="759" d="M691 0 L691 740 L510 740 L518 277 L516 275 L230 740 L67 740 L67 0 L248 0 L243 449 L245 450 L527 0 L691 0 Z M582 849 L522 934 C496 923 478 917 449 917 C394 917 342 942 287 942 C248 942 210 926 177 907 L237 819 C262 829 282 838 309 838 C357 838 419 812 469 812 C511 812 547 827 582 849 L582 849 Z " />
<glyph glyph-name="Ograve" unicode="&#xd2;" horiz-adv-x="851" d="M816 370 C816 588 641 754 425 754 C299 754 188 702 112 602 C93 577 75 548 64 519 C44 468 35 416 35 361 C35 148 215 -14 424 -14 C641 -14 816 151 816 370 L816 370 Z M627 369 C627 256 547 152 428 152 C305 152 224 254 224 372 C224 488 305 588 426 588 C547 588 627 484 627 369 L627 369 Z M552 873 L310 1001 L259 884 L506 776 L552 873 Z " />
<glyph glyph-name="Oacute" unicode="&#xd3;" horiz-adv-x="851" d="M816 370 C816 588 641 754 425 754 C299 754 188 702 112 602 C93 577 75 548 64 519 C44 468 35 416 35 361 C35 148 215 -14 424 -14 C641 -14 816 151 816 370 L816 370 Z M627 369 C627 256 547 152 428 152 C305 152 224 254 224 372 C224 488 305 588 426 588 C547 588 627 484 627 369 L627 369 Z M592 885 L539 1003 L299 874 L346 776 L592 885 Z " />
<glyph glyph-name="Ocircumflex" unicode="&#xd4;" horiz-adv-x="851" d="M816 370 C816 588 641 754 425 754 C299 754 188 702 112 602 C93 577 75 548 64 519 C44 468 35 416 35 361 C35 148 215 -14 424 -14 C641 -14 816 151 816 370 L816 370 Z M627 369 C627 256 547 152 428 152 C305 152 224 254 224 372 C224 488 305 588 426 588 C547 588 627 484 627 369 L627 369 Z M632 805 L482 971 L374 971 L218 805 L380 805 L426 863 L472 805 L632 805 Z " />
<glyph glyph-name="Otilde" unicode="&#xd5;" horiz-adv-x="851" d="M816 370 C816 588 641 754 425 754 C299 754 188 702 112 602 C93 577 75 548 64 519 C44 468 35 416 35 361 C35 148 215 -14 424 -14 C641 -14 816 151 816 370 L816 370 Z M627 369 C627 256 547 152 428 152 C305 152 224 254 224 372 C224 488 305 588 426 588 C547 588 627 484 627 369 L627 369 Z M628 849 L568 934 C542 923 524 917 495 917 C440 917 388 942 333 942 C294 942 256 926 223 907 L283 819 C308 829 328 838 355 838 C403 838 465 812 515 812 C557 812 593 827 628 849 L628 849 Z " />
<glyph glyph-name="Odieresis" unicode="&#xd6;" horiz-adv-x="851" d="M816 370 C816 588 641 754 425 754 C299 754 188 702 112 602 C93 577 75 548 64 519 C44 468 35 416 35 361 C35 148 215 -14 424 -14 C641 -14 816 151 816 370 L816 370 Z M627 369 C627 256 547 152 428 152 C305 152 224 254 224 372 C224 488 305 588 426 588 C547 588 627 484 627 369 L627 369 Z M621 815 L621 966 L462 966 L462 815 L621 815 Z M388 815 L388 966 L229 966 L229 815 L388 815 Z " />
<glyph glyph-name="multiply" unicode="&#xd7;" horiz-adv-x="600" d="M544 373 L430 487 L299 356 L169 486 L56 373 L186 243 L56 113 L169 0 L300 129 L429 0 L542 113 L413 243 L544 373 Z " />
<glyph glyph-name="Oslash" unicode="&#xd8;" horiz-adv-x="851" d="M816 370 C816 471 779 561 711 634 L775 720 L657 806 L593 719 C541 743 483 754 426 754 C208 754 35 590 35 370 C35 269 69 181 138 107 L76 24 L194 -63 L257 21 C312 -3 364 -14 424 -14 C640 -14 816 151 816 370 L816 370 Z M627 369 C627 255 547 152 427 152 C404 152 383 155 361 163 L598 483 C617 447 627 409 627 369 L627 369 Z M488 578 L251 259 C233 292 224 335 224 373 C224 489 306 588 426 588 C447 588 468 585 488 578 L488 578 Z " />
<glyph glyph-name="Ugrave" unicode="&#xd9;" horiz-adv-x="698" d="M633 293 L633 740 L444 740 L444 293 C444 223 439 152 350 152 C265 152 254 226 254 293 L254 740 L65 740 L65 293 C65 199 72 136 139 65 C193 8 275 -14 352 -14 C431 -14 503 9 559 66 C623 130 633 205 633 293 L633 293 Z M441 873 L199 1001 L148 884 L395 776 L441 873 Z " />
<glyph glyph-name="Uacute" unicode="&#xda;" horiz-adv-x="698" d="M633 293 L633 740 L444 740 L444 293 C444 223 439 152 350 152 C265 152 254 226 254 293 L254 740 L65 740 L65 293 C65 199 72 136 139 65 C193 8 275 -14 352 -14 C431 -14 503 9 559 66 C623 130 633 205 633 293 L633 293 Z M551 885 L498 1003 L258 874 L305 776 L551 885 Z " />
<glyph glyph-name="Ucircumflex" unicode="&#xdb;" horiz-adv-x="698" d="M633 293 L633 740 L444 740 L444 293 C444 223 439 152 350 152 C265 152 254 226 254 293 L254 740 L65 740 L65 293 C65 199 72 136 139 65 C193 8 275 -14 352 -14 C431 -14 503 9 559 66 C623 130 633 205 633 293 L633 293 Z M556 805 L406 971 L298 971 L142 805 L304 805 L350 863 L396 805 L556 805 Z " />
<glyph glyph-name="Udieresis" unicode="&#xdc;" horiz-adv-x="698" d="M633 293 L633 740 L444 740 L444 293 C444 223 439 152 350 152 C265 152 254 226 254 293 L254 740 L65 740 L65 293 C65 199 72 136 139 65 C193 8 275 -14 352 -14 C431 -14 503 9 559 66 C623 130 633 205 633 293 L633 293 Z M545 815 L545 966 L386 966 L386 815 L545 815 Z M312 815 L312 966 L153 966 L153 815 L312 815 Z " />
<glyph glyph-name="Yacute" unicode="&#xdd;" horiz-adv-x="647" d="M638 740 L435 740 L324 443 L214 740 L9 740 L230 269 L230 0 L419 0 L419 269 L638 740 Z M525 885 L472 1003 L232 874 L279 776 L525 885 Z " />
<glyph glyph-name="Thorn" unicode="&#xde;" horiz-adv-x="636" d="M624 394 C624 470 595 541 537 590 C479 639 400 644 327 644 C301 644 274 643 248 643 L248 740 L67 740 L67 0 L248 0 L248 136 L330 136 C413 136 481 144 546 200 C598 245 624 327 624 394 L624 394 Z M443 391 C443 316 387 302 325 302 L248 302 L248 478 L318 478 C380 478 443 468 443 391 L443 391 Z " />
<glyph glyph-name="germandbls" unicode="&#xdf;" horiz-adv-x="694" d="M660 228 C660 320 593 399 505 421 C552 452 576 492 576 550 C576 676 459 759 341 759 C259 759 177 723 122 662 C60 593 58 515 58 427 L58 0 L224 0 L224 64 C277 9 323 -18 402 -18 C539 -18 660 87 660 228 L660 228 Z M494 227 C494 176 454 137 403 137 C352 137 329 164 317 209 L224 209 L224 478 C224 542 248 604 322 604 C372 604 410 573 410 521 C410 472 372 445 326 445 L292 445 L292 320 L382 320 C442 320 494 292 494 227 L494 227 Z " />
<glyph glyph-name="agrave" unicode="&#xe0;" horiz-adv-x="704" d="M643 0 L643 555 L477 555 L477 496 L475 496 C442 551 374 574 313 574 C146 574 34 440 34 278 C34 113 142 -19 313 -19 C373 -19 445 3 475 60 L477 60 L477 0 L643 0 Z M477 278 C477 198 419 136 338 136 C260 136 200 199 200 276 C200 355 256 419 337 419 C418 419 477 359 477 278 L477 278 Z M479 711 L237 839 L186 722 L433 614 L479 711 Z " />
<glyph glyph-name="aacute" unicode="&#xe1;" horiz-adv-x="704" d="M643 0 L643 555 L477 555 L477 496 L475 496 C442 551 374 574 313 574 C146 574 34 440 34 278 C34 113 142 -19 313 -19 C373 -19 445 3 475 60 L477 60 L477 0 L643 0 Z M477 278 C477 198 419 136 338 136 C260 136 200 199 200 276 C200 355 256 419 337 419 C418 419 477 359 477 278 L477 278 Z M519 730 L466 848 L226 719 L273 621 L519 730 Z " />
<glyph glyph-name="acircumflex" unicode="&#xe2;" horiz-adv-x="704" d="M643 0 L643 555 L477 555 L477 496 L475 496 C442 551 374 574 313 574 C146 574 34 440 34 278 C34 113 142 -19 313 -19 C373 -19 445 3 475 60 L477 60 L477 0 L643 0 Z M477 278 C477 198 419 136 338 136 C260 136 200 199 200 276 C200 355 256 419 337 419 C418 419 477 359 477 278 L477 278 Z M559 640 L409 806 L301 806 L145 640 L307 640 L353 698 L399 640 L559 640 Z " />
<glyph glyph-name="atilde" unicode="&#xe3;" horiz-adv-x="704" d="M643 0 L643 555 L477 555 L477 496 L475 496 C442 551 374 574 313 574 C146 574 34 440 34 278 C34 113 142 -19 313 -19 C373 -19 445 3 475 60 L477 60 L477 0 L643 0 Z M477 278 C477 198 419 136 338 136 C260 136 200 199 200 276 C200 355 256 419 337 419 C418 419 477 359 477 278 L477 278 Z M555 688 L495 773 C469 762 451 756 422 756 C367 756 315 781 260 781 C221 781 183 765 150 746 L210 658 C235 668 255 677 282 677 C330 677 392 651 442 651 C484 651 520 666 555 688 L555 688 Z " />
<glyph glyph-name="adieresis" unicode="&#xe4;" horiz-adv-x="704" d="M643 0 L643 555 L477 555 L477 496 L475 496 C442 551 374 574 313 574 C146 574 34 440 34 278 C34 113 142 -19 313 -19 C373 -19 445 3 475 60 L477 60 L477 0 L643 0 Z M477 278 C477 198 419 136 338 136 C260 136 200 199 200 276 C200 355 256 419 337 419 C418 419 477 359 477 278 L477 278 Z M548 644 L548 795 L389 795 L389 644 L548 644 Z M315 644 L315 795 L156 795 L156 644 L315 644 Z " />
<glyph glyph-name="aring" unicode="&#xe5;" horiz-adv-x="704" d="M643 0 L643 555 L477 555 L477 496 L475 496 C442 551 374 574 313 574 C146 574 34 440 34 278 C34 113 142 -19 313 -19 C373 -19 445 3 475 60 L477 60 L477 0 L643 0 Z M477 278 C477 198 419 136 338 136 C260 136 200 199 200 276 C200 355 256 419 337 419 C418 419 477 359 477 278 L477 278 Z M478 726 C478 795 421 852 352 852 C283 852 226 795 226 726 C226 657 283 600 352 600 C421 600 478 657 478 726 L478 726 Z M396 727 C396 703 376 683 352 683 C328 683 308 702 308 726 C308 751 327 771 352 771 C376 771 396 751 396 727 L396 727 Z " />
<glyph glyph-name="ae" unicode="&#xe6;" horiz-adv-x="1091" d="M1059 267 C1059 384 1006 494 899 547 C863 564 824 574 785 574 C721 574 667 554 629 502 L627 502 L627 555 L476 555 L476 501 L474 501 C450 551 371 574 320 574 C151 574 34 442 34 277 C34 122 157 -18 316 -18 C370 -18 446 3 474 55 L476 55 L476 0 L627 0 L627 55 L629 55 C664 2 723 -18 784 -18 C910 -18 992 65 1040 175 L873 175 C842 140 813 122 765 122 C700 122 648 160 638 226 L1055 226 C1059 239 1059 253 1059 267 L1059 267 Z M895 336 L642 336 C652 398 711 433 771 433 C836 433 878 398 895 336 L895 336 Z M476 276 C476 199 419 137 341 137 C258 137 200 199 200 281 C200 299 205 319 213 336 C235 388 278 419 335 419 C420 419 476 360 476 276 L476 276 Z " />
<glyph glyph-name="ccedilla" unicode="&#xe7;" horiz-adv-x="652" d="M621 211 L452 211 C427 163 387 137 332 137 C251 137 200 200 200 278 C200 353 250 415 328 415 C384 415 426 390 452 341 L620 341 C591 482 468 574 326 574 C161 574 33 443 33 279 C33 137 130 16 269 -12 L233 -87 L298 -122 C304 -113 314 -107 325 -107 C345 -107 359 -121 359 -141 C359 -163 346 -179 323 -179 C304 -179 295 -168 290 -151 L214 -151 C222 -210 265 -245 323 -245 C385 -245 435 -205 435 -141 C435 -93 400 -50 350 -50 C343 -50 336 -51 329 -53 L349 -16 C481 -9 590 82 621 211 L621 211 Z " />
<glyph glyph-name="egrave" unicode="&#xe8;" horiz-adv-x="646" d="M614 271 C614 438 491 574 321 574 C158 574 30 437 30 276 C30 114 162 -18 324 -18 C449 -18 547 63 595 174 L425 174 C398 140 369 122 324 122 C259 122 204 161 194 227 L610 227 C613 242 614 256 614 271 L614 271 Z M448 339 L196 339 C209 399 262 434 322 434 C382 434 435 399 448 339 L448 339 Z M450 711 L208 839 L157 722 L404 614 L450 711 Z " />
<glyph glyph-name="eacute" unicode="&#xe9;" horiz-adv-x="646" d="M614 271 C614 438 491 574 321 574 C158 574 30 437 30 276 C30 114 162 -18 324 -18 C449 -18 547 63 595 174 L425 174 C398 140 369 122 324 122 C259 122 204 161 194 227 L610 227 C613 242 614 256 614 271 L614 271 Z M448 339 L196 339 C209 399 262 434 322 434 C382 434 435 399 448 339 L448 339 Z M490 730 L437 848 L197 719 L244 621 L490 730 Z " />
<glyph glyph-name="ecircumflex" unicode="&#xea;" horiz-adv-x="646" d="M614 271 C614 438 491 574 321 574 C158 574 30 437 30 276 C30 114 162 -18 324 -18 C449 -18 547 63 595 174 L425 174 C398 140 369 122 324 122 C259 122 204 161 194 227 L610 227 C613 242 614 256 614 271 L614 271 Z M448 339 L196 339 C209 399 262 434 322 434 C382 434 435 399 448 339 L448 339 Z M530 640 L380 806 L272 806 L116 640 L278 640 L324 698 L370 640 L530 640 Z " />
<glyph glyph-name="edieresis" unicode="&#xeb;" horiz-adv-x="646" d="M614 271 C614 438 491 574 321 574 C158 574 30 437 30 276 C30 114 162 -18 324 -18 C449 -18 547 63 595 174 L425 174 C398 140 369 122 324 122 C259 122 204 161 194 227 L610 227 C613 242 614 256 614 271 L614 271 Z M448 339 L196 339 C209 399 262 434 322 434 C382 434 435 399 448 339 L448 339 Z M519 644 L519 795 L360 795 L360 644 L519 644 Z M286 644 L286 795 L127 795 L127 644 L286 644 Z " />
<glyph glyph-name="igrave" unicode="&#xec;" horiz-adv-x="286" d="M226 0 L226 555 L60 555 L60 0 L226 0 Z M245 711 L3 839 L-48 722 L199 614 L245 711 Z " />
<glyph glyph-name="iacute" unicode="&#xed;" horiz-adv-x="286" d="M226 0 L226 555 L60 555 L60 0 L226 0 Z M335 730 L282 848 L42 719 L89 621 L335 730 Z " />
<glyph glyph-name="icircumflex" unicode="&#xee;" horiz-adv-x="286" d="M226 0 L226 555 L60 555 L60 0 L226 0 Z M350 640 L200 806 L92 806 L-64 640 L98 640 L144 698 L190 640 L350 640 Z " />
<glyph glyph-name="idieresis" unicode="&#xef;" horiz-adv-x="286" d="M226 0 L226 555 L60 555 L60 0 L226 0 Z M339 644 L339 795 L180 795 L180 644 L339 644 Z M106 644 L106 795 L-53 795 L-53 644 L106 644 Z " />
<glyph glyph-name="eth" unicode="&#xf0;" horiz-adv-x="666" d="M632 302 C632 443 582 565 472 655 L593 692 L510 756 L381 717 C349 734 315 747 280 756 L120 703 C154 695 187 682 219 667 L79 624 L172 564 L322 609 C357 586 398 553 419 516 L417 514 C383 549 344 561 296 561 C137 561 34 427 34 276 C34 108 167 -17 333 -17 C514 -17 632 127 632 302 L632 302 Z M466 279 C466 202 415 138 335 138 C254 138 200 201 200 279 C200 357 259 420 338 420 C416 420 466 353 466 279 L466 279 Z " />
<glyph glyph-name="ntilde" unicode="&#xf1;" horiz-adv-x="632" d="M574 0 L574 347 C574 412 563 482 510 526 C474 556 415 574 368 574 C301 574 252 553 217 496 L215 496 L215 555 L60 555 L60 0 L226 0 L226 302 C226 368 244 418 321 418 C396 418 408 365 408 303 L408 0 L574 0 Z M519 688 L459 773 C433 762 415 756 386 756 C331 756 279 781 224 781 C185 781 147 765 114 746 L174 658 C199 668 219 677 246 677 C294 677 356 651 406 651 C448 651 484 666 519 688 L519 688 Z " />
<glyph glyph-name="ograve" unicode="&#xf2;" horiz-adv-x="666" d="M632 278 C632 448 503 573 333 573 C163 573 34 448 34 278 C34 108 163 -17 333 -17 C503 -17 632 108 632 278 L632 278 Z M466 278 C466 203 410 138 333 138 C256 138 200 203 200 278 C200 353 256 418 333 418 C410 418 466 353 466 278 L466 278 Z M460 711 L218 839 L167 722 L414 614 L460 711 Z " />
<glyph glyph-name="oacute" unicode="&#xf3;" horiz-adv-x="666" d="M632 278 C632 448 503 573 333 573 C163 573 34 448 34 278 C34 108 163 -17 333 -17 C503 -17 632 108 632 278 L632 278 Z M466 278 C466 203 410 138 333 138 C256 138 200 203 200 278 C200 353 256 418 333 418 C410 418 466 353 466 278 L466 278 Z M500 730 L447 848 L207 719 L254 621 L500 730 Z " />
<glyph glyph-name="ocircumflex" unicode="&#xf4;" horiz-adv-x="666" d="M632 278 C632 448 503 573 333 573 C163 573 34 448 34 278 C34 108 163 -17 333 -17 C503 -17 632 108 632 278 L632 278 Z M466 278 C466 203 410 138 333 138 C256 138 200 203 200 278 C200 353 256 418 333 418 C410 418 466 353 466 278 L466 278 Z M540 640 L390 806 L282 806 L126 640 L288 640 L334 698 L380 640 L540 640 Z " />
<glyph glyph-name="otilde" unicode="&#xf5;" horiz-adv-x="666" d="M632 278 C632 448 503 573 333 573 C163 573 34 448 34 278 C34 108 163 -17 333 -17 C503 -17 632 108 632 278 L632 278 Z M466 278 C466 203 410 138 333 138 C256 138 200 203 200 278 C200 353 256 418 333 418 C410 418 466 353 466 278 L466 278 Z M536 688 L476 773 C450 762 432 756 403 756 C348 756 296 781 241 781 C202 781 164 765 131 746 L191 658 C216 668 236 677 263 677 C311 677 373 651 423 651 C465 651 501 666 536 688 L536 688 Z " />
<glyph glyph-name="odieresis" unicode="&#xf6;" horiz-adv-x="666" d="M632 278 C632 448 503 573 333 573 C163 573 34 448 34 278 C34 108 163 -17 333 -17 C503 -17 632 108 632 278 L632 278 Z M466 278 C466 203 410 138 333 138 C256 138 200 203 200 278 C200 353 256 418 333 418 C410 418 466 353 466 278 L466 278 Z M529 644 L529 795 L370 795 L370 644 L529 644 Z M296 644 L296 795 L137 795 L137 644 L296 644 Z " />
<glyph glyph-name="divide" unicode="&#xf7;" horiz-adv-x="600" d="M378 403 L378 563 L221 563 L221 403 L378 403 Z M552 173 L552 333 L48 333 L48 173 L552 173 Z M378 -57 L378 103 L221 103 L221 -57 L378 -57 Z " />
<glyph glyph-name="oslash" unicode="&#xf8;" horiz-adv-x="666" d="M632 278 C632 349 607 418 561 473 L623 556 L516 633 L455 550 C418 566 374 573 334 573 C162 573 34 448 34 276 C34 206 57 132 104 79 L43 -3 L148 -83 L213 5 C251 -11 293 -18 334 -18 C504 -18 632 108 632 278 L632 278 Z M466 278 C466 201 412 137 333 137 C325 137 316 138 308 140 L454 336 C462 316 466 300 466 278 L466 278 Z M361 415 L213 216 C204 235 200 257 200 278 C200 354 256 418 334 418 C343 418 352 417 361 415 L361 415 Z " />
<glyph glyph-name="ugrave" unicode="&#xf9;" horiz-adv-x="634" d="M574 0 L574 555 L408 555 L408 250 C408 186 382 137 313 137 C238 137 224 185 224 248 L224 555 L58 555 L58 223 C58 154 63 108 108 52 C148 3 210 -18 271 -18 C333 -18 386 -1 415 59 L417 59 L417 0 L574 0 Z M409 711 L167 839 L116 722 L363 614 L409 711 Z " />
<glyph glyph-name="uacute" unicode="&#xfa;" horiz-adv-x="634" d="M574 0 L574 555 L408 555 L408 250 C408 186 382 137 313 137 C238 137 224 185 224 248 L224 555 L58 555 L58 223 C58 154 63 108 108 52 C148 3 210 -18 271 -18 C333 -18 386 -1 415 59 L417 59 L417 0 L574 0 Z M519 730 L466 848 L226 719 L273 621 L519 730 Z " />
<glyph glyph-name="ucircumflex" unicode="&#xfb;" horiz-adv-x="634" d="M574 0 L574 555 L408 555 L408 250 C408 186 382 137 313 137 C238 137 224 185 224 248 L224 555 L58 555 L58 223 C58 154 63 108 108 52 C148 3 210 -18 271 -18 C333 -18 386 -1 415 59 L417 59 L417 0 L574 0 Z M524 640 L374 806 L266 806 L110 640 L272 640 L318 698 L364 640 L524 640 Z " />
<glyph glyph-name="udieresis" unicode="&#xfc;" horiz-adv-x="634" d="M574 0 L574 555 L408 555 L408 250 C408 186 382 137 313 137 C238 137 224 185 224 248 L224 555 L58 555 L58 223 C58 154 63 108 108 52 C148 3 210 -18 271 -18 C333 -18 386 -1 415 59 L417 59 L417 0 L574 0 Z M513 644 L513 795 L354 795 L354 644 L513 644 Z M280 644 L280 795 L121 795 L121 644 L280 644 Z " />
<glyph glyph-name="yacute" unicode="&#xfd;" horiz-adv-x="574" d="M573 555 L397 555 L291 233 L289 233 L178 555 L1 555 L207 28 L119 -185 L295 -185 L573 555 Z M489 730 L436 848 L196 719 L243 621 L489 730 Z " />
<glyph glyph-name="thorn" unicode="&#xfe;" horiz-adv-x="695" d="M663 272 C663 434 562 573 390 573 C321 573 273 554 225 506 L225 740 L59 740 L59 -185 L225 -185 L225 50 C270 1 325 -19 392 -19 C554 -19 663 116 663 272 L663 272 Z M497 277 C497 198 436 136 357 136 C278 136 217 198 217 277 C217 356 277 418 357 418 C437 418 497 356 497 277 L497 277 Z " />
<glyph glyph-name="ydieresis" unicode="&#xff;" horiz-adv-x="574" d="M573 555 L397 555 L291 233 L289 233 L178 555 L1 555 L207 28 L119 -185 L295 -185 L573 555 Z M483 644 L483 795 L324 795 L324 644 L483 644 Z M250 644 L250 795 L91 795 L91 644 L250 644 Z " />
<glyph glyph-name="Amacron" unicode="&#x100;" horiz-adv-x="758" d="M749 0 L455 740 L306 740 L9 0 L212 0 L251 107 L508 107 L544 0 L749 0 Z M458 257 L303 257 L379 510 L381 510 L382 510 L458 257 Z M559 819 L559 945 L200 945 L200 819 L559 819 Z " />
<glyph glyph-name="amacron" unicode="&#x101;" horiz-adv-x="704" d="M643 0 L643 555 L477 555 L477 496 L475 496 C442 551 374 574 313 574 C146 574 34 440 34 278 C34 113 142 -19 313 -19 C373 -19 445 3 475 60 L477 60 L477 0 L643 0 Z M477 278 C477 198 419 136 338 136 C260 136 200 199 200 276 C200 355 256 419 337 419 C418 419 477 359 477 278 L477 278 Z M532 648 L532 774 L173 774 L173 648 L532 648 Z " />
<glyph glyph-name="Abreve" unicode="&#x102;" horiz-adv-x="758" d="M749 0 L455 740 L306 740 L9 0 L212 0 L251 107 L508 107 L544 0 L749 0 Z M458 257 L303 257 L379 510 L381 510 L382 510 L458 257 Z M585 949 L472 949 C453 920 416 914 384 914 C345 914 312 917 286 949 L173 949 C181 839 283 805 379 805 C473 805 578 839 585 949 L585 949 Z " />
<glyph glyph-name="abreve" unicode="&#x103;" horiz-adv-x="704" d="M643 0 L643 555 L477 555 L477 496 L475 496 C442 551 374 574 313 574 C146 574 34 440 34 278 C34 113 142 -19 313 -19 C373 -19 445 3 475 60 L477 60 L477 0 L643 0 Z M477 278 C477 198 419 136 338 136 C260 136 200 199 200 276 C200 355 256 419 337 419 C418 419 477 359 477 278 L477 278 Z M558 778 L445 778 C426 749 389 743 357 743 C318 743 285 746 259 778 L146 778 C154 668 256 634 352 634 C446 634 551 668 558 778 L558 778 Z " />
<glyph glyph-name="Aogonek" unicode="&#x104;" horiz-adv-x="758" d="M744 -190 L744 -104 C729 -110 713 -116 697 -116 C666 -116 649 -100 649 -68 C649 -36 681 -14 706 0 L749 0 L455 740 L306 740 L9 0 L212 0 L251 107 L508 107 L544 0 L622 0 C584 -26 539 -58 539 -109 C539 -176 598 -206 658 -206 C689 -206 714 -200 744 -190 L744 -190 Z M458 257 L303 257 L379 510 L382 510 L458 257 Z " />
<glyph glyph-name="aogonek" unicode="&#x105;" horiz-adv-x="704" d="M649 -190 L649 -104 C634 -110 618 -116 602 -116 C577 -116 554 -93 554 -68 C554 -36 586 -14 611 0 L643 0 L643 555 L477 555 L477 496 L475 496 C442 551 374 574 313 574 C146 574 34 440 34 278 C34 113 142 -19 313 -19 C373 -19 445 3 475 60 L477 60 L477 0 L527 0 C489 -26 444 -58 444 -109 C444 -176 503 -206 563 -206 C594 -206 619 -200 649 -190 L649 -190 Z M477 278 C477 198 419 136 338 136 C260 136 200 199 200 276 C200 355 256 419 337 419 C418 419 477 359 477 278 L477 278 Z " />
<glyph glyph-name="Cacute" unicode="&#x106;" horiz-adv-x="832" d="M801 277 L603 277 C570 204 508 152 425 152 C304 152 226 258 226 372 C226 486 304 588 424 588 C507 588 574 535 603 459 L801 459 C794 502 775 544 751 580 C677 692 559 754 425 754 C210 754 37 588 37 371 C37 154 212 -14 427 -14 C606 -14 758 102 801 277 L801 277 Z M583 885 L530 1003 L290 874 L337 776 L583 885 Z " />
<glyph glyph-name="cacute" unicode="&#x107;" horiz-adv-x="652" d="M621 211 L452 211 C427 163 387 137 332 137 C251 137 200 200 200 278 C200 353 248 419 328 419 C385 419 428 393 452 341 L620 341 C591 482 468 574 326 574 C161 574 33 443 33 279 C33 113 164 -18 330 -18 C470 -18 589 75 621 211 L621 211 Z M493 723 L440 841 L200 712 L247 614 L493 723 Z " />
<glyph glyph-name="Ccircumflex" unicode="&#x108;" horiz-adv-x="832" d="M801 277 L603 277 C570 204 508 152 425 152 C304 152 226 258 226 372 C226 486 304 588 424 588 C507 588 574 535 603 459 L801 459 C794 502 775 544 751 580 C677 692 559 754 425 754 C210 754 37 588 37 371 C37 154 212 -14 427 -14 C606 -14 758 102 801 277 L801 277 Z M633 805 L483 971 L375 971 L219 805 L381 805 L427 863 L473 805 L633 805 Z " />
<glyph glyph-name="ccircumflex" unicode="&#x109;" horiz-adv-x="652" d="M621 211 L452 211 C427 163 387 137 332 137 C251 137 200 200 200 278 C200 353 248 419 328 419 C385 419 428 393 452 341 L620 341 C591 482 468 574 326 574 C161 574 33 443 33 279 C33 113 164 -18 330 -18 C470 -18 589 75 621 211 L621 211 Z M533 630 L383 796 L275 796 L119 630 L281 630 L327 688 L373 630 L533 630 Z " />
<glyph glyph-name="Cdotaccent" unicode="&#x10a;" horiz-adv-x="832" d="M801 277 L603 277 C570 204 508 152 425 152 C304 152 226 258 226 372 C226 486 304 588 424 588 C507 588 574 535 603 459 L801 459 C794 502 775 544 751 580 C677 692 559 754 425 754 C210 754 37 588 37 371 C37 154 212 -14 427 -14 C606 -14 758 102 801 277 L801 277 Z M496 815 L496 966 L337 966 L337 815 L496 815 Z " />
<glyph glyph-name="cdotaccent" unicode="&#x10b;" horiz-adv-x="652" d="M621 211 L452 211 C427 163 387 137 332 137 C251 137 200 200 200 278 C200 353 248 419 328 419 C385 419 428 393 452 341 L620 341 C591 482 468 574 326 574 C161 574 33 443 33 279 C33 113 164 -18 330 -18 C470 -18 589 75 621 211 L621 211 Z M406 634 L406 785 L247 785 L247 634 L406 634 Z " />
<glyph glyph-name="Ccaron" unicode="&#x10c;" horiz-adv-x="832" d="M801 277 L603 277 C570 204 508 152 425 152 C304 152 226 258 226 372 C226 486 304 588 424 588 C507 588 574 535 603 459 L801 459 C794 502 775 544 751 580 C677 692 559 754 425 754 C210 754 37 588 37 371 C37 154 212 -14 427 -14 C606 -14 758 102 801 277 L801 277 Z M623 971 L462 971 L416 913 L370 971 L209 971 L360 805 L468 805 L623 971 Z " />
<glyph glyph-name="ccaron" unicode="&#x10d;" horiz-adv-x="652" d="M621 211 L452 211 C427 163 387 137 332 137 C251 137 200 200 200 278 C200 353 248 419 328 419 C385 419 428 393 452 341 L620 341 C591 482 468 574 326 574 C161 574 33 443 33 279 C33 113 164 -18 330 -18 C470 -18 589 75 621 211 L621 211 Z M533 789 L372 789 L326 731 L280 789 L119 789 L270 623 L378 623 L533 789 Z " />
<glyph glyph-name="Dcaron" unicode="&#x10e;" horiz-adv-x="742" d="M697 372 C697 454 677 535 629 602 C545 718 436 740 302 740 L57 740 L57 0 L316 0 C558 0 697 129 697 372 L697 372 Z M508 369 C508 249 456 166 327 166 L246 166 L246 574 L328 574 C454 574 508 487 508 369 L508 369 Z M538 971 L377 971 L331 913 L285 971 L124 971 L275 805 L383 805 L538 971 Z " />
<glyph glyph-name="dcaron" unicode="&#x10f;" horiz-adv-x="829" d="M638 0 L638 740 L472 740 L472 508 C427 554 373 574 309 574 C142 574 34 440 34 279 C34 115 142 -18 312 -18 C377 -18 443 1 478 60 L480 60 L480 0 L638 0 Z M481 280 C481 198 422 137 339 137 C256 137 200 199 200 280 C200 361 261 419 341 419 C421 419 481 360 481 280 L481 280 Z M849 640 L849 739 L676 739 L676 630 L754 630 L754 606 C754 574 706 578 676 578 L676 505 L737 505 C802 505 849 547 849 617 L849 640 Z " />
<glyph glyph-name="Dcroat" unicode="&#x110;" horiz-adv-x="772" d="M737 372 C737 455 718 534 669 602 C585 717 480 740 346 740 L97 740 L97 462 L30 462 L30 296 L97 296 L97 0 L376 0 C603 0 737 150 737 372 L737 372 Z M548 369 C548 249 496 166 367 166 L286 166 L286 296 L394 296 L394 462 L286 462 L286 574 L368 574 C494 574 548 487 548 369 L548 369 Z " />
<glyph glyph-name="dcroat" unicode="&#x111;" horiz-adv-x="698" d="M472 584 L472 468 C427 514 373 534 309 534 C142 534 34 420 34 259 C34 95 142 -18 312 -18 C377 -18 443 1 478 60 L480 60 L480 0 L638 0 L638 584 L698 584 L698 685 L638 685 L638 740 L472 740 L472 685 L294 685 L294 584 L472 584 Z M481 260 C481 178 422 127 339 127 C256 127 200 179 200 260 C200 341 261 389 341 389 C421 389 481 340 481 260 L481 260 Z " />
<glyph glyph-name="Emacron" unicode="&#x112;" horiz-adv-x="528" d="M478 0 L478 166 L248 166 L248 293 L471 293 L471 459 L248 459 L248 574 L478 574 L478 740 L67 740 L67 0 L478 0 Z M444 819 L444 945 L85 945 L85 819 L444 819 Z " />
<glyph glyph-name="emacron" unicode="&#x113;" horiz-adv-x="646" d="M614 271 C614 438 491 574 321 574 C158 574 30 437 30 276 C30 114 162 -18 324 -18 C449 -18 547 63 595 174 L425 174 C398 140 369 122 324 122 C259 122 204 161 194 227 L610 227 C613 242 614 256 614 271 L614 271 Z M448 339 L196 339 C209 399 262 434 322 434 C382 434 435 399 448 339 L448 339 Z M503 648 L503 774 L144 774 L144 648 L503 648 Z " />
<glyph glyph-name="Ebreve" unicode="&#x114;" horiz-adv-x="528" d="M478 0 L478 166 L248 166 L248 293 L471 293 L471 459 L248 459 L248 574 L478 574 L478 740 L67 740 L67 0 L478 0 Z M470 949 L357 949 C338 920 301 914 269 914 C230 914 197 917 171 949 L58 949 C66 839 168 805 264 805 C358 805 463 839 470 949 L470 949 Z " />
<glyph glyph-name="ebreve" unicode="&#x115;" horiz-adv-x="646" d="M614 271 C614 438 491 574 321 574 C158 574 30 437 30 276 C30 114 162 -18 324 -18 C449 -18 547 63 595 174 L425 174 C398 140 369 122 324 122 C259 122 204 161 194 227 L610 227 C613 242 614 256 614 271 L614 271 Z M448 339 L196 339 C209 399 262 434 322 434 C382 434 435 399 448 339 L448 339 Z M529 778 L416 778 C397 749 360 743 328 743 C289 743 256 746 230 778 L117 778 C125 668 227 634 323 634 C417 634 522 668 529 778 L529 778 Z " />
<glyph glyph-name="Edotaccent" unicode="&#x116;" horiz-adv-x="528" d="M478 0 L478 166 L248 166 L248 293 L471 293 L471 459 L248 459 L248 574 L478 574 L478 740 L67 740 L67 0 L478 0 Z M354 815 L354 966 L195 966 L195 815 L354 815 Z " />
<glyph glyph-name="edotaccent" unicode="&#x117;" horiz-adv-x="646" d="M614 271 C614 438 491 574 321 574 C158 574 30 437 30 276 C30 114 162 -18 324 -18 C449 -18 547 63 595 174 L425 174 C398 140 369 122 324 122 C259 122 204 161 194 227 L610 227 C613 242 614 256 614 271 L614 271 Z M448 339 L196 339 C209 399 262 434 322 434 C382 434 435 399 448 339 L448 339 Z M403 634 L403 785 L244 785 L244 634 L403 634 Z " />
<glyph glyph-name="Eogonek" unicode="&#x118;" horiz-adv-x="528" d="M477 -190 L477 -104 C462 -110 446 -116 430 -116 C405 -116 382 -93 382 -68 C382 -36 414 -14 439 0 L478 0 L478 166 L248 166 L248 293 L471 293 L471 459 L248 459 L248 574 L478 574 L478 740 L67 740 L67 0 L355 0 C317 -26 272 -58 272 -109 C272 -176 331 -206 391 -206 C422 -206 447 -200 477 -190 L477 -190 Z " />
<glyph glyph-name="eogonek" unicode="&#x119;" horiz-adv-x="646" d="M466 -190 L466 -104 C451 -110 435 -116 419 -116 C394 -116 371 -93 371 -68 C371 -36 403 -14 428 0 C500 30 560 94 595 174 L425 174 C398 140 369 122 324 122 C259 122 204 161 194 227 L610 227 C613 242 614 256 614 271 C614 438 491 574 321 574 C158 574 30 437 30 276 C30 116 159 -15 318 -18 C288 -41 261 -69 261 -109 C261 -176 320 -206 380 -206 C411 -206 436 -200 466 -190 L466 -190 Z M448 339 L196 339 C209 399 262 434 322 434 C382 434 435 399 448 339 L448 339 Z " />
<glyph glyph-name="Ecaron" unicode="&#x11a;" horiz-adv-x="528" d="M478 0 L478 166 L248 166 L248 293 L471 293 L471 459 L248 459 L248 574 L478 574 L478 740 L67 740 L67 0 L478 0 Z M480 971 L319 971 L273 913 L227 971 L66 971 L217 805 L325 805 L480 971 Z " />
<glyph glyph-name="ecaron" unicode="&#x11b;" horiz-adv-x="646" d="M614 271 C614 438 491 574 321 574 C158 574 30 437 30 276 C30 114 162 -18 324 -18 C449 -18 547 63 595 174 L425 174 C398 140 369 122 324 122 C259 122 204 161 194 227 L610 227 C613 242 614 256 614 271 L614 271 Z M448 339 L196 339 C209 399 262 434 322 434 C382 434 435 399 448 339 L448 339 Z M530 789 L369 789 L323 731 L277 789 L116 789 L267 623 L375 623 L530 789 Z " />
<glyph glyph-name="Gcircumflex" unicode="&#x11c;" horiz-adv-x="854" d="M823 382 C823 395 823 408 822 421 L383 421 L383 270 L604 270 C581 188 508 151 427 151 C301 151 224 252 224 373 C224 490 305 588 426 588 C496 588 555 553 589 492 L801 492 C756 650 591 754 431 754 C214 754 35 595 35 373 C35 154 210 -15 428 -15 C655 -15 823 155 823 382 L823 382 Z M634 805 L484 971 L376 971 L220 805 L382 805 L428 863 L474 805 L634 805 Z " />
<glyph glyph-name="gcircumflex" unicode="&#x11d;" horiz-adv-x="693" d="M635 67 L635 555 L469 555 L469 503 L467 503 C435 554 371 573 314 573 C145 573 34 437 34 274 C34 112 148 -18 314 -18 C373 -18 437 7 466 61 L468 61 L468 44 C468 -44 424 -107 333 -107 C292 -107 254 -92 236 -52 L44 -52 C48 -83 60 -112 78 -138 C133 -218 227 -247 321 -247 C422 -247 547 -209 602 -116 C634 -61 635 5 635 67 L635 67 Z M469 275 C469 195 413 137 333 137 C253 137 200 203 200 280 C200 355 257 418 334 418 C416 418 469 355 469 275 L469 275 Z M553 630 L403 796 L295 796 L139 630 L301 630 L347 688 L393 630 L553 630 Z " />
<glyph glyph-name="Gbreve" unicode="&#x11e;" horiz-adv-x="854" d="M823 382 C823 395 823 408 822 421 L383 421 L383 270 L604 270 C581 188 508 151 427 151 C301 151 224 252 224 373 C224 490 305 588 426 588 C496 588 555 553 589 492 L801 492 C756 650 591 754 431 754 C214 754 35 595 35 373 C35 154 210 -15 428 -15 C655 -15 823 155 823 382 L823 382 Z M633 949 L520 949 C501 920 464 914 432 914 C393 914 360 917 334 949 L221 949 C229 839 331 805 427 805 C521 805 626 839 633 949 L633 949 Z " />
<glyph glyph-name="gbreve" unicode="&#x11f;" horiz-adv-x="693" d="M635 67 L635 555 L469 555 L469 503 L467 503 C435 554 371 573 314 573 C145 573 34 437 34 274 C34 112 148 -18 314 -18 C373 -18 437 7 466 61 L468 61 L468 44 C468 -44 424 -107 333 -107 C292 -107 254 -92 236 -52 L44 -52 C48 -83 60 -112 78 -138 C133 -218 227 -247 321 -247 C422 -247 547 -209 602 -116 C634 -61 635 5 635 67 L635 67 Z M469 275 C469 195 413 137 333 137 C253 137 200 203 200 280 C200 355 257 418 334 418 C416 418 469 355 469 275 L469 275 Z M552 778 L439 778 C420 749 383 743 351 743 C312 743 279 746 253 778 L140 778 C148 668 250 634 346 634 C440 634 545 668 552 778 L552 778 Z " />
<glyph glyph-name="Gdotaccent" unicode="&#x120;" horiz-adv-x="854" d="M823 382 C823 395 823 408 822 421 L383 421 L383 270 L604 270 C581 188 508 151 427 151 C301 151 224 252 224 373 C224 490 305 588 426 588 C496 588 555 553 589 492 L801 492 C756 650 591 754 431 754 C214 754 35 595 35 373 C35 154 210 -15 428 -15 C655 -15 823 155 823 382 L823 382 Z M507 815 L507 966 L348 966 L348 815 L507 815 Z " />
<glyph glyph-name="gdotaccent" unicode="&#x121;" horiz-adv-x="693" d="M635 67 L635 555 L469 555 L469 503 L467 503 C435 554 371 573 314 573 C145 573 34 437 34 274 C34 112 148 -18 314 -18 C373 -18 437 7 466 61 L468 61 L468 44 C468 -44 424 -107 333 -107 C292 -107 254 -92 236 -52 L44 -52 C48 -83 60 -112 78 -138 C133 -218 227 -247 321 -247 C422 -247 547 -209 602 -116 C634 -61 635 5 635 67 L635 67 Z M469 275 C469 195 413 137 333 137 C253 137 200 203 200 280 C200 355 257 418 334 418 C416 418 469 355 469 275 L469 275 Z M426 634 L426 785 L267 785 L267 634 L426 634 Z " />
<glyph glyph-name="Gcommaaccent" unicode="&#x122;" horiz-adv-x="854" d="M823 382 C823 395 823 408 822 421 L383 421 L383 270 L604 270 C581 188 508 151 427 151 C301 151 224 252 224 373 C224 490 305 588 426 588 C496 588 555 553 589 492 L801 492 C756 650 591 754 431 754 C214 754 35 595 35 373 C35 154 210 -15 428 -15 C655 -15 823 155 823 382 L823 382 Z M514 -145 L514 -46 L341 -46 L341 -155 L419 -155 L419 -179 C419 -211 371 -207 341 -207 L341 -280 L402 -280 C467 -280 514 -238 514 -168 L514 -145 Z " />
<glyph glyph-name="gcommaaccent" unicode="&#x123;" horiz-adv-x="693" d="M635 67 L635 555 L469 555 L469 503 L467 503 C435 554 371 573 314 573 C145 573 34 437 34 274 C34 112 148 -18 314 -18 C373 -18 437 7 466 61 L468 61 L468 44 C468 -44 424 -107 333 -107 C292 -107 254 -92 236 -52 L44 -52 C48 -83 60 -112 78 -138 C133 -218 227 -247 321 -247 C422 -247 547 -209 602 -116 C634 -61 635 5 635 67 L635 67 Z M469 275 C469 195 413 137 333 137 C253 137 200 203 200 280 C200 355 257 418 334 418 C416 418 469 355 469 275 L469 275 Z M249 725 L249 626 L422 626 L422 735 L344 735 L344 759 C344 791 392 787 422 787 L422 860 L361 860 C296 860 249 818 249 748 L249 725 Z " />
<glyph glyph-name="Hcircumflex" unicode="&#x124;" horiz-adv-x="754" d="M687 0 L687 740 L498 740 L498 462 L256 462 L256 740 L67 740 L67 0 L256 0 L256 296 L498 296 L498 0 L687 0 Z M584 805 L434 971 L326 971 L170 805 L332 805 L378 863 L424 805 L584 805 Z " />
<glyph glyph-name="hcircumflex" unicode="&#x125;" horiz-adv-x="632" d="M574 0 L574 310 C574 386 575 452 522 513 C486 555 425 574 371 574 C315 574 257 556 228 504 L226 504 L226 740 L60 740 L60 0 L226 0 L226 308 C226 371 247 418 319 418 C391 418 408 362 408 302 L408 0 L574 0 Z M410 805 L260 971 L152 971 L-4 805 L158 805 L204 863 L250 805 L410 805 Z " />
<glyph glyph-name="Hbar" unicode="&#x126;" horiz-adv-x="754" d="M687 0 L687 539 L754 539 L754 655 L687 655 L687 740 L498 740 L498 655 L256 655 L256 740 L67 740 L67 655 L0 655 L0 539 L67 539 L67 0 L256 0 L256 296 L498 296 L498 0 L687 0 Z M256 462 L256 539 L498 539 L498 462 L256 462 Z " />
<glyph glyph-name="hbar" unicode="&#x127;" horiz-adv-x="632" d="M574 0 L574 270 C574 346 575 412 522 473 C486 515 425 534 371 534 C315 534 257 516 228 464 L226 464 L226 584 L404 584 L404 685 L226 685 L226 740 L60 740 L60 685 L0 685 L0 584 L60 584 L60 0 L226 0 L226 268 C226 331 247 378 319 378 C391 378 408 322 408 262 L408 0 L574 0 Z " />
<glyph glyph-name="Itilde" unicode="&#x128;" horiz-adv-x="323" d="M256 0 L256 740 L67 740 L67 0 L256 0 Z M364 849 L304 934 C278 923 260 917 231 917 C176 917 124 942 69 942 C30 942 -8 926 -41 907 L19 819 C44 829 64 838 91 838 C139 838 201 812 251 812 C293 812 329 827 364 849 L364 849 Z " />
<glyph glyph-name="itilde" unicode="&#x129;" horiz-adv-x="286" d="M226 0 L226 555 L60 555 L60 0 L226 0 Z M346 678 L286 763 C260 752 242 746 213 746 C158 746 106 771 51 771 C12 771 -26 755 -59 736 L1 648 C26 658 46 667 73 667 C121 667 183 641 233 641 C275 641 311 656 346 678 L346 678 Z " />
<glyph glyph-name="Imacron" unicode="&#x12a;" horiz-adv-x="323" d="M256 0 L256 740 L67 740 L67 0 L256 0 Z M341 819 L341 945 L-18 945 L-18 819 L341 819 Z " />
<glyph glyph-name="imacron" unicode="&#x12b;" horiz-adv-x="286" d="M226 0 L226 555 L60 555 L60 0 L226 0 Z M323 648 L323 774 L-36 774 L-36 648 L323 648 Z " />
<glyph glyph-name="Ibreve" unicode="&#x12c;" horiz-adv-x="323" d="M256 0 L256 740 L67 740 L67 0 L256 0 Z M367 949 L254 949 C235 920 198 914 166 914 C127 914 94 917 68 949 L-45 949 C-37 839 65 805 161 805 C255 805 360 839 367 949 L367 949 Z " />
<glyph glyph-name="ibreve" unicode="&#x12d;" horiz-adv-x="286" d="M226 0 L226 555 L60 555 L60 0 L226 0 Z M349 778 L236 778 C217 749 180 743 148 743 C109 743 76 746 50 778 L-63 778 C-55 668 47 634 143 634 C237 634 342 668 349 778 L349 778 Z " />
<glyph glyph-name="Iogonek" unicode="&#x12e;" horiz-adv-x="323" d="M264 -190 L264 -104 C249 -110 233 -116 217 -116 C192 -116 169 -93 169 -68 C169 -36 201 -14 226 0 L256 0 L256 740 L67 740 L67 0 L142 0 C104 -26 59 -58 59 -109 C59 -176 118 -206 178 -206 C209 -206 234 -200 264 -190 L264 -190 Z " />
<glyph glyph-name="iogonek" unicode="&#x12f;" horiz-adv-x="286" d="M246 -190 L246 -104 C231 -110 215 -116 199 -116 C174 -116 151 -93 151 -68 C151 -36 183 -14 208 0 L226 0 L226 555 L60 555 L60 0 L124 0 C86 -26 41 -58 41 -109 C41 -176 100 -206 160 -206 C191 -206 216 -200 246 -190 L246 -190 Z M226 614 L226 740 L60 740 L60 614 L226 614 Z " />
<glyph glyph-name="Idotaccent" unicode="&#x130;" horiz-adv-x="323" d="M256 0 L256 740 L67 740 L67 0 L256 0 Z M241 815 L241 966 L82 966 L82 815 L241 815 Z " />
<glyph glyph-name="dotlessi" unicode="&#x131;" horiz-adv-x="286" d="M226 0 L226 555 L60 555 L60 0 L226 0 Z " />
<glyph glyph-name="IJ" unicode="&#x132;" horiz-adv-x="901" d="M256 0 L256 740 L67 740 L67 0 L256 0 Z M833 293 L833 740 L644 740 L644 246 C644 205 641 152 587 152 C539 152 532 201 530 238 L329 238 C329 130 373 42 478 4 C509 -8 544 -14 578 -14 C657 -14 737 21 787 83 C833 141 833 222 833 293 L833 293 Z " />
<glyph glyph-name="ij" unicode="&#x133;" horiz-adv-x="587" d="M226 614 L226 740 L60 740 L60 614 L226 614 Z M226 0 L226 555 L60 555 L60 0 L226 0 Z M519 614 L519 740 L353 740 L353 614 L519 614 Z M519 12 L519 555 L353 555 L353 6 C353 -38 350 -78 294 -78 L272 -78 L272 -204 L313 -204 C475 -204 519 -141 519 12 L519 12 Z " />
<glyph glyph-name="Jcircumflex" unicode="&#x134;" horiz-adv-x="578" d="M510 293 L510 740 L321 740 L321 246 C321 205 318 152 264 152 C216 152 209 201 207 238 L6 238 C6 130 50 42 155 4 C186 -8 221 -14 255 -14 C334 -14 414 21 464 83 C510 141 510 222 510 293 L510 293 Z M540 805 L390 971 L282 971 L126 805 L288 805 L334 863 L380 805 L540 805 Z " />
<glyph glyph-name="jcircumflex" unicode="&#x135;" horiz-adv-x="321" d="M253 12 L253 555 L87 555 L87 6 C87 -38 84 -78 28 -78 L6 -78 L6 -204 L47 -204 C209 -204 253 -141 253 12 L253 12 Z M372 630 L222 796 L114 796 L-42 630 L120 630 L166 688 L212 630 L372 630 Z " />
<glyph glyph-name="Kcommaaccent" unicode="&#x136;" horiz-adv-x="707" d="M701 0 L440 371 L685 740 L487 740 L278 407 L276 407 L276 740 L87 740 L87 0 L276 0 L276 320 L278 320 L480 0 L701 0 Z M440 -145 L440 -46 L267 -46 L267 -155 L345 -155 L345 -179 C345 -211 297 -207 267 -207 L267 -280 L328 -280 C393 -280 440 -238 440 -168 L440 -145 Z " />
<glyph glyph-name="kcommaaccent" unicode="&#x137;" horiz-adv-x="591" d="M585 555 L388 555 L234 354 L232 354 L232 740 L66 740 L66 0 L232 0 L232 267 L234 267 L391 0 L579 0 L376 311 L585 555 Z M382 -145 L382 -46 L209 -46 L209 -155 L287 -155 L287 -179 C287 -211 239 -207 209 -207 L209 -280 L270 -280 C335 -280 382 -238 382 -168 L382 -145 Z " />
<glyph glyph-name="kgreenlandic" unicode="&#x138;" horiz-adv-x="608" d="M586 555 L395 555 L234 319 L232 319 L232 555 L66 555 L66 0 L232 0 L232 222 L234 222 L400 0 L602 0 L374 279 L586 555 Z " />
<glyph glyph-name="Lacute" unicode="&#x139;" horiz-adv-x="487" d="M480 0 L480 166 L261 166 L261 740 L72 740 L72 0 L480 0 Z M329 885 L276 1003 L36 874 L83 776 L329 885 Z " />
<glyph glyph-name="lacute" unicode="&#x13a;" horiz-adv-x="286" d="M226 0 L226 740 L60 740 L60 0 L226 0 Z M310 885 L257 1003 L17 874 L64 776 L310 885 Z " />
<glyph glyph-name="Lcommaaccent" unicode="&#x13b;" horiz-adv-x="487" d="M480 0 L480 166 L261 166 L261 740 L72 740 L72 0 L480 0 Z M349 -145 L349 -46 L176 -46 L176 -155 L254 -155 L254 -179 C254 -211 206 -207 176 -207 L176 -280 L237 -280 C302 -280 349 -238 349 -168 L349 -145 Z " />
<glyph glyph-name="lcommaaccent" unicode="&#x13c;" horiz-adv-x="286" d="M226 0 L226 740 L60 740 L60 0 L226 0 Z M229 -145 L229 -46 L56 -46 L56 -155 L134 -155 L134 -179 C134 -211 86 -207 56 -207 L56 -280 L117 -280 C182 -280 229 -238 229 -168 L229 -145 Z " />
<glyph glyph-name="Lcaron" unicode="&#x13d;" horiz-adv-x="487" d="M480 0 L480 166 L261 166 L261 740 L72 740 L72 0 L480 0 Z M491 641 L491 740 L318 740 L318 631 L396 631 L396 607 C396 575 348 579 318 579 L318 506 L379 506 C444 506 491 548 491 618 L491 641 Z " />
<glyph glyph-name="lcaron" unicode="&#x13e;" horiz-adv-x="417" d="M226 0 L226 740 L60 740 L60 0 L226 0 Z M437 641 L437 740 L264 740 L264 631 L342 631 L342 607 C342 575 294 579 264 579 L264 506 L325 506 C390 506 437 548 437 618 L437 641 Z " />
<glyph glyph-name="Ldot" unicode="&#x13f;" horiz-adv-x="538" d="M480 0 L480 166 L261 166 L261 740 L72 740 L72 0 L480 0 Z M510 334 L510 485 L351 485 L351 334 L510 334 Z " />
<glyph glyph-name="ldot" unicode="&#x140;" horiz-adv-x="445" d="M445 294 L445 445 L286 445 L286 294 L445 294 Z M226 0 L226 740 L60 740 L60 0 L226 0 Z " />
<glyph glyph-name="Lslash" unicode="&#x141;" horiz-adv-x="487" d="M480 0 L480 166 L261 166 L261 341 L370 419 L370 607 L261 529 L261 740 L72 740 L72 393 L7 346 L7 158 L72 205 L72 0 L480 0 Z " />
<glyph glyph-name="lslash" unicode="&#x142;" horiz-adv-x="342" d="M317 375 L317 547 L252 505 L252 740 L86 740 L86 398 L25 359 L25 187 L86 226 L86 0 L252 0 L252 333 L317 375 Z " />
<glyph glyph-name="Nacute" unicode="&#x143;" horiz-adv-x="759" d="M691 0 L691 740 L510 740 L518 277 L516 275 L230 740 L67 740 L67 0 L248 0 L243 449 L245 450 L527 0 L691 0 Z M546 885 L493 1003 L253 874 L300 776 L546 885 Z " />
<glyph glyph-name="nacute" unicode="&#x144;" horiz-adv-x="632" d="M574 0 L574 347 C574 412 563 482 510 526 C474 556 415 574 368 574 C301 574 252 553 217 496 L215 496 L215 555 L60 555 L60 0 L226 0 L226 302 C226 368 244 418 321 418 C396 418 408 365 408 303 L408 0 L574 0 Z M483 723 L430 841 L190 712 L237 614 L483 723 Z " />
<glyph glyph-name="Ncommaaccent" unicode="&#x145;" horiz-adv-x="759" d="M691 0 L691 740 L510 740 L518 277 L516 275 L230 740 L67 740 L67 0 L248 0 L243 449 L245 450 L527 0 L691 0 Z M466 -145 L466 -46 L293 -46 L293 -155 L371 -155 L371 -179 C371 -211 323 -207 293 -207 L293 -280 L354 -280 C419 -280 466 -238 466 -168 L466 -145 Z " />
<glyph glyph-name="ncommaaccent" unicode="&#x146;" horiz-adv-x="632" d="M574 0 L574 347 C574 412 563 482 510 526 C474 556 415 574 368 574 C301 574 252 553 217 496 L215 496 L215 555 L60 555 L60 0 L226 0 L226 302 C226 368 244 418 321 418 C396 418 408 365 408 303 L408 0 L574 0 Z M403 -145 L403 -46 L230 -46 L230 -155 L308 -155 L308 -179 C308 -211 260 -207 230 -207 L230 -280 L291 -280 C356 -280 403 -238 403 -168 L403 -145 Z " />
<glyph glyph-name="Ncaron" unicode="&#x147;" horiz-adv-x="759" d="M691 0 L691 740 L510 740 L518 277 L516 275 L230 740 L67 740 L67 0 L248 0 L243 449 L245 450 L527 0 L691 0 Z M586 971 L425 971 L379 913 L333 971 L172 971 L323 805 L431 805 L586 971 Z " />
<glyph glyph-name="ncaron" unicode="&#x148;" horiz-adv-x="632" d="M574 0 L574 347 C574 412 563 482 510 526 C474 556 415 574 368 574 C301 574 252 553 217 496 L215 496 L215 555 L60 555 L60 0 L226 0 L226 302 C226 368 244 418 321 418 C396 418 408 365 408 303 L408 0 L574 0 Z M513 789 L352 789 L306 731 L260 789 L99 789 L250 623 L358 623 L513 789 Z " />
<glyph glyph-name="napostrophe" unicode="&#x149;" horiz-adv-x="792" d="M734 0 L734 347 C734 412 723 482 670 526 C634 556 575 574 528 574 C461 574 412 553 377 496 L375 496 L375 555 L220 555 L220 0 L386 0 L386 302 C386 368 404 418 481 418 C556 418 568 365 568 303 L568 0 L734 0 Z M163 530 L163 740 L-11 740 L-11 570 L68 570 L68 536 C68 492 19 498 -11 498 L-11 409 L61 409 C130 409 163 467 163 530 L163 530 Z " />
<glyph glyph-name="Eng" unicode="&#x14a;" horiz-adv-x="759" d="M691 12 L691 740 L510 740 L518 262 L516 260 L230 740 L67 740 L67 0 L248 0 L243 449 L245 450 L518 0 C517 -38 509 -71 459 -71 L437 -71 L437 -204 L485 -204 C647 -204 691 -141 691 12 L691 12 Z " />
<glyph glyph-name="eng" unicode="&#x14b;" horiz-adv-x="632" d="M574 12 L574 347 C574 412 563 482 510 526 C474 556 415 574 368 574 C301 574 252 553 217 496 L215 496 L215 555 L60 555 L60 0 L226 0 L226 302 C226 368 244 418 321 418 C396 418 408 365 408 303 L408 6 C408 -38 405 -78 349 -78 L327 -78 L327 -204 L368 -204 C530 -204 574 -141 574 12 L574 12 Z " />
<glyph glyph-name="Omacron" unicode="&#x14c;" horiz-adv-x="851" d="M816 370 C816 588 641 754 425 754 C299 754 188 702 112 602 C93 577 75 548 64 519 C44 468 35 416 35 361 C35 148 215 -14 424 -14 C641 -14 816 151 816 370 L816 370 Z M627 369 C627 256 547 152 428 152 C305 152 224 254 224 372 C224 488 305 588 426 588 C547 588 627 484 627 369 L627 369 Z M605 819 L605 945 L246 945 L246 819 L605 819 Z " />
<glyph glyph-name="omacron" unicode="&#x14d;" horiz-adv-x="666" d="M632 278 C632 448 503 573 333 573 C163 573 34 448 34 278 C34 108 163 -17 333 -17 C503 -17 632 108 632 278 L632 278 Z M466 278 C466 203 410 138 333 138 C256 138 200 203 200 278 C200 353 256 418 333 418 C410 418 466 353 466 278 L466 278 Z M513 648 L513 774 L154 774 L154 648 L513 648 Z " />
<glyph glyph-name="Obreve" unicode="&#x14e;" horiz-adv-x="851" d="M816 370 C816 588 641 754 425 754 C299 754 188 702 112 602 C93 577 75 548 64 519 C44 468 35 416 35 361 C35 148 215 -14 424 -14 C641 -14 816 151 816 370 L816 370 Z M627 369 C627 256 547 152 428 152 C305 152 224 254 224 372 C224 488 305 588 426 588 C547 588 627 484 627 369 L627 369 Z M631 949 L518 949 C499 920 462 914 430 914 C391 914 358 917 332 949 L219 949 C227 839 329 805 425 805 C519 805 624 839 631 949 L631 949 Z " />
<glyph glyph-name="obreve" unicode="&#x14f;" horiz-adv-x="666" d="M632 278 C632 448 503 573 333 573 C163 573 34 448 34 278 C34 108 163 -17 333 -17 C503 -17 632 108 632 278 L632 278 Z M466 278 C466 203 410 138 333 138 C256 138 200 203 200 278 C200 353 256 418 333 418 C410 418 466 353 466 278 L466 278 Z M539 778 L426 778 C407 749 370 743 338 743 C299 743 266 746 240 778 L127 778 C135 668 237 634 333 634 C427 634 532 668 539 778 L539 778 Z " />
<glyph glyph-name="Ohungarumlaut" unicode="&#x150;" horiz-adv-x="851" d="M816 370 C816 588 641 754 425 754 C299 754 188 702 112 602 C93 577 75 548 64 519 C44 468 35 416 35 361 C35 148 215 -14 424 -14 C641 -14 816 151 816 370 L816 370 Z M627 369 C627 256 547 152 428 152 C305 152 224 254 224 372 C224 488 305 588 426 588 C547 588 627 484 627 369 L627 369 Z M671 951 L554 1008 L479 823 L585 776 L671 951 Z M472 951 L354 1008 L280 823 L386 776 L472 951 Z " />
<glyph glyph-name="ohungarumlaut" unicode="&#x151;" horiz-adv-x="666" d="M632 278 C632 448 503 573 333 573 C163 573 34 448 34 278 C34 108 163 -17 333 -17 C503 -17 632 108 632 278 L632 278 Z M466 278 C466 203 410 138 333 138 C256 138 200 203 200 278 C200 353 256 418 333 418 C410 418 466 353 466 278 L466 278 Z M579 775 L462 832 L387 647 L493 600 L579 775 Z M380 775 L262 832 L188 647 L294 600 L380 775 Z " />
<glyph glyph-name="OE" unicode="&#x152;" horiz-adv-x="1085" d="M1035 0 L1035 166 L805 166 L805 293 L1027 293 L1027 459 L805 459 L805 574 L1035 574 L1035 740 L623 740 L623 691 C561 737 501 754 424 754 C204 754 35 588 35 368 C35 155 206 -14 419 -14 C495 -14 561 5 623 49 L623 0 L1035 0 Z M622 373 C622 255 547 152 422 152 C303 152 224 255 224 368 C224 485 299 588 423 588 C545 588 622 490 622 373 L622 373 Z " />
<glyph glyph-name="oe" unicode="&#x153;" horiz-adv-x="1076" d="M1045 272 C1045 437 920 574 752 574 C678 574 588 540 544 479 C500 540 410 574 336 574 C164 574 34 449 34 276 C34 112 163 -19 328 -19 C419 -19 488 10 544 81 C594 12 667 -19 752 -19 C878 -19 978 59 1026 173 L856 173 C825 138 796 122 748 122 C684 122 631 160 624 226 L1040 226 C1043 241 1045 256 1045 272 L1045 272 Z M879 337 L629 337 C640 397 695 433 754 433 C815 433 865 397 879 337 L879 337 Z M467 278 C467 204 412 136 335 136 C258 136 200 202 200 277 C200 353 255 419 334 419 C410 419 467 352 467 278 L467 278 Z " />
<glyph glyph-name="Racute" unicode="&#x154;" horiz-adv-x="653" d="M637 0 L436 252 C553 271 620 371 620 485 C620 562 590 638 529 687 C465 738 379 740 301 740 L67 740 L67 0 L248 0 L248 239 L250 239 L421 0 L637 0 Z M439 474 C439 398 386 368 315 368 L248 368 L248 574 L317 574 C382 574 439 547 439 474 L439 474 Z M493 885 L440 1003 L200 874 L247 776 L493 885 Z " />
<glyph glyph-name="racute" unicode="&#x155;" horiz-adv-x="363" d="M356 407 L356 574 C292 574 246 553 217 496 L215 496 L215 555 L59 555 L59 0 L225 0 L225 305 C225 391 283 405 356 407 L356 407 Z M348 723 L295 841 L55 712 L102 614 L348 723 Z " />
<glyph glyph-name="Rcommaaccent" unicode="&#x156;" horiz-adv-x="653" d="M637 0 L436 252 C553 271 620 371 620 485 C620 562 590 638 529 687 C465 738 379 740 301 740 L67 740 L67 0 L248 0 L248 239 L250 239 L421 0 L637 0 Z M439 474 C439 398 386 368 315 368 L248 368 L248 574 L317 574 C382 574 439 547 439 474 L439 474 Z M413 -145 L413 -46 L240 -46 L240 -155 L318 -155 L318 -179 C318 -211 270 -207 240 -207 L240 -280 L301 -280 C366 -280 413 -238 413 -168 L413 -145 Z " />
<glyph glyph-name="rcommaaccent" unicode="&#x157;" horiz-adv-x="363" d="M356 407 L356 574 C292 574 246 553 217 496 L215 496 L215 555 L59 555 L59 0 L225 0 L225 305 C225 391 283 405 356 407 L356 407 Z M228 -145 L228 -46 L55 -46 L55 -155 L133 -155 L133 -179 C133 -211 85 -207 55 -207 L55 -280 L116 -280 C181 -280 228 -238 228 -168 L228 -145 Z " />
<glyph glyph-name="Rcaron" unicode="&#x158;" horiz-adv-x="653" d="M637 0 L436 252 C553 271 620 371 620 485 C620 562 590 638 529 687 C465 738 379 740 301 740 L67 740 L67 0 L248 0 L248 239 L250 239 L421 0 L637 0 Z M439 474 C439 398 386 368 315 368 L248 368 L248 574 L317 574 C382 574 439 547 439 474 L439 474 Z M533 971 L372 971 L326 913 L280 971 L119 971 L270 805 L378 805 L533 971 Z " />
<glyph glyph-name="rcaron" unicode="&#x159;" horiz-adv-x="363" d="M356 407 L356 574 C292 574 246 553 217 496 L215 496 L215 555 L59 555 L59 0 L225 0 L225 305 C225 391 283 405 356 407 L356 407 Z M388 789 L227 789 L181 731 L135 789 L-26 789 L125 623 L233 623 L388 789 Z " />
<glyph glyph-name="Sacute" unicode="&#x15a;" horiz-adv-x="573" d="M550 213 C550 329 475 380 377 425 C346 439 249 477 231 507 C225 516 224 527 224 538 C224 573 256 596 289 596 C337 596 351 565 357 524 L544 524 C542 582 533 623 495 670 C448 727 367 754 295 754 C169 754 36 674 36 536 C36 420 121 364 217 324 C239 315 261 306 283 296 C322 279 362 263 362 215 C362 175 329 144 290 144 C235 144 213 197 213 245 L25 245 L25 221 C25 63 143 -14 292 -14 C438 -14 550 58 550 213 L550 213 Z M453 885 L400 1003 L160 874 L207 776 L453 885 Z " />
<glyph glyph-name="sacute" unicode="&#x15b;" horiz-adv-x="499" d="M476 170 C476 366 197 317 197 404 C197 429 222 441 244 441 C273 441 295 430 296 399 L459 399 C448 517 357 574 246 574 C139 574 31 507 31 391 C31 313 97 270 163 246 C187 237 211 229 235 221 C265 209 310 197 310 157 C310 128 277 114 252 114 C219 114 194 131 189 165 L24 165 C37 43 134 -19 250 -19 C363 -19 476 45 476 170 L476 170 Z M416 723 L363 841 L123 712 L170 614 L416 723 Z " />
<glyph glyph-name="Scircumflex" unicode="&#x15c;" horiz-adv-x="573" d="M550 213 C550 329 475 380 377 425 C346 439 249 477 231 507 C225 516 224 527 224 538 C224 573 256 596 289 596 C337 596 351 565 357 524 L544 524 C542 582 533 623 495 670 C448 727 367 754 295 754 C169 754 36 674 36 536 C36 420 121 364 217 324 C239 315 261 306 283 296 C322 279 362 263 362 215 C362 175 329 144 290 144 C235 144 213 197 213 245 L25 245 L25 221 C25 63 143 -14 292 -14 C438 -14 550 58 550 213 L550 213 Z M493 805 L343 971 L235 971 L79 805 L241 805 L287 863 L333 805 L493 805 Z " />
<glyph glyph-name="scircumflex" unicode="&#x15d;" horiz-adv-x="499" d="M476 170 C476 366 197 317 197 404 C197 429 222 441 244 441 C273 441 295 430 296 399 L459 399 C448 517 357 574 246 574 C139 574 31 507 31 391 C31 313 97 270 163 246 C187 237 211 229 235 221 C265 209 310 197 310 157 C310 128 277 114 252 114 C219 114 194 131 189 165 L24 165 C37 43 134 -19 250 -19 C363 -19 476 45 476 170 L476 170 Z M456 630 L306 796 L198 796 L42 630 L204 630 L250 688 L296 630 L456 630 Z " />
<glyph glyph-name="Scedilla" unicode="&#x15e;" horiz-adv-x="573" d="M392 -141 C392 -91 359 -50 307 -50 C300 -50 293 -51 286 -53 L307 -14 C446 -9 550 63 550 213 C550 329 475 380 377 425 C346 439 249 477 231 507 C225 516 224 527 224 538 C224 573 256 596 289 596 C337 596 351 565 357 524 L544 524 C542 582 533 623 495 670 C448 727 367 754 295 754 C169 754 36 674 36 536 C36 420 121 364 217 324 C239 315 261 306 283 296 C322 279 362 263 362 215 C362 175 329 144 290 144 C235 144 213 197 213 245 L25 245 L25 221 C25 86 110 10 227 -9 L190 -87 L255 -122 C262 -113 270 -107 282 -107 C302 -107 316 -121 316 -141 C316 -163 303 -179 280 -179 C260 -179 253 -168 247 -151 L171 -151 C179 -210 222 -245 280 -245 C342 -245 392 -205 392 -141 L392 -141 Z " />
<glyph glyph-name="scedilla" unicode="&#x15f;" horiz-adv-x="499" d="M360 -141 C360 -91 327 -50 275 -50 C268 -50 261 -51 254 -53 L273 -18 C378 -10 476 53 476 170 C476 366 197 317 197 404 C197 429 222 441 244 441 C273 441 295 430 296 399 L459 399 C448 517 357 574 246 574 C139 574 31 507 31 391 C31 313 97 270 163 246 C187 237 211 229 235 221 C265 209 310 197 310 157 C310 128 277 114 252 114 C219 114 194 131 189 165 L24 165 C35 63 104 3 193 -14 L158 -87 L223 -122 C230 -113 238 -107 250 -107 C270 -107 284 -121 284 -141 C284 -163 271 -179 248 -179 C228 -179 221 -168 215 -151 L139 -151 C147 -210 190 -245 248 -245 C310 -245 360 -205 360 -141 L360 -141 Z " />
<glyph glyph-name="Scaron" unicode="&#x160;" horiz-adv-x="573" d="M550 213 C550 329 475 380 377 425 C346 439 249 477 231 507 C225 516 224 527 224 538 C224 573 256 596 289 596 C337 596 351 565 357 524 L544 524 C542 582 533 623 495 670 C448 727 367 754 295 754 C169 754 36 674 36 536 C36 420 121 364 217 324 C239 315 261 306 283 296 C322 279 362 263 362 215 C362 175 329 144 290 144 C235 144 213 197 213 245 L25 245 L25 221 C25 63 143 -14 292 -14 C438 -14 550 58 550 213 L550 213 Z M493 974 L332 974 L286 916 L240 974 L79 974 L230 808 L338 808 L493 974 Z " />
<glyph glyph-name="scaron" unicode="&#x161;" horiz-adv-x="499" d="M476 170 C476 366 197 317 197 404 C197 429 222 441 244 441 C273 441 295 430 296 399 L459 399 C448 517 357 574 246 574 C139 574 31 507 31 391 C31 313 97 270 163 246 C187 237 211 229 235 221 C265 209 310 197 310 157 C310 128 277 114 252 114 C219 114 194 131 189 165 L24 165 C37 43 134 -19 250 -19 C363 -19 476 45 476 170 L476 170 Z M456 799 L295 799 L249 741 L203 799 L42 799 L193 633 L301 633 L456 799 Z " />
<glyph glyph-name="Tcedilla" unicode="&#x162;" horiz-adv-x="499" d="M490 574 L490 740 L10 740 L10 574 L156 574 L156 0 L345 0 L345 574 L490 574 Z M336 -145 L336 -46 L163 -46 L163 -155 L241 -155 L241 -179 C241 -211 193 -207 163 -207 L163 -280 L224 -280 C289 -280 336 -238 336 -168 L336 -145 Z " />
<glyph glyph-name="tcedilla" unicode="&#x163;" horiz-adv-x="351" d="M339 429 L339 555 L259 555 L259 740 L93 740 L93 555 L11 555 L11 429 L93 429 L93 0 L259 0 L259 429 L339 429 Z M263 -145 L263 -46 L90 -46 L90 -155 L168 -155 L168 -179 C168 -211 120 -207 90 -207 L90 -280 L151 -280 C216 -280 263 -238 263 -168 L263 -145 Z " />
<glyph glyph-name="Tcaron" unicode="&#x164;" horiz-adv-x="499" d="M490 574 L490 740 L10 740 L10 574 L156 574 L156 0 L345 0 L345 574 L490 574 Z M456 971 L295 971 L249 913 L203 971 L42 971 L193 805 L301 805 L456 971 Z " />
<glyph glyph-name="tcaron" unicode="&#x165;" horiz-adv-x="459" d="M339 429 L339 555 L259 555 L259 740 L93 740 L93 555 L11 555 L11 429 L93 429 L93 0 L259 0 L259 429 L339 429 Z M479 721 L479 820 L306 820 L306 711 L384 711 L384 687 C384 655 336 659 306 659 L306 586 L367 586 C432 586 479 628 479 698 L479 721 Z " />
<glyph glyph-name="Tbar" unicode="&#x166;" horiz-adv-x="499" d="M460 266 L460 432 L345 432 L345 574 L490 574 L490 740 L10 740 L10 574 L156 574 L156 432 L40 432 L40 266 L156 266 L156 0 L345 0 L345 266 L460 266 Z " />
<glyph glyph-name="tbar" unicode="&#x167;" horiz-adv-x="351" d="M329 218 L329 344 L259 344 L259 429 L339 429 L339 555 L259 555 L259 740 L93 740 L93 555 L11 555 L11 429 L93 429 L93 344 L21 344 L21 218 L93 218 L93 0 L259 0 L259 218 L329 218 Z " />
<glyph glyph-name="Utilde" unicode="&#x168;" horiz-adv-x="698" d="M633 293 L633 740 L444 740 L444 293 C444 223 439 152 350 152 C265 152 254 226 254 293 L254 740 L65 740 L65 293 C65 199 72 136 139 65 C193 8 275 -14 352 -14 C431 -14 503 9 559 66 C623 130 633 205 633 293 L633 293 Z M552 849 L492 934 C466 923 448 917 419 917 C364 917 312 942 257 942 C218 942 180 926 147 907 L207 819 C232 829 252 838 279 838 C327 838 389 812 439 812 C481 812 517 827 552 849 L552 849 Z " />
<glyph glyph-name="utilde" unicode="&#x169;" horiz-adv-x="634" d="M574 0 L574 555 L408 555 L408 250 C408 186 382 137 313 137 C238 137 224 185 224 248 L224 555 L58 555 L58 223 C58 154 63 108 108 52 C148 3 210 -18 271 -18 C333 -18 386 -1 415 59 L417 59 L417 0 L574 0 Z M520 678 L460 763 C434 752 416 746 387 746 C332 746 280 771 225 771 C186 771 148 755 115 736 L175 648 C200 658 220 667 247 667 C295 667 357 641 407 641 C449 641 485 656 520 678 L520 678 Z " />
<glyph glyph-name="Umacron" unicode="&#x16a;" horiz-adv-x="698" d="M633 293 L633 740 L444 740 L444 293 C444 223 439 152 350 152 C265 152 254 226 254 293 L254 740 L65 740 L65 293 C65 199 72 136 139 65 C193 8 275 -14 352 -14 C431 -14 503 9 559 66 C623 130 633 205 633 293 L633 293 Z M529 819 L529 945 L170 945 L170 819 L529 819 Z " />
<glyph glyph-name="umacron" unicode="&#x16b;" horiz-adv-x="634" d="M574 0 L574 555 L408 555 L408 250 C408 186 382 137 313 137 C238 137 224 185 224 248 L224 555 L58 555 L58 223 C58 154 63 108 108 52 C148 3 210 -18 271 -18 C333 -18 386 -1 415 59 L417 59 L417 0 L574 0 Z M497 648 L497 774 L138 774 L138 648 L497 648 Z " />
<glyph glyph-name="Ubreve" unicode="&#x16c;" horiz-adv-x="698" d="M633 293 L633 740 L444 740 L444 293 C444 223 439 152 350 152 C265 152 254 226 254 293 L254 740 L65 740 L65 293 C65 199 72 136 139 65 C193 8 275 -14 352 -14 C431 -14 503 9 559 66 C623 130 633 205 633 293 L633 293 Z M555 949 L442 949 C423 920 386 914 354 914 C315 914 282 917 256 949 L143 949 C151 839 253 805 349 805 C443 805 548 839 555 949 L555 949 Z " />
<glyph glyph-name="ubreve" unicode="&#x16d;" horiz-adv-x="634" d="M574 0 L574 555 L408 555 L408 250 C408 186 382 137 313 137 C238 137 224 185 224 248 L224 555 L58 555 L58 223 C58 154 63 108 108 52 C148 3 210 -18 271 -18 C333 -18 386 -1 415 59 L417 59 L417 0 L574 0 Z M523 778 L410 778 C391 749 354 743 322 743 C283 743 250 746 224 778 L111 778 C119 668 221 634 317 634 C411 634 516 668 523 778 L523 778 Z " />
<glyph glyph-name="Uring" unicode="&#x16e;" horiz-adv-x="698" d="M633 293 L633 740 L444 740 L444 293 C444 223 439 152 350 152 C265 152 254 226 254 293 L254 740 L65 740 L65 293 C65 199 72 136 139 65 C193 8 275 -14 352 -14 C431 -14 503 9 559 66 C623 130 633 205 633 293 L633 293 Z M475 891 C475 960 418 1017 349 1017 C280 1017 223 960 223 891 C223 822 280 765 349 765 C418 765 475 822 475 891 L475 891 Z M393 892 C393 868 373 848 349 848 C325 848 305 867 305 891 C305 916 324 936 349 936 C373 936 393 916 393 892 L393 892 Z " />
<glyph glyph-name="uring" unicode="&#x16f;" horiz-adv-x="634" d="M574 0 L574 555 L408 555 L408 250 C408 186 382 137 313 137 C238 137 224 185 224 248 L224 555 L58 555 L58 223 C58 154 63 108 108 52 C148 3 210 -18 271 -18 C333 -18 386 -1 415 59 L417 59 L417 0 L574 0 Z M443 696 C443 765 386 822 317 822 C248 822 191 765 191 696 C191 627 248 570 317 570 C386 570 443 627 443 696 L443 696 Z M361 697 C361 673 341 653 317 653 C293 653 273 672 273 696 C273 721 292 741 317 741 C341 741 361 721 361 697 L361 697 Z " />
<glyph glyph-name="Uhungarumlaut" unicode="&#x170;" horiz-adv-x="698" d="M633 293 L633 740 L444 740 L444 293 C444 223 439 152 350 152 C265 152 254 226 254 293 L254 740 L65 740 L65 293 C65 199 72 136 139 65 C193 8 275 -14 352 -14 C431 -14 503 9 559 66 C623 130 633 205 633 293 L633 293 Z M565 951 L448 1008 L373 823 L479 776 L565 951 Z M366 951 L248 1008 L174 823 L280 776 L366 951 Z " />
<glyph glyph-name="uhungarumlaut" unicode="&#x171;" horiz-adv-x="634" d="M574 0 L574 555 L408 555 L408 250 C408 186 382 137 313 137 C238 137 224 185 224 248 L224 555 L58 555 L58 223 C58 154 63 108 108 52 C148 3 210 -18 271 -18 C333 -18 386 -1 415 59 L417 59 L417 0 L574 0 Z M533 775 L416 832 L341 647 L447 600 L533 775 Z M334 775 L216 832 L142 647 L248 600 L334 775 Z " />
<glyph glyph-name="Uogonek" unicode="&#x172;" horiz-adv-x="698" d="M471 -190 L471 -104 C456 -110 440 -116 424 -116 C399 -116 376 -93 376 -68 C376 -41 398 -21 420 -7 C472 3 519 26 559 66 C623 130 633 205 633 293 L633 740 L444 740 L444 293 C444 223 439 152 350 152 C265 152 254 226 254 293 L254 740 L65 740 L65 293 C65 199 72 136 139 65 C187 13 259 -9 329 -13 C297 -37 266 -66 266 -109 C266 -176 325 -206 385 -206 C416 -206 441 -200 471 -190 L471 -190 Z " />
<glyph glyph-name="uogonek" unicode="&#x173;" horiz-adv-x="634" d="M579 -190 L579 -104 C564 -110 548 -116 532 -116 C507 -116 484 -93 484 -68 C484 -36 516 -14 541 0 L574 0 L574 555 L408 555 L408 250 C408 186 382 137 313 137 C238 137 224 185 224 248 L224 555 L58 555 L58 223 C58 154 63 108 108 52 C148 3 210 -18 271 -18 C333 -18 386 -1 415 59 L417 59 L417 0 L457 0 C419 -26 374 -58 374 -109 C374 -176 433 -206 493 -206 C524 -206 549 -200 579 -190 L579 -190 Z " />
<glyph glyph-name="Wcircumflex" unicode="&#x174;" horiz-adv-x="981" d="M964 740 L773 740 L672 257 L670 257 L563 740 L418 740 L309 259 L307 259 L208 740 L16 740 L207 0 L378 0 L489 479 L491 479 L602 0 L768 0 L964 740 Z M697 805 L547 971 L439 971 L283 805 L445 805 L491 863 L537 805 L697 805 Z " />
<glyph glyph-name="wcircumflex" unicode="&#x175;" horiz-adv-x="850" d="M843 555 L672 555 L589 210 L587 210 L495 555 L355 555 L264 210 L262 210 L179 555 L7 555 L177 0 L331 0 L424 359 L426 359 L519 0 L673 0 L843 555 Z M632 630 L482 796 L374 796 L218 630 L380 630 L426 688 L472 630 L632 630 Z " />
<glyph glyph-name="Ycircumflex" unicode="&#x176;" horiz-adv-x="647" d="M638 740 L435 740 L324 443 L214 740 L9 740 L230 269 L230 0 L419 0 L419 269 L638 740 Z M530 805 L380 971 L272 971 L116 805 L278 805 L324 863 L370 805 L530 805 Z " />
<glyph glyph-name="ycircumflex" unicode="&#x177;" horiz-adv-x="574" d="M573 555 L397 555 L291 233 L289 233 L178 555 L1 555 L207 28 L119 -185 L295 -185 L573 555 Z M494 630 L344 796 L236 796 L80 630 L242 630 L288 688 L334 630 L494 630 Z " />
<glyph glyph-name="Ydieresis" unicode="&#x178;" horiz-adv-x="647" d="M638 740 L435 740 L324 443 L214 740 L9 740 L230 269 L230 0 L419 0 L419 269 L638 740 Z M519 815 L519 966 L360 966 L360 815 L519 815 Z M286 815 L286 966 L127 966 L127 815 L286 815 Z " />
<glyph glyph-name="Zacute" unicode="&#x179;" horiz-adv-x="499" d="M483 0 L483 166 L247 166 L483 587 L483 740 L16 740 L16 574 L271 574 L16 124 L16 0 L483 0 Z M416 885 L363 1003 L123 874 L170 776 L416 885 Z " />
<glyph glyph-name="zacute" unicode="&#x17a;" horiz-adv-x="444" d="M428 0 L428 126 L211 126 L428 429 L428 555 L15 555 L15 429 L249 429 L15 114 L15 0 L428 0 Z M389 723 L336 841 L96 712 L143 614 L389 723 Z " />
<glyph glyph-name="Zdotaccent" unicode="&#x17b;" horiz-adv-x="499" d="M483 0 L483 166 L247 166 L483 587 L483 740 L16 740 L16 574 L271 574 L16 124 L16 0 L483 0 Z M329 815 L329 966 L170 966 L170 815 L329 815 Z " />
<glyph glyph-name="zdotaccent" unicode="&#x17c;" horiz-adv-x="444" d="M428 0 L428 126 L211 126 L428 429 L428 555 L15 555 L15 429 L249 429 L15 114 L15 0 L428 0 Z M302 634 L302 785 L143 785 L143 634 L302 634 Z " />
<glyph glyph-name="Zcaron" unicode="&#x17d;" horiz-adv-x="499" d="M483 0 L483 166 L247 166 L483 587 L483 740 L16 740 L16 574 L271 574 L16 124 L16 0 L483 0 Z M471 974 L310 974 L264 916 L218 974 L57 974 L208 808 L316 808 L471 974 Z " />
<glyph glyph-name="zcaron" unicode="&#x17e;" horiz-adv-x="444" d="M428 0 L428 126 L211 126 L428 429 L428 555 L15 555 L15 429 L249 429 L15 114 L15 0 L428 0 Z M454 799 L293 799 L247 741 L201 799 L40 799 L191 633 L299 633 L454 799 Z " />
<glyph glyph-name="florin" unicode="&#x192;" horiz-adv-x="618" d="M547 815 C533 818 519 818 505 818 C386 818 292 739 270 623 L264 591 L191 591 L170 466 L242 466 L182 118 C170 46 152 0 69 0 C63 0 57 1 51 2 L25 -146 C42 -151 61 -152 79 -152 C157 -152 234 -122 284 -60 C331 -1 342 68 355 140 L412 466 L484 466 L507 591 L434 591 C443 648 461 682 525 682 L547 815 Z " />
<glyph glyph-name="AEacute" unicode="&#x1fc;" horiz-adv-x="975" d="M925 0 L925 166 L697 166 L697 293 L918 293 L918 459 L697 459 L697 574 L925 574 L925 740 L504 740 L-10 0 L219 0 L299 124 L514 124 L514 0 L925 0 Z M514 270 L376 270 L512 471 L514 471 L514 270 Z M754 885 L701 1003 L461 874 L508 776 L754 885 Z " />
<glyph glyph-name="aeacute" unicode="&#x1fd;" horiz-adv-x="1091" d="M1059 267 C1059 384 1006 494 899 547 C863 564 824 574 785 574 C721 574 667 554 629 502 L627 502 L627 555 L476 555 L476 501 L474 501 C450 551 371 574 320 574 C151 574 34 442 34 277 C34 122 157 -18 316 -18 C370 -18 446 3 474 55 L476 55 L476 0 L627 0 L627 55 L629 55 C664 2 723 -18 784 -18 C910 -18 992 65 1040 175 L873 175 C842 140 813 122 765 122 C700 122 648 160 638 226 L1055 226 C1059 239 1059 253 1059 267 L1059 267 Z M895 336 L642 336 C652 398 711 433 771 433 C836 433 878 398 895 336 L895 336 Z M476 276 C476 199 419 137 341 137 C258 137 200 199 200 281 C200 299 205 319 213 336 C235 388 278 419 335 419 C420 419 476 360 476 276 L476 276 Z M732 723 L679 841 L439 712 L486 614 L732 723 Z " />
<glyph glyph-name="Oslashacute" unicode="&#x1fe;" horiz-adv-x="851" d="M816 370 C816 471 779 561 711 634 L775 720 L657 806 L593 719 C541 743 483 754 426 754 C208 754 35 590 35 370 C35 269 69 181 138 107 L76 24 L194 -63 L257 21 C312 -3 364 -14 424 -14 C640 -14 816 151 816 370 L816 370 Z M627 369 C627 255 547 152 427 152 C404 152 383 155 361 163 L598 483 C617 447 627 409 627 369 L627 369 Z M488 578 L251 259 C233 292 224 335 224 373 C224 489 306 588 426 588 C447 588 468 585 488 578 L488 578 Z M602 885 L549 1003 L309 874 L356 776 L602 885 Z " />
<glyph glyph-name="oslashacute" unicode="&#x1ff;" horiz-adv-x="666" d="M632 278 C632 349 607 418 561 473 L623 556 L516 633 L455 550 C418 566 374 573 334 573 C162 573 34 448 34 276 C34 206 57 132 104 79 L43 -3 L148 -83 L213 5 C251 -11 293 -18 334 -18 C504 -18 632 108 632 278 L632 278 Z M466 278 C466 201 412 137 333 137 C325 137 316 138 308 140 L454 336 C462 316 466 300 466 278 L466 278 Z M361 415 L213 216 C204 235 200 257 200 278 C200 354 256 418 334 418 C343 418 352 417 361 415 L361 415 Z M509 723 L456 841 L216 712 L263 614 L509 723 Z " />
<glyph glyph-name="Scommaaccent" unicode="&#x218;" horiz-adv-x="573" d="M550 213 C550 329 475 380 377 425 C346 439 249 477 231 507 C225 516 224 527 224 538 C224 573 256 596 289 596 C337 596 351 565 357 524 L544 524 C542 582 533 623 495 670 C448 727 367 754 295 754 C169 754 36 674 36 536 C36 420 121 364 217 324 C239 315 261 306 283 296 C322 279 362 263 362 215 C362 175 329 144 290 144 C235 144 213 197 213 245 L25 245 L25 221 C25 63 143 -14 292 -14 C438 -14 550 58 550 213 L550 213 Z M373 -145 L373 -46 L200 -46 L200 -155 L278 -155 L278 -179 C278 -211 230 -207 200 -207 L200 -280 L261 -280 C326 -280 373 -238 373 -168 L373 -145 Z " />
<glyph glyph-name="scommaaccent" unicode="&#x219;" horiz-adv-x="499" d="M476 170 C476 366 197 317 197 404 C197 429 222 441 244 441 C273 441 295 430 296 399 L459 399 C448 517 357 574 246 574 C139 574 31 507 31 391 C31 313 97 270 163 246 C187 237 211 229 235 221 C265 209 310 197 310 157 C310 128 277 114 252 114 C219 114 194 131 189 165 L24 165 C37 43 134 -19 250 -19 C363 -19 476 45 476 170 L476 170 Z M336 -145 L336 -46 L163 -46 L163 -155 L241 -155 L241 -179 C241 -211 193 -207 163 -207 L163 -280 L224 -280 C289 -280 336 -238 336 -168 L336 -145 Z " />
<glyph glyph-name="Tcommaaccent" unicode="&#x21a;" horiz-adv-x="499" d="M490 574 L490 740 L10 740 L10 574 L156 574 L156 0 L345 0 L345 574 L490 574 Z M336 -145 L336 -46 L163 -46 L163 -155 L241 -155 L241 -179 C241 -211 193 -207 163 -207 L163 -280 L224 -280 C289 -280 336 -238 336 -168 L336 -145 Z " />
<glyph glyph-name="tcommaaccent" unicode="&#x21b;" horiz-adv-x="351" d="M339 429 L339 555 L259 555 L259 740 L93 740 L93 555 L11 555 L11 429 L93 429 L93 0 L259 0 L259 429 L339 429 Z M262 -145 L262 -46 L89 -46 L89 -155 L167 -155 L167 -179 C167 -211 119 -207 89 -207 L89 -280 L150 -280 C215 -280 262 -238 262 -168 L262 -145 Z " />
<glyph glyph-name="circumflex" unicode="&#x2c6;" horiz-adv-x="555" d="M484 630 L334 796 L226 796 L70 630 L232 630 L278 688 L324 630 L484 630 Z " />
<glyph glyph-name="caron" unicode="&#x2c7;" horiz-adv-x="555" d="M484 789 L323 789 L277 731 L231 789 L70 789 L221 623 L329 623 L484 789 Z " />
<glyph glyph-name="uni02C9" unicode="&#x2c9;" horiz-adv-x="555" d="M457 648 L457 774 L98 774 L98 648 L457 648 Z " />
<glyph glyph-name="breve" unicode="&#x2d8;" horiz-adv-x="555" d="M483 778 L370 778 C351 749 314 743 282 743 C243 743 210 746 184 778 L71 778 C79 668 181 634 277 634 C371 634 476 668 483 778 L483 778 Z " />
<glyph glyph-name="dotaccent" unicode="&#x2d9;" horiz-adv-x="555" d="M357 634 L357 785 L198 785 L198 634 L357 634 Z " />
<glyph glyph-name="ring" unicode="&#x2da;" horiz-adv-x="555" d="M403 696 C403 765 346 822 277 822 C208 822 151 765 151 696 C151 627 208 570 277 570 C346 570 403 627 403 696 L403 696 Z M321 697 C321 673 301 653 277 653 C253 653 233 672 233 696 C233 721 252 741 277 741 C301 741 321 721 321 697 L321 697 Z " />
<glyph glyph-name="ogonek" unicode="&#x2db;" horiz-adv-x="555" d="M380 -190 L380 -104 C365 -110 349 -116 333 -116 C308 -116 285 -93 285 -68 C285 -36 317 -14 342 0 L258 0 C220 -26 175 -58 175 -109 C175 -176 234 -206 294 -206 C325 -206 350 -200 380 -190 L380 -190 Z " />
<glyph glyph-name="tilde" unicode="&#x2dc;" horiz-adv-x="555" d="M480 678 L420 763 C394 752 376 746 347 746 C292 746 240 771 185 771 C146 771 108 755 75 736 L135 648 C160 658 180 667 207 667 C255 667 317 641 367 641 C409 641 445 656 480 678 L480 678 Z " />
<glyph glyph-name="hungarumlaut" unicode="&#x2dd;" horiz-adv-x="555" d="M493 775 L376 832 L301 647 L407 600 L493 775 Z M294 775 L176 832 L102 647 L208 600 L294 775 Z " />
<glyph glyph-name="uni03A9" unicode="&#x3a9;" horiz-adv-x="710" d="M662 0 L662 152 L527 152 C606 213 665 285 665 415 C665 579 564 712 362 712 C173 712 44 585 44 411 C44 268 121 200 181 152 L47 152 L47 0 L324 0 L324 152 C287 194 251 259 251 362 C251 474 290 545 358 545 C421 545 457 477 457 368 C457 265 424 200 385 152 L385 0 L662 0 Z " />
<glyph glyph-name="uni03BC" unicode="&#x3bc;" horiz-adv-x="634" d="M581 0 L581 555 L415 555 L415 281 C415 216 396 137 316 137 C236 137 218 216 218 281 L218 555 L52 555 L52 -190 L218 -190 L218 44 L220 44 C239 8 279 -10 318 -10 C366 -10 406 25 420 69 L422 69 L423 69 L423 0 L581 0 Z " />
<glyph glyph-name="pi" unicode="&#x3c0;" horiz-adv-x="653" d="M600 134 C592 128 584 122 567 122 C537 122 530 156 530 201 L530 366 L618 366 L618 500 L189 500 C107 500 48 487 7 458 C24 421 37 386 53 349 C73 363 94 366 118 366 L118 188 C118 109 110 50 94 0 L263 0 C277 40 284 82 284 170 L284 366 L365 366 L365 172 C365 80 376 -11 507 -11 C564 -11 601 -1 630 18 L600 134 Z " />
<glyph glyph-name="Wgrave" unicode="&#x1e80;" horiz-adv-x="981" d="M964 740 L773 740 L672 257 L670 257 L563 740 L418 740 L309 259 L307 259 L208 740 L16 740 L207 0 L378 0 L489 479 L491 479 L602 0 L768 0 L964 740 Z M597 872 L355 1000 L304 883 L551 775 L597 872 Z " />
<glyph glyph-name="wgrave" unicode="&#x1e81;" horiz-adv-x="850" d="M843 555 L672 555 L589 210 L587 210 L495 555 L355 555 L264 210 L262 210 L179 555 L7 555 L177 0 L331 0 L424 359 L426 359 L519 0 L673 0 L843 555 Z M552 721 L310 849 L259 732 L506 624 L552 721 Z " />
<glyph glyph-name="Wacute" unicode="&#x1e82;" horiz-adv-x="981" d="M964 740 L773 740 L672 257 L670 257 L563 740 L418 740 L309 259 L307 259 L208 740 L16 740 L207 0 L378 0 L489 479 L491 479 L602 0 L768 0 L964 740 Z M657 885 L604 1003 L364 874 L411 776 L657 885 Z " />
<glyph glyph-name="wacute" unicode="&#x1e83;" horiz-adv-x="850" d="M843 555 L672 555 L589 210 L587 210 L495 555 L355 555 L264 210 L262 210 L179 555 L7 555 L177 0 L331 0 L424 359 L426 359 L519 0 L673 0 L843 555 Z M592 723 L539 841 L299 712 L346 614 L592 723 Z " />
<glyph glyph-name="Wdieresis" unicode="&#x1e84;" horiz-adv-x="981" d="M964 740 L773 740 L672 257 L670 257 L563 740 L418 740 L309 259 L307 259 L208 740 L16 740 L207 0 L378 0 L489 479 L491 479 L602 0 L768 0 L964 740 Z M686 815 L686 966 L527 966 L527 815 L686 815 Z M453 815 L453 966 L294 966 L294 815 L453 815 Z " />
<glyph glyph-name="wdieresis" unicode="&#x1e85;" horiz-adv-x="850" d="M843 555 L672 555 L589 210 L587 210 L495 555 L355 555 L264 210 L262 210 L179 555 L7 555 L177 0 L331 0 L424 359 L426 359 L519 0 L673 0 L843 555 Z M621 634 L621 785 L462 785 L462 634 L621 634 Z M388 634 L388 785 L229 785 L229 634 L388 634 Z " />
<glyph glyph-name="Ygrave" unicode="&#x1ef2;" horiz-adv-x="647" d="M638 740 L435 740 L324 443 L214 740 L9 740 L230 269 L230 0 L419 0 L419 269 L638 740 Z M450 873 L208 1001 L157 884 L404 776 L450 873 Z " />
<glyph glyph-name="ygrave" unicode="&#x1ef3;" horiz-adv-x="574" d="M573 555 L397 555 L291 233 L289 233 L178 555 L1 555 L207 28 L119 -185 L295 -185 L573 555 Z M414 721 L172 849 L121 732 L368 624 L414 721 Z " />
<glyph glyph-name="endash" unicode="&#x2013;" horiz-adv-x="500" d="M465 207 L465 370 L35 370 L35 207 L465 207 Z " />
<glyph glyph-name="emdash" unicode="&#x2014;" horiz-adv-x="1000" d="M965 207 L965 370 L35 370 L35 207 L965 207 Z " />
<glyph glyph-name="quoteleft" unicode="&#x2018;" horiz-adv-x="314" d="M244 409 L244 579 L166 579 L166 613 C166 657 214 651 244 651 L244 740 L172 740 C104 740 70 681 70 619 L70 409 L244 409 Z " />
<glyph glyph-name="quoteright" unicode="&#x2019;" horiz-adv-x="314" d="M244 530 L244 740 L70 740 L70 570 L149 570 L149 536 C149 492 100 498 70 498 L70 409 L142 409 C211 409 244 467 244 530 L244 530 Z " />
<glyph glyph-name="quotesinglbase" unicode="&#x201a;" horiz-adv-x="314" d="M244 -40 L244 170 L70 170 L70 0 L149 0 L149 -34 C149 -78 100 -72 70 -72 L70 -161 L142 -161 C210 -161 244 -102 244 -40 L244 -40 Z " />
<glyph glyph-name="quotedblleft" unicode="&#x201c;" horiz-adv-x="555" d="M488 409 L488 579 L409 579 L409 613 C409 656 459 650 488 650 L488 740 L416 740 C348 740 314 681 314 619 L314 409 L488 409 Z M241 409 L241 579 L162 579 L162 613 C162 656 212 650 241 650 L241 740 L169 740 C101 740 67 681 67 619 L67 409 L241 409 Z " />
<glyph glyph-name="quotedblright" unicode="&#x201d;" horiz-adv-x="555" d="M488 530 L488 740 L314 740 L314 570 L392 570 L392 536 C392 492 344 498 314 498 L314 409 L386 409 C455 409 488 467 488 530 L488 530 Z M241 530 L241 740 L67 740 L67 570 L146 570 L146 536 C146 492 97 498 67 498 L67 409 L139 409 C208 409 241 467 241 530 L241 530 Z " />
<glyph glyph-name="quotedblbase" unicode="&#x201e;" horiz-adv-x="555" d="M488 -40 L488 170 L314 170 L314 0 L392 0 L392 -34 C392 -78 344 -72 314 -72 L314 -161 L386 -161 C454 -161 488 -102 488 -40 L488 -40 Z M241 -40 L241 170 L67 170 L67 0 L145 0 L145 -34 C145 -78 97 -72 67 -72 L67 -161 L138 -161 C207 -161 241 -103 241 -40 L241 -40 Z " />
<glyph glyph-name="dagger" unicode="&#x2020;" horiz-adv-x="670" d="M572 423 L572 563 L418 563 L418 740 L253 740 L253 563 L98 563 L98 423 L253 423 L253 -244 L418 -244 L418 423 L572 423 Z " />
<glyph glyph-name="daggerdbl" unicode="&#x2021;" horiz-adv-x="670" d="M572 -13 L572 127 L418 127 L418 453 L572 453 L572 593 L418 593 L418 740 L253 740 L253 593 L98 593 L98 453 L253 453 L253 127 L98 127 L98 -13 L253 -13 L253 -244 L418 -244 L418 -13 L572 -13 Z " />
<glyph glyph-name="bullet" unicode="&#x2022;" horiz-adv-x="739" d="M522 377 C522 460 456 532 371 532 C285 532 217 462 217 377 C217 293 285 222 370 222 C455 222 522 293 522 377 L522 377 Z " />
<glyph glyph-name="ellipsis" unicode="&#x2026;" horiz-adv-x="1000" d="M920 0 L920 170 L747 170 L747 0 L920 0 Z M587 0 L587 170 L414 170 L414 0 L587 0 Z M254 0 L254 170 L81 170 L81 0 L254 0 Z " />
<glyph glyph-name="perthousand" unicode="&#x2030;" horiz-adv-x="1258" d="M1222 166 C1222 265 1142 347 1042 347 C942 347 861 266 861 166 C861 66 942 -15 1042 -15 C1141 -15 1222 67 1222 166 L1222 166 Z M822 166 C822 265 742 347 642 347 C542 347 461 266 461 166 C461 66 542 -15 642 -15 C741 -15 822 67 822 166 L822 166 Z M638 740 L522 740 L216 0 L331 0 L638 740 Z M396 574 C396 674 316 755 216 755 C116 755 36 673 36 574 C36 475 117 394 216 394 C315 394 396 475 396 574 L396 574 Z M1111 166 C1111 128 1080 96 1042 96 C1004 96 972 128 972 166 C972 205 1003 236 1042 236 C1081 236 1111 204 1111 166 L1111 166 Z M711 166 C711 128 680 96 642 96 C604 96 572 128 572 166 C572 205 603 236 642 236 C681 236 711 204 711 166 L711 166 Z M285 575 C285 537 254 505 216 505 C179 505 147 537 147 574 C147 613 177 644 216 644 C254 644 285 613 285 575 L285 575 Z " />
<glyph glyph-name="guilsinglleft" unicode="&#x2039;" horiz-adv-x="222" d="M175 103 L175 242 L124 289 L175 334 L175 474 L47 344 L47 230 L175 103 Z " />
<glyph glyph-name="guilsinglright" unicode="&#x203a;" horiz-adv-x="222" d="M175 230 L175 343 L47 474 L47 335 L98 288 L47 243 L47 103 L175 230 Z " />
<glyph glyph-name="fraction" unicode="&#x2044;" horiz-adv-x="211" d="M329 740 L192 740 L-118 0 L18 0 L329 740 Z " />
<glyph glyph-name="Euro" unicode="&#x20ac;" horiz-adv-x="618" d="M597 212 L433 212 C423 177 404 152 365 152 C309 152 290 207 281 253 L443 253 L461 349 L272 349 L272 370 L272 393 L469 393 L487 489 L281 489 C289 535 308 588 363 588 C396 588 422 562 432 532 L596 532 C579 659 498 754 363 754 C204 754 130 631 105 489 L28 489 L10 393 L95 393 L95 370 L95 349 L28 349 L10 253 L103 253 C124 105 195 -14 359 -14 C502 -14 578 73 597 212 L597 212 Z " />
<glyph glyph-name="litre" unicode="&#x2113;" horiz-adv-x="495" d="M417 33 C403 67 389 100 376 133 C362 121 342 108 322 108 C293 108 270 130 270 206 L270 306 C277 312 290 327 300 337 C371 413 422 487 422 588 C422 651 388 728 285 728 C177 728 102 647 102 491 L102 310 C74 285 45 260 17 234 C30 208 44 182 57 156 C73 169 87 183 102 196 L102 177 C102 126 118 60 151 26 C181 -4 215 -18 270 -18 C326 -18 381 6 417 33 L417 33 Z M334 565 C334 528 311 471 279 437 C276 431 274 429 270 427 L270 532 C270 578 284 602 305 602 C326 602 334 584 334 565 L334 565 Z " />
<glyph glyph-name="trademark" unicode="&#x2122;" horiz-adv-x="944" d="M879 296 L879 740 L720 740 L634 463 L632 463 L545 740 L386 740 L386 296 L503 296 L499 595 L501 597 L591 296 L675 296 L762 597 L764 597 L762 296 L879 296 Z M328 634 L328 740 L21 740 L21 634 L112 634 L112 296 L238 296 L238 634 L328 634 Z " />
<glyph glyph-name="Omega" unicode="&#x2126;" horiz-adv-x="710" d="M662 0 L662 152 L527 152 C606 213 665 285 665 415 C665 579 564 712 362 712 C173 712 44 585 44 411 C44 268 121 200 181 152 L47 152 L47 0 L324 0 L324 152 C287 194 251 259 251 362 C251 474 290 545 358 545 C421 545 457 477 457 368 C457 265 424 200 385 152 L385 0 L662 0 Z " />
<glyph glyph-name="estimated" unicode="&#x212e;" horiz-adv-x="662" d="M574 271 C568 430 473 553 304 553 C140 553 40 428 40 271 C40 113 141 -12 305 -12 C415 -12 480 40 538 126 C527 133 515 140 503 147 C456 67 392 25 305 25 C246 25 196 45 156 85 L156 271 L574 271 Z M454 307 L156 307 L156 456 C196 497 245 518 303 518 C361 518 412 497 454 455 L454 307 Z " />
<glyph glyph-name="onethird" unicode="&#x2153;" horiz-adv-x="855" d="M221 296 L221 740 L20 740 L20 634 L98 634 L98 296 L221 296 Z M592 740 L455 740 L145 0 L281 0 L592 740 Z M827 132 C827 183 791 223 744 238 C779 257 801 290 801 330 C801 411 721 453 649 453 C561 453 484 406 483 310 L609 310 C610 333 620 345 645 345 C665 345 677 332 677 312 C677 273 641 270 611 270 L593 270 L593 180 C602 180 616 181 630 181 C662 181 697 176 697 142 C697 112 677 99 649 99 C620 99 606 110 599 137 L470 137 C473 105 479 79 498 53 C530 9 596 -9 648 -9 C728 -9 827 41 827 132 L827 132 Z " />
<glyph glyph-name="twothirds" unicode="&#x2154;" horiz-adv-x="998" d="M376 296 L376 402 L223 402 L223 404 C252 426 286 454 314 485 C349 524 374 569 374 618 C374 706 286 749 209 749 C152 749 93 728 59 680 C36 647 31 613 30 574 L153 574 C154 604 163 642 200 642 C226 642 235 624 235 601 C235 578 226 556 211 535 C169 475 82 423 35 393 L35 296 L376 296 Z M740 740 L603 740 L293 0 L429 0 L740 740 Z M970 132 C970 183 934 223 887 238 C922 257 944 290 944 330 C944 411 864 453 792 453 C704 453 627 406 626 310 L752 310 C753 333 763 345 788 345 C808 345 820 332 820 312 C820 273 784 270 754 270 L736 270 L736 180 C745 180 759 181 773 181 C805 181 840 176 840 142 C840 112 820 99 792 99 C763 99 749 110 742 137 L613 137 C616 105 622 79 641 53 C673 9 739 -9 791 -9 C871 -9 970 41 970 132 L970 132 Z " />
<glyph glyph-name="oneeighth" unicode="&#x215b;" horiz-adv-x="856" d="M221 296 L221 740 L20 740 L20 634 L98 634 L98 296 L221 296 Z M592 740 L455 740 L145 0 L281 0 L592 740 Z M828 136 C828 181 807 218 759 244 C785 263 800 293 800 325 C800 403 727 453 645 453 C562 453 490 403 490 325 C490 293 505 266 531 247 C487 224 462 181 462 136 C462 48 548 -9 646 -9 C744 -9 828 48 828 136 L828 136 Z M697 146 C697 117 677 95 647 95 C614 95 593 114 593 146 C593 178 613 198 645 198 C677 198 697 178 697 146 L697 146 Z M686 323 C686 302 670 285 644 285 C622 285 604 300 604 320 C604 343 621 359 646 359 C671 359 686 343 686 323 L686 323 Z " />
<glyph glyph-name="threeeighths" unicode="&#x215c;" horiz-adv-x="984" d="M379 428 C379 479 343 519 296 534 C331 553 353 586 353 626 C353 707 273 749 201 749 C113 749 36 702 35 606 L161 606 C162 629 172 641 197 641 C217 641 229 628 229 608 C229 569 193 566 163 566 L145 566 L145 476 C154 476 168 477 182 477 C214 477 249 472 249 438 C249 408 229 395 201 395 C172 395 158 406 151 433 L22 433 C25 401 31 375 50 349 C82 305 148 287 200 287 C280 287 379 337 379 428 L379 428 Z M719 740 L582 740 L272 0 L408 0 L719 740 Z M956 136 C956 181 935 218 887 244 C913 263 928 293 928 325 C928 403 855 453 773 453 C690 453 618 403 618 325 C618 293 633 266 659 247 C615 224 590 181 590 136 C590 48 676 -9 774 -9 C872 -9 956 48 956 136 L956 136 Z M825 146 C825 117 805 95 775 95 C742 95 721 114 721 146 C721 178 741 198 773 198 C805 198 825 178 825 146 L825 146 Z M814 323 C814 302 798 285 772 285 C750 285 732 300 732 320 C732 343 749 359 774 359 C799 359 814 343 814 323 L814 323 Z " />
<glyph glyph-name="fiveeighths" unicode="&#x215d;" horiz-adv-x="985" d="M389 451 C389 539 324 595 232 595 C213 595 184 590 170 581 L179 634 L347 634 L347 740 L80 740 L43 493 L144 469 C159 487 179 496 203 496 C242 496 259 475 259 448 C259 418 238 395 202 395 C172 395 156 411 148 428 L23 428 C41 340 114 287 207 287 C312 287 389 354 389 451 L389 451 Z M721 740 L584 740 L274 0 L410 0 L721 740 Z M957 136 C957 181 936 218 888 244 C914 263 929 293 929 325 C929 403 856 453 774 453 C691 453 619 403 619 325 C619 293 634 266 660 247 C616 224 591 181 591 136 C591 48 677 -9 775 -9 C873 -9 957 48 957 136 L957 136 Z M826 146 C826 117 806 95 776 95 C743 95 722 114 722 146 C722 178 742 198 774 198 C806 198 826 178 826 146 L826 146 Z M815 323 C815 302 799 285 773 285 C751 285 733 300 733 320 C733 343 750 359 775 359 C800 359 815 343 815 323 L815 323 Z " />
<glyph glyph-name="seveneighths" unicode="&#x215e;" horiz-adv-x="888" d="M343 645 L343 740 L27 740 L27 634 L208 634 L38 296 L177 296 L343 645 Z M623 740 L486 740 L176 0 L312 0 L623 740 Z M860 136 C860 181 839 218 791 244 C817 263 832 293 832 325 C832 403 759 453 677 453 C594 453 522 403 522 325 C522 293 537 266 563 247 C519 224 494 181 494 136 C494 48 580 -9 678 -9 C776 -9 860 48 860 136 L860 136 Z M729 146 C729 117 709 95 679 95 C646 95 625 114 625 146 C625 178 645 198 677 198 C709 198 729 178 729 146 L729 146 Z M718 323 C718 302 702 285 676 285 C654 285 636 300 636 320 C636 343 653 359 678 359 C703 359 718 343 718 323 L718 323 Z " />
<glyph glyph-name="partialdiff" unicode="&#x2202;" horiz-adv-x="576" d="M570 440 C570 626 469 735 310 735 C245 735 191 720 155 695 C166 654 178 614 189 574 C213 588 247 599 281 599 C344 599 387 557 387 486 C387 471 386 461 384 445 L383 445 C367 467 322 487 275 487 C163 487 28 412 28 202 C28 80 123 -12 262 -12 C401 -12 505 92 549 256 C563 312 570 374 570 440 L570 440 Z M367 322 C362 246 325 128 262 128 C232 128 219 154 219 189 C219 289 267 363 315 363 C338 363 355 349 367 322 L367 322 Z " />
<glyph glyph-name="Delta" unicode="&#x2206;" horiz-adv-x="608" d="M663 0 L663 75 C603 284 543 491 483 700 L204 700 C142 491 81 284 19 75 L19 0 L663 0 Z M436 153 L233 153 C261 266 290 380 318 494 C325 525 329 551 330 559 L336 559 C337 550 345 521 352 490 C380 377 408 265 436 153 L436 153 Z " />
<glyph glyph-name="product" unicode="&#x220f;" horiz-adv-x="719" d="M659 -230 L659 700 L59 700 L59 -230 L254 -230 L254 534 L464 534 L464 -230 L659 -230 Z " />
<glyph glyph-name="summation" unicode="&#x2211;" horiz-adv-x="631" d="M547 -230 L547 -78 L248 -78 C313 30 378 137 443 244 C381 346 321 446 259 548 L532 548 L532 700 L36 700 L36 587 C108 472 178 355 250 240 C175 119 100 -2 25 -123 L25 -230 L547 -230 Z " />
<glyph glyph-name="minus" unicode="&#x2212;" horiz-adv-x="600" d="M552 173 L552 333 L48 333 L48 173 L552 173 Z " />
<glyph glyph-name="uni2215" unicode="&#x2215;" horiz-adv-x="211" d="M329 740 L192 740 L-118 0 L18 0 L329 740 Z " />
<glyph glyph-name="uni2219" unicode="&#x2219;" horiz-adv-x="314" d="M244 292 L244 462 L71 462 L71 292 L244 292 Z " />
<glyph glyph-name="radical" unicode="&#x221a;" horiz-adv-x="513" d="M523 729 L407 729 C370 540 333 351 296 162 C263 253 231 342 198 433 C135 388 71 343 8 298 C27 269 47 241 66 213 C84 226 102 239 120 251 C154 163 187 76 221 -12 L373 -12 C423 235 473 482 523 729 L523 729 Z " />
<glyph glyph-name="infinity" unicode="&#x221e;" horiz-adv-x="783" d="M747 293 C747 400 664 485 556 485 C469 485 408 432 381 391 L379 391 C340 448 279 485 207 485 C123 485 14 423 14 293 C14 154 122 96 206 96 C283 96 340 135 380 189 L382 189 C426 124 494 96 556 96 C660 96 747 175 747 293 L747 293 Z M611 293 C611 254 585 217 542 217 C499 217 469 249 448 291 C475 337 500 363 540 363 C585 363 611 331 611 293 L611 293 Z M313 291 C293 253 262 217 222 217 C178 217 150 254 150 292 C150 329 180 364 220 364 C263 364 288 329 313 291 L313 291 Z " />
<glyph glyph-name="integral" unicode="&#x222b;" horiz-adv-x="491" d="M412 604 C424 647 436 690 448 733 C431 742 382 752 343 752 C189 752 132 648 132 512 L132 -28 C132 -76 112 -99 80 -99 C67 -99 54 -97 43 -93 C33 -137 22 -181 12 -224 C32 -233 80 -240 115 -240 C272 -240 324 -133 324 -4 L324 540 C324 591 345 611 375 611 C388 611 402 607 412 604 L412 604 Z " />
<glyph glyph-name="approxequal" unicode="&#x2248;" horiz-adv-x="600" d="M580 369 L528 502 C506 472 449 432 408 432 C355 432 267 500 193 500 C131 500 48 462 20 411 L72 280 C90 314 145 349 188 349 C280 349 327 281 407 281 C468 281 547 325 580 369 L580 369 Z M580 99 L528 232 C506 202 449 162 408 162 C355 162 267 230 193 230 C131 230 48 192 20 141 L72 10 C90 44 145 79 188 79 C280 79 327 11 407 11 C468 11 547 55 580 99 L580 99 Z " />
<glyph glyph-name="notequal" unicode="&#x2260;" horiz-adv-x="600" d="M518 535 L354 535 L309 449 L48 449 L48 304 L244 304 L191 201 L48 201 L48 56 L126 56 L82 -30 L247 -30 L291 56 L552 56 L552 201 L356 201 L409 304 L552 304 L552 449 L473 449 L518 535 Z " />
<glyph glyph-name="lessequal" unicode="&#x2264;" horiz-adv-x="600" d="M554 102 L554 277 L214 392 L214 394 L554 509 L554 684 L46 470 L46 316 L554 102 Z M552 -82 L552 78 L48 78 L48 -82 L552 -82 Z " />
<glyph glyph-name="greaterequal" unicode="&#x2265;" horiz-adv-x="600" d="M554 316 L554 470 L46 684 L46 509 L386 394 L386 392 L46 277 L46 102 L554 316 Z M552 -82 L552 78 L48 78 L48 -82 L552 -82 Z " />
<glyph glyph-name="lozenge" unicode="&#x25ca;" horiz-adv-x="559" d="M484 350 C420 467 357 583 293 700 L210 700 C147 583 83 466 20 349 C83 233 147 116 210 0 L293 0 C357 117 420 233 484 350 L484 350 Z M356 350 C321 282 287 215 252 148 C217 215 182 282 148 350 C182 418 217 485 252 552 C287 485 321 418 356 350 L356 350 Z " />
<glyph glyph-name="A.alt01" unicode="&#xe000;" horiz-adv-x="722" d="M655 0 L655 740 L468 740 L-40 0 L187 0 L252 107 L466 107 L466 0 L655 0 Z M466 257 L342 257 L464 462 L466 462 L466 257 Z " />
<glyph glyph-name="Aacute.alt01" unicode="&#xe001;" horiz-adv-x="722" d="M655 0 L655 740 L468 740 L-40 0 L187 0 L252 107 L466 107 L466 0 L655 0 Z M466 257 L342 257 L464 462 L466 462 L466 257 Z M413 874 L460 776 L706 885 L653 1003 L413 874 Z " />
<glyph glyph-name="Agrave.alt01" unicode="&#xe002;" horiz-adv-x="722" d="M655 0 L655 740 L468 740 L-40 0 L187 0 L252 107 L466 107 L466 0 L655 0 Z M466 257 L342 257 L464 462 L466 462 L466 257 Z M423 1001 L372 884 L619 776 L665 873 L423 1001 Z " />
<glyph glyph-name="Acircumflex.alt01" unicode="&#xe003;" horiz-adv-x="722" d="M655 0 L655 740 L468 740 L-40 0 L187 0 L252 107 L466 107 L466 0 L655 0 Z M466 257 L342 257 L464 462 L466 462 L466 257 Z M613 971 L505 971 L339 805 L501 805 L557 862 L613 805 L773 805 L613 971 Z " />
<glyph glyph-name="Adieresis.alt01" unicode="&#xe004;" horiz-adv-x="722" d="M655 0 L655 740 L468 740 L-40 0 L187 0 L252 107 L466 107 L466 0 L655 0 Z M466 257 L342 257 L464 462 L466 462 L466 257 Z M522 966 L363 966 L363 815 L522 815 L522 966 Z M755 966 L596 966 L596 815 L755 815 L755 966 Z " />
<glyph glyph-name="Atilde.alt01" unicode="&#xe005;" horiz-adv-x="722" d="M655 0 L655 740 L468 740 L-40 0 L187 0 L252 107 L466 107 L466 0 L655 0 Z M466 257 L342 257 L464 462 L466 462 L466 257 Z M677 959 C653 941 628 937 599 937 C544 937 492 962 437 962 C398 962 360 946 327 927 L382 814 C408 830 428 838 459 838 C508 838 569 812 619 812 C661 812 697 827 732 849 L677 959 Z " />
<glyph glyph-name="Aring.alt01" unicode="&#xe006;" horiz-adv-x="722" d="M655 0 L655 740 L468 740 L-40 0 L187 0 L252 107 L466 107 L466 0 L655 0 Z M466 257 L342 257 L464 462 L466 462 L466 257 Z M560 1017 C490 1017 433 961 433 891 C433 822 490 765 559 765 C628 765 685 822 685 891 C685 960 629 1017 560 1017 L560 1017 Z M558 936 C583 936 603 917 603 892 C603 868 583 848 559 848 C535 848 515 867 515 891 C515 915 533 936 558 936 L558 936 Z " />
<glyph glyph-name="Amacron.alt01" unicode="&#xe007;" horiz-adv-x="722" d="M655 0 L655 740 L468 740 L-40 0 L187 0 L252 107 L466 107 L466 0 L655 0 Z M466 257 L342 257 L464 462 L466 462 L466 257 Z M711 819 L711 945 L352 945 L352 819 L711 819 Z " />
<glyph glyph-name="Abreve.alt01" unicode="&#xe008;" horiz-adv-x="722" d="M655 0 L655 740 L468 740 L-40 0 L187 0 L252 107 L466 107 L466 0 L655 0 Z M466 257 L342 257 L464 462 L466 462 L466 257 Z M727 949 L614 949 C595 920 558 914 526 914 C487 914 454 917 428 949 L315 949 C323 839 425 805 521 805 C615 805 720 839 727 949 L727 949 Z " />
<glyph glyph-name="Aogonek.alt01" unicode="&#xe009;" horiz-adv-x="722" d="M663 -190 L663 -104 C648 -110 632 -116 616 -116 C591 -116 568 -93 568 -68 C568 -36 600 -14 625 0 L655 0 L655 740 L468 740 L-40 0 L187 0 L252 107 L466 107 L466 0 L541 0 C503 -26 458 -58 458 -109 C458 -176 517 -206 577 -206 C608 -206 633 -200 663 -190 L663 -190 Z M466 257 L342 257 L464 462 L466 462 L466 257 Z " />
<glyph glyph-name="A.alt02" unicode="&#xe00a;" horiz-adv-x="722" d="M762 0 L254 740 L67 740 L67 0 L256 0 L256 107 L470 107 L535 0 L762 0 Z M380 257 L256 257 L256 462 L258 462 L380 257 Z " />
<glyph glyph-name="Aacute.alt02" unicode="&#xe00b;" horiz-adv-x="722" d="M762 0 L254 740 L67 740 L67 0 L256 0 L256 107 L470 107 L535 0 L762 0 Z M380 257 L256 257 L256 462 L258 462 L380 257 Z M43 874 L90 776 L336 885 L283 1003 L43 874 Z " />
<glyph glyph-name="Agrave.alt02" unicode="&#xe00c;" horiz-adv-x="722" d="M762 0 L254 740 L67 740 L67 0 L256 0 L256 107 L470 107 L535 0 L762 0 Z M380 257 L256 257 L256 462 L258 462 L380 257 Z M33 1001 L-18 884 L229 776 L275 873 L33 1001 Z " />
<glyph glyph-name="Acircumflex.alt02" unicode="&#xe00d;" horiz-adv-x="722" d="M762 0 L254 740 L67 740 L67 0 L256 0 L256 107 L470 107 L535 0 L762 0 Z M380 257 L256 257 L256 462 L258 462 L380 257 Z M266 971 L158 971 L-8 805 L154 805 L210 862 L266 805 L426 805 L266 971 Z " />
<glyph glyph-name="Adieresis.alt02" unicode="&#xe00e;" horiz-adv-x="722" d="M762 0 L254 740 L67 740 L67 0 L256 0 L256 107 L470 107 L535 0 L762 0 Z M380 257 L256 257 L256 462 L258 462 L380 257 Z M122 966 L-37 966 L-37 815 L122 815 L122 966 Z M355 966 L196 966 L196 815 L355 815 L355 966 Z " />
<glyph glyph-name="Atilde.alt02" unicode="&#xe00f;" horiz-adv-x="722" d="M762 0 L254 740 L67 740 L67 0 L256 0 L256 107 L470 107 L535 0 L762 0 Z M380 257 L256 257 L256 462 L258 462 L380 257 Z M308 959 C284 941 259 937 230 937 C175 937 123 962 68 962 C29 962 -9 946 -42 927 L13 814 C39 830 59 838 90 838 C139 838 200 812 250 812 C292 812 328 827 363 849 L308 959 Z " />
<glyph glyph-name="Aring.alt02" unicode="&#xe010;" horiz-adv-x="722" d="M762 0 L254 740 L67 740 L67 0 L256 0 L256 107 L470 107 L535 0 L762 0 Z M380 257 L256 257 L256 462 L258 462 L380 257 Z M160 1017 C90 1017 33 961 33 891 C33 822 90 765 159 765 C228 765 285 822 285 891 C285 960 229 1017 160 1017 L160 1017 Z M158 936 C183 936 203 917 203 892 C203 868 183 848 159 848 C135 848 115 867 115 891 C115 915 133 936 158 936 L158 936 Z " />
<glyph glyph-name="Amacron.alt02" unicode="&#xe011;" horiz-adv-x="722" d="M762 0 L254 740 L67 740 L67 0 L256 0 L256 107 L470 107 L535 0 L762 0 Z M380 257 L256 257 L256 462 L258 462 L380 257 Z M364 819 L364 945 L5 945 L5 819 L364 819 Z " />
<glyph glyph-name="Abreve.alt02" unicode="&#xe012;" horiz-adv-x="722" d="M762 0 L254 740 L67 740 L67 0 L256 0 L256 107 L470 107 L535 0 L762 0 Z M380 257 L256 257 L256 462 L258 462 L380 257 Z M397 949 L284 949 C265 920 228 914 196 914 C157 914 124 917 98 949 L-15 949 C-7 839 95 805 191 805 C285 805 390 839 397 949 L397 949 Z " />
<glyph glyph-name="Aogonek.alt02" unicode="&#xe013;" horiz-adv-x="722" d="M733 -190 L733 -104 C718 -110 702 -116 686 -116 C661 -116 638 -93 638 -68 C638 -36 670 -14 695 0 L762 0 L254 740 L67 740 L67 0 L256 0 L256 107 L470 107 L535 0 L611 0 C573 -26 528 -58 528 -109 C528 -176 587 -206 647 -206 C678 -206 703 -200 733 -190 L733 -190 Z M380 257 L256 257 L256 462 L258 462 L380 257 Z " />
<glyph glyph-name="A.alt03" unicode="&#xe014;" horiz-adv-x="882" d="M815 0 L815 740 L626 740 L627 662 L625 662 C602 700 518 754 395 754 C179 754 35 586 35 366 C35 184 157 -14 387 -14 C509 -14 584 28 625 81 L627 81 L626 0 L815 0 Z M627 369 C627 274 562 152 428 152 C298 152 224 253 224 372 C224 481 292 588 426 588 C562 588 627 465 627 369 L627 369 Z " />
<glyph glyph-name="Aacute.alt03" unicode="&#xe015;" horiz-adv-x="882" d="M815 0 L815 740 L626 740 L627 662 L625 662 C602 700 518 754 395 754 C179 754 35 586 35 366 C35 184 157 -14 387 -14 C509 -14 584 28 625 81 L627 81 L626 0 L815 0 Z M627 369 C627 274 562 152 428 152 C298 152 224 253 224 372 C224 481 292 588 426 588 C562 588 627 465 627 369 L627 369 Z M293 874 L340 776 L586 885 L533 1003 L293 874 Z " />
<glyph glyph-name="Agrave.alt03" unicode="&#xe016;" horiz-adv-x="882" d="M815 0 L815 740 L626 740 L627 662 L625 662 C602 700 518 754 395 754 C179 754 35 586 35 366 C35 184 157 -14 387 -14 C509 -14 584 28 625 81 L627 81 L626 0 L815 0 Z M627 369 C627 274 562 152 428 152 C298 152 224 253 224 372 C224 481 292 588 426 588 C562 588 627 465 627 369 L627 369 Z M306 1001 L255 884 L502 776 L548 873 L306 1001 Z " />
<glyph glyph-name="Acircumflex.alt03" unicode="&#xe017;" horiz-adv-x="882" d="M815 0 L815 740 L626 740 L627 662 L625 662 C602 700 518 754 395 754 C179 754 35 586 35 366 C35 184 157 -14 387 -14 C509 -14 584 28 625 81 L627 81 L626 0 L815 0 Z M627 369 C627 274 562 152 428 152 C298 152 224 253 224 372 C224 481 292 588 426 588 C562 588 627 465 627 369 L627 369 Z M486 971 L378 971 L212 805 L374 805 L430 862 L486 805 L646 805 L486 971 Z " />
<glyph glyph-name="Adieresis.alt03" unicode="&#xe018;" horiz-adv-x="882" d="M815 0 L815 740 L626 740 L627 662 L625 662 C602 700 518 754 395 754 C179 754 35 586 35 366 C35 184 157 -14 387 -14 C509 -14 584 28 625 81 L627 81 L626 0 L815 0 Z M627 369 C627 274 562 152 428 152 C298 152 224 253 224 372 C224 481 292 588 426 588 C562 588 627 465 627 369 L627 369 Z M398 966 L239 966 L239 815 L398 815 L398 966 Z M631 966 L472 966 L472 815 L631 815 L631 966 Z " />
<glyph glyph-name="Atilde.alt03" unicode="&#xe019;" horiz-adv-x="882" d="M815 0 L815 740 L626 740 L627 662 L625 662 C602 700 518 754 395 754 C179 754 35 586 35 366 C35 184 157 -14 387 -14 C509 -14 584 28 625 81 L627 81 L626 0 L815 0 Z M627 369 C627 274 562 152 428 152 C298 152 224 253 224 372 C224 481 292 588 426 588 C562 588 627 465 627 369 L627 369 Z M598 959 C574 941 549 937 520 937 C465 937 413 962 358 962 C319 962 281 946 248 927 L303 814 C329 830 349 838 380 838 C429 838 490 812 540 812 C582 812 618 827 653 849 L598 959 Z " />
<glyph glyph-name="Aring.alt03" unicode="&#xe01a;" horiz-adv-x="882" d="M815 0 L815 740 L626 740 L627 662 L625 662 C602 700 518 754 395 754 C179 754 35 586 35 366 C35 184 157 -14 387 -14 C509 -14 584 28 625 81 L627 81 L626 0 L815 0 Z M627 369 C627 274 562 152 428 152 C298 152 224 253 224 372 C224 481 292 588 426 588 C562 588 627 465 627 369 L627 369 Z M432 1037 C362 1037 305 981 305 911 C305 842 362 785 431 785 C500 785 557 842 557 911 C557 980 501 1037 432 1037 L432 1037 Z M430 956 C455 956 475 937 475 912 C475 888 455 868 431 868 C407 868 387 887 387 911 C387 935 405 956 430 956 L430 956 Z " />
<glyph glyph-name="Amacron.alt03" unicode="&#xe01b;" horiz-adv-x="882" d="M815 0 L815 740 L626 740 L627 662 L625 662 C602 700 518 754 395 754 C179 754 35 586 35 366 C35 184 157 -14 387 -14 C509 -14 584 28 625 81 L627 81 L626 0 L815 0 Z M627 369 C627 274 562 152 428 152 C298 152 224 253 224 372 C224 481 292 588 426 588 C562 588 627 465 627 369 L627 369 Z M591 819 L591 945 L232 945 L232 819 L591 819 Z " />
<glyph glyph-name="Abreve.alt03" unicode="&#xe01c;" horiz-adv-x="882" d="M815 0 L815 740 L626 740 L627 662 L625 662 C602 700 518 754 395 754 C179 754 35 586 35 366 C35 184 157 -14 387 -14 C509 -14 584 28 625 81 L627 81 L626 0 L815 0 Z M627 369 C627 274 562 152 428 152 C298 152 224 253 224 372 C224 481 292 588 426 588 C562 588 627 465 627 369 L627 369 Z M617 949 L504 949 C485 920 448 914 416 914 C377 914 344 917 318 949 L205 949 C213 839 315 805 411 805 C505 805 610 839 617 949 L617 949 Z " />
<glyph glyph-name="Aogonek.alt03" unicode="&#xe01d;" horiz-adv-x="882" d="M818 -190 L818 -104 C803 -110 787 -116 771 -116 C746 -116 723 -93 723 -68 C723 -36 755 -14 780 0 L815 0 L815 740 L626 740 L627 662 L625 662 C602 700 518 754 395 754 C179 754 35 586 35 366 C35 184 157 -14 387 -14 C509 -14 584 28 625 81 L627 81 L626 0 L696 0 C658 -26 613 -58 613 -109 C613 -176 672 -206 732 -206 C763 -206 788 -200 818 -190 L818 -190 Z M627 369 C627 274 562 152 428 152 C298 152 224 253 224 372 C224 481 292 588 426 588 C562 588 627 465 627 369 L627 369 Z " />
<glyph glyph-name="C.alt01" unicode="&#xe01e;" horiz-adv-x="601" d="M547 8 L547 187 C513 165 476 152 425 152 C302 152 226 260 226 372 C226 477 297 588 424 588 C481 588 520 572 547 555 L547 732 C508 747 472 754 425 754 C185 754 37 570 37 371 C37 171 190 -14 417 -14 C460 -14 518 -4 547 8 L547 8 Z " />
<glyph glyph-name="Ccedilla.alt01" unicode="&#xe01f;" horiz-adv-x="601" d="M547 8 L547 187 C513 165 476 152 425 152 C302 152 226 260 226 372 C226 477 297 588 424 588 C481 588 520 572 547 555 L547 732 C508 747 472 754 425 754 C185 754 37 570 37 371 C37 198 152 36 330 -4 L290 -87 L355 -122 C361 -114 369 -107 382 -107 C401 -107 416 -120 416 -141 C416 -163 403 -179 380 -179 C357 -179 352 -164 347 -151 L271 -151 C283 -240 363 -245 380 -245 C456 -245 492 -191 492 -141 C492 -77 445 -50 407 -50 C399 -50 392 -51 386 -53 L407 -14 L417 -14 C418 -14 419 -14 420 -14 C463 -14 519 -4 547 8 L547 8 Z " />
<glyph glyph-name="Cacute.alt01" unicode="&#xe020;" horiz-adv-x="601" d="M547 8 L547 187 C513 165 476 152 425 152 C302 152 226 260 226 372 C226 477 297 588 424 588 C481 588 520 572 547 555 L547 732 C508 747 472 754 425 754 C185 754 37 570 37 371 C37 171 190 -14 417 -14 C460 -14 518 -4 547 8 L547 8 Z M557 885 L504 1003 L264 874 L311 776 L557 885 Z " />
<glyph glyph-name="Ccircumflex.alt01" unicode="&#xe021;" horiz-adv-x="601" d="M547 8 L547 187 C513 165 476 152 425 152 C302 152 226 260 226 372 C226 477 297 588 424 588 C481 588 520 572 547 555 L547 732 C508 747 472 754 425 754 C185 754 37 570 37 371 C37 171 190 -14 417 -14 C460 -14 518 -4 547 8 L547 8 Z M567 805 L417 971 L309 971 L153 805 L315 805 L361 863 L407 805 L567 805 Z " />
<glyph glyph-name="Cdotaccent.alt01" unicode="&#xe022;" horiz-adv-x="601" d="M547 8 L547 187 C513 165 476 152 425 152 C302 152 226 260 226 372 C226 477 297 588 424 588 C481 588 520 572 547 555 L547 732 C508 747 472 754 425 754 C185 754 37 570 37 371 C37 171 190 -14 417 -14 C460 -14 518 -4 547 8 L547 8 Z M470 815 L470 966 L311 966 L311 815 L470 815 Z " />
<glyph glyph-name="Ccaron.alt01" unicode="&#xe023;" horiz-adv-x="601" d="M547 8 L547 187 C513 165 476 152 425 152 C302 152 226 260 226 372 C226 477 297 588 424 588 C481 588 520 572 547 555 L547 732 C508 747 472 754 425 754 C185 754 37 570 37 371 C37 171 190 -14 417 -14 C460 -14 518 -4 547 8 L547 8 Z M577 971 L416 971 L370 913 L324 971 L163 971 L314 805 L422 805 L577 971 Z " />
<glyph glyph-name="E.alt01" unicode="&#xe024;" horiz-adv-x="601" d="M547 8 L547 187 C513 165 476 152 425 152 C332 152 265 214 239 293 L538 293 L538 459 L242 459 C270 530 333 588 424 588 C481 588 520 572 547 555 L547 732 C508 747 472 754 425 754 C202 754 37 597 37 371 C37 147 201 -14 417 -14 C460 -14 518 -4 547 8 L547 8 Z " />
<glyph glyph-name="Eacute.alt01" unicode="&#xe025;" horiz-adv-x="601" d="M547 8 L547 187 C513 165 476 152 425 152 C332 152 265 214 239 293 L538 293 L538 459 L242 459 C270 530 333 588 424 588 C481 588 520 572 547 555 L547 732 C508 747 472 754 425 754 C202 754 37 597 37 371 C37 147 201 -14 417 -14 C460 -14 518 -4 547 8 L547 8 Z M258 874 L305 776 L551 885 L498 1003 L258 874 Z " />
<glyph glyph-name="Egrave.alt01" unicode="&#xe026;" horiz-adv-x="601" d="M547 8 L547 187 C513 165 476 152 425 152 C332 152 265 214 239 293 L538 293 L538 459 L242 459 C270 530 333 588 424 588 C481 588 520 572 547 555 L547 732 C508 747 472 754 425 754 C202 754 37 597 37 371 C37 147 201 -14 417 -14 C460 -14 518 -4 547 8 L547 8 Z M279 1001 L228 884 L475 776 L521 873 L279 1001 Z " />
<glyph glyph-name="Ecircumflex.alt01" unicode="&#xe027;" horiz-adv-x="601" d="M547 8 L547 187 C513 165 476 152 425 152 C332 152 265 214 239 293 L538 293 L538 459 L242 459 C270 530 333 588 424 588 C481 588 520 572 547 555 L547 732 C508 747 472 754 425 754 C202 754 37 597 37 371 C37 147 201 -14 417 -14 C460 -14 518 -4 547 8 L547 8 Z M426 971 L318 971 L152 805 L314 805 L370 862 L426 805 L586 805 L426 971 Z " />
<glyph glyph-name="Edieresis.alt01" unicode="&#xe028;" horiz-adv-x="601" d="M547 8 L547 187 C513 165 476 152 425 152 C332 152 265 214 239 293 L538 293 L538 459 L242 459 C270 530 333 588 424 588 C481 588 520 572 547 555 L547 732 C508 747 472 754 425 754 C202 754 37 597 37 371 C37 147 201 -14 417 -14 C460 -14 518 -4 547 8 L547 8 Z M341 966 L182 966 L182 815 L341 815 L341 966 Z M574 966 L415 966 L415 815 L574 815 L574 966 Z " />
<glyph glyph-name="Emacron.alt01" unicode="&#xe029;" horiz-adv-x="601" d="M547 8 L547 187 C513 165 476 152 425 152 C332 152 265 214 239 293 L538 293 L538 459 L242 459 C270 530 333 588 424 588 C481 588 520 572 547 555 L547 732 C508 747 472 754 425 754 C202 754 37 597 37 371 C37 147 201 -14 417 -14 C460 -14 518 -4 547 8 L547 8 Z M540 819 L540 945 L181 945 L181 819 L540 819 Z " />
<glyph glyph-name="Ebreve.alt01" unicode="&#xe02a;" horiz-adv-x="601" d="M547 8 L547 187 C513 165 476 152 425 152 C332 152 265 214 239 293 L538 293 L538 459 L242 459 C270 530 333 588 424 588 C481 588 520 572 547 555 L547 732 C508 747 472 754 425 754 C202 754 37 597 37 371 C37 147 201 -14 417 -14 C460 -14 518 -4 547 8 L547 8 Z M566 949 L453 949 C434 920 397 914 365 914 C326 914 293 917 267 949 L154 949 C162 839 264 805 360 805 C454 805 559 839 566 949 L566 949 Z " />
<glyph glyph-name="Edotaccent.alt01" unicode="&#xe02b;" horiz-adv-x="601" d="M547 8 L547 187 C513 165 476 152 425 152 C332 152 265 214 239 293 L538 293 L538 459 L242 459 C270 530 333 588 424 588 C481 588 520 572 547 555 L547 732 C508 747 472 754 425 754 C202 754 37 597 37 371 C37 147 201 -14 417 -14 C460 -14 518 -4 547 8 L547 8 Z M470 815 L470 966 L311 966 L311 815 L470 815 Z " />
<glyph glyph-name="Eogonek.alt01" unicode="&#xe02c;" horiz-adv-x="601" d="M549 -190 L549 -104 C534 -110 518 -116 502 -116 C477 -116 454 -93 454 -68 C454 -39 479 -18 503 -4 C520 -1 536 3 547 8 L547 187 C513 165 476 152 425 152 C332 152 265 214 239 293 L538 293 L538 459 L242 459 C270 530 333 588 424 588 C481 588 520 572 547 555 L547 732 C508 747 472 754 425 754 C202 754 37 597 37 371 C37 150 196 -9 407 -13 C375 -37 344 -66 344 -109 C344 -176 403 -206 463 -206 C494 -206 519 -200 549 -190 L549 -190 Z " />
<glyph glyph-name="Ecaron.alt01" unicode="&#xe02d;" horiz-adv-x="601" d="M547 8 L547 187 C513 165 476 152 425 152 C332 152 265 214 239 293 L538 293 L538 459 L242 459 C270 530 333 588 424 588 C481 588 520 572 547 555 L547 732 C508 747 472 754 425 754 C202 754 37 597 37 371 C37 147 201 -14 417 -14 C460 -14 518 -4 547 8 L547 8 Z M571 971 L410 971 L364 913 L318 971 L157 971 L308 805 L416 805 L571 971 Z " />
<glyph glyph-name="E.alt02" unicode="&#xe02e;" horiz-adv-x="850" d="M815 367 C815 583 649 754 423 754 C216 754 35 599 35 367 C35 165 191 -14 427 -14 C596 -14 735 88 791 235 L585 235 C553 192 503 152 427 152 C332 152 258 214 234 304 L809 304 C812 323 815 338 815 367 L815 367 Z M616 437 L233 437 C257 514 316 588 425 588 C546 588 600 492 616 437 L616 437 Z " />
<glyph glyph-name="Eacute.alt02" unicode="&#xe02f;" horiz-adv-x="850" d="M815 367 C815 583 649 754 423 754 C216 754 35 599 35 367 C35 165 191 -14 427 -14 C596 -14 735 88 791 235 L585 235 C553 192 503 152 427 152 C332 152 258 214 234 304 L809 304 C812 323 815 338 815 367 L815 367 Z M616 437 L233 437 C257 514 316 588 425 588 C546 588 600 492 616 437 L616 437 Z M298 874 L345 776 L591 885 L538 1003 L298 874 Z " />
<glyph glyph-name="Egrave.alt02" unicode="&#xe030;" horiz-adv-x="850" d="M815 367 C815 583 649 754 423 754 C216 754 35 599 35 367 C35 165 191 -14 427 -14 C596 -14 735 88 791 235 L585 235 C553 192 503 152 427 152 C332 152 258 214 234 304 L809 304 C812 323 815 338 815 367 L815 367 Z M616 437 L233 437 C257 514 316 588 425 588 C546 588 600 492 616 437 L616 437 Z M323 1001 L272 884 L519 776 L565 873 L323 1001 Z " />
<glyph glyph-name="Ecircumflex.alt02" unicode="&#xe031;" horiz-adv-x="850" d="M815 367 C815 583 649 754 423 754 C216 754 35 599 35 367 C35 165 191 -14 427 -14 C596 -14 735 88 791 235 L585 235 C553 192 503 152 427 152 C332 152 258 214 234 304 L809 304 C812 323 815 338 815 367 L815 367 Z M616 437 L233 437 C257 514 316 588 425 588 C546 588 600 492 616 437 L616 437 Z M479 971 L371 971 L205 805 L367 805 L423 862 L479 805 L639 805 L479 971 Z " />
<glyph glyph-name="Edieresis.alt02" unicode="&#xe032;" horiz-adv-x="850" d="M815 367 C815 583 649 754 423 754 C216 754 35 599 35 367 C35 165 191 -14 427 -14 C596 -14 735 88 791 235 L585 235 C553 192 503 152 427 152 C332 152 258 214 234 304 L809 304 C812 323 815 338 815 367 L815 367 Z M616 437 L233 437 C257 514 316 588 425 588 C546 588 600 492 616 437 L616 437 Z M385 966 L226 966 L226 815 L385 815 L385 966 Z M618 966 L459 966 L459 815 L618 815 L618 966 Z " />
<glyph glyph-name="Emacron.alt02" unicode="&#xe033;" horiz-adv-x="850" d="M815 367 C815 583 649 754 423 754 C216 754 35 599 35 367 C35 165 191 -14 427 -14 C596 -14 735 88 791 235 L585 235 C553 192 503 152 427 152 C332 152 258 214 234 304 L809 304 C812 323 815 338 815 367 L815 367 Z M616 437 L233 437 C257 514 316 588 425 588 C546 588 600 492 616 437 L616 437 Z M605 819 L605 945 L246 945 L246 819 L605 819 Z " />
<glyph glyph-name="Ebreve.alt02" unicode="&#xe034;" horiz-adv-x="850" d="M815 367 C815 583 649 754 423 754 C216 754 35 599 35 367 C35 165 191 -14 427 -14 C596 -14 735 88 791 235 L585 235 C553 192 503 152 427 152 C332 152 258 214 234 304 L809 304 C812 323 815 338 815 367 L815 367 Z M616 437 L233 437 C257 514 316 588 425 588 C546 588 600 492 616 437 L616 437 Z M631 949 L518 949 C499 920 462 914 430 914 C391 914 358 917 332 949 L219 949 C227 839 329 805 425 805 C519 805 624 839 631 949 L631 949 Z " />
<glyph glyph-name="Edotaccent.alt02" unicode="&#xe035;" horiz-adv-x="850" d="M815 367 C815 583 649 754 423 754 C216 754 35 599 35 367 C35 165 191 -14 427 -14 C596 -14 735 88 791 235 L585 235 C553 192 503 152 427 152 C332 152 258 214 234 304 L809 304 C812 323 815 338 815 367 L815 367 Z M616 437 L233 437 C257 514 316 588 425 588 C546 588 600 492 616 437 L616 437 Z M505 815 L505 966 L346 966 L346 815 L505 815 Z " />
<glyph glyph-name="Eogonek.alt02" unicode="&#xe036;" horiz-adv-x="850" d="M557 -190 L557 -104 C542 -110 526 -116 510 -116 C485 -116 462 -93 462 -68 C462 -40 486 -19 509 -5 C640 21 744 112 791 235 L585 235 C553 192 503 152 427 152 C332 152 258 214 234 304 L809 304 C812 323 815 338 815 367 C815 583 649 754 423 754 C216 754 35 599 35 367 C35 168 186 -8 415 -13 C383 -37 352 -66 352 -109 C352 -176 411 -206 471 -206 C502 -206 527 -200 557 -190 L557 -190 Z M616 437 L233 437 C257 514 316 588 425 588 C546 588 600 492 616 437 L616 437 Z " />
<glyph glyph-name="Ecaron.alt02" unicode="&#xe037;" horiz-adv-x="850" d="M815 367 C815 583 649 754 423 754 C216 754 35 599 35 367 C35 165 191 -14 427 -14 C596 -14 735 88 791 235 L585 235 C553 192 503 152 427 152 C332 152 258 214 234 304 L809 304 C812 323 815 338 815 367 L815 367 Z M616 437 L233 437 C257 514 316 588 425 588 C546 588 600 492 616 437 L616 437 Z M632 971 L471 971 L425 913 L379 971 L218 971 L369 805 L477 805 L632 971 Z " />
<glyph glyph-name="K.alt01" unicode="&#xe038;" horiz-adv-x="687" d="M681 0 L423 407 L675 740 L462 740 L258 438 L256 438 L256 740 L67 740 L67 0 L256 0 L256 187 L312 261 L460 0 L681 0 Z " />
<glyph glyph-name="Kcommaaccent.alt01" unicode="&#xe039;" horiz-adv-x="687" d="M681 0 L423 407 L675 740 L462 740 L258 438 L256 438 L256 740 L67 740 L67 0 L256 0 L256 187 L312 261 L460 0 L681 0 Z M430 -145 L430 -46 L257 -46 L257 -155 L335 -155 L335 -179 C335 -211 287 -207 257 -207 L257 -280 L318 -280 C383 -280 430 -238 430 -168 L430 -145 Z " />
<glyph glyph-name="K.alt02" unicode="&#xe03a;" horiz-adv-x="697" d="M691 0 L455 371 L675 740 L467 740 L257 371 L460 0 L691 0 Z M256 0 L256 740 L67 740 L67 0 L256 0 Z " />
<glyph glyph-name="Kcommaaccent.alt02" unicode="&#xe03b;" horiz-adv-x="697" d="M691 0 L455 371 L675 740 L467 740 L257 371 L460 0 L691 0 Z M256 0 L256 740 L67 740 L67 0 L256 0 Z M435 -145 L435 -46 L262 -46 L262 -155 L340 -155 L340 -179 C340 -211 292 -207 262 -207 L262 -280 L323 -280 C388 -280 435 -238 435 -168 L435 -145 Z " />
<glyph glyph-name="M.alt01" unicode="&#xe03c;" horiz-adv-x="1190" d="M1123 0 L1123 740 L936 740 L657 333 L655 333 L655 740 L468 740 L-40 0 L177 0 L464 441 L466 441 L466 0 L623 0 L932 441 L934 441 L934 0 L1123 0 Z " />
<glyph glyph-name="M.alt02" unicode="&#xe03d;" horiz-adv-x="1190" d="M1230 0 L722 740 L535 740 L535 333 L533 333 L254 740 L67 740 L67 0 L256 0 L256 441 L258 441 L567 0 L724 0 L724 441 L726 441 L1013 0 L1230 0 Z " />
<glyph glyph-name="M.alt03" unicode="&#xe03e;" horiz-adv-x="1138" d="M1072 0 L1072 459 C1072 558 1057 626 1007 683 C964 732 911 754 824 754 C731 754 657 697 623 634 L620 634 C585 704 521 754 416 754 C347 754 285 725 249 666 L246 666 L246 740 L67 740 L67 0 L256 0 L256 454 C256 548 307 587 367 587 C445 587 475 536 475 439 L475 0 L664 0 L664 454 C664 548 715 587 775 587 C853 587 883 536 883 439 L883 0 L1072 0 Z " />
<glyph glyph-name="N.alt01" unicode="&#xe03f;" horiz-adv-x="739" d="M674 0 L674 459 C674 558 659 626 609 683 C566 732 513 754 426 754 C357 754 285 725 249 666 L246 666 L246 740 L67 740 L67 0 L256 0 L256 454 C256 548 307 587 367 587 C445 587 485 536 485 439 L485 0 L674 0 Z " />
<glyph glyph-name="Ntilde.alt01" unicode="&#xe040;" horiz-adv-x="739" d="M674 0 L674 459 C674 558 659 626 609 683 C566 732 513 754 426 754 C357 754 285 725 249 666 L246 666 L246 740 L67 740 L67 0 L256 0 L256 454 C256 548 307 587 367 587 C445 587 485 536 485 439 L485 0 L674 0 Z M528 958 C504 940 479 936 450 936 C395 936 343 961 288 961 C249 961 211 945 178 926 L233 813 C259 829 279 837 310 837 C359 837 420 811 470 811 C512 811 548 826 583 848 L528 958 Z " />
<glyph glyph-name="Nacute.alt01" unicode="&#xe041;" horiz-adv-x="739" d="M674 0 L674 459 C674 558 659 626 609 683 C566 732 513 754 426 754 C357 754 285 725 249 666 L246 666 L246 740 L67 740 L67 0 L256 0 L256 454 C256 548 307 587 367 587 C445 587 485 536 485 439 L485 0 L674 0 Z M576 885 L523 1003 L283 874 L330 776 L576 885 Z " />
<glyph glyph-name="Ncommaaccent.alt01" unicode="&#xe042;" horiz-adv-x="739" d="M674 0 L674 459 C674 558 659 626 609 683 C566 732 513 754 426 754 C357 754 285 725 249 666 L246 666 L246 740 L67 740 L67 0 L256 0 L256 454 C256 548 307 587 367 587 C445 587 485 536 485 439 L485 0 L674 0 Z M456 -145 L456 -46 L283 -46 L283 -155 L361 -155 L361 -179 C361 -211 313 -207 283 -207 L283 -280 L344 -280 C409 -280 456 -238 456 -168 L456 -145 Z " />
<glyph glyph-name="Ncaron.alt01" unicode="&#xe043;" horiz-adv-x="739" d="M674 0 L674 459 C674 558 659 626 609 683 C566 732 513 754 426 754 C357 754 285 725 249 666 L246 666 L246 740 L67 740 L67 0 L256 0 L256 454 C256 548 307 587 367 587 C445 587 485 536 485 439 L485 0 L674 0 Z M576 971 L415 971 L369 913 L323 971 L162 971 L313 805 L421 805 L576 971 Z " />
<glyph glyph-name="U.alt01" unicode="&#xe044;" horiz-adv-x="739" d="M672 0 L672 740 L483 740 L483 286 C483 192 432 153 372 153 C294 153 254 204 254 301 L254 740 L65 740 L65 281 C65 182 80 114 130 57 C173 8 226 -14 313 -14 C382 -14 454 15 490 74 L493 74 L493 0 L672 0 Z " />
<glyph glyph-name="Uacute.alt01" unicode="&#xe045;" horiz-adv-x="739" d="M672 0 L672 740 L483 740 L483 286 C483 192 432 153 372 153 C294 153 254 204 254 301 L254 740 L65 740 L65 281 C65 182 80 114 130 57 C173 8 226 -14 313 -14 C382 -14 454 15 490 74 L493 74 L493 0 L672 0 Z M253 874 L300 776 L546 885 L493 1003 L253 874 Z " />
<glyph glyph-name="Ugrave.alt01" unicode="&#xe046;" horiz-adv-x="739" d="M672 0 L672 740 L483 740 L483 286 C483 192 432 153 372 153 C294 153 254 204 254 301 L254 740 L65 740 L65 281 C65 182 80 114 130 57 C173 8 226 -14 313 -14 C382 -14 454 15 490 74 L493 74 L493 0 L672 0 Z M253 1001 L202 884 L449 776 L495 873 L253 1001 Z " />
<glyph glyph-name="Ucircumflex.alt01" unicode="&#xe047;" horiz-adv-x="739" d="M672 0 L672 740 L483 740 L483 286 C483 192 432 153 372 153 C294 153 254 204 254 301 L254 740 L65 740 L65 281 C65 182 80 114 130 57 C173 8 226 -14 313 -14 C382 -14 454 15 490 74 L493 74 L493 0 L672 0 Z M418 971 L310 971 L144 805 L306 805 L362 862 L418 805 L578 805 L418 971 Z " />
<glyph glyph-name="Udieresis.alt01" unicode="&#xe048;" horiz-adv-x="739" d="M672 0 L672 740 L483 740 L483 286 C483 192 432 153 372 153 C294 153 254 204 254 301 L254 740 L65 740 L65 281 C65 182 80 114 130 57 C173 8 226 -14 313 -14 C382 -14 454 15 490 74 L493 74 L493 0 L672 0 Z M332 966 L173 966 L173 815 L332 815 L332 966 Z M565 966 L406 966 L406 815 L565 815 L565 966 Z " />
<glyph glyph-name="Utilde.alt01" unicode="&#xe049;" horiz-adv-x="739" d="M672 0 L672 740 L483 740 L483 286 C483 192 432 153 372 153 C294 153 254 204 254 301 L254 740 L65 740 L65 281 C65 182 80 114 130 57 C173 8 226 -14 313 -14 C382 -14 454 15 490 74 L493 74 L493 0 L672 0 Z M572 849 L512 934 C486 923 468 917 439 917 C384 917 332 942 277 942 C238 942 200 926 167 907 L227 819 C252 829 272 838 299 838 C347 838 409 812 459 812 C501 812 537 827 572 849 L572 849 Z " />
<glyph glyph-name="Umacron.alt01" unicode="&#xe04a;" horiz-adv-x="739" d="M672 0 L672 740 L483 740 L483 286 C483 192 432 153 372 153 C294 153 254 204 254 301 L254 740 L65 740 L65 281 C65 182 80 114 130 57 C173 8 226 -14 313 -14 C382 -14 454 15 490 74 L493 74 L493 0 L672 0 Z M549 819 L549 945 L190 945 L190 819 L549 819 Z " />
<glyph glyph-name="Ubreve.alt01" unicode="&#xe04b;" horiz-adv-x="739" d="M672 0 L672 740 L483 740 L483 286 C483 192 432 153 372 153 C294 153 254 204 254 301 L254 740 L65 740 L65 281 C65 182 80 114 130 57 C173 8 226 -14 313 -14 C382 -14 454 15 490 74 L493 74 L493 0 L672 0 Z M575 949 L462 949 C443 920 406 914 374 914 C335 914 302 917 276 949 L163 949 C171 839 273 805 369 805 C463 805 568 839 575 949 L575 949 Z " />
<glyph glyph-name="Uhungarumlaut.alt01" unicode="&#xe04c;" horiz-adv-x="739" d="M672 0 L672 740 L483 740 L483 286 C483 192 432 153 372 153 C294 153 254 204 254 301 L254 740 L65 740 L65 281 C65 182 80 114 130 57 C173 8 226 -14 313 -14 C382 -14 454 15 490 74 L493 74 L493 0 L672 0 Z M595 951 L478 1008 L403 823 L509 776 L595 951 Z M396 951 L278 1008 L204 823 L310 776 L396 951 Z " />
<glyph glyph-name="Uring.alt01" unicode="&#xe04d;" horiz-adv-x="739" d="M672 0 L672 740 L483 740 L483 286 C483 192 432 153 372 153 C294 153 254 204 254 301 L254 740 L65 740 L65 281 C65 182 80 114 130 57 C173 8 226 -14 313 -14 C382 -14 454 15 490 74 L493 74 L493 0 L672 0 Z M495 891 C495 960 438 1017 369 1017 C300 1017 243 960 243 891 C243 822 300 765 369 765 C438 765 495 822 495 891 L495 891 Z M413 892 C413 868 393 848 369 848 C345 848 325 867 325 891 C325 916 344 936 369 936 C393 936 413 916 413 892 L413 892 Z " />
<glyph glyph-name="Uogonek.alt01" unicode="&#xe04e;" horiz-adv-x="739" d="M677 -190 L677 -104 C662 -110 646 -116 630 -116 C605 -116 582 -93 582 -68 C582 -36 614 -14 639 0 L672 0 L672 740 L483 740 L483 286 C483 192 432 153 372 153 C294 153 254 204 254 301 L254 740 L65 740 L65 281 C65 182 80 114 130 57 C173 8 226 -14 313 -14 C382 -14 454 15 490 74 L493 74 L493 0 L555 0 C517 -26 472 -58 472 -109 C472 -176 531 -206 591 -206 C622 -206 647 -200 677 -190 L677 -190 Z " />
<glyph glyph-name="V.alt02" unicode="&#xe04f;" horiz-adv-x="759" d="M799 740 L572 740 L258 257 L256 257 L256 740 L67 740 L67 0 L291 0 L799 740 Z " />
<glyph glyph-name="V.alt01" unicode="&#xe050;" horiz-adv-x="779" d="M712 0 L712 740 L523 740 L523 257 L521 257 L187 740 L-40 740 L488 0 L712 0 Z " />
<glyph glyph-name="W.alt02" unicode="&#xe051;" horiz-adv-x="1196" d="M1236 740 L1021 740 L730 302 L728 302 L728 740 L556 740 L258 310 L256 310 L256 740 L67 740 L67 0 L256 0 L537 410 L539 410 L539 0 L729 0 L1236 740 Z " />
<glyph glyph-name="Wcircumflex.alt02" unicode="&#xe052;" horiz-adv-x="1196" d="M1236 740 L1021 740 L730 302 L728 302 L728 740 L556 740 L258 310 L256 310 L256 740 L67 740 L67 0 L256 0 L537 410 L539 410 L539 0 L729 0 L1236 740 Z M845 805 L695 971 L587 971 L431 805 L593 805 L639 863 L685 805 L845 805 Z " />
<glyph glyph-name="Wgrave.alt02" unicode="&#xe053;" horiz-adv-x="1196" d="M1236 740 L1021 740 L730 302 L728 302 L728 740 L556 740 L258 310 L256 310 L256 740 L67 740 L67 0 L256 0 L537 410 L539 410 L539 0 L729 0 L1236 740 Z M745 873 L503 1001 L452 884 L699 776 L745 873 Z " />
<glyph glyph-name="Wacute.alt02" unicode="&#xe054;" horiz-adv-x="1196" d="M1236 740 L1021 740 L730 302 L728 302 L728 740 L556 740 L258 310 L256 310 L256 740 L67 740 L67 0 L256 0 L537 410 L539 410 L539 0 L729 0 L1236 740 Z M805 885 L752 1003 L512 874 L559 776 L805 885 Z " />
<glyph glyph-name="Wdieresis.alt02" unicode="&#xe055;" horiz-adv-x="1196" d="M1236 740 L1021 740 L730 302 L728 302 L728 740 L556 740 L258 310 L256 310 L256 740 L67 740 L67 0 L256 0 L537 410 L539 410 L539 0 L729 0 L1236 740 Z M834 815 L834 966 L675 966 L675 815 L834 815 Z M601 815 L601 966 L442 966 L442 815 L601 815 Z " />
<glyph glyph-name="W.alt01" unicode="&#xe056;" horiz-adv-x="1206" d="M1139 0 L1139 740 L950 740 L950 310 L948 310 L650 740 L478 740 L478 302 L476 302 L175 740 L-40 740 L476 0 L667 0 L667 410 L669 410 L950 0 L1139 0 Z " />
<glyph glyph-name="Wcircumflex.alt01" unicode="&#xe057;" horiz-adv-x="1206" d="M1139 0 L1139 740 L950 740 L950 310 L948 310 L650 740 L478 740 L478 302 L476 302 L175 740 L-40 740 L476 0 L667 0 L667 410 L669 410 L950 0 L1139 0 Z M770 805 L620 971 L512 971 L356 805 L518 805 L564 863 L610 805 L770 805 Z " />
<glyph glyph-name="Wgrave.alt01" unicode="&#xe058;" horiz-adv-x="1206" d="M1139 0 L1139 740 L950 740 L950 310 L948 310 L650 740 L478 740 L478 302 L476 302 L175 740 L-40 740 L476 0 L667 0 L667 410 L669 410 L950 0 L1139 0 Z M680 873 L438 1001 L387 884 L634 776 L680 873 Z " />
<glyph glyph-name="Wacute.alt01" unicode="&#xe059;" horiz-adv-x="1206" d="M1139 0 L1139 740 L950 740 L950 310 L948 310 L650 740 L478 740 L478 302 L476 302 L175 740 L-40 740 L476 0 L667 0 L667 410 L669 410 L950 0 L1139 0 Z M730 885 L677 1003 L437 874 L484 776 L730 885 Z " />
<glyph glyph-name="Wdieresis.alt01" unicode="&#xe05a;" horiz-adv-x="1206" d="M1139 0 L1139 740 L950 740 L950 310 L948 310 L650 740 L478 740 L478 302 L476 302 L175 740 L-40 740 L476 0 L667 0 L667 410 L669 410 L950 0 L1139 0 Z M759 815 L759 966 L600 966 L600 815 L759 815 Z M526 815 L526 966 L367 966 L367 815 L526 815 Z " />
<glyph glyph-name="c.alt01" unicode="&#xe05b;" horiz-adv-x="536" d="M502 32 L502 197 C460 161 420 137 353 137 C260 137 200 199 200 278 C200 346 246 419 360 419 C424 419 475 393 502 370 L502 527 C461 553 415 574 331 574 C172 574 33 470 33 270 C33 137 132 -18 330 -18 C394 -18 456 1 502 32 L502 32 Z " />
<glyph glyph-name="ccedilla.alt01" unicode="&#xe05c;" horiz-adv-x="536" d="M502 32 L502 197 C460 161 420 137 353 137 C260 137 200 199 200 278 C200 346 246 419 360 419 C424 419 475 393 502 370 L502 527 C461 553 415 574 331 574 C172 574 33 470 33 270 C33 151 113 13 273 -13 L237 -87 L302 -122 C308 -114 316 -107 329 -107 C348 -107 363 -120 363 -141 C363 -163 350 -179 327 -179 C304 -179 299 -164 294 -151 L218 -151 C230 -240 310 -245 327 -245 C403 -245 439 -191 439 -141 C439 -77 392 -50 354 -50 C346 -50 339 -51 333 -53 L353 -17 C408 -13 461 5 502 32 L502 32 Z " />
<glyph glyph-name="cacute.alt01" unicode="&#xe05d;" horiz-adv-x="536" d="M502 32 L502 197 C460 161 420 137 353 137 C260 137 200 199 200 278 C200 346 246 419 360 419 C424 419 475 393 502 370 L502 527 C461 553 415 574 331 574 C172 574 33 470 33 270 C33 137 132 -18 330 -18 C394 -18 456 1 502 32 L502 32 Z M495 723 L442 841 L202 712 L249 614 L495 723 Z " />
<glyph glyph-name="ccircumflex.alt01" unicode="&#xe05e;" horiz-adv-x="536" d="M502 32 L502 197 C460 161 420 137 353 137 C260 137 200 199 200 278 C200 346 246 419 360 419 C424 419 475 393 502 370 L502 527 C461 553 415 574 331 574 C172 574 33 470 33 270 C33 137 132 -18 330 -18 C394 -18 456 1 502 32 L502 32 Z M535 630 L385 796 L277 796 L121 630 L283 630 L329 688 L375 630 L535 630 Z " />
<glyph glyph-name="cdotaccent.alt01" unicode="&#xe05f;" horiz-adv-x="536" d="M502 32 L502 197 C460 161 420 137 353 137 C260 137 200 199 200 278 C200 346 246 419 360 419 C424 419 475 393 502 370 L502 527 C461 553 415 574 331 574 C172 574 33 470 33 270 C33 137 132 -18 330 -18 C394 -18 456 1 502 32 L502 32 Z M408 634 L408 785 L249 785 L249 634 L408 634 Z " />
<glyph glyph-name="ccaron.alt01" unicode="&#xe060;" horiz-adv-x="536" d="M502 32 L502 197 C460 161 420 137 353 137 C260 137 200 199 200 278 C200 346 246 419 360 419 C424 419 475 393 502 370 L502 527 C461 553 415 574 331 574 C172 574 33 470 33 270 C33 137 132 -18 330 -18 C394 -18 456 1 502 32 L502 32 Z M535 789 L374 789 L328 731 L282 789 L121 789 L272 623 L380 623 L535 789 Z " />
<glyph glyph-name="e.alt01" unicode="&#xe061;" horiz-adv-x="611" d="M601 361 C570 472 471 574 321 574 C176 574 30 468 30 276 C30 118 145 -18 324 -18 C430 -18 501 31 548 83 L548 245 C502 187 421 122 324 122 C285 122 252 134 225 162 L601 361 Z M420 392 L187 268 C185 275 185 282 185 292 C185 345 219 434 322 434 C362 434 397 419 420 392 L420 392 Z " />
<glyph glyph-name="eacute.alt01" unicode="&#xe062;" horiz-adv-x="611" d="M601 361 C570 472 471 574 321 574 C176 574 30 468 30 276 C30 118 145 -18 324 -18 C430 -18 501 31 548 83 L548 245 C502 187 421 122 324 122 C285 122 252 134 225 162 L601 361 Z M420 392 L187 268 C185 275 185 282 185 292 C185 345 219 434 322 434 C362 434 397 419 420 392 L420 392 Z M197 719 L244 621 L490 730 L437 848 L197 719 Z " />
<glyph glyph-name="egrave.alt01" unicode="&#xe063;" horiz-adv-x="611" d="M601 361 C570 472 471 574 321 574 C176 574 30 468 30 276 C30 118 145 -18 324 -18 C430 -18 501 31 548 83 L548 245 C502 187 421 122 324 122 C285 122 252 134 225 162 L601 361 Z M420 392 L187 268 C185 275 185 282 185 292 C185 345 219 434 322 434 C362 434 397 419 420 392 L420 392 Z M208 839 L157 722 L404 614 L450 711 L208 839 Z " />
<glyph glyph-name="ecircumflex.alt01" unicode="&#xe064;" horiz-adv-x="611" d="M601 361 C570 472 471 574 321 574 C176 574 30 468 30 276 C30 118 145 -18 324 -18 C430 -18 501 31 548 83 L548 245 C502 187 421 122 324 122 C285 122 252 134 225 162 L601 361 Z M420 392 L187 268 C185 275 185 282 185 292 C185 345 219 434 322 434 C362 434 397 419 420 392 L420 392 Z M380 806 L272 806 L106 640 L268 640 L324 697 L380 640 L540 640 L380 806 Z " />
<glyph glyph-name="edieresis.alt01" unicode="&#xe065;" horiz-adv-x="611" d="M601 361 C570 472 471 574 321 574 C176 574 30 468 30 276 C30 118 145 -18 324 -18 C430 -18 501 31 548 83 L548 245 C502 187 421 122 324 122 C285 122 252 134 225 162 L601 361 Z M420 392 L187 268 C185 275 185 282 185 292 C185 345 219 434 322 434 C362 434 397 419 420 392 L420 392 Z M274 795 L115 795 L115 644 L274 644 L274 795 Z M507 795 L348 795 L348 644 L507 644 L507 795 Z " />
<glyph glyph-name="emacron.alt01" unicode="&#xe066;" horiz-adv-x="611" d="M601 361 C570 472 471 574 321 574 C176 574 30 468 30 276 C30 118 145 -18 324 -18 C430 -18 501 31 548 83 L548 245 C502 187 421 122 324 122 C285 122 252 134 225 162 L601 361 Z M420 392 L187 268 C185 275 185 282 185 292 C185 345 219 434 322 434 C362 434 397 419 420 392 L420 392 Z M498 648 L498 774 L139 774 L139 648 L498 648 Z " />
<glyph glyph-name="ebreve.alt01" unicode="&#xe067;" horiz-adv-x="611" d="M601 361 C570 472 471 574 321 574 C176 574 30 468 30 276 C30 118 145 -18 324 -18 C430 -18 501 31 548 83 L548 245 C502 187 421 122 324 122 C285 122 252 134 225 162 L601 361 Z M420 392 L187 268 C185 275 185 282 185 292 C185 345 219 434 322 434 C362 434 397 419 420 392 L420 392 Z M525 778 L412 778 C393 749 356 743 324 743 C285 743 252 746 226 778 L113 778 C121 668 223 634 319 634 C413 634 518 668 525 778 L525 778 Z " />
<glyph glyph-name="edotaccent.alt01" unicode="&#xe068;" horiz-adv-x="611" d="M601 361 C570 472 471 574 321 574 C176 574 30 468 30 276 C30 118 145 -18 324 -18 C430 -18 501 31 548 83 L548 245 C502 187 421 122 324 122 C285 122 252 134 225 162 L601 361 Z M420 392 L187 268 C185 275 185 282 185 292 C185 345 219 434 322 434 C362 434 397 419 420 392 L420 392 Z M399 634 L399 785 L240 785 L240 634 L399 634 Z " />
<glyph glyph-name="eogonek.alt01" unicode="&#xe069;" horiz-adv-x="611" d="M448 -190 L448 -104 C433 -110 417 -116 401 -116 C376 -116 353 -93 353 -68 C353 -43 372 -24 392 -10 C462 5 512 43 548 83 L548 245 C502 187 421 122 324 122 C285 122 252 134 225 162 L601 361 C570 472 471 574 321 574 C176 574 30 468 30 276 C30 124 135 -6 301 -17 C271 -40 243 -68 243 -109 C243 -176 302 -206 362 -206 C393 -206 418 -200 448 -190 L448 -190 Z M420 392 L187 268 C185 275 185 282 185 292 C185 345 219 434 322 434 C362 434 397 419 420 392 L420 392 Z " />
<glyph glyph-name="ecaron.alt01" unicode="&#xe06a;" horiz-adv-x="611" d="M601 361 C570 472 471 574 321 574 C176 574 30 468 30 276 C30 118 145 -18 324 -18 C430 -18 501 31 548 83 L548 245 C502 187 421 122 324 122 C285 122 252 134 225 162 L601 361 Z M420 392 L187 268 C185 275 185 282 185 292 C185 345 219 434 322 434 C362 434 397 419 420 392 L420 392 Z M527 789 L366 789 L320 731 L274 789 L113 789 L264 623 L372 623 L527 789 Z " />
<glyph glyph-name="f.alt01" unicode="&#xe06b;" horiz-adv-x="292" d="M302 615 L302 740 L278 740 C197 740 66 726 66 570 L66 555 L4 555 L4 429 L66 429 L66 0 L232 0 L232 563 C232 610 269 615 283 615 L302 615 Z " />
<glyph glyph-name="f.alt02" unicode="&#xe06c;" horiz-adv-x="308" d="M296 429 L296 555 L226 555 L226 563 C226 610 263 615 277 615 L296 615 L296 740 L272 740 C191 740 60 726 60 570 L60 0 L226 0 L226 429 L296 429 Z " />
<glyph glyph-name="k.alt01" unicode="&#xe06d;" horiz-adv-x="590" d="M584 555 L387 555 L233 342 L231 342 L231 740 L66 740 L66 0 L231 0 L231 143 L273 192 L390 0 L580 0 L377 311 L584 555 Z " />
<glyph glyph-name="kcommaaccent.alt01" unicode="&#xe06e;" horiz-adv-x="590" d="M584 555 L387 555 L233 342 L231 342 L231 740 L66 740 L66 0 L231 0 L231 143 L273 192 L390 0 L580 0 L377 311 L584 555 Z M381 -145 L381 -46 L208 -46 L208 -155 L286 -155 L286 -179 C286 -211 238 -207 208 -207 L208 -280 L269 -280 C334 -280 381 -238 381 -168 L381 -145 Z " />
<glyph glyph-name="k.alt02" unicode="&#xe06f;" horiz-adv-x="591" d="M234 287 L391 0 L579 0 L403 299 L585 555 L388 555 L234 287 Z M232 740 L66 740 L66 0 L232 0 L232 740 Z " />
<glyph glyph-name="kcommaaccent.alt02" unicode="&#xe070;" horiz-adv-x="591" d="M234 287 L391 0 L579 0 L403 299 L585 555 L388 555 L234 287 Z M232 740 L66 740 L66 0 L232 0 L232 740 Z M382 -145 L382 -46 L209 -46 L209 -155 L287 -155 L287 -179 C287 -211 239 -207 209 -207 L209 -280 L270 -280 C335 -280 382 -238 382 -168 L382 -145 Z " />
<glyph glyph-name="t.alt01" unicode="&#xe071;" horiz-adv-x="319" d="M259 0 L259 740 L93 740 L93 555 L11 555 L11 429 L93 429 L93 0 L259 0 Z " />
<glyph glyph-name="tcaron.alt01" unicode="&#xe072;" horiz-adv-x="460" d="M259 0 L259 740 L93 740 L93 555 L11 555 L11 429 L93 429 L93 0 L259 0 Z M480 641 L480 740 L307 740 L307 631 L385 631 L385 607 C385 575 337 579 307 579 L307 506 L368 506 C433 506 480 548 480 618 L480 641 Z " />
<glyph glyph-name="tcedilla.alt01" unicode="&#xe073;" horiz-adv-x="319" d="M259 0 L259 740 L93 740 L93 555 L11 555 L11 429 L93 429 L93 0 L259 0 Z M261 -145 L261 -46 L88 -46 L88 -155 L166 -155 L166 -179 C166 -211 118 -207 88 -207 L88 -280 L149 -280 C214 -280 261 -238 261 -168 L261 -145 Z " />
<glyph glyph-name="tcommaaccent.alt01" unicode="&#xe074;" horiz-adv-x="319" d="M259 0 L259 740 L93 740 L93 555 L11 555 L11 429 L93 429 L93 0 L259 0 Z M260 -145 L260 -46 L87 -46 L87 -155 L165 -155 L165 -179 C165 -211 117 -207 87 -207 L87 -280 L148 -280 C213 -280 260 -238 260 -168 L260 -145 Z " />
<glyph glyph-name="t.alt02" unicode="&#xe075;" horiz-adv-x="318" d="M306 429 L306 555 L226 555 L226 740 L60 740 L60 0 L226 0 L226 429 L306 429 Z " />
<glyph glyph-name="tcaron.alt02" unicode="&#xe076;" horiz-adv-x="426" d="M306 429 L306 555 L226 555 L226 740 L60 740 L60 0 L226 0 L226 429 L306 429 Z M446 741 L446 840 L273 840 L273 731 L351 731 L351 707 C351 675 303 679 273 679 L273 606 L334 606 C399 606 446 648 446 718 L446 741 Z " />
<glyph glyph-name="tcedilla.alt02" unicode="&#xe077;" horiz-adv-x="318" d="M306 429 L306 555 L226 555 L226 740 L60 740 L60 0 L226 0 L226 429 L306 429 Z M230 -145 L230 -46 L57 -46 L57 -155 L135 -155 L135 -179 C135 -211 87 -207 57 -207 L57 -280 L118 -280 C183 -280 230 -238 230 -168 L230 -145 Z " />
<glyph glyph-name="tcommaaccent.alt02" unicode="&#xe078;" horiz-adv-x="318" d="M306 429 L306 555 L226 555 L226 740 L60 740 L60 0 L226 0 L226 429 L306 429 Z M230 -145 L230 -46 L57 -46 L57 -155 L135 -155 L135 -179 C135 -211 87 -207 57 -207 L57 -280 L118 -280 C183 -280 230 -238 230 -168 L230 -145 Z " />
<glyph glyph-name="v.alt02" unicode="&#xe079;" horiz-adv-x="612" d="M652 555 L473 555 L228 209 L226 209 L226 555 L60 555 L60 0 L248 0 L652 555 Z " />
<glyph glyph-name="v.alt01" unicode="&#xe07a;" horiz-adv-x="612" d="M552 0 L552 555 L386 555 L386 209 L384 209 L139 555 L-40 555 L364 0 L552 0 Z " />
<glyph glyph-name="w.alt02" unicode="&#xe07b;" horiz-adv-x="933" d="M973 555 L788 555 L575 266 L573 266 L573 555 L447 555 L228 257 L226 257 L226 555 L60 555 L60 0 L214 0 L407 264 L407 0 L564 0 L973 555 Z " />
<glyph glyph-name="wcircumflex.alt02" unicode="&#xe07c;" horiz-adv-x="933" d="M973 555 L788 555 L575 266 L573 266 L573 555 L447 555 L228 257 L226 257 L226 555 L60 555 L60 0 L214 0 L407 264 L407 0 L564 0 L973 555 Z M713 630 L563 796 L455 796 L299 630 L461 630 L507 688 L553 630 L713 630 Z " />
<glyph glyph-name="wgrave.alt02" unicode="&#xe07d;" horiz-adv-x="933" d="M973 555 L788 555 L575 266 L573 266 L573 555 L447 555 L228 257 L226 257 L226 555 L60 555 L60 0 L214 0 L407 264 L407 0 L564 0 L973 555 Z M613 721 L371 849 L320 732 L567 624 L613 721 Z " />
<glyph glyph-name="wacute.alt02" unicode="&#xe07e;" horiz-adv-x="933" d="M973 555 L788 555 L575 266 L573 266 L573 555 L447 555 L228 257 L226 257 L226 555 L60 555 L60 0 L214 0 L407 264 L407 0 L564 0 L973 555 Z M683 723 L630 841 L390 712 L437 614 L683 723 Z " />
<glyph glyph-name="wdieresis.alt02" unicode="&#xe07f;" horiz-adv-x="933" d="M973 555 L788 555 L575 266 L573 266 L573 555 L447 555 L228 257 L226 257 L226 555 L60 555 L60 0 L214 0 L407 264 L407 0 L564 0 L973 555 Z M702 634 L702 785 L543 785 L543 634 L702 634 Z M469 634 L469 785 L310 785 L310 634 L469 634 Z " />
<glyph glyph-name="w.alt01" unicode="&#xe080;" horiz-adv-x="933" d="M873 0 L873 555 L707 555 L707 257 L705 257 L486 555 L360 555 L360 266 L358 266 L145 555 L-40 555 L369 0 L526 0 L526 264 L719 0 L873 0 Z " />
<glyph glyph-name="wcircumflex.alt01" unicode="&#xe081;" horiz-adv-x="933" d="M873 0 L873 555 L707 555 L707 257 L705 257 L486 555 L360 555 L360 266 L358 266 L145 555 L-40 555 L369 0 L526 0 L526 264 L719 0 L873 0 Z M625 630 L475 796 L367 796 L211 630 L373 630 L419 688 L465 630 L625 630 Z " />
<glyph glyph-name="wgrave.alt01" unicode="&#xe082;" horiz-adv-x="933" d="M873 0 L873 555 L707 555 L707 257 L705 257 L486 555 L360 555 L360 266 L358 266 L145 555 L-40 555 L369 0 L526 0 L526 264 L719 0 L873 0 Z M533 721 L291 849 L240 732 L487 624 L533 721 Z " />
<glyph glyph-name="wacute.alt01" unicode="&#xe083;" horiz-adv-x="933" d="M873 0 L873 555 L707 555 L707 257 L705 257 L486 555 L360 555 L360 266 L358 266 L145 555 L-40 555 L369 0 L526 0 L526 264 L719 0 L873 0 Z M593 723 L540 841 L300 712 L347 614 L593 723 Z " />
<glyph glyph-name="wdieresis.alt01" unicode="&#xe084;" horiz-adv-x="933" d="M873 0 L873 555 L707 555 L707 257 L705 257 L486 555 L360 555 L360 266 L358 266 L145 555 L-40 555 L369 0 L526 0 L526 264 L719 0 L873 0 Z M612 634 L612 785 L453 785 L453 634 L612 634 Z M379 634 L379 785 L220 785 L220 634 L379 634 Z " />
<glyph glyph-name="y.alt01" unicode="&#xe085;" horiz-adv-x="615" d="M655 555 L460 555 L231 218 L226 218 L226 555 L60 555 L60 -26 L-50 -185 L145 -185 L655 555 Z " />
<glyph glyph-name="yacute.alt01" unicode="&#xe086;" horiz-adv-x="615" d="M655 555 L460 555 L231 218 L226 218 L226 555 L60 555 L60 -26 L-50 -185 L145 -185 L655 555 Z M235 719 L282 621 L528 730 L475 848 L235 719 Z " />
<glyph glyph-name="ydieresis.alt01" unicode="&#xe087;" horiz-adv-x="615" d="M655 555 L460 555 L231 218 L226 218 L226 555 L60 555 L60 -26 L-50 -185 L145 -185 L655 555 Z M314 795 L155 795 L155 644 L314 644 L314 795 Z M547 795 L388 795 L388 644 L547 644 L547 795 Z " />
<glyph glyph-name="ycircumflex.alt01" unicode="&#xe088;" horiz-adv-x="615" d="M655 555 L460 555 L231 218 L226 218 L226 555 L60 555 L60 -26 L-50 -185 L145 -185 L655 555 Z M544 630 L394 796 L286 796 L130 630 L292 630 L338 688 L384 630 L544 630 Z " />
<glyph glyph-name="ygrave.alt01" unicode="&#xe089;" horiz-adv-x="615" d="M655 555 L460 555 L231 218 L226 218 L226 555 L60 555 L60 -26 L-50 -185 L145 -185 L655 555 Z M434 721 L192 849 L141 732 L388 624 L434 721 Z " />
<glyph glyph-name="C_A" unicode="&#xe08a;" horiz-adv-x="1057" d="M990 0 L990 740 L803 740 L400 153 C293 169 226 265 226 372 C226 482 302 588 423 588 C495 588 542 552 567 520 L670 670 C618 713 533 754 425 754 C183 754 37 560 37 371 C37 171 195 -14 427 -14 C469 -14 504 -7 520 -3 L587 107 L801 107 L801 0 L990 0 Z M801 257 L677 257 L799 462 L801 462 L801 257 Z " />
<glyph glyph-name="C_Aacute" unicode="&#xe08b;" horiz-adv-x="1057" d="M990 0 L990 740 L803 740 L400 153 C293 169 226 265 226 372 C226 482 302 588 423 588 C495 588 542 552 567 520 L670 670 C618 713 533 754 425 754 C183 754 37 560 37 371 C37 171 195 -14 427 -14 C469 -14 504 -7 520 -3 L587 107 L801 107 L801 0 L990 0 Z M801 257 L677 257 L799 462 L801 462 L801 257 Z M1033 885 L980 1003 L740 874 L787 776 L1033 885 Z " />
<glyph glyph-name="C_Agrave" unicode="&#xe08c;" horiz-adv-x="1057" d="M990 0 L990 740 L803 740 L400 153 C293 169 226 265 226 372 C226 482 302 588 423 588 C495 588 542 552 567 520 L670 670 C618 713 533 754 425 754 C183 754 37 560 37 371 C37 171 195 -14 427 -14 C469 -14 504 -7 520 -3 L587 107 L801 107 L801 0 L990 0 Z M801 257 L677 257 L799 462 L801 462 L801 257 Z M986 873 L744 1001 L693 884 L940 776 L986 873 Z " />
<glyph glyph-name="C_Acircumflex" unicode="&#xe08d;" horiz-adv-x="1057" d="M990 0 L990 740 L803 740 L400 153 C293 169 226 265 226 372 C226 482 302 588 423 588 C495 588 542 552 567 520 L670 670 C618 713 533 754 425 754 C183 754 37 560 37 371 C37 171 195 -14 427 -14 C469 -14 504 -7 520 -3 L587 107 L801 107 L801 0 L990 0 Z M801 257 L677 257 L799 462 L801 462 L801 257 Z M1060 805 L910 971 L802 971 L646 805 L808 805 L854 863 L900 805 L1060 805 Z " />
<glyph glyph-name="C_Adieresis" unicode="&#xe08e;" horiz-adv-x="1057" d="M990 0 L990 740 L803 740 L400 153 C293 169 226 265 226 372 C226 482 302 588 423 588 C495 588 542 552 567 520 L670 670 C618 713 533 754 425 754 C183 754 37 560 37 371 C37 171 195 -14 427 -14 C469 -14 504 -7 520 -3 L587 107 L801 107 L801 0 L990 0 Z M801 257 L677 257 L799 462 L801 462 L801 257 Z M1059 815 L1059 966 L900 966 L900 815 L1059 815 Z M826 815 L826 966 L667 966 L667 815 L826 815 Z " />
<glyph glyph-name="C_Atilde" unicode="&#xe08f;" horiz-adv-x="1057" d="M990 0 L990 740 L803 740 L400 153 C293 169 226 265 226 372 C226 482 302 588 423 588 C495 588 542 552 567 520 L670 670 C618 713 533 754 425 754 C183 754 37 560 37 371 C37 171 195 -14 427 -14 C469 -14 504 -7 520 -3 L587 107 L801 107 L801 0 L990 0 Z M801 257 L677 257 L799 462 L801 462 L801 257 Z M1064 849 L1004 934 C978 923 960 917 931 917 C876 917 824 942 769 942 C730 942 692 926 659 907 L719 819 C744 829 764 838 791 838 C839 838 901 812 951 812 C993 812 1029 827 1064 849 L1064 849 Z " />
<glyph glyph-name="C_Amacron" unicode="&#xe090;" horiz-adv-x="1057" d="M990 0 L990 740 L803 740 L400 153 C293 169 226 265 226 372 C226 482 302 588 423 588 C495 588 542 552 567 520 L670 670 C618 713 533 754 425 754 C183 754 37 560 37 371 C37 171 195 -14 427 -14 C469 -14 504 -7 520 -3 L587 107 L801 107 L801 0 L990 0 Z M801 257 L677 257 L799 462 L801 462 L801 257 Z M1041 819 L1041 945 L682 945 L682 819 L1041 819 Z " />
<glyph glyph-name="C_Abreve" unicode="&#xe091;" horiz-adv-x="1057" d="M990 0 L990 740 L803 740 L400 153 C293 169 226 265 226 372 C226 482 302 588 423 588 C495 588 542 552 567 520 L670 670 C618 713 533 754 425 754 C183 754 37 560 37 371 C37 171 195 -14 427 -14 C469 -14 504 -7 520 -3 L587 107 L801 107 L801 0 L990 0 Z M801 257 L677 257 L799 462 L801 462 L801 257 Z M1072 949 L959 949 C940 920 903 914 871 914 C832 914 799 917 773 949 L660 949 C668 839 770 805 866 805 C960 805 1065 839 1072 949 L1072 949 Z " />
<glyph glyph-name="C_Aogonek" unicode="&#xe092;" horiz-adv-x="1057" d="M996 -190 L996 -104 C981 -110 965 -116 949 -116 C924 -116 901 -93 901 -68 C901 -36 933 -14 958 0 L990 0 L990 740 L803 740 L400 153 C293 169 226 265 226 372 C226 482 302 588 423 588 C495 588 542 552 567 520 L670 670 C618 713 533 754 425 754 C183 754 37 560 37 371 C37 171 195 -14 427 -14 C469 -14 504 -7 520 -3 L587 107 L801 107 L801 0 L874 0 C836 -26 791 -58 791 -109 C791 -176 850 -206 910 -206 C941 -206 966 -200 996 -190 L996 -190 Z M801 257 L677 257 L799 462 L801 462 L801 257 Z " />
<glyph glyph-name="Ccedilla_A" unicode="&#xe093;" horiz-adv-x="1057" d="M519 -141 C519 -91 486 -50 434 -50 C427 -50 420 -51 413 -53 L434 -14 C473 -13 505 -7 520 -3 L587 107 L801 107 L801 0 L990 0 L990 740 L803 740 L400 153 C293 169 226 265 226 372 C226 482 302 588 423 588 C495 588 542 552 567 520 L670 670 C618 713 533 754 425 754 C183 754 37 560 37 371 C37 192 163 26 355 -7 L317 -87 L382 -122 C389 -113 397 -107 409 -107 C429 -107 443 -121 443 -141 C443 -163 430 -179 407 -179 C387 -179 380 -168 374 -151 L298 -151 C306 -210 349 -245 407 -245 C469 -245 519 -205 519 -141 L519 -141 Z M801 257 L677 257 L799 462 L801 462 L801 257 Z " />
<glyph glyph-name="Ccedilla_Aacute" unicode="&#xe094;" horiz-adv-x="1057" d="M519 -141 C519 -91 486 -50 434 -50 C427 -50 420 -51 413 -53 L434 -14 C473 -13 505 -7 520 -3 L587 107 L801 107 L801 0 L990 0 L990 740 L803 740 L400 153 C293 169 226 265 226 372 C226 482 302 588 423 588 C495 588 542 552 567 520 L670 670 C618 713 533 754 425 754 C183 754 37 560 37 371 C37 192 163 26 355 -7 L317 -87 L382 -122 C389 -113 397 -107 409 -107 C429 -107 443 -121 443 -141 C443 -163 430 -179 407 -179 C387 -179 380 -168 374 -151 L298 -151 C306 -210 349 -245 407 -245 C469 -245 519 -205 519 -141 L519 -141 Z M801 257 L677 257 L799 462 L801 462 L801 257 Z M1032 885 L979 1003 L739 874 L786 776 L1032 885 Z " />
<glyph glyph-name="Cacute_A" unicode="&#xe095;" horiz-adv-x="1057" d="M990 0 L990 740 L803 740 L400 153 C293 169 226 265 226 372 C226 482 302 588 423 588 C495 588 542 552 567 520 L670 670 C618 713 533 754 425 754 C183 754 37 560 37 371 C37 171 195 -14 427 -14 C469 -14 504 -7 520 -3 L587 107 L801 107 L801 0 L990 0 Z M801 257 L677 257 L799 462 L801 462 L801 257 Z M600 885 L547 1003 L307 874 L354 776 L600 885 Z " />
<glyph glyph-name="Cacute_Aogonek" unicode="&#xe096;" horiz-adv-x="1057" d="M996 -190 L996 -104 C981 -110 965 -116 949 -116 C924 -116 901 -93 901 -68 C901 -36 933 -14 958 0 L990 0 L990 740 L803 740 L400 153 C293 169 226 265 226 372 C226 482 302 588 423 588 C495 588 542 552 567 520 L670 670 C618 713 533 754 425 754 C183 754 37 560 37 371 C37 171 195 -14 427 -14 C469 -14 504 -7 520 -3 L587 107 L801 107 L801 0 L874 0 C836 -26 791 -58 791 -109 C791 -176 850 -206 910 -206 C941 -206 966 -200 996 -190 L996 -190 Z M801 257 L677 257 L799 462 L801 462 L801 257 Z M595 885 L542 1003 L302 874 L349 776 L595 885 Z " />
<glyph glyph-name="Ccircumflex_A" unicode="&#xe097;" horiz-adv-x="1057" d="M990 0 L990 740 L803 740 L400 153 C293 169 226 265 226 372 C226 482 302 588 423 588 C495 588 542 552 567 520 L670 670 C618 713 533 754 425 754 C183 754 37 560 37 371 C37 171 195 -14 427 -14 C469 -14 504 -7 520 -3 L587 107 L801 107 L801 0 L990 0 Z M801 257 L677 257 L799 462 L801 462 L801 257 Z M611 805 L461 971 L353 971 L197 805 L359 805 L405 863 L451 805 L611 805 Z " />
<glyph glyph-name="Ccircumflex_Amacron" unicode="&#xe098;" horiz-adv-x="1057" d="M990 0 L990 740 L803 740 L400 153 C293 169 226 265 226 372 C226 482 302 588 423 588 C495 588 542 552 567 520 L670 670 C618 713 533 754 425 754 C183 754 37 560 37 371 C37 171 195 -14 427 -14 C469 -14 504 -7 520 -3 L587 107 L801 107 L801 0 L990 0 Z M801 257 L677 257 L799 462 L801 462 L801 257 Z M624 805 L474 971 L366 971 L210 805 L372 805 L418 863 L464 805 L624 805 Z M1066 819 L1066 945 L707 945 L707 819 L1066 819 Z " />
<glyph glyph-name="Ccircumflex_Abreve" unicode="&#xe099;" horiz-adv-x="1057" d="M990 0 L990 740 L803 740 L400 153 C293 169 226 265 226 372 C226 482 302 588 423 588 C495 588 542 552 567 520 L670 670 C618 713 533 754 425 754 C183 754 37 560 37 371 C37 171 195 -14 427 -14 C469 -14 504 -7 520 -3 L587 107 L801 107 L801 0 L990 0 Z M801 257 L677 257 L799 462 L801 462 L801 257 Z M621 805 L471 971 L363 971 L207 805 L369 805 L415 863 L461 805 L621 805 Z M1080 949 L967 949 C948 920 911 914 879 914 C840 914 807 917 781 949 L668 949 C676 839 778 805 874 805 C968 805 1073 839 1080 949 L1080 949 Z " />
<glyph glyph-name="Cdotaccent_A" unicode="&#xe09a;" horiz-adv-x="1057" d="M990 0 L990 740 L803 740 L400 153 C293 169 226 265 226 372 C226 482 302 588 423 588 C495 588 542 552 567 520 L670 670 C618 713 533 754 425 754 C183 754 37 560 37 371 C37 171 195 -14 427 -14 C469 -14 504 -7 520 -3 L587 107 L801 107 L801 0 L990 0 Z M801 257 L677 257 L799 462 L801 462 L801 257 Z M481 815 L481 966 L322 966 L322 815 L481 815 Z " />
<glyph glyph-name="Cdotaccent_Agrave" unicode="&#xe09b;" horiz-adv-x="1057" d="M990 0 L990 740 L803 740 L400 153 C293 169 226 265 226 372 C226 482 302 588 423 588 C495 588 542 552 567 520 L670 670 C618 713 533 754 425 754 C183 754 37 560 37 371 C37 171 195 -14 427 -14 C469 -14 504 -7 520 -3 L587 107 L801 107 L801 0 L990 0 Z M801 257 L677 257 L799 462 L801 462 L801 257 Z M475 815 L475 966 L316 966 L316 815 L475 815 Z M1021 873 L779 1001 L728 884 L975 776 L1021 873 Z " />
<glyph glyph-name="Ccaron_A" unicode="&#xe09c;" horiz-adv-x="1057" d="M990 0 L990 740 L803 740 L400 153 C293 169 226 265 226 372 C226 482 302 588 423 588 C495 588 542 552 567 520 L670 670 C618 713 533 754 425 754 C183 754 37 560 37 371 C37 171 195 -14 427 -14 C469 -14 504 -7 520 -3 L587 107 L801 107 L801 0 L990 0 Z M801 257 L677 257 L799 462 L801 462 L801 257 Z M609 971 L448 971 L402 913 L356 971 L195 971 L346 805 L454 805 L609 971 Z " />
<glyph glyph-name="Ccaron_Aacute" unicode="&#xe09d;" horiz-adv-x="1057" d="M990 0 L990 740 L803 740 L400 153 C293 169 226 265 226 372 C226 482 302 588 423 588 C495 588 542 552 567 520 L670 670 C618 713 533 754 425 754 C183 754 37 560 37 371 C37 171 195 -14 427 -14 C469 -14 504 -7 520 -3 L587 107 L801 107 L801 0 L990 0 Z M801 257 L677 257 L799 462 L801 462 L801 257 Z M604 971 L443 971 L397 913 L351 971 L190 971 L341 805 L449 805 L604 971 Z M1025 885 L972 1003 L732 874 L779 776 L1025 885 Z " />
<glyph glyph-name="Ccaron_Adieresis" unicode="&#xe09e;" horiz-adv-x="1057" d="M990 0 L990 740 L803 740 L400 153 C293 169 226 265 226 372 C226 482 302 588 423 588 C495 588 542 552 567 520 L670 670 C618 713 533 754 425 754 C183 754 37 560 37 371 C37 171 195 -14 427 -14 C469 -14 504 -7 520 -3 L587 107 L801 107 L801 0 L990 0 Z M801 257 L677 257 L799 462 L801 462 L801 257 Z M602 971 L441 971 L395 913 L349 971 L188 971 L339 805 L447 805 L602 971 Z M1055 815 L1055 966 L896 966 L896 815 L1055 815 Z M822 815 L822 966 L663 966 L663 815 L822 815 Z " />
<glyph glyph-name="Ccaron_Amacron" unicode="&#xe09f;" horiz-adv-x="1057" d="M990 0 L990 740 L803 740 L400 153 C293 169 226 265 226 372 C226 482 302 588 423 588 C495 588 542 552 567 520 L670 670 C618 713 533 754 425 754 C183 754 37 560 37 371 C37 171 195 -14 427 -14 C469 -14 504 -7 520 -3 L587 107 L801 107 L801 0 L990 0 Z M801 257 L677 257 L799 462 L801 462 L801 257 Z M601 971 L440 971 L394 913 L348 971 L187 971 L338 805 L446 805 L601 971 Z M1049 819 L1049 945 L690 945 L690 819 L1049 819 Z " />
<glyph glyph-name="Ccaron_Abreve" unicode="&#xe0a0;" horiz-adv-x="1057" d="M990 0 L990 740 L803 740 L400 153 C293 169 226 265 226 372 C226 482 302 588 423 588 C495 588 542 552 567 520 L670 670 C618 713 533 754 425 754 C183 754 37 560 37 371 C37 171 195 -14 427 -14 C469 -14 504 -7 520 -3 L587 107 L801 107 L801 0 L990 0 Z M801 257 L677 257 L799 462 L801 462 L801 257 Z M610 971 L449 971 L403 913 L357 971 L196 971 L347 805 L455 805 L610 971 Z M1064 949 L951 949 C932 920 895 914 863 914 C824 914 791 917 765 949 L652 949 C660 839 762 805 858 805 C952 805 1057 839 1064 949 L1064 949 Z " />
<glyph glyph-name="C_O.alt01" unicode="&#xe0a1;" horiz-adv-x="832" d="M601 370 C601 466 523 544 427 544 C331 544 252 466 252 370 C252 274 331 196 427 196 C523 196 601 274 601 370 L601 370 Z M791 497 C749 633 609 754 425 754 C183 754 37 560 37 371 C37 171 195 -14 427 -14 C587 -14 727 77 787 231 L570 231 C548 209 501 170 425 170 C320 170 226 258 226 372 C226 480 319 570 424 570 C493 570 550 535 580 497 L791 497 Z M466 368 C466 345 449 326 427 326 C405 326 387 345 387 368 C387 391 405 409 427 409 C449 409 466 391 466 368 L466 368 Z " />
<glyph glyph-name="C_O" unicode="&#xe0a2;" horiz-adv-x="1179" d="M1142 370 C1142 576 979 754 751 754 C690 754 635 741 586 719 C543 742 495 754 425 754 C183 754 37 560 37 371 C37 171 195 -14 427 -14 C492 -14 543 -3 589 21 C637 -1 691 -14 750 -14 C980 -14 1142 164 1142 370 L1142 370 Z M953 369 C953 274 888 152 754 152 L742 152 C768 189 789 231 800 277 L633 277 C626 259 612 235 597 218 C562 258 545 313 545 372 C545 425 562 480 597 521 C614 501 626 479 633 459 L800 459 C791 509 769 552 743 588 L752 588 C888 588 953 465 953 369 L953 369 Z M434 152 L425 152 C302 152 226 260 226 372 C226 477 297 588 424 588 L433 588 C390 523 366 445 366 361 C366 290 390 216 434 152 L434 152 Z " />
<glyph glyph-name="C_Oacute" unicode="&#xe0a3;" horiz-adv-x="1179" d="M1142 370 C1142 576 979 754 751 754 C690 754 635 741 586 719 C543 742 495 754 425 754 C183 754 37 560 37 371 C37 171 195 -14 427 -14 C492 -14 543 -3 589 21 C637 -1 691 -14 750 -14 C980 -14 1142 164 1142 370 L1142 370 Z M953 369 C953 274 888 152 754 152 L742 152 C768 189 789 231 800 277 L633 277 C626 259 612 235 597 218 C562 258 545 313 545 372 C545 425 562 480 597 521 C614 501 626 479 633 459 L800 459 C791 509 769 552 743 588 L752 588 C888 588 953 465 953 369 L953 369 Z M434 152 L425 152 C302 152 226 260 226 372 C226 477 297 588 424 588 L433 588 C390 523 366 445 366 361 C366 290 390 216 434 152 L434 152 Z M952 885 L899 1003 L659 874 L706 776 L952 885 Z " />
<glyph glyph-name="C_Ograve" unicode="&#xe0a4;" horiz-adv-x="1179" d="M1142 370 C1142 576 979 754 751 754 C690 754 635 741 586 719 C543 742 495 754 425 754 C183 754 37 560 37 371 C37 171 195 -14 427 -14 C492 -14 543 -3 589 21 C637 -1 691 -14 750 -14 C980 -14 1142 164 1142 370 L1142 370 Z M953 369 C953 274 888 152 754 152 L742 152 C768 189 789 231 800 277 L633 277 C626 259 612 235 597 218 C562 258 545 313 545 372 C545 425 562 480 597 521 C614 501 626 479 633 459 L800 459 C791 509 769 552 743 588 L752 588 C888 588 953 465 953 369 L953 369 Z M434 152 L425 152 C302 152 226 260 226 372 C226 477 297 588 424 588 L433 588 C390 523 366 445 366 361 C366 290 390 216 434 152 L434 152 Z M886 873 L644 1001 L593 884 L840 776 L886 873 Z " />
<glyph glyph-name="C_Ocircumflex" unicode="&#xe0a5;" horiz-adv-x="1179" d="M1142 370 C1142 576 979 754 751 754 C690 754 635 741 586 719 C543 742 495 754 425 754 C183 754 37 560 37 371 C37 171 195 -14 427 -14 C492 -14 543 -3 589 21 C637 -1 691 -14 750 -14 C980 -14 1142 164 1142 370 L1142 370 Z M953 369 C953 274 888 152 754 152 L742 152 C768 189 789 231 800 277 L633 277 C626 259 612 235 597 218 C562 258 545 313 545 372 C545 425 562 480 597 521 C614 501 626 479 633 459 L800 459 C791 509 769 552 743 588 L752 588 C888 588 953 465 953 369 L953 369 Z M434 152 L425 152 C302 152 226 260 226 372 C226 477 297 588 424 588 L433 588 C390 523 366 445 366 361 C366 290 390 216 434 152 L434 152 Z M980 805 L830 971 L722 971 L566 805 L728 805 L774 863 L820 805 L980 805 Z " />
<glyph glyph-name="C_Odieresis" unicode="&#xe0a6;" horiz-adv-x="1179" d="M1142 370 C1142 576 979 754 751 754 C690 754 635 741 586 719 C543 742 495 754 425 754 C183 754 37 560 37 371 C37 171 195 -14 427 -14 C492 -14 543 -3 589 21 C637 -1 691 -14 750 -14 C980 -14 1142 164 1142 370 L1142 370 Z M953 369 C953 274 888 152 754 152 L742 152 C768 189 789 231 800 277 L633 277 C626 259 612 235 597 218 C562 258 545 313 545 372 C545 425 562 480 597 521 C614 501 626 479 633 459 L800 459 C791 509 769 552 743 588 L752 588 C888 588 953 465 953 369 L953 369 Z M434 152 L425 152 C302 152 226 260 226 372 C226 477 297 588 424 588 L433 588 C390 523 366 445 366 361 C366 290 390 216 434 152 L434 152 Z M969 815 L969 966 L810 966 L810 815 L969 815 Z M736 815 L736 966 L577 966 L577 815 L736 815 Z " />
<glyph glyph-name="C_Obreve" unicode="&#xe0a7;" horiz-adv-x="1179" d="M1142 370 C1142 576 979 754 751 754 C690 754 635 741 586 719 C543 742 495 754 425 754 C183 754 37 560 37 371 C37 171 195 -14 427 -14 C492 -14 543 -3 589 21 C637 -1 691 -14 750 -14 C980 -14 1142 164 1142 370 L1142 370 Z M953 369 C953 274 888 152 754 152 L742 152 C768 189 789 231 800 277 L633 277 C626 259 612 235 597 218 C562 258 545 313 545 372 C545 425 562 480 597 521 C614 501 626 479 633 459 L800 459 C791 509 769 552 743 588 L752 588 C888 588 953 465 953 369 L953 369 Z M434 152 L425 152 C302 152 226 260 226 372 C226 477 297 588 424 588 L433 588 C390 523 366 445 366 361 C366 290 390 216 434 152 L434 152 Z M982 949 L869 949 C850 920 813 914 781 914 C742 914 709 917 683 949 L570 949 C578 839 680 805 776 805 C870 805 975 839 982 949 L982 949 Z " />
<glyph glyph-name="C_Otilde" unicode="&#xe0a8;" horiz-adv-x="1179" d="M1142 370 C1142 576 979 754 751 754 C690 754 635 741 586 719 C543 742 495 754 425 754 C183 754 37 560 37 371 C37 171 195 -14 427 -14 C492 -14 543 -3 589 21 C637 -1 691 -14 750 -14 C980 -14 1142 164 1142 370 L1142 370 Z M953 369 C953 274 888 152 754 152 L742 152 C768 189 789 231 800 277 L633 277 C626 259 612 235 597 218 C562 258 545 313 545 372 C545 425 562 480 597 521 C614 501 626 479 633 459 L800 459 C791 509 769 552 743 588 L752 588 C888 588 953 465 953 369 L953 369 Z M434 152 L425 152 C302 152 226 260 226 372 C226 477 297 588 424 588 L433 588 C390 523 366 445 366 361 C366 290 390 216 434 152 L434 152 Z M977 849 L917 934 C891 923 873 917 844 917 C789 917 737 942 682 942 C643 942 605 926 572 907 L632 819 C657 829 677 838 704 838 C752 838 814 812 864 812 C906 812 942 827 977 849 L977 849 Z " />
<glyph glyph-name="C_Omacron" unicode="&#xe0a9;" horiz-adv-x="1179" d="M1142 370 C1142 576 979 754 751 754 C690 754 635 741 586 719 C543 742 495 754 425 754 C183 754 37 560 37 371 C37 171 195 -14 427 -14 C492 -14 543 -3 589 21 C637 -1 691 -14 750 -14 C980 -14 1142 164 1142 370 L1142 370 Z M953 369 C953 274 888 152 754 152 L742 152 C768 189 789 231 800 277 L633 277 C626 259 612 235 597 218 C562 258 545 313 545 372 C545 425 562 480 597 521 C614 501 626 479 633 459 L800 459 C791 509 769 552 743 588 L752 588 C888 588 953 465 953 369 L953 369 Z M434 152 L425 152 C302 152 226 260 226 372 C226 477 297 588 424 588 L433 588 C390 523 366 445 366 361 C366 290 390 216 434 152 L434 152 Z M950 819 L950 945 L591 945 L591 819 L950 819 Z " />
<glyph glyph-name="C_Ohungarumlaut" unicode="&#xe0aa;" horiz-adv-x="1179" d="M1142 370 C1142 576 979 754 751 754 C690 754 635 741 586 719 C543 742 495 754 425 754 C183 754 37 560 37 371 C37 171 195 -14 427 -14 C492 -14 543 -3 589 21 C637 -1 691 -14 750 -14 C980 -14 1142 164 1142 370 L1142 370 Z M953 369 C953 274 888 152 754 152 L742 152 C768 189 789 231 800 277 L633 277 C626 259 612 235 597 218 C562 258 545 313 545 372 C545 425 562 480 597 521 C614 501 626 479 633 459 L800 459 C791 509 769 552 743 588 L752 588 C888 588 953 465 953 369 L953 369 Z M434 152 L425 152 C302 152 226 260 226 372 C226 477 297 588 424 588 L433 588 C390 523 366 445 366 361 C366 290 390 216 434 152 L434 152 Z M979 951 L862 1008 L787 823 L893 776 L979 951 Z M780 951 L662 1008 L588 823 L694 776 L780 951 Z " />
<glyph glyph-name="Ccedilla_O" unicode="&#xe0ab;" horiz-adv-x="1179" d="M510 -141 C510 -91 477 -50 425 -50 C418 -50 411 -51 404 -53 L425 -14 L427 -14 C492 -14 543 -3 589 21 C637 -1 691 -14 750 -14 C980 -14 1142 164 1142 370 C1142 576 979 754 751 754 C690 754 635 741 586 719 C543 742 495 754 425 754 C183 754 37 560 37 371 C37 195 159 31 347 -6 L308 -87 L373 -122 C380 -113 388 -107 400 -107 C420 -107 434 -121 434 -141 C434 -163 421 -179 398 -179 C378 -179 371 -168 365 -151 L289 -151 C297 -210 340 -245 398 -245 C460 -245 510 -205 510 -141 L510 -141 Z M953 369 C953 274 888 152 754 152 L742 152 C768 189 789 231 800 277 L633 277 C626 259 612 235 597 218 C562 258 545 313 545 372 C545 425 562 480 597 521 C614 501 626 479 633 459 L800 459 C791 509 769 552 743 588 L752 588 C888 588 953 465 953 369 L953 369 Z M434 152 L425 152 C302 152 226 260 226 372 C226 477 297 588 424 588 L433 588 C390 523 366 445 366 361 C366 290 390 216 434 152 L434 152 Z " />
<glyph glyph-name="Ccedilla_Oacute" unicode="&#xe0ac;" horiz-adv-x="1179" d="M510 -141 C510 -91 477 -50 425 -50 C418 -50 411 -51 404 -53 L425 -14 L427 -14 C492 -14 543 -3 589 21 C637 -1 691 -14 750 -14 C980 -14 1142 164 1142 370 C1142 576 979 754 751 754 C690 754 635 741 586 719 C543 742 495 754 425 754 C183 754 37 560 37 371 C37 195 159 31 347 -6 L308 -87 L373 -122 C380 -113 388 -107 400 -107 C420 -107 434 -121 434 -141 C434 -163 421 -179 398 -179 C378 -179 371 -168 365 -151 L289 -151 C297 -210 340 -245 398 -245 C460 -245 510 -205 510 -141 L510 -141 Z M953 369 C953 274 888 152 754 152 L742 152 C768 189 789 231 800 277 L633 277 C626 259 612 235 597 218 C562 258 545 313 545 372 C545 425 562 480 597 521 C614 501 626 479 633 459 L800 459 C791 509 769 552 743 588 L752 588 C888 588 953 465 953 369 L953 369 Z M434 152 L425 152 C302 152 226 260 226 372 C226 477 297 588 424 588 L433 588 C390 523 366 445 366 361 C366 290 390 216 434 152 L434 152 Z M955 885 L902 1003 L662 874 L709 776 L955 885 Z " />
<glyph glyph-name="Ccedilla_Ograve" unicode="&#xe0ad;" horiz-adv-x="1179" d="M510 -141 C510 -91 477 -50 425 -50 C418 -50 411 -51 404 -53 L425 -14 L427 -14 C492 -14 543 -3 589 21 C637 -1 691 -14 750 -14 C980 -14 1142 164 1142 370 C1142 576 979 754 751 754 C690 754 635 741 586 719 C543 742 495 754 425 754 C183 754 37 560 37 371 C37 195 159 31 347 -6 L308 -87 L373 -122 C380 -113 388 -107 400 -107 C420 -107 434 -121 434 -141 C434 -163 421 -179 398 -179 C378 -179 371 -168 365 -151 L289 -151 C297 -210 340 -245 398 -245 C460 -245 510 -205 510 -141 L510 -141 Z M953 369 C953 274 888 152 754 152 L742 152 C768 189 789 231 800 277 L633 277 C626 259 612 235 597 218 C562 258 545 313 545 372 C545 425 562 480 597 521 C614 501 626 479 633 459 L800 459 C791 509 769 552 743 588 L752 588 C888 588 953 465 953 369 L953 369 Z M434 152 L425 152 C302 152 226 260 226 372 C226 477 297 588 424 588 L433 588 C390 523 366 445 366 361 C366 290 390 216 434 152 L434 152 Z M893 873 L651 1001 L600 884 L847 776 L893 873 Z " />
<glyph glyph-name="Ccedilla_Ocircumflex" unicode="&#xe0ae;" horiz-adv-x="1179" d="M510 -141 C510 -91 477 -50 425 -50 C418 -50 411 -51 404 -53 L425 -14 L427 -14 C492 -14 543 -3 589 21 C637 -1 691 -14 750 -14 C980 -14 1142 164 1142 370 C1142 576 979 754 751 754 C690 754 635 741 586 719 C543 742 495 754 425 754 C183 754 37 560 37 371 C37 195 159 31 347 -6 L308 -87 L373 -122 C380 -113 388 -107 400 -107 C420 -107 434 -121 434 -141 C434 -163 421 -179 398 -179 C378 -179 371 -168 365 -151 L289 -151 C297 -210 340 -245 398 -245 C460 -245 510 -205 510 -141 L510 -141 Z M953 369 C953 274 888 152 754 152 L742 152 C768 189 789 231 800 277 L633 277 C626 259 612 235 597 218 C562 258 545 313 545 372 C545 425 562 480 597 521 C614 501 626 479 633 459 L800 459 C791 509 769 552 743 588 L752 588 C888 588 953 465 953 369 L953 369 Z M434 152 L425 152 C302 152 226 260 226 372 C226 477 297 588 424 588 L433 588 C390 523 366 445 366 361 C366 290 390 216 434 152 L434 152 Z M978 805 L828 971 L720 971 L564 805 L726 805 L772 863 L818 805 L978 805 Z " />
<glyph glyph-name="Ccedilla_Odieresis" unicode="&#xe0af;" horiz-adv-x="1179" d="M510 -141 C510 -91 477 -50 425 -50 C418 -50 411 -51 404 -53 L425 -14 L427 -14 C492 -14 543 -3 589 21 C637 -1 691 -14 750 -14 C980 -14 1142 164 1142 370 C1142 576 979 754 751 754 C690 754 635 741 586 719 C543 742 495 754 425 754 C183 754 37 560 37 371 C37 195 159 31 347 -6 L308 -87 L373 -122 C380 -113 388 -107 400 -107 C420 -107 434 -121 434 -141 C434 -163 421 -179 398 -179 C378 -179 371 -168 365 -151 L289 -151 C297 -210 340 -245 398 -245 C460 -245 510 -205 510 -141 L510 -141 Z M953 369 C953 274 888 152 754 152 L742 152 C768 189 789 231 800 277 L633 277 C626 259 612 235 597 218 C562 258 545 313 545 372 C545 425 562 480 597 521 C614 501 626 479 633 459 L800 459 C791 509 769 552 743 588 L752 588 C888 588 953 465 953 369 L953 369 Z M434 152 L425 152 C302 152 226 260 226 372 C226 477 297 588 424 588 L433 588 C390 523 366 445 366 361 C366 290 390 216 434 152 L434 152 Z M964 815 L964 966 L805 966 L805 815 L964 815 Z M731 815 L731 966 L572 966 L572 815 L731 815 Z " />
<glyph glyph-name="Cacute_O" unicode="&#xe0b0;" horiz-adv-x="1179" d="M1142 370 C1142 576 979 754 751 754 C690 754 635 741 586 719 C543 742 495 754 425 754 C183 754 37 560 37 371 C37 171 195 -14 427 -14 C492 -14 543 -3 589 21 C637 -1 691 -14 750 -14 C980 -14 1142 164 1142 370 L1142 370 Z M953 369 C953 274 888 152 754 152 L742 152 C768 189 789 231 800 277 L633 277 C626 259 612 235 597 218 C562 258 545 313 545 372 C545 425 562 480 597 521 C614 501 626 479 633 459 L800 459 C791 509 769 552 743 588 L752 588 C888 588 953 465 953 369 L953 369 Z M434 152 L425 152 C302 152 226 260 226 372 C226 477 297 588 424 588 L433 588 C390 523 366 445 366 361 C366 290 390 216 434 152 L434 152 Z M600 885 L547 1003 L307 874 L354 776 L600 885 Z " />
<glyph glyph-name="Cacute_Oacute" unicode="&#xe0b1;" horiz-adv-x="1179" d="M1142 370 C1142 576 979 754 751 754 C690 754 635 741 586 719 C543 742 495 754 425 754 C183 754 37 560 37 371 C37 171 195 -14 427 -14 C492 -14 543 -3 589 21 C637 -1 691 -14 750 -14 C980 -14 1142 164 1142 370 L1142 370 Z M953 369 C953 274 888 152 754 152 L742 152 C768 189 789 231 800 277 L633 277 C626 259 612 235 597 218 C562 258 545 313 545 372 C545 425 562 480 597 521 C614 501 626 479 633 459 L800 459 C791 509 769 552 743 588 L752 588 C888 588 953 465 953 369 L953 369 Z M434 152 L425 152 C302 152 226 260 226 372 C226 477 297 588 424 588 L433 588 C390 523 366 445 366 361 C366 290 390 216 434 152 L434 152 Z M579 885 L526 1003 L286 874 L333 776 L579 885 Z M959 885 L906 1003 L666 874 L713 776 L959 885 Z " />
</font>
</svg>
