<svg width="270" height="79" viewBox="0 0 270 79" xmlns="http://www.w3.org/2000/svg"><title>frontier-logo</title><g fill="none"><path d="M100.747 44.09v-3.155h4.194v3.155h-4.194zm0 15.38V45.59h4.194v13.88h-4.194zm15.907 0V51.9c0-1.578-.317-2.84-2.216-2.84-1.9 0-2.374 1.262-2.374 2.918v7.572h-4.195V45.668h3.878v1.498h.08c.87-1.42 2.136-1.972 3.798-1.972 1.187 0 2.69.474 3.561 1.183 1.346 1.105 1.583 2.84 1.583 4.496v8.676h-4.115v-.079zm11.634-10.726V59.47h-4.195V48.744h-1.583v-3.155h1.583v-.71c0-3.392 2.374-4.26 5.303-4.26h.633v3.156c-1.504 0-1.741.315-1.741 1.814h1.74v3.155h-1.74zm7.914 3.076v7.65h-4.195V45.59h3.878v1.498h.08c.712-1.42 1.899-1.972 3.481-1.972v4.18c-1.82 0-3.244.395-3.244 2.525zm15.432 7.65v-1.498h-.079c-.791 1.42-2.532 1.972-4.036 1.972-4.274 0-6.965-3.313-6.965-7.414 0-4.023 2.77-7.415 6.965-7.415 1.504 0 3.245.553 4.036 1.972h.08V45.59h4.194v13.88h-4.195zm-3.482-10.49c-2.058 0-3.403 1.578-3.403 3.55A3.456 3.456 0 0 0 148.23 56c2.058 0 3.482-1.577 3.482-3.55-.079-1.971-1.503-3.47-3.561-3.47zm15.67 10.964c-2.928 0-5.303-1.578-5.698-4.575h4.115c.158.868.791 1.262 1.583 1.262.633 0 1.424-.316 1.424-1.104 0-1.026-1.108-1.262-1.899-1.578-.633-.236-1.187-.394-1.82-.63-1.662-.632-3.324-1.657-3.324-3.629 0-2.918 2.69-4.575 5.381-4.575 2.77 0 5.065 1.42 5.303 4.339h-4.115c0-.79-.554-1.026-1.267-1.026-.554 0-1.187.316-1.187.947 0 2.208 6.965.946 6.965 5.836.158 3.076-2.612 4.733-5.461 4.733zm12.821-11.2V59.47h-4.116V48.744h-2.057v-3.155h2.057v-4.654h4.195v4.654h1.978v3.155zm8.151 3.076v7.65H180.6V45.59h3.878v1.498h.079c.712-1.42 1.9-1.972 3.482-1.972v4.18c-1.82 0-3.245.395-3.245 2.525zm13.929 7.65v-1.498h-.08c-.711 1.498-2.057 1.893-3.64 1.893-1.503 0-3.086-.552-4.115-1.735-1.108-1.42-1.266-2.524-1.266-4.26v-8.28h4.194v7.65c0 1.578.317 2.761 2.216 2.761 1.741 0 2.375-1.262 2.375-2.84v-7.65h4.194v13.882h-3.878v.078zm13.691.395c-4.194 0-7.439-3.234-7.439-7.414 0-4.102 3.245-7.336 7.36-7.336 3.562 0 6.648 2.288 7.36 5.837h-4.194c-.633-1.262-1.662-1.972-3.087-1.972-1.978 0-3.244 1.657-3.244 3.55 0 1.971 1.266 3.549 3.324 3.549 1.345 0 2.374-.631 3.007-1.814h4.274c-.871 3.312-3.878 5.6-7.36 5.6zm14.483-11.121V59.47h-4.194V48.744h-2.058v-3.155h2.058v-4.654h4.194v4.654h1.979v3.155zm12.821 10.726v-1.498h-.079c-.712 1.498-2.058 1.893-3.64 1.893-1.504 0-3.087-.552-4.116-1.735-1.108-1.42-1.266-2.524-1.266-4.26v-8.28h4.194v7.65c0 1.578.317 2.761 2.216 2.761 1.741 0 2.375-1.262 2.375-2.84v-7.65h4.194v13.882h-3.878v.078zm11.159-7.65v7.65h-4.194V45.59h3.877v1.498h.08c.712-1.42 1.899-1.972 3.482-1.972v4.18c-1.741 0-3.245.395-3.245 2.525zm18.836 1.972h-10.447c.237 1.656 1.662 2.602 3.245 2.602 1.108 0 1.82-.473 2.532-1.262h4.274c-1.187 2.761-3.64 4.812-6.806 4.812-4.036 0-7.36-3.313-7.36-7.336 0-4.022 3.244-7.414 7.28-7.414 4.274 0 7.36 3.392 7.36 7.572 0 .237 0 .631-.078 1.026zm-7.202-5.206c-1.504 0-2.85.868-3.166 2.366h6.331c-.395-1.498-1.662-2.366-3.165-2.366z" fill="#192A67"/><g fill="#192A67"><path d="M58.406 48.98c-2.612 0-5.382-.394-8.31-1.34 4.353 3.075 9.418 4.416 15.195 4.022 5.936-.394 10.922-2.682 12.742-3.55a37.2 37.2 0 0 0 .95-7.256c-2.216 1.893-5.461 4.102-9.339 5.837-3.166 1.183-6.964 2.287-11.238 2.287z"/><path d="M63.313 56c-7.281 0-16.62-2.603-23.9-13.33l-25.8 25.634c7.201 6.468 16.381 9.938 26.116 9.938.791 0 1.583 0 2.374-.079 15.512-.946 28.728-10.648 34.189-24.766-2.77 1.026-6.49 2.13-10.763 2.445-.713.158-1.425.158-2.216.158zm-58.96 0a36.965 36.965 0 0 0 6.252 9.307l25.167-25.082C15.353 34.468 6.173 51.9 4.352 56z"/><path d="M9.18 42.118c4.037-3.628 10.051-7.256 18.124-7.414-5.145-1.498-10.368-1.104-15.67 1.183C6.173 38.254 2.216 41.961.79 43.46c.238 2.445.792 4.89 1.504 7.178 1.425-2.445 3.72-5.6 6.885-8.519z"/></g><g fill="#E63331"><path d="M105.02 22.242V32.97h-4.194V22.242h-1.583v-3.155h1.583v-.71c0-3.391 2.374-4.259 5.302-4.259h.633v3.155c-1.503 0-1.74.316-1.74 1.814h1.74v3.155h-1.74zm7.914 3.155v7.65h-4.194v-13.96h3.878v1.499h.079c.712-1.42 1.9-1.972 3.482-1.972v4.18c-1.741.08-3.245.395-3.245 2.603zm11.871 8.045c-4.273 0-7.518-3.155-7.518-7.335s3.245-7.335 7.518-7.335c4.274 0 7.519 3.155 7.519 7.335s-3.245 7.335-7.519 7.335zm0-10.884c-1.899 0-3.324 1.656-3.324 3.47 0 1.814 1.425 3.47 3.324 3.47 1.9 0 3.324-1.656 3.324-3.47 0-1.814-1.424-3.47-3.324-3.47zm18.519 10.411v-7.572c0-1.577-.316-2.84-2.216-2.84-1.899 0-2.374 1.263-2.374 2.92v7.57h-4.194v-13.96h3.878v1.499h.079c.87-1.42 2.137-1.972 3.799-1.972 1.187 0 2.69.473 3.56 1.183 1.346 1.104 1.584 2.84 1.584 4.496v8.676h-4.116zm12.03-10.727V32.97h-4.195V22.242h-2.057v-3.155h2.057v-4.653h4.195v4.653h1.978v3.155zm4.036-4.574v-3.155h4.194v3.155h-4.194zm0 15.301V19.087h4.194V32.97h-4.194zm20.972-5.679h-10.446c.237 1.656 1.662 2.603 3.245 2.603 1.107 0 1.82-.473 2.532-1.262h4.274c-1.187 2.76-3.64 4.811-6.806 4.811-4.037 0-7.36-3.312-7.36-7.335 0-4.022 3.244-7.414 7.28-7.414 4.274 0 7.36 3.392 7.36 7.572 0 .315 0 .71-.079 1.025zm-7.201-5.127c-1.504 0-2.85.868-3.166 2.367h6.331c-.316-1.499-1.662-2.367-3.165-2.367zm13.77 3.234v7.65h-4.194v-13.96h3.877v1.499h.08c.712-1.42 1.899-1.972 3.482-1.972v4.18c-1.82.08-3.245.395-3.245 2.603zM70.356 36.44c-4.036 3.628-9.971 7.256-18.123 7.414 5.144 1.498 10.368 1.104 15.67-1.184 5.46-2.366 9.418-6.073 10.842-7.571-.237-2.445-.791-4.89-1.503-7.178-1.425 2.445-3.72 5.679-6.886 8.518z"/><path d="M75.263 22.558a36.965 36.965 0 0 0-6.252-9.307L43.765 38.332C64.183 44.09 73.364 26.66 75.263 22.558zM40.124 35.887l25.8-25.633C58.723 3.786 49.542.315 39.808.315c-.791 0-1.583 0-2.374.08-15.512.788-28.728 10.568-34.19 24.687 2.77-1.026 6.49-2.13 10.764-2.445 7.518-.552 18.044 1.42 26.116 13.25z"/><path d="M29.44 30.918c-11.475-7.966-24.533-2.13-27.857-.394a37.2 37.2 0 0 0-.95 7.256c2.216-1.893 5.46-4.101 9.339-5.836 4.907-2.13 11.792-3.55 19.468-1.026z"/></g></g></svg>