<svg xmlns="http://www.w3.org/2000/svg" width="36" height="32" viewBox="0 0 36 32"><title>LinkedIn</title><path d="M35.556 32h-7.858V20.751c0-2.944-1.229-4.955-3.932-4.955-2.068 0-3.217 1.356-3.752 2.664-.201.469-.169 1.123-.169 1.777v11.764H12.06s.1-19.927 0-21.738h7.785v3.412c.46-1.492 2.948-3.621 6.918-3.621 4.925 0 8.795 3.127 8.795 9.86v12.087zM4.185 7.543h-.05C1.626 7.543 0 5.881 0 3.775 0 1.628 1.675.001 4.233.001c2.557 0 4.129 1.623 4.179 3.768 0 2.106-1.622 3.774-4.227 3.774zM.897 10.262h6.93V32H.897V10.262z"/></svg>