<svg width="268" height="80" viewBox="0 0 268 80" xmlns="http://www.w3.org/2000/svg"><g fill="none"><path d="M101.269 44.791v-3.12h4.086v3.12h-4.086zm0 15.165V46.242h4.086v13.714h-4.086zm15.684 0v-7.472c0-1.539-.307-2.858-2.152-2.858-1.89 0-2.329 1.231-2.329 2.858v7.472h-4.086V46.242h3.823v1.45h.043c.88-1.406 2.065-1.934 3.735-1.934 1.142 0 2.636.44 3.515 1.187 1.318 1.099 1.581 2.813 1.581 4.44v8.571h-4.13zm11.467-10.593v10.593h-4.086V49.363h-1.537v-3.121h1.537v-.704c0-3.34 2.373-4.22 5.229-4.22h.57v3.078c-1.493 0-1.713.307-1.713 1.846h1.714v3.12h-1.714zm7.82 3.077v7.516h-4.085V46.242h3.866v1.45h.044c.703-1.406 1.845-1.934 3.427-1.934v4.132c-1.845.044-3.251.396-3.251 2.55zm15.202 7.516v-1.494h-.044c-.747 1.406-2.504 1.934-3.998 1.934-4.218 0-6.898-3.253-6.898-7.341 0-4 2.768-7.297 6.898-7.297 1.494 0 3.163.572 3.998 1.934h.044v-1.45h4.086v13.714h-4.086zm-3.47-10.33c-2.022 0-3.384 1.583-3.384 3.517 0 1.89 1.494 3.472 3.427 3.472 2.021 0 3.427-1.538 3.427-3.516 0-2.022-1.45-3.473-3.47-3.473zm15.464 10.814c-2.856 0-5.272-1.539-5.58-4.528h4.086c.132.835.747 1.275 1.538 1.275.615 0 1.45-.352 1.45-1.055 0-.967-1.099-1.275-1.845-1.583a27.864 27.864 0 0 1-1.758-.615c-1.625-.571-3.25-1.67-3.25-3.56 0-2.858 2.68-4.528 5.315-4.528 2.724 0 5.009 1.407 5.272 4.308h-4.042c-.044-.747-.57-1.055-1.274-1.055-.527 0-1.142.308-1.142.923 0 2.154 6.898.923 6.898 5.802-.088 3.033-2.9 4.616-5.668 4.616zm12.654-11.077v10.593h-4.087V49.363h-2.02v-3.121h2.02V41.67h4.086v4.572h1.977v3.12zm7.995 3.077v7.516H180V46.242h3.867v1.45h.044c.702-1.406 1.845-1.934 3.426-1.934v4.132c-1.8.044-3.25.396-3.25 2.55zm13.708 7.516v-1.45h-.044c-.703 1.494-2.021 1.89-3.559 1.89-1.494 0-3.031-.528-4.042-1.715-1.098-1.362-1.23-2.505-1.23-4.22v-8.22h4.086v7.605c0 1.539.351 2.725 2.197 2.725 1.713 0 2.328-1.23 2.328-2.769v-7.516h4.086V60h-3.822v-.044zm13.532.44a7.296 7.296 0 0 1-7.337-7.341c0-4.044 3.163-7.297 7.249-7.297 3.514 0 6.546 2.286 7.249 5.758h-4.13c-.571-1.274-1.67-1.934-3.075-1.934-1.977 0-3.164 1.627-3.164 3.473 0 1.934 1.274 3.472 3.252 3.472 1.361 0 2.328-.659 2.943-1.846h4.174c-.79 3.429-3.69 5.715-7.161 5.715zm14.235-11.033v10.593h-4.087V49.363h-2.02v-3.121h2.02V41.67h4.086v4.572h1.977v3.12zm12.652 10.593v-1.45h-.043c-.703 1.494-2.021 1.89-3.56 1.89-1.493 0-3.03-.528-4.041-1.715-1.098-1.362-1.23-2.505-1.23-4.22v-8.22h4.086v7.605c0 1.539.351 2.725 2.196 2.725 1.714 0 2.329-1.23 2.329-2.769v-7.516h4.086V60h-3.823v-.044zm11.028-7.516v7.516h-4.086V46.242h3.866v1.45h.044c.703-1.406 1.846-1.934 3.427-1.934v4.132c-1.845.044-3.251.396-3.251 2.55zm18.496 1.934h-10.28c.263 1.626 1.625 2.593 3.207 2.593 1.098 0 1.845-.44 2.504-1.275h4.218c-1.186 2.726-3.603 4.748-6.678 4.748-3.998 0-7.25-3.253-7.25-7.253 0-3.956 3.164-7.34 7.206-7.34 4.218 0 7.25 3.34 7.25 7.472-.089.307-.089.659-.177 1.055zm-7.117-5.143c-1.494 0-2.812.879-3.12 2.33h6.24c-.308-1.451-1.626-2.33-3.12-2.33z" fill="#192A67"/><path d="M105.53 23.209v10.593h-4.085V23.21h-1.538v-3.121h1.538v-.703c0-3.341 2.372-4.22 5.228-4.22h.57v3.077c-1.493 0-1.713.307-1.713 1.846h1.714v3.12h-1.714zm7.777 3.033v7.516h-4.086v-13.67h3.866v1.45h.044c.703-1.406 1.845-1.934 3.427-1.934v4.132c-1.801.044-3.251.396-3.251 2.506zm11.643 7.956c-4.218 0-7.381-3.077-7.381-7.297s3.163-7.297 7.38-7.297c4.218 0 7.381 3.077 7.381 7.297s-3.163 7.297-7.38 7.297zm0-10.725c-1.89 0-3.296 1.626-3.296 3.472s1.362 3.473 3.296 3.473c1.933 0 3.295-1.627 3.295-3.473 0-1.846-1.362-3.472-3.295-3.472zm18.32 10.329V26.33c0-1.539-.307-2.857-2.153-2.857-1.889 0-2.328 1.23-2.328 2.857v7.472h-4.086V20.088h3.822v1.45h.044c.879-1.406 2.065-1.934 3.735-1.934 1.142 0 2.636.44 3.514 1.187 1.318 1.1 1.582 2.813 1.582 4.44v8.571h-4.13zm11.862-10.593v10.593h-4.085V23.21h-2.021v-3.121h2.02v-4.572h4.086v4.572h1.978v3.12zm3.911-4.572v-3.12h4.086v3.12h-4.086zm0 15.165V20.088h4.086v13.714h-4.086zm20.693-5.626h-10.28c.263 1.626 1.625 2.593 3.206 2.593 1.099 0 1.846-.44 2.505-1.274h4.217c-1.186 2.725-3.602 4.747-6.678 4.747-3.998 0-7.249-3.253-7.249-7.253 0-3.956 3.163-7.34 7.205-7.34 4.218 0 7.25 3.34 7.25 7.472-.088.352-.088.703-.176 1.055zm-7.118-5.1c-1.493 0-2.811.88-3.119 2.33h6.239c-.308-1.45-1.626-2.33-3.12-2.33zm13.532 3.166v7.516h-4.086v-13.67h3.866v1.45h.044c.703-1.406 1.846-1.934 3.427-1.934v4.132c-1.801.044-3.25.396-3.25 2.506z" fill="#E63331"/><g fill="#192A67"><path d="M58.916 49.934c-2.636 0-5.492-.396-8.435-1.363 4.437 3.121 9.621 4.484 15.42 4.088 6.064-.44 11.072-2.681 12.961-3.648.571-2.418.879-4.923.967-7.429-2.285 1.934-5.536 4.22-9.49 5.934-3.12 1.32-7.03 2.418-11.423 2.418z"/><path d="M63.969 57.099c-7.425 0-16.871-2.681-24.34-13.583L13.4 69.714c7.337 6.55 16.651 10.154 26.58 10.154.791 0 1.626-.044 2.417-.088 15.772-.923 29.216-10.9 34.796-25.275-2.768 1.055-6.59 2.198-10.94 2.506-.747.088-1.494.088-2.284.088zm-60.015 0c1.626 3.472 3.778 6.681 6.327 9.538l25.657-25.626C15.201 35.077 5.843 52.879 3.954 57.099z"/><path d="M8.875 42.945c4.086-3.736 10.193-7.385 18.452-7.56-5.228-1.495-10.544-1.1-15.948 1.23-5.58 2.418-9.578 6.198-11.028 7.693.264 2.505.747 4.967 1.494 7.34 1.538-2.55 3.823-5.802 7.03-8.703z"/></g><path d="M71.13 37.099c-4.086 3.736-10.193 7.385-18.409 7.56 5.229 1.495 10.545 1.1 15.905-1.23 5.58-2.418 9.577-6.154 11.027-7.693-.263-2.505-.747-4.967-1.494-7.34-1.537 2.55-3.822 5.802-7.03 8.703z" fill="#E63331"/><path d="M76.05 22.989c-1.625-3.473-3.778-6.681-6.326-9.538L44.066 39.077c20.737 5.89 30.095-11.912 31.984-16.088zM40.376 36.527L66.605 10.33C59.268 3.78 49.953.176 40.068.176c-.79 0-1.625.044-2.416.088-15.773.923-29.217 10.9-34.796 25.274 2.768-1.054 6.59-2.197 10.94-2.505 7.688-.571 18.364 1.45 26.58 13.494z" fill="#E63331"/><path d="M29.48 31.473c-11.643-8.132-24.955-2.154-28.338-.396C.572 33.495.264 36 .176 38.505c2.284-1.934 5.535-4.22 9.49-5.934 5.052-2.153 11.994-3.604 19.814-1.098z" fill="#E63331"/></g></svg>