<svg width="200" height="59" viewBox="0 0 200 59" xmlns="http://www.w3.org/2000/svg"><title>Page 1 Copy</title><g fill="#FFF" fill-rule="evenodd"><path d="M78.595 12.035V9.693h-1.298c0-1.152.186-1.375 1.298-1.375V5.995h-.445c-2.151 0-3.932.65-3.932 3.16v.538h-1.15v2.342h1.15v7.974h3.08v-7.974h1.297zm7.05.409V9.34c-1.188 0-2.04.39-2.579 1.45h-.037V9.693h-2.893V20.01h3.079v-5.67c0-1.598 1.076-1.858 2.43-1.895zm11.773 2.398c0 3.16-2.393 5.483-5.546 5.483-3.153 0-5.546-2.324-5.546-5.483 0-3.16 2.393-5.483 5.546-5.483 3.153 0 5.546 2.323 5.546 5.483zm-3.08 0c0-1.394-1.038-2.602-2.466-2.602-1.428 0-2.467 1.208-2.467 2.602s1.039 2.602 2.467 2.602c1.428 0 2.467-1.208 2.467-2.602zm14.408 5.167v-6.45c0-1.208-.204-2.509-1.187-3.327-.668-.557-1.762-.892-2.634-.892-1.243 0-2.152.39-2.8 1.45h-.038V9.693h-2.875V20.01h3.08v-5.613c0-1.227.333-2.156 1.761-2.156 1.391 0 1.614.985 1.614 2.137v5.632h3.079zm7.362-7.974V9.693h-1.484V6.255h-3.079v3.438h-1.52v2.342h1.52v7.974h3.08v-7.974h1.483zm4.618-3.438V6.255h-3.08v2.342h3.08zm0 11.412V9.693h-3.08V20.01h3.08zm12.585-5.037c0 .279-.018.539-.074.818h-7.716c.186 1.226 1.206 1.951 2.411 1.951.835 0 1.373-.334 1.874-.966h3.153c-.89 2.063-2.708 3.568-5.027 3.568-3.004 0-5.453-2.453-5.453-5.464 0-2.993 2.374-5.539 5.398-5.539 3.153 0 5.434 2.528 5.434 5.632zm-3.079-1.264c-.24-1.115-1.224-1.766-2.337-1.766-1.113 0-2.096.65-2.337 1.766h4.674zm10.32-1.264V9.34c-1.188 0-2.04.39-2.579 1.45h-.037V9.693h-2.893V20.01h3.079v-5.67c0-1.598 1.075-1.858 2.43-1.895zM77.186 28.28v-2.342h-3.08v2.341h3.08zm0 11.411V29.376h-3.08v10.315h3.08zm11.76 0v-6.449c0-1.208-.205-2.51-1.188-3.327-.667-.558-1.762-.892-2.633-.892-1.243 0-2.152.39-2.801 1.45h-.037v-1.097h-2.875v10.315h3.079v-5.613c0-1.226.334-2.156 1.762-2.156 1.391 0 1.614.985 1.614 2.138v5.631h3.079zm6.814-7.973v-2.342h-1.298c0-1.152.185-1.375 1.298-1.375v-2.324h-.445c-2.151 0-3.932.65-3.932 3.16v.539h-1.15v2.342h1.15v7.973h3.079v-7.973h1.298zm6.977.409v-3.104c-1.188 0-2.04.39-2.579 1.45h-.037v-1.097h-2.893v10.315h3.079v-5.668c0-1.599 1.076-1.859 2.43-1.896zm11.908 7.564h-3.08v-1.115h-.036c-.557 1.06-1.892 1.469-3.005 1.469-3.172 0-5.175-2.454-5.175-5.52 0-3.012 2.077-5.502 5.175-5.502 1.131 0 2.392.427 3.005 1.45h.037v-1.097h3.079v10.315zm-3.08-5.167c0-1.505-1.094-2.62-2.596-2.62s-2.541 1.19-2.541 2.658c0 1.43 1.113 2.602 2.56 2.602 1.502 0 2.578-1.153 2.578-2.64zm13.172 2.008c0-3.643-5.175-2.732-5.175-4.35 0-.464.464-.687.872-.687.538 0 .946.204.964.78h3.023c-.204-2.193-1.891-3.252-3.95-3.252-1.985 0-3.988 1.245-3.988 3.401 0 1.45 1.224 2.25 2.448 2.695.445.167.89.316 1.336.465.556.223 1.39.446 1.39 1.19 0 .538-.611.799-1.075.799-.612 0-1.076-.316-1.168-.948h-3.06c.24 2.267 2.04 3.42 4.191 3.42 2.096 0 4.192-1.19 4.192-3.513zm6.781-4.814v-2.342h-1.484v-3.438h-3.079v3.438h-1.52v2.342h1.52v7.973h3.08v-7.973h1.483zm6.937.409v-3.104c-1.187 0-2.04.39-2.578 1.45h-.037v-1.097h-2.893v10.315h3.079v-5.668c0-1.599 1.075-1.859 2.43-1.896zm11.148 7.564V29.376h-3.079v5.669c0 1.19-.482 2.1-1.762 2.1-1.391 0-1.65-.892-1.65-2.063v-5.706h-3.08v6.17c0 1.283.093 2.138.928 3.179.742.91 1.892 1.3 3.023 1.3 1.15 0 2.133-.315 2.67-1.43h.038v1.096h2.912zm12.62-3.921h-3.134c-.464.892-1.206 1.375-2.226 1.375-1.502 0-2.448-1.17-2.448-2.62 0-1.395.89-2.621 2.374-2.621 1.057 0 1.855.483 2.3 1.45h3.116c-.538-2.621-2.82-4.331-5.453-4.331-3.06 0-5.435 2.435-5.435 5.483 0 3.085 2.43 5.52 5.509 5.52 2.597 0 4.804-1.729 5.397-4.256zm6.778-4.052v-2.342h-1.484v-3.438h-3.079v3.438h-1.52v2.342h1.52v7.973h3.08v-7.973H169zm10.908 7.973V29.376h-3.079v5.669c0 1.19-.482 2.1-1.762 2.1-1.39 0-1.65-.892-1.65-2.063v-5.706h-3.08v6.17c0 1.283.093 2.138.928 3.179.742.91 1.892 1.3 3.023 1.3 1.15 0 2.133-.315 2.671-1.43h.037v1.096h2.912zm7.767-7.564v-3.104c-1.187 0-2.04.39-2.578 1.45h-.038v-1.097h-2.893v10.315h3.079v-5.668c0-1.599 1.076-1.859 2.43-1.896zm11.385 2.528c0 .278-.019.539-.075.817h-7.715c.185 1.227 1.205 1.952 2.41 1.952.835 0 1.373-.335 1.874-.967h3.153c-.89 2.063-2.708 3.569-5.026 3.569-3.005 0-5.453-2.453-5.453-5.464 0-2.993 2.374-5.54 5.397-5.54 3.153 0 5.435 2.529 5.435 5.633zm-3.08-1.264c-.24-1.116-1.223-1.766-2.336-1.766-1.113 0-2.096.65-2.337 1.766h4.674zM42.761 36.6a19.74 19.74 0 0 1-6.13-.983c3.232 2.273 6.987 3.269 11.233 2.964 4.419-.315 8.062-1.97 9.421-2.665.41-1.774.65-3.582.718-5.407-1.66 1.397-4.014 3.071-6.905 4.314-2.309.993-5.144 1.777-8.337 1.777"/><path d="M46.44 41.84c-5.417 0-12.29-1.943-17.716-9.901L9.642 51.04c5.331 4.79 12.133 7.412 19.327 7.412.581 0 1.171-.017 1.754-.052 11.468-.683 21.254-7.938 25.323-18.433-2.028.777-4.807 1.588-7.954 1.813a23.22 23.22 0 0 1-1.653.06m5.215-14.574c-2.975 2.719-7.406 5.375-13.409 5.498 3.8 1.086 7.675.794 11.588-.889 4.065-1.747 6.962-4.5 8.022-5.607a29.19 29.19 0 0 0-1.086-5.357c-1.11 1.867-2.787 4.227-5.115 6.355"/><path d="M55.239 16.963a28.964 28.964 0 0 0-4.614-6.951l-18.66 18.681c15.087 4.294 21.901-8.676 23.274-11.73M29.28 26.845L48.36 7.743C43.03 2.953 36.23.33 29.037.33c-.581 0-1.17.017-1.753.052-11.47.683-21.256 7.938-25.326 18.432 2.027-.776 4.807-1.589 7.954-1.813 5.609-.401 13.372 1.05 19.37 9.843M2.764 41.821a28.947 28.947 0 0 0 4.613 6.951L26.038 30.09C10.952 25.798 4.137 38.767 2.764 41.82"/><path d="M6.349 31.518c2.976-2.72 7.41-5.376 13.415-5.498-3.802-1.088-7.678-.796-11.594.887-4.066 1.748-6.962 4.502-8.022 5.609a29.133 29.133 0 0 0 1.085 5.357c1.111-1.867 2.788-4.227 5.116-6.355m14.987-8.36C12.867 17.243 3.191 21.575.72 22.862A28.845 28.845 0 0 0 0 28.274c1.66-1.397 4.014-3.071 6.905-4.315 3.694-1.587 8.735-2.64 14.431-.801"/></g></svg>