<svg xmlns="http://www.w3.org/2000/svg" viewBox="0 0 59 59.04"><path d="M16.27 4.09a1.5 1.5 0 0 1 2.12 2.12l-3.65 3.65a1.5 1.5 0 0 1-2.12-2.12zm3.65 3.65a1.5 1.5 0 1 1 2.12 2.12L19.6 12.3a1.5 1.5 0 1 1-2.1-2.12zm3.65 3.66a1.503 1.503 0 0 1 2.12 2.13l-3.65 3.65a1.5 1.5 0 0 1-2.12-2.12zM45.5 33.33a1.5 1.5 0 1 1 2.12 2.12l-3.65 3.65a1.5 1.5 0 1 1-2.12-2.12zm3.63 3.65a1.5 1.5 0 0 1 2.12 2.12l-2.43 2.43a1.5 1.5 0 1 1-2.12-2.12zm3.66 3.65a1.5 1.5 0 0 1 2.12 2.12l-3.65 3.65a1.5 1.5 0 0 1-2.12-2.12zM17.76 51.32l37.25-37.28a3.37 3.37 0 0 0 0-4.77l-5.29-5.29a3.37 3.37 0 0 0-4.76 0L7.71 41.26l-4 14.08zM57.13 7.15a6.37 6.37 0 0 1 0 9L19.6 53.72a1.5 1.5 0 0 1-.65.38l-17 4.87a1.5 1.5 0 0 1-1.89-1.85l4.87-17.06a1.5 1.5 0 0 1 .38-.65L42.84 1.86a6.37 6.37 0 0 1 9 0z"/><path d="M5.31 41.53a1.5 1.5 0 0 1 2.12-2.12L19.6 51.6a1.5 1.5 0 1 1-2.1 2.12zm11.86 2.44a1.5 1.5 0 1 1-2.12-2.12L49.13 7.74a1.5 1.5 0 1 1 2.12 2.12z"/><path d="M7.43 41.53a1.5 1.5 0 0 1-2.12-2.12L42.84 1.86a6.37 6.37 0 0 1 9 0l5.29 5.29a6.37 6.37 0 0 1 0 9L19.6 53.72a1.5 1.5 0 1 1-2.1-2.12l37.51-37.56a3.37 3.37 0 0 0 0-4.77l-5.29-5.29a3.37 3.37 0 0 0-4.76 0z"/><path d="M55.38 45.35L40.61 30.53a1.5 1.5 0 0 1 2.12-2.12l15.83 15.88a1.5 1.5 0 0 1 0 2.12L46.39 58.59a1.5 1.5 0 0 1-2.12 0L28.44 42.75a1.5 1.5 0 0 1 2.12-2.12l14.77 14.78zM3.62 13.68l14.77 14.77a1.5 1.5 0 1 1-2.12 2.08L.44 14.74a1.5 1.5 0 0 1 0-2.12L12.61.44a1.5 1.5 0 0 1 2.12 0l15.83 15.83a1.5 1.5 0 0 1-2.12 2.12L13.67 3.62z"/></svg>