<svg xmlns="http://www.w3.org/2000/svg" width="38" height="32" viewBox="0 0 38 32"><title>Twitter</title><path d="M38.4 3.788a15.368 15.368 0 0 1-4.524 1.271A8.06 8.06 0 0 0 37.34.591a15.516 15.516 0 0 1-5.006 1.958A7.77 7.77 0 0 0 26.584 0c-4.348 0-7.875 3.617-7.875 8.078 0 .633.068 1.248.203 1.84-6.548-.337-12.351-3.55-16.239-8.443a8.228 8.228 0 0 0-1.066 4.066 8.134 8.134 0 0 0 3.505 6.724 7.731 7.731 0 0 1-3.57-1.008v.099c0 3.915 2.716 7.181 6.322 7.921-.66.19-1.357.284-2.076.284a7.712 7.712 0 0 1-1.483-.143c1.003 3.208 3.911 5.545 7.359 5.607a15.557 15.557 0 0 1-9.784 3.46c-.636 0-1.264-.037-1.88-.111C3.487 30.662 7.63 32 12.076 32c14.493 0 22.415-12.308 22.415-22.984 0-.351-.007-.703-.02-1.047A16.18 16.18 0 0 0 38.4 3.788z"/></svg>