<!-- Generated by IcoMoon.io -->
<svg version="1.1" xmlns="http://www.w3.org/2000/svg" width="22" height="32" viewBox="0 0 22 32">
<title>baloon</title>
<path d="M5.189 31.784c-0.358 0-0.649-0.29-0.649-0.649v-11.243c0-0.358 0.29-0.649 0.649-0.649h11.243c0.358 0 0.649 0.29 0.649 0.649v11.243c0 0.358-0.29 0.649-0.649 0.649h-11.243zM5.838 30.486h9.946v-9.946h-9.946v9.946zM0.431 11.431c-0.267-0.239-0.289-0.649-0.049-0.916s0.649-0.289 0.916-0.049l9.946 8.932c0.267 0.239 0.289 0.649 0.049 0.916s-0.649 0.289-0.916 0.049l-9.946-8.932zM11.244 20.363c-0.267 0.239-0.677 0.217-0.916-0.049s-0.217-0.677 0.049-0.916l9.946-8.932c0.267-0.239 0.677-0.217 0.916 0.049s0.217 0.677-0.049 0.916l-9.946 8.932zM10.162 10.811c0-0.358 0.29-0.649 0.649-0.649s0.649 0.29 0.649 0.649v8.649c0 0.358-0.29 0.649-0.649 0.649s-0.649-0.29-0.649-0.649v-8.649zM15.784 8.62c-2.285 0-4.324 1.299-4.324 2.329h-1.297c0-1.030-2.040-2.329-4.324-2.329s-4.324 1.299-4.324 2.329h-1.297c0-5.84 4.744-10.573 10.595-10.573s10.595 4.734 10.595 10.573h-1.297c0-1.030-2.040-2.329-4.324-2.329zM11.459 10.948c0 0.865-1.297 0.865-1.297 0 0-0.563 0.238-1.111 0.649-1.603 0.411 0.492 0.649 1.040 0.649 1.603zM15.784 7.322c1.498 0 2.942 0.457 3.992 1.159-1.083-3.925-4.686-6.809-8.965-6.809s-7.882 2.884-8.965 6.809c1.050-0.702 2.494-1.159 3.992-1.159 2.049 0 3.998 0.854 4.973 2.023 0.975-1.168 2.924-2.023 4.973-2.023zM1.514 10.948c0 0.865-1.297 0.865-1.297 0 0-0.923 0.639-1.805 1.63-2.467-0.217 0.786-0.333 1.613-0.333 2.467zM21.405 10.948c0 0.865-1.297 0.865-1.297 0 0-0.854-0.116-1.682-0.333-2.467 0.991 0.663 1.63 1.544 1.63 2.467zM10.162 19.892h1.297v10.811h-1.297zM5.189 26.162v-1.297h10.811v1.297z"></path>
</svg>
