<?xml version="1.0" encoding="UTF-8"?>
<svg width="1440px" height="667px" viewBox="0 0 1440 667" version="1.1" xmlns="http://www.w3.org/2000/svg" xmlns:xlink="http://www.w3.org/1999/xlink">
    <!-- Generator: Sketch 48.1 (47250) - http://www.bohemiancoding.com/sketch -->
    <title>Business Concept Illustration</title>
    <desc>Created with Sketch.</desc>
    <defs>
        <rect id="path-1" x="0" y="0.1" width="140" height="52"></rect>
        <rect id="path-3" x="0" y="0.4" width="399" height="22.1"></rect>
        <rect id="path-5" x="0" y="0.4" width="585" height="22.1"></rect>
        <rect id="path-7" x="0" y="0.4" width="750.1" height="22.1"></rect>
        <rect id="path-9" x="0" y="0.4" width="341" height="22.1"></rect>
        <rect id="path-11" x="0" y="0.4" width="656" height="22.1"></rect>
        <rect id="path-13" x="0" y="0.4" width="431" height="22.1"></rect>
        <rect id="path-15" x="0" y="0.4" width="98" height="22.1000004"></rect>
        <rect id="path-17" x="0" y="0.4" width="743" height="22.1"></rect>
        <rect id="path-19" x="0" y="0.4" width="200" height="22.1"></rect>
    </defs>
    <g id="Homepage" stroke="none" stroke-width="1" fill="none" fill-rule="evenodd" transform="translate(0.000000, -4008.000000)">
        <g id="Business-Concept" transform="translate(-4.000000, 3266.000000)">
            <g id="Business-Concept-Illustration" transform="translate(0.000000, 744.000000)">
                <g id="Group-25">
                    <g id="Group-26" transform="translate(1007.500000, 196.000000) scale(-1, 1) translate(-1007.500000, -196.000000) translate(963.000000, 131.000000)">
                        <polyline id="Path-5" stroke="#8E8E8E" stroke-width="2" points="3 4 3 127.067131 87.5000653 127.067131"></polyline>
                        <circle id="Oval-3" fill="#8E8E8E" cx="86" cy="127" r="3"></circle>
                        <circle id="Oval-3" fill="#8E8E8E" cx="3" cy="3" r="3"></circle>
                    </g>
                    <g id="Illustration">
                        <g id="XMLID_1600_" transform="translate(686.500000, 173.500000) scale(-1, 1) translate(-686.500000, -173.500000) translate(671.000000, 162.000000)" stroke="#E63331" stroke-linecap="round" stroke-linejoin="round" stroke-width="3">
                            <path d="M8.6,0.9 L23.9,8.2 C24.5,8.5 24.8,9.3 24.5,9.9 L21.7,16 C21.4,16.7 20.6,16.9 19.9,16.6 L4.6,9.3 C4,9 3.7,8.2 4,7.6 L6.8,1.5 C7.2,0.9 8,0.6 8.6,0.9 Z" id="XMLID_1615_"></path>
                            <path d="M10.5,12.2 C9.4,12.5 8.7,13.5 8.7,14.7 C8.7,16.1 9.9,17.3 11.3,17.3 C12.7,17.3 13.9,16.1 13.9,14.7 C13.9,14.4 13.8,14.1 13.7,13.8" id="XMLID_1614_"></path>
                            <polyline id="XMLID_1613_" points="11.3 18 11.3 23 0.9 23"></polyline>
                            <polyline id="XMLID_1612_" points="22.4 14.7 27.6 19.3 30.9 12.1 24.4 10.8"></polyline>
                        </g>
                        <g id="XMLID_1600_" transform="translate(993.000000, 162.000000)" stroke="#E63331" stroke-linecap="round" stroke-linejoin="round" stroke-width="3">
                            <path d="M8.6,0.9 L23.9,8.2 C24.5,8.5 24.8,9.3 24.5,9.9 L21.7,16 C21.4,16.7 20.6,16.9 19.9,16.6 L4.6,9.3 C4,9 3.7,8.2 4,7.6 L6.8,1.5 C7.2,0.9 8,0.6 8.6,0.9 Z" id="XMLID_1615_"></path>
                            <path d="M10.5,12.2 C9.4,12.5 8.7,13.5 8.7,14.7 C8.7,16.1 9.9,17.3 11.3,17.3 C12.7,17.3 13.9,16.1 13.9,14.7 C13.9,14.4 13.8,14.1 13.7,13.8" id="XMLID_1614_"></path>
                            <polyline id="XMLID_1613_" points="11.3 18 11.3 23 0.9 23"></polyline>
                            <polyline id="XMLID_1612_" points="22.4 14.7 27.6 19.3 30.9 12.1 24.4 10.8"></polyline>
                        </g>
                        <path d="M668,299.452491 C668,299.452491 713.442305,314.96475 724.428357,298.235843 C730.32886,289.250909 724.228611,281 724.228611,281" id="Shape" stroke="#E63331" stroke-width="3" stroke-linecap="round" stroke-linejoin="round"></path>
                        <rect id="Rectangle-path" stroke="#1D1D1D" stroke-width="3" x="565" y="285" width="14" height="12" rx="4"></rect>
                        <rect id="Rectangle-path" stroke="#1D1D1D" stroke-width="3" x="646" y="285" width="14" height="12" rx="4"></rect>
                        <polyline id="Shape" stroke="#1D1D1D" stroke-width="3" stroke-linecap="round" stroke-linejoin="round" points="667.42671 314 667.42671 281.5 681.472313 281.5 690 276.5 612.749186 260 536 276.5 544.527687 281.5 558.071661 281.5 558.071661 314"></polyline>
                        <rect id="Rectangle-path" stroke="#1D1D1D" stroke-width="3" x="586" y="285" width="53" height="12" rx="4"></rect>
                        <polyline id="Shape" stroke="#1D1D1D" stroke-width="3" fill="#FFFFFF" fill-rule="nonzero" stroke-linecap="round" stroke-linejoin="round" points="547 339 547 319.182573 612 291 677 319.182573 677 339"></polyline>
                        <path d="M612,292 L612,339" id="Shape" stroke="#1D1D1D" stroke-width="3" stroke-linecap="round" stroke-linejoin="round"></path>
                        <polygon id="Shape" stroke="#1D1D1D" stroke-width="3" stroke-linecap="round" stroke-linejoin="round" points="951.543471 310 951.543471 207 985.70849 207 994 185 847.5 185 701 185 709.491306 207 742.757245 207 742.757245 310"></polygon>
                        <path d="M716,234 L730,234 C732.209139,234 734,235.790861 734,238 L734,310 L712,310 L712,238 C712,235.790861 713.790861,234 716,234 Z" id="Rectangle-path" stroke="#E63331" stroke-width="3" stroke-linecap="round" stroke-linejoin="round"></path>
                        <rect id="Rectangle-path" stroke="#E63331" stroke-width="3" stroke-linecap="round" stroke-linejoin="round" x="720" y="244" width="8" height="28"></rect>
                        <rect id="Rectangle-path" stroke="#E63331" stroke-width="3" x="750" y="416" width="67" height="32" rx="4"></rect>
                        <polyline id="Shape" stroke="#E63331" stroke-width="3" stroke-linecap="round" stroke-linejoin="round" points="775 415 775 399 769 399 769 415"></polyline>
                        <polyline id="Shape" stroke="#E63331" stroke-width="3" stroke-linecap="round" stroke-linejoin="round" points="787 415 787 399 781 399 781 415"></polyline>
                        <polyline id="Shape" stroke="#E63331" stroke-width="3" stroke-linecap="round" stroke-linejoin="round" points="799 415 799 399 793 399 793 415"></polyline>
                        <path d="M759,425 L759,439" id="Shape" stroke="#E63331" stroke-width="3"></path>
                        <path d="M765,425 L765,439" id="Shape" stroke="#E63331" stroke-width="3"></path>
                        <path d="M771,425 L771,439" id="Shape" stroke="#E63331" stroke-width="3"></path>
                        <path d="M777,425 L777,439" id="Shape" stroke="#E63331" stroke-width="3"></path>
                        <path d="M783,425 L783,439" id="Shape" stroke="#E63331" stroke-width="3"></path>
                        <path d="M789,425 L789,439" id="Shape" stroke="#E63331" stroke-width="3"></path>
                        <path d="M795,425 L795,439" id="Shape" stroke="#E63331" stroke-width="3"></path>
                        <path d="M801,425 L801,439" id="Shape" stroke="#E63331" stroke-width="3"></path>
                        <path d="M807,425 L807,439" id="Shape" stroke="#E63331" stroke-width="3"></path>
                        <rect id="Rectangle-path" stroke="#E63331" stroke-width="3" fill="#E63331" x="783" y="456" width="36" height="16" rx="4"></rect>
                        <path d="M955.513385,377.105448 L986.902745,377.105448 L995,317 L700,317 L708.097255,377.105448 L739.586581,377.105448 L739.586581,550.710018 C736.587597,555.718805 734.888174,561.629174 734.888174,567.940246 C734.888174,586.773286 750.083023,602 768.876652,602 C776.174178,602 918.325991,602 925.623517,602 C944.417147,602 959.611996,586.973638 959.611996,568.140598 C959.611996,561.929701 955.313453,551.311072 955.313453,551.311072 L955.513385,377.105448 Z" id="Shape" stroke="#1D1D1D" stroke-width="3" stroke-linecap="round" stroke-linejoin="round"></path>
                        <g id="Clipped" transform="translate(756.000000, 233.000000)">
                            <mask id="mask-2" fill="white">
                                <use xlink:href="#path-1"></use>
                            </mask>
                            <g id="SVGID_1_"></g>
                        </g>
                        <g id="Group" transform="translate(756.000000, 225.000000)" stroke-width="3">
                            <path d="M140,30 L0,30" id="Shape" stroke="#1D1D1D"></path>
                            <path d="M34,60.1 L34,0.1" id="Shape" stroke="#1D1D1D"></path>
                            <path d="M69,60 L69,0" id="Shape" stroke="#1D1D1D"></path>
                            <path d="M106,60.1 L106,0.1" id="Shape" stroke="#1D1D1D"></path>
                            <rect id="Rectangle-path" stroke="#000000" x="0" y="0" width="140" height="60" rx="4"></rect>
                        </g>
                        <path d="M1095,327 L1170,327 C1176.6,327 1182,332.4 1182,339 L1182,345" id="Shape" stroke="#000000" stroke-width="2.9962"></path>
                        <path d="M498,663 L404,663 C390.8,663 380,652.2 380,639 L380,412" id="Shape" stroke="#E63331" stroke-width="3"></path>
                        <path d="M907,396 L907,339 C907,332.4 912.4,327 919,327 L1095,327" id="Shape" stroke="#1D1D1D" stroke-width="3"></path>
                        <path d="M907,534 L907,442" id="Shape" stroke="#E63331" stroke-width="3"></path>
                        <rect id="Rectangle-path" stroke="#1D1D1D" stroke-width="3" x="874" y="396" width="64" height="46" rx="4"></rect>
                        <path d="M1088,497 L1088,370 C1088,363.4 1093.4,358 1100,358 L1106,358" id="Shape" stroke="#000000" stroke-width="2.9962"></path>
                        <path d="M1104,507 L1104,461 C1104,456.6 1100.4,453 1096,453 C1091.6,453 1088,456.6 1088,461 L1088,507 C1088,511.4 1091.6,515 1096,515 C1100.4,515 1104,511.4 1104,507 Z" id="Shape" stroke="#000000" stroke-width="2.9628"></path>
                        <path d="M1406.11152,363 L1133.5074,363 C1121.82437,363 1112,373.306917 1112,386.515782 L1112,583.648086 C1112,593.754869 1117.93002,602.16051 1125.80722,606.163197 C1125.80722,606.163197 1248.39057,661 1269.80946,661 C1291.22836,661 1413.90021,606.163197 1413.90021,606.163197 C1421.77741,602.16051 1426.99937,593.754869 1426.99937,583.648086 L1426.99937,386.515782 C1427.08788,373.306917 1417.79456,363 1406.11152,363 Z" id="Shape" stroke="#000000" stroke-width="3"></path>
                        <ellipse id="Oval" stroke="#1D1D1D" stroke-width="6" fill="#FFFFFF" fill-rule="nonzero" cx="1269.5" cy="362" rx="149.5" ry="23"></ellipse>
                        <path d="M0,371 C0,371 268.129655,371 346.022069,371 C350.515862,371 362,365.054054 362,356.630631 C362,342.224486 337.367356,335.452714 288.102069,336.315315 L0,327" id="Shape" stroke="#1D1D1D" stroke-width="3"></path>
                        <g id="Group-24" transform="translate(1241.000000, 512.000000)" stroke="#E63331">
                            <g id="Group-21" transform="translate(9.000000, 9.000000)">
                                <g id="Group-20">
                                    <g id="Group-14">
                                        <circle id="Oval" stroke-width="2.9962" cx="20" cy="20" r="11"></circle>
                                        <circle id="Oval" stroke-width="2.9962" cx="20" cy="20" r="5"></circle>
                                        <g id="Group-3" stroke-linecap="round" stroke-linejoin="round" stroke-width="3">
                                            <path d="M20,0 L20,8" id="Line-2"></path>
                                            <path d="M40,20 L32,20" id="Line-2"></path>
                                            <path d="M0,20 L8,20" id="Line-2"></path>
                                            <path d="M20,32 L20,40" id="Line-2"></path>
                                        </g>
                                    </g>
                                </g>
                            </g>
                            <g id="Group-3" transform="translate(29.000000, 29.000000) rotate(-315.000000) translate(-29.000000, -29.000000) translate(9.000000, 9.000000)" stroke-linecap="round" stroke-linejoin="round" stroke-width="3">
                                <path d="M20,0 L20,8" id="Line-2"></path>
                                <path d="M40,20 L32,20" id="Line-2"></path>
                                <path d="M0,20 L8,20" id="Line-2"></path>
                                <path d="M20,32 L20,40" id="Line-2"></path>
                            </g>
                        </g>
                        <g id="Group-30" transform="translate(792.000000, 540.000000)" fill-rule="nonzero">
                            <path d="M14,28 L14,2 C14,0.9 13.1,0 12,0 L2,0 C0.9,0 0,0.9 0,2 L0,28 C0,29.1 0.9,30 2,30 L12,30 C13.1,30 14,29.1 14,28 Z" id="Shape" stroke="#E63331" stroke-width="2.9628" fill="#E63331"></path>
                            <path d="M13,23 L13,3 C13,1.9 12.0769231,1 10.9487179,1 L3.05128205,1 C1.92307692,1 1,1.9 1,3 L1,23 C1,24.1 1.92307692,25 3.05128205,25 L10.9487179,25 C12.0769231,25 13,24.1 13,23 Z" id="Shape" fill="#FFFFFF"></path>
                            <path d="M10,12 L10,0 L4,0 L4,12 C4,13.1 4.9,14 6,14 L8,14 C9.1,14 10,13.1 10,12 Z" id="Shape" fill="#E63331"></path>
                        </g>
                        <g id="Group-31" transform="translate(813.000000, 540.000000)">
                            <path d="M16,18 L16,2 C16,0.9 15.1,0 14,0 L2,0 C0.9,0 0,0.9 0,2 L0,18 C0,19.1 0.9,20 2,20 L14,20 C15.1,20 16,19.1 16,18 Z" id="Shape" stroke="#E63331" stroke-width="3" fill="#E63331"></path>
                            <rect id="Rectangle" fill="#FFFFFF" x="1" y="1" width="14" height="7" rx="2"></rect>
                            <path d="M8,30 L8,18" id="Shape" stroke="#E63331" stroke-width="3" stroke-linecap="round" stroke-linejoin="round"></path>
                        </g>
                        <g id="Group-32" transform="translate(832.000000, 547.000000)">
                            <circle id="Oval" fill="#E63331" fill-rule="nonzero" cx="11" cy="14" r="9"></circle>
                            <circle id="Oval" fill="#FFFFFF" fill-rule="nonzero" cx="11" cy="14" r="3"></circle>
                            <path d="M17,4 L17,2 C17,0.9 16.1,0 15,0 L7,0 C5.9,0 5,0.9 5,2 L5,4 C5,5.1 5.9,6 7,6 L15,6 C16.1,6 17,5.1 17,4 Z" id="Shape" stroke="#E63331" stroke-width="3"></path>
                            <path d="M8,22 C8,20.9 7.1,20 6,20 L2,20 C0.9,20 0,20.9 0,22 C0,23.1 0.9,24 2,24 L6,24 C7.1,24 8,23.1 8,22 Z" id="Shape" fill="#E63331" fill-rule="nonzero"></path>
                            <path d="M22,22 C22,20.9 21.1,20 20,20 L16,20 C14.9,20 14,20.9 14,22 C14,23.1 14.9,24 16,24 L20,24 C21.1,24 22,23.1 22,22 Z" id="Shape" fill="#E63331" fill-rule="nonzero"></path>
                            <path d="M24,11 L24,10 C24,9.4 23.6,9 23,9 L19,9 C18.4,9 18,9.4 18,10 L18,11 C18,11.6 18.4,12 19,12 L23,12 C23.6,12 24,11.6 24,11 Z" id="Shape" fill="#E63331" fill-rule="nonzero"></path>
                        </g>
                        <g id="Group-6" transform="translate(320.000000, 0.000000)">
                            <g id="Group" transform="translate(67.000000, 74.000000)">
                                <path d="M66,0.8 L1.5,0.8 C0.9,0.8 0.5,1.2 0.5,1.8 L0.5,15.5 C0.5,16.1 0.9,16.5 1.5,16.5 L66,16.5 C66.6,16.5 67,16.1 67,15.5 L67,1.8 C67,1.3 66.6,0.8 66,0.8 Z" id="Shape" stroke="#000000" stroke-width="3" stroke-linecap="round" stroke-linejoin="round"></path>
                                <circle id="Oval" fill="#000000" fill-rule="nonzero" cx="8.3" cy="8.7" r="2"></circle>
                                <path d="M43.5,8.7 L59.2,8.7" id="Shape" stroke="#000000" stroke-width="3" stroke-linecap="round" stroke-linejoin="round"></path>
                            </g>
                            <g id="Group" transform="translate(67.000000, 59.000000)">
                                <path d="M66,0.2 L1.5,0.2 C0.9,0.2 0.5,0.6 0.5,1.2 L0.5,14.9 C0.5,15.5 0.9,15.9 1.5,15.9 L66,15.9 C66.6,15.9 67,15.5 67,14.9 L67,1.2 C67,0.6 66.6,0.2 66,0.2 Z" id="Shape" stroke="#000000" stroke-width="3" stroke-linecap="round" stroke-linejoin="round"></path>
                                <circle id="Oval" fill="#000000" fill-rule="nonzero" cx="8.3" cy="8" r="2"></circle>
                                <path d="M43.5,8 L59.2,8" id="Shape" stroke="#000000" stroke-width="3" stroke-linecap="round" stroke-linejoin="round"></path>
                            </g>
                            <path d="M141.8,62.7 C150.7,60.9 157.5,53 157.5,43.5 C157.5,32.7 148.7,23.9 137.9,23.9 C137.8,23.9 137.7,23.9 137.6,23.9 C135.7,10.6 124.3,0.4 110.5,0.4 C95.4,0.4 83.1,12.7 83.1,27.8 C83.1,29.1 83.2,30.5 83.4,31.7 C83.3,31.7 83.2,31.7 83.1,31.7 C74.5,31.7 67.4,38.7 67.4,47.4 C67.4,48.9 67.7,50.4 68.1,51.8" id="Shape" stroke="#000000" stroke-width="3" stroke-linecap="round" stroke-linejoin="round"></path>
                            <g id="XMLID_4405_" transform="translate(101.000000, 17.000000)" stroke="#000000" stroke-linecap="round" stroke-linejoin="round" stroke-width="3">
                                <polyline id="XMLID_4409_" points="0.7 28.7 0.7 12.4 18.4 12.4 18.4 28.7 0.7 28.7"></polyline>
                                <path d="M9.5,22.3 L9.5,18.9" id="XMLID_4408_"></path>
                                <circle id="XMLID_4407_" cx="9.5" cy="18.9" r="1.1"></circle>
                                <path d="M2.9,12.4 L2.9,7.2 C2.9,3.5 5.9,0.5 9.6,0.5 C13.3,0.5 16.3,3.5 16.3,7.2 L16.3,12.4" id="XMLID_4406_"></path>
                            </g>
                            <g id="XMLID_4400_" transform="translate(167.000000, 59.000000)" stroke="#000000" stroke-linecap="round" stroke-linejoin="round" stroke-width="3">
                                <path d="M47.7,5 C48.9,29.5 30,48.4 5.4,47.3" id="XMLID_4404_"></path>
                                <path d="M36.2,4.5 C37.1,22.7 23,36.7 4.8,35.9" id="XMLID_4403_"></path>
                                <path d="M24.8,3.9 C25.4,15.8 16.2,24.9 4.4,24.3" id="XMLID_4402_"></path>
                                <circle id="XMLID_4401_" cx="6.5" cy="6.1" r="6"></circle>
                            </g>
                            <g id="XMLID_1_" transform="translate(0.000000, 59.000000)" stroke="#000000" stroke-linecap="round" stroke-linejoin="round" stroke-width="3">
                                <path d="M0.3,5 C-0.9,29.5 18,48.4 42.6,47.3" id="XMLID_10_"></path>
                                <path d="M11.8,4.5 C10.9,22.7 25,36.7 43.2,35.9" id="XMLID_4_"></path>
                                <path d="M23.2,3.9 C22.6,15.8 31.8,24.9 43.6,24.3" id="XMLID_3_"></path>
                                <circle id="XMLID_2_" cx="41.5" cy="6.1" r="6"></circle>
                            </g>
                        </g>
                        <path d="M939,270 L939,250 C939,248.9 938.1,248 937,248 L921,248 C919.9,248 919,248.9 919,250 L919,270 C919,271.1 919.9,272 921,272 L937,272 C938.1,272 939,271.1 939,270 Z" id="Shape" stroke="#E63331" stroke-width="3"></path>
                        <g id="Group" transform="translate(922.000000, 241.000000)">
                            <path d="M8.2,7 L8.2,2.5 C8.2,1.4 7.3,0.5 6.2,0.5 L2.2,0.5 C1.1,0.5 0.2,1.4 0.2,2.5 L0.2,7 C0.2,8.1 1.1,9 2.2,9 L2.2,14.1 C1.1,14.1 0.2,15 0.2,16.1 L0.2,20.6 C0.2,21.7 1.1,22.6 2.2,22.6 L6.2,22.6 C7.3,22.6 8.2,21.7 8.2,20.6 L8.2,16 C8.2,14.9 7.3,14 6.2,14 L6.2,9 C7.3,9 8.2,8.1 8.2,7 Z" id="Shape" fill="#FFFFFF" fill-rule="nonzero"></path>
                            <path d="M8.2,7 L8.2,2.5 C8.2,1.4 7.3,0.5 6.2,0.5 L2.2,0.5 C1.1,0.5 0.2,1.4 0.2,2.5 L0.2,7 C0.2,8.1 1.1,9 2.2,9 L2.2,14.1 C1.1,14.1 0.2,15 0.2,16.1 L0.2,20.6 C0.2,21.7 1.1,22.6 2.2,22.6 L6.2,22.6 C7.3,22.6 8.2,21.7 8.2,20.6 L8.2,16 C8.2,14.9 7.3,14 6.2,14 L6.2,9 C7.3,9 8.2,8.1 8.2,7 Z" id="Shape" stroke="#E63331" stroke-width="3"></path>
                        </g>
                        <path d="M934,264 C934,266.25641 932.25641,268 930,268 C927.74359,268 926,266.25641 926,264" id="Shape" stroke="#E63331" stroke-width="3" stroke-linecap="round" stroke-linejoin="round"></path>
                        <g id="Clipped" opacity="0.5" transform="translate(1061.000000, 389.000000)">
                            <mask id="mask-4" fill="white">
                                <use xlink:href="#path-3"></use>
                            </mask>
                            <g id="SVGID_9_"></g>
                            <path d="M-17.2,10.1 C-14.2,7.2 -8.3,7.2 -5.4,10.1 C-2.4,13 3.5,13 6.4,10.1 C9.4,7.2 15.3,7.2 18.2,10.1 C21.2,13 27.1,13 30,10.1 C33,7.2 38.9,7.2 41.8,10.1 C44.8,13 50.7,13 53.6,10.1 C56.6,7.2 62.5,7.2 65.4,10.1 C68.4,13 74.3,13 77.2,10.1 C80.2,7.2 86.1,7.2 89,10.1 C92,13 97.9,13 100.8,10.1 C103.8,7.2 109.7,7.2 112.6,10.1 C115.6,13 121.5,13 124.4,10.1 C127.4,7.2 133.3,7.2 136.2,10.1 C139.2,13 145.1,13 148,10.1 C151,7.2 156.9,7.2 159.8,10.1 C162.8,13 168.7,13 171.6,10.1 C174.6,7.2 180.5,7.2 183.4,10.1 C186.4,13 192.3,13 195.2,10.1 C198.2,7.2 204.1,7.2 207,10.1 C210,13 215.9,13 218.8,10.1 C221.8,7.2 227.7,7.2 230.6,10.1 C233.6,13 239.5,13 242.4,10.1 C245.4,7.2 251.3,7.2 254.2,10.1 C257.2,13 263.1,13 266,10.1 C269,7.2 274.9,7.2 277.8,10.1 C280.8,13 286.7,13 289.6,10.1 C292.6,7.2 298.5,7.2 301.4,10.1 C304.4,13 310.3,13 313.2,10.1 C316.2,7.2 322.1,7.2 325,10.1 C328,13 333.9,13 336.8,10.1 C339.8,7.2 345.7,7.2 348.6,10.1 C351.6,13 357.5,13 360.4,10.1 C363.4,7.2 369.3,7.2 372.2,10.1 C375.2,13 381.1,13 384,10.1 C387,7.2 392.9,7.2 395.8,10.1 C398.8,13 404.7,13 407.6,10.1 C410.6,7.2 416.5,7.2 419.4,10.1 C422.4,13 428.3,13 431.2,10.1 C434.2,7.2 440.1,7.2 443,10.1 C446,13 451.9,13 454.8,10.1 C457.8,7.2 463.7,7.2 466.6,10.1 C469.6,13 475.5,13 478.4,10.1 C481.4,7.2 487.3,7.2 490.2,10.1 C493.2,13 499.1,13 502,10.1 C505,7.2 510.9,7.2 513.8,10.1 C516.8,13 522.7,13 525.6,10.1 C528.6,7.2 534.5,7.2 537.4,10.1 C540.4,13 546.3,13 549.2,10.1 C552.2,7.2 558.1,7.2 561,10.1 C564,13 569.9,13 572.8,10.1 C575.8,7.2 581.7,7.2 584.6,10.1 C587.6,13 593.5,13 596.4,10.1 C599.4,7.2 605.3,7.2 608.2,10.1 C611.2,13 617.1,13 620,10.1 C623,7.2 628.9,7.2 631.8,10.1 C634.8,13 640.7,13 643.6,10.1 C646.6,7.2 652.5,7.2 655.4,10.1 C658.4,13 664.3,13 667.2,10.1 C670.2,7.2 676.1,7.2 679,10.1 C682,13 687.9,13 690.8,10.1 C693.8,7.2 699.7,7.2 702.6,10.1 C705.6,13 711.5,13 714.4,10.1 C717.4,7.2 723.3,7.2 726.2,10.1 C729.2,13 735.1,13 738,10.1 C741,7.2 746.9,7.2 749.8,10.1 C752.8,13 758.7,13 761.6,10.1 C764.6,7.2 770.5,7.2 773.4,10.1 C776.4,13 782.3,13 785.2,10.1 C788.2,7.2 794.1,7.2 797,10.1 C800,13 805.9,13 808.8,10.1 C811.8,7.2 817.7,7.2 820.6,10.1 C823.6,13 829.5,13 832.4,10.1 C835.4,7.2 841.3,7.2 844.2,10.1 C847.2,13 853.1,13 856,10.1 C859,7.2 864.9,7.2 867.8,10.1 C870.8,13 876.7,13 879.6,10.1 C882.6,7.2 888.5,7.2 891.4,10.1 C894.4,13 900.3,13 903.2,10.1 C906.2,7.2 912.1,7.2 915,10.1 C918,13 923.9,13 926.8,10.1 C929.8,7.2 935.7,7.2 938.6,10.1 C941.6,13 947.5,13 950.4,10.1 C953.4,7.2 959.3,7.2 962.2,10.1 C965.2,13 971.1,13 974,10.1 C977,7.2 982.9,7.2 985.8,10.1 C988.8,13 994.7,13 997.6,10.1 C1000.6,7.2 1006.5,7.2 1009.4,10.1 C1012.4,13 1018.3,13 1021.2,10.1 C1024.2,7.2 1030.1,7.2 1033,10.1 C1036,13 1041.9,13 1044.8,10.1 C1047.8,7.2 1053.7,7.2 1056.6,10.1 C1059.6,13 1065.5,13 1068.4,10.1 C1071.4,7.2 1077.3,7.2 1080.2,10.1 C1083.2,13 1089.1,13 1092,10.1 C1095,7.2 1100.9,7.2 1103.8,10.1 C1106.8,13 1112.7,13 1115.6,10.1" id="Shape" stroke="#1D1D1D" stroke-width="3" mask="url(#mask-4)"></path>
                        </g>
                        <g id="Clipped" opacity="0.5" transform="translate(30.000000, 389.000000)">
                            <mask id="mask-6" fill="white">
                                <use xlink:href="#path-5"></use>
                            </mask>
                            <g id="SVGID_9_"></g>
                            <path d="M-48.2,10.1 C-45.2,7.2 -39.3,7.2 -36.4,10.1 C-33.4,13 -27.5,13 -24.6,10.1 C-21.6,7.2 -15.7,7.2 -12.8,10.1 C-9.8,13 -3.9,13 -1,10.1 C2,7.2 7.9,7.2 10.8,10.1 C13.8,13 19.7,13 22.6,10.1 C25.6,7.2 31.5,7.2 34.4,10.1 C37.4,13 43.3,13 46.2,10.1 C49.2,7.2 55.1,7.2 58,10.1 C61,13 66.9,13 69.8,10.1 C72.8,7.2 78.7,7.2 81.6,10.1 C84.6,13 90.5,13 93.4,10.1 C96.4,7.2 102.3,7.2 105.2,10.1 C108.2,13 114.1,13 117,10.1 C120,7.2 125.9,7.2 128.8,10.1 C131.8,13 137.7,13 140.6,10.1 C143.6,7.2 149.5,7.2 152.4,10.1 C155.4,13 161.3,13 164.2,10.1 C167.2,7.2 173.1,7.2 176,10.1 C179,13 184.9,13 187.8,10.1 C190.8,7.2 196.7,7.2 199.6,10.1 C202.6,13 208.5,13 211.4,10.1 C214.4,7.2 220.3,7.2 223.2,10.1 C226.2,13 232.1,13 235,10.1 C238,7.2 243.9,7.2 246.8,10.1 C249.8,13 255.7,13 258.6,10.1 C261.6,7.2 267.5,7.2 270.4,10.1 C273.4,13 279.3,13 282.2,10.1 C285.2,7.2 291.1,7.2 294,10.1 C297,13 302.9,13 305.8,10.1 C308.8,7.2 314.7,7.2 317.6,10.1 C320.6,13 326.5,13 329.4,10.1 C332.4,7.2 338.3,7.2 341.2,10.1 C344.2,13 350.1,13 353,10.1 C356,7.2 361.9,7.2 364.8,10.1 C367.8,13 373.7,13 376.6,10.1 C379.6,7.2 385.5,7.2 388.4,10.1 C391.4,13 397.3,13 400.2,10.1 C403.2,7.2 409.1,7.2 412,10.1 C415,13 420.9,13 423.8,10.1 C426.8,7.2 432.7,7.2 435.6,10.1 C438.6,13 444.5,13 447.4,10.1 C450.4,7.2 456.3,7.2 459.2,10.1 C462.2,13 468.1,13 471,10.1 C474,7.2 479.9,7.2 482.8,10.1 C485.8,13 491.7,13 494.6,10.1 C497.6,7.2 503.5,7.2 506.4,10.1 C509.4,13 515.3,13 518.2,10.1 C521.2,7.2 527.1,7.2 530,10.1 C533,13 538.9,13 541.8,10.1 C544.8,7.2 550.7,7.2 553.6,10.1 C556.6,13 562.5,13 565.4,10.1 C568.4,7.2 574.3,7.2 577.2,10.1 C580.2,13 586.1,13 589,10.1 C592,7.2 597.9,7.2 600.8,10.1 C603.8,13 609.7,13 612.6,10.1 C615.6,7.2 621.5,7.2 624.4,10.1 C627.4,13 633.3,13 636.2,10.1 C639.2,7.2 645.1,7.2 648,10.1 C651,13 656.9,13 659.8,10.1 C662.8,7.2 668.7,7.2 671.6,10.1 C674.6,13 680.5,13 683.4,10.1 C686.4,7.2 692.3,7.2 695.2,10.1 C698.2,13 704.1,13 707,10.1 C710,7.2 715.9,7.2 718.8,10.1 C721.8,13 727.7,13 730.6,10.1 C733.6,7.2 739.5,7.2 742.4,10.1 C745.4,13 751.3,13 754.2,10.1 C757.2,7.2 763.1,7.2 766,10.1 C769,13 774.9,13 777.8,10.1 C780.8,7.2 786.7,7.2 789.6,10.1 C792.6,13 798.5,13 801.4,10.1 C804.4,7.2 810.3,7.2 813.2,10.1 C816.2,13 822.1,13 825,10.1 C828,7.2 833.9,7.2 836.8,10.1 C839.8,13 845.7,13 848.6,10.1 C851.6,7.2 857.5,7.2 860.4,10.1 C863.4,13 869.3,13 872.2,10.1 C875.2,7.2 881.1,7.2 884,10.1 C887,13 892.9,13 895.8,10.1 C898.8,7.2 904.7,7.2 907.6,10.1 C910.6,13 916.5,13 919.4,10.1 C922.4,7.2 928.3,7.2 931.2,10.1 C934.2,13 940.1,13 943,10.1 C946,7.2 951.9,7.2 954.8,10.1 C957.8,13 963.7,13 966.6,10.1 C969.6,7.2 975.5,7.2 978.4,10.1 C981.4,13 987.3,13 990.2,10.1 C993.2,7.2 999.1,7.2 1002,10.1 C1005,13 1010.9,13 1013.8,10.1 C1016.8,7.2 1022.7,7.2 1025.6,10.1 C1028.6,13 1034.5,13 1037.4,10.1 C1040.4,7.2 1046.3,7.2 1049.2,10.1 C1052.2,13 1058.1,13 1061,10.1 C1064,7.2 1069.9,7.2 1072.8,10.1 C1075.8,13 1081.7,13 1084.6,10.1" id="Shape" stroke="#1D1D1D" stroke-width="3" mask="url(#mask-6)"></path>
                        </g>
                        <g id="Clipped" opacity="0.5" transform="translate(356.000000, 357.000000)">
                            <mask id="mask-8" fill="white">
                                <use xlink:href="#path-7"></use>
                            </mask>
                            <g id="SVGID_15_"></g>
                            <path d="M-99,12.1 C-96,9.2 -90.1,9.2 -87.2,12.1 C-84.2,15 -78.3,15 -75.4,12.1 C-72.4,9.2 -66.5,9.2 -63.6,12.1 C-60.6,15 -54.7,15 -51.8,12.1 C-48.8,9.2 -42.9,9.2 -40,12.1 C-37,15 -31.1,15 -28.2,12.1 C-25.2,9.2 -19.3,9.2 -16.4,12.1 C-13.4,15 -7.5,15 -4.6,12.1 C-1.6,9.2 4.3,9.2 7.2,12.1 C10.2,15 16.1,15 19,12.1 C22,9.2 27.9,9.2 30.8,12.1 C33.8,15 39.7,15 42.6,12.1 C45.6,9.2 51.5,9.2 54.4,12.1 C57.4,15 63.3,15 66.2,12.1 C69.2,9.2 75.1,9.2 78,12.1 C81,15 86.9,15 89.8,12.1 C92.8,9.2 98.7,9.2 101.6,12.1 C104.6,15 110.5,15 113.4,12.1 C116.4,9.2 122.3,9.2 125.2,12.1 C128.2,15 134.1,15 137,12.1 C140,9.2 145.9,9.2 148.8,12.1 C151.8,15 157.7,15 160.6,12.1 C163.6,9.2 169.5,9.2 172.4,12.1 C175.4,15 181.3,15 184.2,12.1 C187.2,9.2 193.1,9.2 196,12.1 C199,15 204.9,15 207.8,12.1 C210.8,9.2 216.7,9.2 219.6,12.1 C222.6,15 228.5,15 231.4,12.1 C234.4,9.2 240.3,9.2 243.2,12.1 C246.2,15 252.1,15 255,12.1 C258,9.2 263.9,9.2 266.8,12.1 C269.8,15 275.7,15 278.6,12.1 C281.6,9.2 287.5,9.2 290.4,12.1 C293.4,15 299.3,15 302.2,12.1 C305.2,9.2 311.1,9.2 314,12.1 C317,15 322.9,15 325.8,12.1 C328.8,9.2 334.7,9.2 337.6,12.1 C340.6,15 346.5,15 349.4,12.1 C352.4,9.2 358.3,9.2 361.2,12.1 C364.2,15 370.1,15 373,12.1 C376,9.2 381.9,9.2 384.8,12.1 C387.8,15 393.7,15 396.6,12.1 C399.6,9.2 405.5,9.2 408.4,12.1 C411.4,15 417.3,15 420.2,12.1 C423.2,9.2 429.1,9.2 432,12.1 C435,15 440.9,15 443.8,12.1 C446.8,9.2 452.7,9.2 455.6,12.1 C458.6,15 464.5,15 467.4,12.1 C470.4,9.2 476.3,9.2 479.2,12.1 C482.2,15 488.1,15 491,12.1 C494,9.2 499.9,9.2 502.8,12.1 C505.8,15 511.7,15 514.6,12.1 C517.6,9.2 523.5,9.2 526.4,12.1 C529.4,15 535.3,15 538.2,12.1 C541.2,9.2 547.1,9.2 550,12.1 C553,15 558.9,15 561.8,12.1 C564.8,9.2 570.7,9.2 573.6,12.1 C576.6,15 582.5,15 585.4,12.1 C588.4,9.2 594.3,9.2 597.2,12.1 C600.2,15 606.1,15 609,12.1 C612,9.2 617.9,9.2 620.8,12.1 C623.8,15 629.7,15 632.6,12.1 C635.6,9.2 641.5,9.2 644.4,12.1 C647.4,15 653.3,15 656.2,12.1 C659.2,9.2 665.1,9.2 668,12.1 C671,15 676.9,15 679.8,12.1 C682.8,9.2 688.7,9.2 691.6,12.1 C694.6,15 700.5,15 703.4,12.1 C706.4,9.2 712.3,9.2 715.2,12.1 C718.2,15 724.1,15 727,12.1 C730,9.2 735.9,9.2 738.8,12.1 C741.8,15 747.7,15 750.6,12.1 C753.6,9.2 759.5,9.2 762.4,12.1 C765.4,15 771.3,15 774.2,12.1 C777.2,9.2 783.1,9.2 786,12.1 C789,15 794.9,15 797.8,12.1 C800.8,9.2 806.7,9.2 809.6,12.1 C812.6,15 818.5,15 821.4,12.1 C824.4,9.2 830.3,9.2 833.2,12.1 C836.2,15 842.1,15 845,12.1 C848,9.2 853.9,9.2 856.8,12.1 C859.8,15 865.7,15 868.6,12.1 C871.6,9.2 877.5,9.2 880.4,12.1 C883.4,15 889.3,15 892.2,12.1 C895.2,9.2 901.1,9.2 904,12.1 C907,15 912.9,15 915.8,12.1 C918.8,9.2 924.7,9.2 927.6,12.1 C930.6,15 936.5,15 939.4,12.1 C942.4,9.2 948.3,9.2 951.2,12.1 C954.2,15 960.1,15 963,12.1 C966,9.2 971.9,9.2 974.8,12.1 C977.8,15 983.7,15 986.6,12.1 C989.6,9.2 995.5,9.2 998.4,12.1 C1001.4,15 1007.3,15 1010.2,12.1 C1013.2,9.2 1019.1,9.2 1022,12.1 C1025,15 1030.9,15 1033.8,12.1" id="Shape" stroke="#1D1D1D" stroke-width="3" mask="url(#mask-8)"></path>
                        </g>
                        <g id="Clipped" opacity="0.5" transform="translate(1120.000000, 357.000000)">
                            <mask id="mask-10" fill="white">
                                <use xlink:href="#path-9"></use>
                            </mask>
                            <g id="SVGID_15_"></g>
                            <path d="M-155,12.1 C-152,9.2 -146.1,9.2 -143.2,12.1 C-140.2,15 -134.3,15 -131.4,12.1 C-128.4,9.2 -122.5,9.2 -119.6,12.1 C-116.6,15 -110.7,15 -107.8,12.1 C-104.8,9.2 -98.9,9.2 -96,12.1 C-93,15 -87.1,15 -84.2,12.1 C-81.2,9.2 -75.3,9.2 -72.4,12.1 C-69.4,15 -63.5,15 -60.6,12.1 C-57.6,9.2 -51.7,9.2 -48.8,12.1 C-45.8,15 -39.9,15 -37,12.1 C-34,9.2 -28.1,9.2 -25.2,12.1 C-22.2,15 -16.3,15 -13.4,12.1 C-10.4,9.2 -4.5,9.2 -1.6,12.1 C1.4,15 7.3,15 10.2,12.1 C13.2,9.2 19.1,9.2 22,12.1 C25,15 30.9,15 33.8,12.1 C36.8,9.2 42.7,9.2 45.6,12.1 C48.6,15 54.5,15 57.4,12.1 C60.4,9.2 66.3,9.2 69.2,12.1 C72.2,15 78.1,15 81,12.1 C84,9.2 89.9,9.2 92.8,12.1 C95.8,15 101.7,15 104.6,12.1 C107.6,9.2 113.5,9.2 116.4,12.1 C119.4,15 125.3,15 128.2,12.1 C131.2,9.2 137.1,9.2 140,12.1 C143,15 148.9,15 151.8,12.1 C154.8,9.2 160.7,9.2 163.6,12.1 C166.6,15 172.5,15 175.4,12.1 C178.4,9.2 184.3,9.2 187.2,12.1 C190.2,15 196.1,15 199,12.1 C202,9.2 207.9,9.2 210.8,12.1 C213.8,15 219.7,15 222.6,12.1 C225.6,9.2 231.5,9.2 234.4,12.1 C237.4,15 243.3,15 246.2,12.1 C249.2,9.2 255.1,9.2 258,12.1 C261,15 266.9,15 269.8,12.1 C272.8,9.2 278.7,9.2 281.6,12.1 C284.6,15 290.5,15 293.4,12.1 C296.4,9.2 302.3,9.2 305.2,12.1 C308.2,15 314.1,15 317,12.1 C320,9.2 325.9,9.2 328.8,12.1 C331.8,15 337.7,15 340.6,12.1 C343.6,9.2 349.5,9.2 352.4,12.1 C355.4,15 361.3,15 364.2,12.1 C367.2,9.2 373.1,9.2 376,12.1 C379,15 384.9,15 387.8,12.1 C390.8,9.2 396.7,9.2 399.6,12.1 C402.6,15 408.5,15 411.4,12.1 C414.4,9.2 420.3,9.2 423.2,12.1 C426.2,15 432.1,15 435,12.1 C438,9.2 443.9,9.2 446.8,12.1 C449.8,15 455.7,15 458.6,12.1 C461.6,9.2 467.5,9.2 470.4,12.1 C473.4,15 479.3,15 482.2,12.1 C485.2,9.2 491.1,9.2 494,12.1 C497,15 502.9,15 505.8,12.1 C508.8,9.2 514.7,9.2 517.6,12.1 C520.6,15 526.5,15 529.4,12.1 C532.4,9.2 538.3,9.2 541.2,12.1 C544.2,15 550.1,15 553,12.1 C556,9.2 561.9,9.2 564.8,12.1 C567.8,15 573.7,15 576.6,12.1 C579.6,9.2 585.5,9.2 588.4,12.1 C591.4,15 597.3,15 600.2,12.1 C603.2,9.2 609.1,9.2 612,12.1 C615,15 620.9,15 623.8,12.1 C626.8,9.2 632.7,9.2 635.6,12.1 C638.6,15 644.5,15 647.4,12.1 C650.4,9.2 656.3,9.2 659.2,12.1 C662.2,15 668.1,15 671,12.1 C674,9.2 679.9,9.2 682.8,12.1 C685.8,15 691.7,15 694.6,12.1 C697.6,9.2 703.5,9.2 706.4,12.1 C709.4,15 715.3,15 718.2,12.1 C721.2,9.2 727.1,9.2 730,12.1 C733,15 738.9,15 741.8,12.1 C744.8,9.2 750.7,9.2 753.6,12.1 C756.6,15 762.5,15 765.4,12.1 C768.4,9.2 774.3,9.2 777.2,12.1 C780.2,15 786.1,15 789,12.1 C792,9.2 797.9,9.2 800.8,12.1 C803.8,15 809.7,15 812.6,12.1 C815.6,9.2 821.5,9.2 824.4,12.1 C827.4,15 833.3,15 836.2,12.1 C839.2,9.2 845.1,9.2 848,12.1 C851,15 856.9,15 859.8,12.1 C862.8,9.2 868.7,9.2 871.6,12.1 C874.6,15 880.5,15 883.4,12.1 C886.4,9.2 892.3,9.2 895.2,12.1 C898.2,15 904.1,15 907,12.1 C910,9.2 915.9,9.2 918.8,12.1 C921.8,15 927.7,15 930.6,12.1 C933.6,9.2 939.5,9.2 942.4,12.1 C945.4,15 951.3,15 954.2,12.1 C957.2,9.2 963.1,9.2 966,12.1 C969,15 974.9,15 977.8,12.1" id="Shape" stroke="#1D1D1D" stroke-width="3" mask="url(#mask-10)"></path>
                        </g>
                        <g id="Clipped" opacity="0.5" transform="translate(102.000000, 372.000000)">
                            <mask id="mask-12" fill="white">
                                <use xlink:href="#path-11"></use>
                            </mask>
                            <g id="SVGID_15_"></g>
                            <path d="M-101,12.1 C-98,9.2 -92.1,9.2 -89.2,12.1 C-86.2,15 -80.3,15 -77.4,12.1 C-74.4,9.2 -68.5,9.2 -65.6,12.1 C-62.6,15 -56.7,15 -53.8,12.1 C-50.8,9.2 -44.9,9.2 -42,12.1 C-39,15 -33.1,15 -30.2,12.1 C-27.2,9.2 -21.3,9.2 -18.4,12.1 C-15.4,15 -9.5,15 -6.6,12.1 C-3.6,9.2 2.3,9.2 5.2,12.1 C8.2,15 14.1,15 17,12.1 C20,9.2 25.9,9.2 28.8,12.1 C31.8,15 37.7,15 40.6,12.1 C43.6,9.2 49.5,9.2 52.4,12.1 C55.4,15 61.3,15 64.2,12.1 C67.2,9.2 73.1,9.2 76,12.1 C79,15 84.9,15 87.8,12.1 C90.8,9.2 96.7,9.2 99.6,12.1 C102.6,15 108.5,15 111.4,12.1 C114.4,9.2 120.3,9.2 123.2,12.1 C126.2,15 132.1,15 135,12.1 C138,9.2 143.9,9.2 146.8,12.1 C149.8,15 155.7,15 158.6,12.1 C161.6,9.2 167.5,9.2 170.4,12.1 C173.4,15 179.3,15 182.2,12.1 C185.2,9.2 191.1,9.2 194,12.1 C197,15 202.9,15 205.8,12.1 C208.8,9.2 214.7,9.2 217.6,12.1 C220.6,15 226.5,15 229.4,12.1 C232.4,9.2 238.3,9.2 241.2,12.1 C244.2,15 250.1,15 253,12.1 C256,9.2 261.9,9.2 264.8,12.1 C267.8,15 273.7,15 276.6,12.1 C279.6,9.2 285.5,9.2 288.4,12.1 C291.4,15 297.3,15 300.2,12.1 C303.2,9.2 309.1,9.2 312,12.1 C315,15 320.9,15 323.8,12.1 C326.8,9.2 332.7,9.2 335.6,12.1 C338.6,15 344.5,15 347.4,12.1 C350.4,9.2 356.3,9.2 359.2,12.1 C362.2,15 368.1,15 371,12.1 C374,9.2 379.9,9.2 382.8,12.1 C385.8,15 391.7,15 394.6,12.1 C397.6,9.2 403.5,9.2 406.4,12.1 C409.4,15 415.3,15 418.2,12.1 C421.2,9.2 427.1,9.2 430,12.1 C433,15 438.9,15 441.8,12.1 C444.8,9.2 450.7,9.2 453.6,12.1 C456.6,15 462.5,15 465.4,12.1 C468.4,9.2 474.3,9.2 477.2,12.1 C480.2,15 486.1,15 489,12.1 C492,9.2 497.9,9.2 500.8,12.1 C503.8,15 509.7,15 512.6,12.1 C515.6,9.2 521.5,9.2 524.4,12.1 C527.4,15 533.3,15 536.2,12.1 C539.2,9.2 545.1,9.2 548,12.1 C551,15 556.9,15 559.8,12.1 C562.8,9.2 568.7,9.2 571.6,12.1 C574.6,15 580.5,15 583.4,12.1 C586.4,9.2 592.3,9.2 595.2,12.1 C598.2,15 604.1,15 607,12.1 C610,9.2 615.9,9.2 618.8,12.1 C621.8,15 627.7,15 630.6,12.1 C633.6,9.2 639.5,9.2 642.4,12.1 C645.4,15 651.3,15 654.2,12.1 C657.2,9.2 663.1,9.2 666,12.1 C669,15 674.9,15 677.8,12.1 C680.8,9.2 686.7,9.2 689.6,12.1 C692.6,15 698.5,15 701.4,12.1 C704.4,9.2 710.3,9.2 713.2,12.1 C716.2,15 722.1,15 725,12.1 C728,9.2 733.9,9.2 736.8,12.1 C739.8,15 745.7,15 748.6,12.1 C751.6,9.2 757.5,9.2 760.4,12.1 C763.4,15 769.3,15 772.2,12.1 C775.2,9.2 781.1,9.2 784,12.1 C787,15 792.9,15 795.8,12.1 C798.8,9.2 804.7,9.2 807.6,12.1 C810.6,15 816.5,15 819.4,12.1 C822.4,9.2 828.3,9.2 831.2,12.1 C834.2,15 840.1,15 843,12.1 C846,9.2 851.9,9.2 854.8,12.1 C857.8,15 863.7,15 866.6,12.1 C869.6,9.2 875.5,9.2 878.4,12.1 C881.4,15 887.3,15 890.2,12.1 C893.2,9.2 899.1,9.2 902,12.1 C905,15 910.9,15 913.8,12.1 C916.8,9.2 922.7,9.2 925.6,12.1 C928.6,15 934.5,15 937.4,12.1 C940.4,9.2 946.3,9.2 949.2,12.1 C952.2,15 958.1,15 961,12.1 C964,9.2 969.9,9.2 972.8,12.1 C975.8,15 981.7,15 984.6,12.1 C987.6,9.2 993.5,9.2 996.4,12.1 C999.4,15 1005.3,15 1008.2,12.1 C1011.2,9.2 1017.1,9.2 1020,12.1 C1023,15 1028.9,15 1031.8,12.1" id="Shape" stroke="#1D1D1D" stroke-width="3" mask="url(#mask-12)"></path>
                        </g>
                        <g id="Clipped" opacity="0.5" transform="translate(759.000000, 371.000000)">
                            <mask id="mask-14" fill="white">
                                <use xlink:href="#path-13"></use>
                            </mask>
                            <g id="SVGID_17_"></g>
                            <path d="M-499,13.1 C-496,10.2 -490.1,10.2 -487.2,13.1 C-484.2,16 -478.3,16 -475.4,13.1 C-472.4,10.2 -466.5,10.2 -463.6,13.1 C-460.6,16 -454.7,16 -451.8,13.1 C-448.8,10.2 -442.9,10.2 -440,13.1 C-437,16 -431.1,16 -428.2,13.1 C-425.2,10.2 -419.3,10.2 -416.4,13.1 C-413.4,16 -407.5,16 -404.6,13.1 C-401.6,10.2 -395.7,10.2 -392.8,13.1 C-389.8,16 -383.9,16 -381,13.1 C-378,10.2 -372.1,10.2 -369.2,13.1 C-366.2,16 -360.3,16 -357.4,13.1 C-354.4,10.2 -348.5,10.2 -345.6,13.1 C-342.6,16 -336.7,16 -333.8,13.1 C-330.8,10.2 -324.9,10.2 -322,13.1 C-319,16 -313.1,16 -310.2,13.1 C-307.2,10.2 -301.3,10.2 -298.4,13.1 C-295.4,16 -289.5,16 -286.6,13.1 C-283.6,10.2 -277.7,10.2 -274.8,13.1 C-271.8,16 -265.9,16 -263,13.1 C-260,10.2 -254.1,10.2 -251.2,13.1 C-248.2,16 -242.3,16 -239.4,13.1 C-236.4,10.2 -230.5,10.2 -227.6,13.1 C-224.6,16 -218.7,16 -215.8,13.1 C-212.8,10.2 -206.9,10.2 -204,13.1 C-201,16 -195.1,16 -192.2,13.1 C-189.2,10.2 -183.3,10.2 -180.4,13.1 C-177.4,16 -171.5,16 -168.6,13.1 C-165.6,10.2 -159.7,10.2 -156.8,13.1 C-153.8,16 -147.9,16 -145,13.1 C-142,10.2 -136.1,10.2 -133.2,13.1 C-130.2,16 -124.3,16 -121.4,13.1 C-118.4,10.2 -112.5,10.2 -109.6,13.1 C-106.6,16 -100.7,16 -97.8,13.1 C-94.8,10.2 -88.9,10.2 -86,13.1 C-83,16 -77.1,16 -74.2,13.1 C-71.2,10.2 -65.3,10.2 -62.4,13.1 C-59.4,16 -53.5,16 -50.6,13.1 C-47.6,10.2 -41.7,10.2 -38.8,13.1 C-35.8,16 -29.9,16 -27,13.1 C-24,10.2 -18.1,10.2 -15.2,13.1 C-12.2,16 -6.3,16 -3.4,13.1 C-0.4,10.2 5.5,10.2 8.4,13.1 C11.4,16 17.3,16 20.2,13.1 C23.2,10.2 29.1,10.2 32,13.1 C35,16 40.9,16 43.8,13.1 C46.8,10.2 52.7,10.2 55.6,13.1 C58.6,16 64.5,16 67.4,13.1 C70.4,10.2 76.3,10.2 79.2,13.1 C82.2,16 88.1,16 91,13.1 C94,10.2 99.9,10.2 102.8,13.1 C105.8,16 111.7,16 114.6,13.1 C117.6,10.2 123.5,10.2 126.4,13.1 C129.4,16 135.3,16 138.2,13.1 C141.2,10.2 147.1,10.2 150,13.1 C153,16 158.9,16 161.8,13.1 C164.8,10.2 170.7,10.2 173.6,13.1 C176.6,16 182.5,16 185.4,13.1 C188.4,10.2 194.3,10.2 197.2,13.1 C200.2,16 206.1,16 209,13.1 C212,10.2 217.9,10.2 220.8,13.1 C223.8,16 229.7,16 232.6,13.1 C235.6,10.2 241.5,10.2 244.4,13.1 C247.4,16 253.3,16 256.2,13.1 C259.2,10.2 265.1,10.2 268,13.1 C271,16 276.9,16 279.8,13.1 C282.8,10.2 288.7,10.2 291.6,13.1 C294.6,16 300.5,16 303.4,13.1 C306.4,10.2 312.3,10.2 315.2,13.1 C318.2,16 324.1,16 327,13.1 C330,10.2 335.9,10.2 338.8,13.1 C341.8,16 347.7,16 350.6,13.1 C353.6,10.2 359.5,10.2 362.4,13.1 C365.4,16 371.3,16 374.2,13.1 C377.2,10.2 383.1,10.2 386,13.1 C389,16 394.9,16 397.8,13.1 C400.8,10.2 406.7,10.2 409.6,13.1 C412.6,16 418.5,16 421.4,13.1 C421.812031,12.7017031 422.278766,12.3581098 422.784919,12.0692201" id="Shape" stroke="#1D1D1D" stroke-width="3" mask="url(#mask-14)"></path>
                        </g>
                        <g id="Clipped" opacity="0.5" transform="translate(1362.000000, 371.000000)">
                            <mask id="mask-16" fill="white">
                                <use xlink:href="#path-15"></use>
                            </mask>
                            <g id="SVGID_17_"></g>
                            <path d="M-764,13.1 C-761,10.2 -755.1,10.2 -752.2,13.1 C-749.2,16 -743.3,16 -740.4,13.1 C-737.4,10.2 -731.5,10.2 -728.6,13.1 C-725.6,16 -719.7,16 -716.8,13.1 C-713.8,10.2 -707.9,10.2 -705,13.1 C-702,16 -696.1,16 -693.2,13.1 C-690.2,10.2 -684.3,10.2 -681.4,13.1 C-678.4,16 -672.5,16 -669.6,13.1 C-666.6,10.2 -660.7,10.2 -657.8,13.1 C-654.8,16 -648.9,16 -646,13.1 C-643,10.2 -637.1,10.2 -634.2,13.1 C-631.2,16 -625.3,16 -622.4,13.1 C-619.4,10.2 -613.5,10.2 -610.6,13.1 C-607.6,16 -601.7,16 -598.8,13.1 C-595.8,10.2 -589.9,10.2 -587,13.1 C-584,16 -578.1,16 -575.2,13.1 C-572.2,10.2 -566.3,10.2 -563.4,13.1 C-560.4,16 -554.5,16 -551.6,13.1 C-548.6,10.2 -542.7,10.2 -539.8,13.1 C-536.8,16 -530.9,16 -528,13.1 C-525,10.2 -519.1,10.2 -516.2,13.1 C-513.2,16 -507.3,16 -504.4,13.1 C-501.4,10.2 -495.5,10.2 -492.6,13.1 C-489.6,16 -483.7,16 -480.8,13.1 C-477.8,10.2 -471.9,10.2 -469,13.1 C-466,16 -460.1,16 -457.2,13.1 C-454.2,10.2 -448.3,10.2 -445.4,13.1 C-442.4,16 -436.5,16 -433.6,13.1 C-430.6,10.2 -424.7,10.2 -421.8,13.1 C-418.8,16 -412.9,16 -410,13.1 C-407,10.2 -401.1,10.2 -398.2,13.1 C-395.2,16 -389.3,16 -386.4,13.1 C-383.4,10.2 -377.5,10.2 -374.6,13.1 C-371.6,16 -365.7,16 -362.8,13.1 C-359.8,10.2 -353.9,10.2 -351,13.1 C-348,16 -342.1,16 -339.2,13.1 C-336.2,10.2 -330.3,10.2 -327.4,13.1 C-324.4,16 -318.5,16 -315.6,13.1 C-312.6,10.2 -306.7,10.2 -303.8,13.1 C-300.8,16 -294.9,16 -292,13.1 C-289,10.2 -283.1,10.2 -280.2,13.1 C-277.2,16 -271.3,16 -268.4,13.1 C-265.4,10.2 -259.5,10.2 -256.6,13.1 C-253.6,16 -247.7,16 -244.8,13.1 C-241.8,10.2 -235.9,10.2 -233,13.1 C-230,16 -224.1,16 -221.2,13.1 C-218.2,10.2 -212.3,10.2 -209.4,13.1 C-206.4,16 -200.5,16 -197.6,13.1 C-194.6,10.2 -188.7,10.2 -185.8,13.1 C-182.8,16 -176.9,16 -174,13.1 C-171,10.2 -165.1,10.2 -162.2,13.1 C-159.2,16 -153.3,16 -150.4,13.1 C-147.4,10.2 -141.5,10.2 -138.6,13.1 C-135.6,16 -129.7,16 -126.8,13.1 C-123.8,10.2 -117.9,10.2 -115,13.1 C-112,16 -106.1,16 -103.2,13.1 C-100.2,10.2 -94.3,10.2 -91.4,13.1 C-88.4,16 -82.5,16 -79.6,13.1 C-76.6,10.2 -70.7,10.2 -67.8,13.1 C-64.8,16 -58.9,16 -56,13.1 C-53,10.2 -47.1,10.2 -44.2,13.1 C-41.2,16 -35.3,16 -32.4,13.1 C-29.4,10.2 -23.5,10.2 -20.6,13.1 C-17.6,16 -11.7,16 -8.8,13.1 C-5.8,10.2 0.1,10.2 3,13.1 C6,16 11.9,16 14.8,13.1 C17.8,10.2 23.7,10.2 26.6,13.1 C29.6,16 35.5,16 38.4,13.1 C41.4,10.2 47.3,10.2 50.2,13.1 C53.2,16 59.1,16 62,13.1 C65,10.2 70.9,10.2 73.8,13.1 C76.8,16 82.7,16 85.6,13.1 C88.6,10.2 94.5,10.2 97.4,13.1 C100.4,16 106.3,16 109.2,13.1 C112.2,10.2 118.1,10.2 121,13.1 C124,16 129.9,16 132.8,13.1 C135.8,10.2 141.7,10.2 144.6,13.1 C147.6,16 153.5,16 156.4,13.1 C156.812031,12.7017031 157.278766,12.3581098 157.784919,12.0692201" id="Shape" stroke="#1D1D1D" stroke-width="3" mask="url(#mask-16)"></path>
                        </g>
                        <polyline id="Shape" stroke="#1D1D1D" stroke-width="3" points="0 155 207 155 239.5 300 252 300"></polyline>
                        <path d="M197,166 L197,146" id="Shape" stroke="#000000" stroke-width="3"></path>
                        <path d="M913,465 L901,465" id="Shape" stroke="#E63331" stroke-width="3"></path>
                        <path d="M913,470 L901,470" id="Shape" stroke="#E63331" stroke-width="3"></path>
                        <path d="M913,475 L901,475" id="Shape" stroke="#E63331" stroke-width="3"></path>
                        <g id="red1" transform="translate(868.000000, 457.000000)" stroke="#E63331">
                            <g id="Group-4" transform="translate(3.000000, 1.000000)">
                                <rect id="Rectangle-path" stroke-width="3" x="0" y="1" width="30" height="52" rx="4"></rect>
                                <path d="M6,0.217391304 L6,16.0434783" id="Shape" stroke-width="3"></path>
                                <path d="M30,17.5 L0,17.5" id="Shape" stroke-width="3"></path>
                                <path d="M30,35.5 L0,35.5" id="Shape" stroke-width="3"></path>
                                <path d="M30,29.5 L0,29.5" id="Shape" stroke-width="3"></path>
                                <path d="M30,23.5 L0,23.5" id="Shape" stroke-width="3"></path>
                                <path d="M12,0.217391304 L12,16.0434783" id="Shape" stroke-width="3"></path>
                                <path d="M18,0.217391304 L18,16.0434783" id="Shape" stroke-width="3"></path>
                                <path d="M24,0.217391304 L24,16.0434783" id="Shape" stroke-width="3"></path>
                                <path d="M10,35.9565217 L10,52.9565217" id="Shape" stroke-width="3"></path>
                                <path d="M20,35.9565217 L20,52.9565217" id="Shape" stroke-width="3"></path>
                            </g>
                        </g>
                        <g id="red1" transform="translate(910.000000, 457.000000)" stroke="#E63331">
                            <g id="Group-4" transform="translate(3.000000, 1.000000)">
                                <rect id="Rectangle-path" stroke-width="3" x="0" y="1" width="30" height="52" rx="4"></rect>
                                <path d="M6,0.217391304 L6,16.0434783" id="Shape" stroke-width="3"></path>
                                <path d="M30,17.5 L0,17.5" id="Shape" stroke-width="3"></path>
                                <path d="M30,35.5 L0,35.5" id="Shape" stroke-width="3"></path>
                                <path d="M30,29.5 L0,29.5" id="Shape" stroke-width="3"></path>
                                <path d="M30,23.5 L0,23.5" id="Shape" stroke-width="3"></path>
                                <path d="M12,0.217391304 L12,16.0434783" id="Shape" stroke-width="3"></path>
                                <path d="M18,0.217391304 L18,16.0434783" id="Shape" stroke-width="3"></path>
                                <path d="M24,0.217391304 L24,16.0434783" id="Shape" stroke-width="3"></path>
                                <path d="M10,35.9565217 L10,52.9565217" id="Shape" stroke-width="3"></path>
                                <path d="M20,35.9565217 L20,52.9565217" id="Shape" stroke-width="3"></path>
                            </g>
                        </g>
                        <g id="red1" transform="translate(868.000000, 516.000000)" stroke="#E63331">
                            <g id="Group-4" transform="translate(3.000000, 1.000000)">
                                <rect id="Rectangle-path" stroke-width="3" x="0" y="1" width="30" height="52" rx="4"></rect>
                                <path d="M6,0.217391304 L6,16.0434783" id="Shape" stroke-width="3"></path>
                                <path d="M30,17.5 L0,17.5" id="Shape" stroke-width="3"></path>
                                <path d="M30,35.5 L0,35.5" id="Shape" stroke-width="3"></path>
                                <path d="M30,29.5 L0,29.5" id="Shape" stroke-width="3"></path>
                                <path d="M30,23.5 L0,23.5" id="Shape" stroke-width="3"></path>
                                <path d="M12,0.217391304 L12,16.0434783" id="Shape" stroke-width="3"></path>
                                <path d="M18,0.217391304 L18,16.0434783" id="Shape" stroke-width="3"></path>
                                <path d="M24,0.217391304 L24,16.0434783" id="Shape" stroke-width="3"></path>
                                <path d="M10,35.9565217 L10,52.9565217" id="Shape" stroke-width="3"></path>
                                <path d="M20,35.9565217 L20,52.9565217" id="Shape" stroke-width="3"></path>
                            </g>
                        </g>
                        <g id="red1" transform="translate(910.000000, 516.000000)" stroke="#E63331">
                            <g id="Group-4" transform="translate(3.000000, 1.000000)">
                                <rect id="Rectangle-path" stroke-width="3" x="0" y="1" width="30" height="52" rx="4"></rect>
                                <path d="M6,0.217391304 L6,16.0434783" id="Shape" stroke-width="3"></path>
                                <path d="M30,17.5 L0,17.5" id="Shape" stroke-width="3"></path>
                                <path d="M30,35.5 L0,35.5" id="Shape" stroke-width="3"></path>
                                <path d="M30,29.5 L0,29.5" id="Shape" stroke-width="3"></path>
                                <path d="M30,23.5 L0,23.5" id="Shape" stroke-width="3"></path>
                                <path d="M12,0.217391304 L12,16.0434783" id="Shape" stroke-width="3"></path>
                                <path d="M18,0.217391304 L18,16.0434783" id="Shape" stroke-width="3"></path>
                                <path d="M24,0.217391304 L24,16.0434783" id="Shape" stroke-width="3"></path>
                                <path d="M10,35.9565217 L10,52.9565217" id="Shape" stroke-width="3"></path>
                                <path d="M20,35.9565217 L20,52.9565217" id="Shape" stroke-width="3"></path>
                            </g>
                        </g>
                        <path d="M912,524 L901,524" id="Shape" stroke="#E63331" stroke-width="3"></path>
                        <path d="M912,529 L901,529" id="Shape" stroke="#E63331" stroke-width="3"></path>
                        <path d="M912,534 L901,534" id="Shape" stroke="#E63331" stroke-width="3"></path>
                        <g id="Group-28" transform="translate(783.000000, 501.000000)">
                            <rect id="Rectangle-path" stroke="#E63331" stroke-width="3" fill="#E63331" x="0" y="0" width="72" height="18" rx="4"></rect>
                            <path d="M4,6 L4,16" id="Shape" stroke="#FFFFFF" stroke-width="3"></path>
                            <path d="M10,2 L10,16" id="Shape" stroke="#FFFFFF" stroke-width="3"></path>
                            <path d="M16,2 L16,16" id="Shape" stroke="#FFFFFF" stroke-width="3"></path>
                            <path d="M25,2 L25,16" id="Shape" stroke="#FFFFFF" stroke-width="5"></path>
                            <path d="M35,2 L35,16" id="Shape" stroke="#FFFFFF" stroke-width="5"></path>
                            <path d="M45,2 L45,16" id="Shape" stroke="#FFFFFF" stroke-width="5"></path>
                            <path d="M55,2 L55,16" id="Shape" stroke="#FFFFFF" stroke-width="5"></path>
                            <path d="M65,2 L65,16" id="Shape" stroke="#FFFFFF" stroke-width="5"></path>
                        </g>
                        <g id="Group-29" transform="translate(783.000000, 478.000000)" stroke-width="3">
                            <rect id="Rectangle-path" stroke="#E63331" fill="#E63331" x="0" y="0" width="51" height="17" rx="4"></rect>
                            <path d="M4,4 L4,12" id="Shape" stroke="#FFFFFF"></path>
                            <path d="M10,4 L10,12" id="Shape" stroke="#FFFFFF"></path>
                            <path d="M31,-4 L31,30" id="Shape" stroke="#FFFFFF" transform="translate(31.000000, 13.000000) rotate(-90.000000) translate(-31.000000, -13.000000) "></path>
                        </g>
                        <polygon id="Path-2" stroke="#1D1D1D" stroke-width="3" fill="#FFFFFF" stroke-linecap="round" stroke-linejoin="round" points="33 349 87.87 202.09 100.8 115.8 121.5 45 142.2 115.8 155.13 202.09 210 349 201.15 349 148.05 314.04 94.95 314.04 41.85 349"></polygon>
                        <path d="M48,314 L196,314" id="Line" stroke="#1D1D1D" stroke-width="3" stroke-linecap="square"></path>
                        <path d="M89,202 L155,202" id="Line" stroke="#1D1D1D" stroke-width="3" stroke-linecap="square"></path>
                        <path d="M74,243 L170,243" id="Line" stroke="#1D1D1D" stroke-width="3" stroke-linecap="square"></path>
                        <path d="M73,314 L196,245" id="Path-3" stroke="#1D1D1D" stroke-width="3" transform="translate(134.500000, 279.500000) scale(-1, 1) translate(-134.500000, -279.500000) "></path>
                        <path d="M73,243 L155,204" id="Path-3" stroke="#1D1D1D" stroke-width="3"></path>
                        <path d="M97,201 L154,146" id="Path-3" stroke="#1D1D1D" stroke-width="3" transform="translate(125.500000, 173.500000) scale(-1, 1) translate(-125.500000, -173.500000) "></path>
                        <path d="M97,145 L142,117" id="Path-3" stroke="#1D1D1D" stroke-width="3"></path>
                        <polygon id="Triangle-2" stroke="#1D1D1D" stroke-width="3" stroke-linejoin="round" points="142.933592 116.143581 228 146 15 146 100.465634 116"></polygon>
                        <polyline id="Shape" stroke="#1D1D1D" stroke-width="3" points="0 161 55 161 239.5 310 252 310"></polyline>
                        <path d="M718,361 L706,361 C692.8,361 682,371.8 682,385 L682,429" id="Shape" stroke="#E63331" stroke-width="3"></path>
                        <path d="M718,361 L735,361 C748.2,361 759,371.8 759,385 L759,415" id="Shape" stroke="#E63331" stroke-width="3"></path>
                        <path d="M497,663 L658,663 C671.2,663 682,652.2 682,639 L682,428" id="Shape" stroke="#E63331" stroke-width="3"></path>
                        <g id="Group" transform="translate(251.000000, 281.000000)" stroke="#E63331">
                            <rect id="Rectangle-path" stroke-width="3" fill="#FFFFFF" fill-rule="nonzero" x="0.3" y="0.1" width="67.8" height="68"></rect>
                            <path d="M11.4,44.8 L11.4,0.1" id="Shape" stroke-width="3"></path>
                            <path d="M22.8,44.8 L22.8,0.1" id="Shape" stroke-width="3"></path>
                            <path d="M34.1,44.8 L34.1,0.1" id="Shape" stroke-width="3"></path>
                            <path d="M45.4,44.8 L45.4,0.1" id="Shape" stroke-width="3"></path>
                            <path d="M56.8,44.8 L56.8,0.1" id="Shape" stroke-width="3"></path>
                            <path d="M68.1,58.9 L0.3,58.9" id="Shape" stroke-width="3"></path>
                            <path d="M68.1,47.6 L0.3,47.6" id="Shape" stroke-width="6"></path>
                        </g>
                        <path d="M1221,306 L1137,306 C1123.8,306 1113,316.8 1113,330 L1113,335" id="Shape" stroke="#E63331" stroke-width="3"></path>
                        <text id="Elektrisk-servicebt" opacity="0.5" font-family="ProximaNovaA-Bold, Proxima Nova Alt" font-size="16" font-weight="bold" fill="#1D1D1D">
                            <tspan x="540.546875" y="171">Elektrisk</tspan>
                            <tspan x="534.273438" y="189">servicebt</tspan>
                        </text>
                        <g id="Group-27" transform="translate(569.000000, 207.000000)">
                            <path d="M3,3 L3,50" id="Path-5" stroke="#8E8E8E" stroke-width="2"></path>
                            <circle id="Oval-3" fill="#8E8E8E" cx="3" cy="3" r="3"></circle>
                            <circle id="Oval-3" fill="#8E8E8E" cx="3" cy="50" r="3"></circle>
                        </g>
                        <g id="Group-27" transform="translate(1043.000000, 177.000000) rotate(-90.000000) translate(-1043.000000, -177.000000) translate(1040.000000, 169.000000)"></g>
                        <g id="Group-27" transform="translate(782.000000, 529.000000)">
                            <path d="M3,2.90913782 L3,98.9091378" id="Path-5" stroke="#8E8E8E" stroke-width="2"></path>
                            <circle id="Oval-3" fill="#8E8E8E" cx="3" cy="3" r="3"></circle>
                            <circle id="Oval-3" fill="#8E8E8E" cx="3" cy="100" r="3"></circle>
                        </g>
                        <g id="Group-27" transform="translate(757.000000, 458.000000)">
                            <path d="M3,2.44143046 L3,169.44143" id="Path-5" stroke="#8E8E8E" stroke-width="2"></path>
                            <circle id="Oval-3" fill="#8E8E8E" cx="3" cy="3" r="3"></circle>
                            <circle id="Oval-3" fill="#8E8E8E" cx="3" cy="171" r="3"></circle>
                        </g>
                        <g id="Group-27" transform="translate(284.000000, 207.000000)">
                            <path d="M3,3 L3,61" id="Path-5" stroke="#8E8E8E" stroke-width="2"></path>
                            <circle id="Oval-3" fill="#8E8E8E" cx="3" cy="3" r="3"></circle>
                            <circle id="Oval-3" fill="#8E8E8E" cx="3" cy="61" r="3"></circle>
                        </g>
                        <text id="200V-2000KVA" font-family="ProximaNovaA-Bold, Proxima Nova Alt" font-size="16" font-weight="bold" fill="#8E8E8E">
                            <tspan x="266.320312" y="171">200V</tspan>
                            <tspan x="251.183594" y="189">2000KVA</tspan>
                        </text>
                        <g id="Group-7" transform="translate(452.000000, 633.000000)">
                            <text id="1000--10,000m" font-family="ProximaNovaA-Bold, Proxima Nova Alt" font-size="16" font-weight="bold" fill="#8E8E8E">
                                <tspan x="17.4375" y="14">1000  10,000m</tspan>
                            </text>
                            <g id="Group-5" transform="translate(0.000000, 7.000000)" stroke="#8E8E8E" stroke-linecap="round" stroke-linejoin="round" stroke-width="1.8">
                                <path d="M0,3.5 L11,3.5" id="Stroke-6995"></path>
                                <path d="M3.82608696,7 L0,3.5" id="Stroke-6996"></path>
                                <path d="M0,3.5 L3.82608696,0" id="Stroke-6997"></path>
                            </g>
                            <g id="Group-5" transform="translate(150.500000, 10.500000) scale(-1, 1) translate(-150.500000, -10.500000) translate(145.000000, 7.000000)" stroke="#8E8E8E" stroke-linecap="round" stroke-linejoin="round" stroke-width="1.8">
                                <path d="M0,3.5 L11,3.5" id="Stroke-6995"></path>
                                <path d="M3.82608696,7 L0,3.5" id="Stroke-6996"></path>
                                <path d="M0,3.5 L3.82608696,0" id="Stroke-6997"></path>
                            </g>
                        </g>
                        <text id="DC400V-150KVA" font-family="ProximaNovaA-Bold, Proxima Nova Alt" font-size="16" font-weight="bold" fill="#8E8E8E">
                            <tspan x="622.109375" y="114">DC400V</tspan>
                            <tspan x="624.746094" y="132">150KVA</tspan>
                        </text>
                        <text id="Telecom" font-family="ProximaNovaA-Bold, Proxima Nova Alt" font-size="16" font-weight="bold" fill="#8E8E8E">
                            <tspan x="991.5" y="116">Telecom</tspan>
                        </text>
                        <text id="22KV" font-family="ProximaNovaA-Bold, Proxima Nova Alt" font-size="16" font-weight="bold" fill="#8E8E8E">
                            <tspan x="722.351562" y="656">22KV</tspan>
                        </text>
                        <text id="PMS" font-family="ProximaNovaA-Bold, Proxima Nova Alt" font-size="16" font-weight="bold" fill="#8E8E8E">
                            <tspan x="782.363281" y="656">PMS</tspan>
                        </text>
                        <text id="Motor" font-family="ProximaNovaA-Bold, Proxima Nova Alt" font-size="16" font-weight="bold" fill="#8E8E8E">
                            <tspan x="835.382812" y="656">Motor</tspan>
                        </text>
                        <text id="Feed" font-family="ProximaNovaA-Bold, Proxima Nova Alt" font-size="16" font-weight="bold" fill="#8E8E8E">
                            <tspan x="888.402344" y="423">Feed</tspan>
                        </text>
                        <text id="Converters" font-family="ProximaNovaA-Bold, Proxima Nova Alt" font-size="16" font-weight="bold" fill="#8E8E8E">
                            <tspan x="902.5625" y="656">Converters</tspan>
                        </text>
                        <g id="Clipped" opacity="0.5" transform="translate(362.000000, 341.000000)">
                            <mask id="mask-18" fill="white">
                                <use xlink:href="#path-17"></use>
                            </mask>
                            <g id="SVGID_3_"></g>
                            <path d="M-108,12.1 C-105,9.2 -99.1,9.2 -96.2,12.1 C-93.2,15 -87.3,15 -84.4,12.1 C-81.4,9.2 -75.5,9.2 -72.6,12.1 C-69.6,15 -63.7,15 -60.8,12.1 C-57.8,9.2 -51.9,9.2 -49,12.1 C-46,15 -40.1,15 -37.2,12.1 C-34.2,9.2 -28.3,9.2 -25.4,12.1 C-22.4,15 -16.5,15 -13.6,12.1 C-10.6,9.2 -4.7,9.2 -1.8,12.1 C1.2,15 7.1,15 10,12.1 C13,9.2 18.9,9.2 21.8,12.1 C24.8,15 30.7,15 33.6,12.1 C36.6,9.2 42.5,9.2 45.4,12.1 C48.4,15 54.3,15 57.2,12.1 C60.2,9.2 66.1,9.2 69,12.1 C72,15 77.9,15 80.8,12.1 C83.8,9.2 89.7,9.2 92.6,12.1 C95.6,15 101.5,15 104.4,12.1 C107.4,9.2 113.3,9.2 116.2,12.1 C119.2,15 125.1,15 128,12.1 C131,9.2 136.9,9.2 139.8,12.1 C142.8,15 148.7,15 151.6,12.1 C154.6,9.2 160.5,9.2 163.4,12.1 C166.4,15 172.3,15 175.2,12.1 C178.2,9.2 184.1,9.2 187,12.1 C190,15 195.9,15 198.8,12.1 C201.8,9.2 207.7,9.2 210.6,12.1 C213.6,15 219.5,15 222.4,12.1 C225.4,9.2 231.3,9.2 234.2,12.1 C237.2,15 243.1,15 246,12.1 C249,9.2 254.9,9.2 257.8,12.1 C260.8,15 266.7,15 269.6,12.1 C272.6,9.2 278.5,9.2 281.4,12.1 C284.4,15 290.3,15 293.2,12.1 C296.2,9.2 302.1,9.2 305,12.1 C308,15 313.9,15 316.8,12.1 C319.8,9.2 325.7,9.2 328.6,12.1 C331.6,15 337.5,15 340.4,12.1 C343.4,9.2 349.3,9.2 352.2,12.1 C355.2,15 361.1,15 364,12.1 C367,9.2 372.9,9.2 375.8,12.1 C378.8,15 384.7,15 387.6,12.1 C390.6,9.2 396.5,9.2 399.4,12.1 C402.4,15 408.3,15 411.2,12.1 C414.2,9.2 420.1,9.2 423,12.1 C426,15 431.9,15 434.8,12.1 C437.8,9.2 443.7,9.2 446.6,12.1 C449.6,15 455.5,15 458.4,12.1 C461.4,9.2 467.3,9.2 470.2,12.1 C473.2,15 479.1,15 482,12.1 C485,9.2 490.9,9.2 493.8,12.1 C496.8,15 502.7,15 505.6,12.1 C508.6,9.2 514.5,9.2 517.4,12.1 C520.4,15 526.3,15 529.2,12.1 C532.2,9.2 538.1,9.2 541,12.1 C544,15 549.9,15 552.8,12.1 C555.8,9.2 561.7,9.2 564.6,12.1 C567.6,15 573.5,15 576.4,12.1 C579.4,9.2 585.3,9.2 588.2,12.1 C591.2,15 597.1,15 600,12.1 C603,9.2 608.9,9.2 611.8,12.1 C614.8,15 620.7,15 623.6,12.1 C626.6,9.2 632.5,9.2 635.4,12.1 C638.4,15 644.3,15 647.2,12.1 C650.2,9.2 656.1,9.2 659,12.1 C662,15 667.9,15 670.8,12.1 C673.8,9.2 679.7,9.2 682.6,12.1 C685.6,15 691.5,15 694.4,12.1 C697.4,9.2 703.3,9.2 706.2,12.1 C709.2,15 715.1,15 718,12.1 C721,9.2 726.9,9.2 729.8,12.1 C732.8,15 738.7,15 741.6,12.1 C744.6,9.2 750.5,9.2 753.4,12.1 C756.4,15 762.3,15 765.2,12.1 C768.2,9.2 774.1,9.2 777,12.1 C780,15 785.9,15 788.8,12.1 C791.8,9.2 797.7,9.2 800.6,12.1 C803.6,15 809.5,15 812.4,12.1 C815.4,9.2 821.3,9.2 824.2,12.1 C827.2,15 833.1,15 836,12.1 C839,9.2 844.9,9.2 847.8,12.1 C850.8,15 856.7,15 859.6,12.1 C862.6,9.2 868.5,9.2 871.4,12.1 C874.4,15 880.3,15 883.2,12.1 C886.2,9.2 892.1,9.2 895,12.1 C898,15 903.9,15 906.8,12.1 C909.8,9.2 915.7,9.2 918.6,12.1 C921.6,15 927.5,15 930.4,12.1 C933.4,9.2 939.3,9.2 942.2,12.1 C945.2,15 951.1,15 954,12.1 C957,9.2 962.9,9.2 965.8,12.1 C968.8,15 974.7,15 977.6,12.1 C980.6,9.2 986.5,9.2 989.4,12.1 C992.4,15 998.3,15 1001.2,12.1 C1004.2,9.2 1010.1,9.2 1013,12.1 C1016,15 1021.9,15 1024.8,12.1" id="Shape" stroke="#1D1D1D" stroke-width="3" mask="url(#mask-18)"></path>
                        </g>
                        <path d="M1110,341 L850,341 C836.8,341 826,351.8 826,365 L826,483" id="Shape" stroke="#E63331" stroke-width="3" stroke-linecap="round" stroke-linejoin="round"></path>
                        <g id="Group-4" transform="translate(1102.000000, 335.000000)">
                            <rect id="Rectangle-path" stroke="#E63331" stroke-width="3" fill="#E63331" x="0" y="0" width="22" height="53" rx="4"></rect>
                            <rect id="Rectangle-path" fill="#FFFFFF" x="5" y="4" width="12" height="20" rx="2"></rect>
                        </g>
                        <rect id="Rectangle-path" stroke="#1D1D1D" stroke-width="3" fill="#1D1D1D" x="1158" y="337" width="46" height="20" rx="4"></rect>
                        <path d="M319,329 L356,329 C369.2,329 380,339.8 380,353 L380,415" id="Shape" stroke="#E63331" stroke-width="3"></path>
                        <g id="Clipped" opacity="0.5" transform="translate(1199.000000, 341.000000)">
                            <mask id="mask-20" fill="white">
                                <use xlink:href="#path-19"></use>
                            </mask>
                            <g id="SVGID_3_"></g>
                            <path d="M-343,12.1 C-340,9.2 -334.1,9.2 -331.2,12.1 C-328.2,15 -322.3,15 -319.4,12.1 C-316.4,9.2 -310.5,9.2 -307.6,12.1 C-304.6,15 -298.7,15 -295.8,12.1 C-292.8,9.2 -286.9,9.2 -284,12.1 C-281,15 -275.1,15 -272.2,12.1 C-269.2,9.2 -263.3,9.2 -260.4,12.1 C-257.4,15 -251.5,15 -248.6,12.1 C-245.6,9.2 -239.7,9.2 -236.8,12.1 C-233.8,15 -227.9,15 -225,12.1 C-222,9.2 -216.1,9.2 -213.2,12.1 C-210.2,15 -204.3,15 -201.4,12.1 C-198.4,9.2 -192.5,9.2 -189.6,12.1 C-186.6,15 -180.7,15 -177.8,12.1 C-174.8,9.2 -168.9,9.2 -166,12.1 C-163,15 -157.1,15 -154.2,12.1 C-151.2,9.2 -145.3,9.2 -142.4,12.1 C-139.4,15 -133.5,15 -130.6,12.1 C-127.6,9.2 -121.7,9.2 -118.8,12.1 C-115.8,15 -109.9,15 -107,12.1 C-104,9.2 -98.1,9.2 -95.2,12.1 C-92.2,15 -86.3,15 -83.4,12.1 C-80.4,9.2 -74.5,9.2 -71.6,12.1 C-68.6,15 -62.7,15 -59.8,12.1 C-56.8,9.2 -50.9,9.2 -48,12.1 C-45,15 -39.1,15 -36.2,12.1 C-33.2,9.2 -27.3,9.2 -24.4,12.1 C-21.4,15 -15.5,15 -12.6,12.1 C-9.6,9.2 -3.7,9.2 -0.8,12.1 C2.2,15 8.1,15 11,12.1 C14,9.2 19.9,9.2 22.8,12.1 C25.8,15 31.7,15 34.6,12.1 C37.6,9.2 43.5,9.2 46.4,12.1 C49.4,15 55.3,15 58.2,12.1 C61.2,9.2 67.1,9.2 70,12.1 C73,15 78.9,15 81.8,12.1 C84.8,9.2 90.7,9.2 93.6,12.1 C96.6,15 102.5,15 105.4,12.1 C108.4,9.2 114.3,9.2 117.2,12.1 C120.2,15 126.1,15 129,12.1 C132,9.2 137.9,9.2 140.8,12.1 C143.8,15 149.7,15 152.6,12.1 C155.6,9.2 161.5,9.2 164.4,12.1 C167.4,15 173.3,15 176.2,12.1 C179.2,9.2 185.1,9.2 188,12.1 C191,15 196.9,15 199.8,12.1 C202.8,9.2 208.7,9.2 211.6,12.1 C214.6,15 220.5,15 223.4,12.1 C226.4,9.2 232.3,9.2 235.2,12.1 C238.2,15 244.1,15 247,12.1 C250,9.2 255.9,9.2 258.8,12.1 C261.8,15 267.7,15 270.6,12.1 C273.6,9.2 279.5,9.2 282.4,12.1 C285.4,15 291.3,15 294.2,12.1 C297.2,9.2 303.1,9.2 306,12.1 C309,15 314.9,15 317.8,12.1 C320.8,9.2 326.7,9.2 329.6,12.1 C332.6,15 338.5,15 341.4,12.1 C344.4,9.2 350.3,9.2 353.2,12.1 C356.2,15 362.1,15 365,12.1 C368,9.2 373.9,9.2 376.8,12.1 C379.8,15 385.7,15 388.6,12.1 C391.6,9.2 397.5,9.2 400.4,12.1 C403.4,15 409.3,15 412.2,12.1 C415.2,9.2 421.1,9.2 424,12.1 C427,15 432.9,15 435.8,12.1 C438.8,9.2 444.7,9.2 447.6,12.1 C450.6,15 456.5,15 459.4,12.1 C462.4,9.2 468.3,9.2 471.2,12.1 C474.2,15 480.1,15 483,12.1 C486,9.2 491.9,9.2 494.8,12.1 C497.8,15 503.7,15 506.6,12.1 C509.6,9.2 515.5,9.2 518.4,12.1 C521.4,15 527.3,15 530.2,12.1 C533.2,9.2 539.1,9.2 542,12.1 C545,15 550.9,15 553.8,12.1 C556.8,9.2 562.7,9.2 565.6,12.1 C568.6,15 574.5,15 577.4,12.1 C580.4,9.2 586.3,9.2 589.2,12.1 C592.2,15 598.1,15 601,12.1 C604,9.2 609.9,9.2 612.8,12.1 C615.8,15 621.7,15 624.6,12.1 C627.6,9.2 633.5,9.2 636.4,12.1 C639.4,15 645.3,15 648.2,12.1 C651.2,9.2 657.1,9.2 660,12.1 C663,15 668.9,15 671.8,12.1 C674.8,9.2 680.7,9.2 683.6,12.1 C686.6,15 692.5,15 695.4,12.1 C698.4,9.2 704.3,9.2 707.2,12.1 C710.2,15 716.1,15 719,12.1 C722,9.2 727.9,9.2 730.8,12.1 C733.8,15 739.7,15 742.6,12.1 C745.6,9.2 751.5,9.2 754.4,12.1 C757.4,15 763.3,15 766.2,12.1 C769.2,9.2 775.1,9.2 778,12.1 C781,15 786.9,15 789.8,12.1" id="Shape" stroke="#1D1D1D" stroke-width="3" mask="url(#mask-20)"></path>
                        </g>
                        <path d="M45,166 L45,146" id="Shape" stroke="#1D1D1D" stroke-width="3"></path>
                        <path d="M1199,306 L1246,306 C1259.2,306 1270,316.8 1270,330 L1270,512" id="Shape" stroke="#E63331" stroke-width="3" stroke-linecap="round" stroke-linejoin="round"></path>
                    </g>
                    <g id="Group-26" transform="translate(651.000000, 150.000000)">
                        <polyline id="Path-5" stroke="#8E8E8E" stroke-width="2" points="3 3 3 100.067131 47.5000653 100.067131"></polyline>
                        <circle id="Oval-3" fill="#8E8E8E" cx="48" cy="100" r="3"></circle>
                        <circle id="Oval-3" fill="#8E8E8E" cx="3" cy="3" r="3"></circle>
                    </g>
                    <g id="Group-26" transform="translate(651.000000, 150.000000)">
                        <polyline id="Path-5" stroke="#8E8E8E" stroke-width="2" points="3 3 3 100.067131 47.5000653 100.067131"></polyline>
                        <circle id="Oval-3" fill="#8E8E8E" cx="48" cy="100" r="3"></circle>
                        <circle id="Oval-3" fill="#8E8E8E" cx="3" cy="3" r="3"></circle>
                    </g>
                    <g id="Group-33" transform="translate(796.000000, 581.000000)">
                        <path d="M3,3 L3,47" id="Path-5" stroke="#8E8E8E" stroke-width="2"></path>
                        <circle id="Oval-3" fill="#8E8E8E" cx="3" cy="3" r="3"></circle>
                        <circle id="Oval-3" fill="#8E8E8E" cx="3" cy="48" r="3"></circle>
                    </g>
                    <g id="Group-33" transform="translate(836.000000, 581.000000)">
                        <path d="M3,3 L3,47" id="Path-5" stroke="#8E8E8E" stroke-width="2"></path>
                        <circle id="Oval-3" fill="#8E8E8E" cx="3" cy="3" r="3"></circle>
                        <circle id="Oval-3" fill="#8E8E8E" cx="3" cy="48" r="3"></circle>
                    </g>
                    <g id="Group-33" transform="translate(904.000000, 581.000000)">
                        <path d="M3,3 L3,47" id="Path-5" stroke="#8E8E8E" stroke-width="2"></path>
                        <circle id="Oval-3" fill="#8E8E8E" cx="3" cy="3" r="3"></circle>
                        <circle id="Oval-3" fill="#8E8E8E" cx="3" cy="48" r="3"></circle>
                    </g>
                    <path d="M1037,179 L1050,179" id="Path-5" stroke="#8E8E8E" stroke-width="2"></path>
                    <circle id="Oval-3" fill="#8E8E8E" cx="1037" cy="179" r="3"></circle>
                </g>
            </g>
        </g>
    </g>
</svg>