<!-- Generated by IcoMoon.io -->
<svg version="1.1" xmlns="http://www.w3.org/2000/svg" width="28" height="32" viewBox="0 0 28 32">
<title>wealth</title>
<path d="M16.789 31.662c-0.373 0-0.676-0.303-0.676-0.676v-3.38c0-0.373 0.303-0.676 0.676-0.676h6.761c0.373 0 0.676 0.303 0.676 0.676v3.38c0 0.373-0.303 0.676-0.676 0.676h-6.761zM17.465 30.31h5.408v-2.028h-5.408v2.028zM23.099 27.606c0 0.373-0.303 0.676-0.676 0.676s-0.676-0.303-0.676-0.676v-1.725c0-0.18 0.072-0.353 0.2-0.48 0.037-0.036 0.037-0.036 0.203-0.201 0.221-0.219 0.221-0.219 0.534-0.529 0.553-0.548 1.106-1.095 1.621-1.607 0.878-0.871 1.55-1.538 1.948-1.935v-8.066c-0.078 0.048-0.161 0.115-0.247 0.204-0.731 0.753-1.218 2.613-1.218 5.889 0 0.179-0.071 0.351-0.198 0.478l-3.345 3.345c-0.48 0.48-1.289 0.032-1.137-0.629l0.777-3.386c0.212-0.885-0.285-1.141-0.676-0.534-0.116 0.18-0.253 0.449-0.404 0.789-0.141 0.32-0.291 0.695-0.446 1.114-0.193 0.521-0.384 1.081-0.564 1.642-0.063 0.196-0.12 0.379-0.171 0.542-0.013 0.042-0.024 0.079-0.034 0.11v4.98c0 0.373-0.303 0.676-0.676 0.676s-0.676-0.303-0.676-0.676v-5.079c0-0.065 0.009-0.13 0.028-0.192 0.012-0.040 0.034-0.113 0.065-0.215 0.052-0.169 0.111-0.356 0.176-0.558 0.186-0.578 0.383-1.156 0.583-1.698 0.164-0.443 0.324-0.844 0.477-1.191 0.176-0.399 0.343-0.725 0.503-0.974 1.261-1.958 3.676-0.71 3.129 1.574l-0.25 1.089 1.486-1.486c0.029-3.427 0.595-5.516 1.598-6.549 0.621-0.64 1.327-0.809 1.944-0.684 0.075 0.015 0.135 0.032 0.18 0.049 0.267 0.097 0.445 0.351 0.445 0.636v9.084c0 0.179-0.071 0.351-0.198 0.478-0.35 0.35-1.105 1.1-2.145 2.131-0.522 0.518-1.075 1.066-1.628 1.613-0.313 0.31-0.313 0.31-0.535 0.529-0.001 0.001-0.001 0.482-0.002 1.445zM4.394 31.662c-0.373 0-0.676-0.303-0.676-0.676v-3.38c0-0.373 0.303-0.676 0.676-0.676h6.761c0.373 0 0.676 0.303 0.676 0.676v3.38c0 0.373-0.303 0.676-0.676 0.676h-6.761zM5.070 30.31h5.408v-2.028h-5.408v2.028zM3.566 22.902c0.079 0.080 0.079 0.080 0.159 0.16 0.511 0.515 1.049 1.066 1.58 1.618 0.186 0.193 0.358 0.372 0.512 0.533 0.092 0.097 0.158 0.166 0.194 0.203 0.12 0.126 0.186 0.292 0.186 0.466v1.725c0 0.373-0.303 0.676-0.676 0.676s-0.676-0.303-0.676-0.676v-1.454c-0.157-0.164-0.328-0.342-0.513-0.534-0.528-0.547-1.061-1.094-1.567-1.604-0.078-0.079-0.078-0.079-0.157-0.158-0.929-0.933-1.64-1.613-2.021-1.923-0.158-0.128-0.249-0.321-0.249-0.524v-9.084c0-0.284 0.178-0.539 0.446-0.636 0.045-0.016 0.106-0.034 0.18-0.049 0.617-0.125 1.323 0.044 1.944 0.684 1.003 1.034 1.569 3.122 1.598 6.549l1.486 1.486-0.248-1.082c-0.548-2.29 1.867-3.538 3.128-1.58 0.16 0.249 0.326 0.575 0.503 0.974 0.154 0.348 0.313 0.748 0.477 1.191 0.2 0.542 0.398 1.12 0.583 1.698 0.065 0.202 0.124 0.39 0.176 0.558 0.031 0.102 0.053 0.175 0.065 0.215 0.019 0.062 0.028 0.127 0.028 0.192v5.079c0 0.373-0.303 0.676-0.676 0.676s-0.676-0.303-0.676-0.676v-4.98c-0.009-0.031-0.021-0.068-0.034-0.11-0.050-0.163-0.107-0.346-0.171-0.542-0.18-0.561-0.371-1.121-0.564-1.642-0.155-0.419-0.305-0.795-0.446-1.114-0.15-0.34-0.288-0.609-0.403-0.789-0.391-0.607-0.888-0.351-0.675 0.54l0.775 3.38c0.152 0.662-0.657 1.109-1.137 0.629l-3.345-3.345c-0.127-0.127-0.198-0.299-0.198-0.478 0-3.276-0.487-5.136-1.218-5.889-0.086-0.089-0.169-0.155-0.247-0.204v8.034c0.44 0.388 1.079 1.005 1.876 1.806zM22.764 5.408c0.372 0 0.673 0.303 0.673 0.676s-0.301 0.676-0.673 0.676h-17.584c-0.372 0-0.673-0.303-0.673-0.676s0.301-0.676 0.673-0.676h17.584zM21.898 6.134l-3.527-4.764h-8.797l-3.527 4.764 7.926 9.265 7.926-9.265zM13.464 16.892l-8.792-10.277c-0.209-0.244-0.221-0.604-0.030-0.862l4.058-5.48c0.127-0.172 0.326-0.273 0.537-0.273h9.468c0.211 0 0.41 0.101 0.537 0.273l4.058 5.48c0.191 0.258 0.179 0.618-0.030 0.862l-8.792 10.277c-0.268 0.314-0.747 0.314-1.015 0zM11.293 5.974l3.543 10.248c0.124 0.358-0.072 0.747-0.437 0.869s-0.762-0.070-0.886-0.429l-3.553-10.276-0.017-0.058-1.36-5.48c-0.091-0.368 0.139-0.738 0.513-0.828s0.753 0.136 0.844 0.504l1.353 5.451zM16.781 5.974l1.31-5.456c0.088-0.367 0.444-0.59 0.794-0.497s0.563 0.464 0.475 0.831l-1.315 5.48-0.013 0.047-3.235 10.276c-0.113 0.359-0.483 0.555-0.826 0.436s-0.53-0.506-0.417-0.865l3.227-10.253z"></path>
</svg>
