<svg xmlns="http://www.w3.org/2000/svg" width="22" height="32" viewBox="0 0 22 32"><title>baloon</title><path d="M5.189 31.784a.649.649 0 0 1-.649-.649V19.892c0-.358.29-.649.649-.649h11.243c.358 0 .649.29.649.649v11.243c0 .358-.29.649-.649.649H5.189zm.649-1.298h9.946V20.54H5.838v9.946zM.431 11.431a.648.648 0 1 1 .867-.965l9.946 8.932a.648.648 0 1 1-.867.965L.431 11.431zm10.813 8.932a.65.65 0 0 1-.867-.965l9.946-8.932a.65.65 0 0 1 .867.965l-9.946 8.932zm-1.082-9.552a.649.649 0 1 1 1.298 0v8.649a.649.649 0 1 1-1.298 0v-8.649zm5.622-2.191c-2.285 0-4.324 1.299-4.324 2.329h-1.297c0-1.03-2.04-2.329-4.324-2.329s-4.324 1.299-4.324 2.329H.218C.218 5.109 4.962.376 10.813.376S21.408 5.11 21.408 10.949h-1.297c0-1.03-2.04-2.329-4.324-2.329zm-4.325 2.328c0 .865-1.297.865-1.297 0 0-.563.238-1.111.649-1.603.411.492.649 1.04.649 1.603zm4.325-3.626c1.498 0 2.942.457 3.992 1.159-1.083-3.925-4.686-6.809-8.965-6.809S2.929 4.556 1.846 8.481c1.05-.702 2.494-1.159 3.992-1.159 2.049 0 3.998.854 4.973 2.023.975-1.168 2.924-2.023 4.973-2.023zm-14.27 3.626c0 .865-1.297.865-1.297 0 0-.923.639-1.805 1.63-2.467a9.256 9.256 0 0 0-.333 2.467zm19.891 0c0 .865-1.297.865-1.297 0 0-.854-.116-1.682-.333-2.467.991.663 1.63 1.544 1.63 2.467zm-11.243 8.944h1.297v10.811h-1.297zm-4.973 6.27v-1.297H16v1.297z"/></svg>