<svg width="1440" height="667" viewBox="0 0 1440 667" xmlns="http://www.w3.org/2000/svg" xmlns:xlink="http://www.w3.org/1999/xlink"><title>Group 25</title><defs><path id="a" d="M0 .4h399v22.1H0z"/><path id="c" d="M0 .4h585v22.1H0z"/><path id="e" d="M0 .4h750.1v22.1H0z"/><path id="g" d="M0 .4h341v22.1H0z"/><path id="i" d="M0 .4h656v22.1H0z"/><path id="k" d="M0 .4h431v22.1H0z"/><path id="m" d="M0 .4h98v22.1H0z"/><path id="o" d="M0 .4h743v22.1H0z"/><path id="q" d="M0 .4h200v22.1H0z"/></defs><g transform="translate(-4 2)" fill="none" fill-rule="evenodd"><g transform="matrix(-1 0 0 1 1052 131)"><path stroke="#8E8E8E" stroke-width="2" d="M3 4v123.067h84.5"/><circle fill="#8E8E8E" cx="86" cy="127" r="3"/><circle fill="#8E8E8E" cx="3" cy="3" r="3"/></g><path d="M693.4 162.9l-15.3 7.3c-.6.3-.9 1.1-.6 1.7l2.8 6.1c.3.7 1.1.9 1.8.6l15.3-7.3c.6-.3.9-1.1.6-1.7l-2.8-6.1c-.4-.6-1.2-.9-1.8-.6zm-1.9 11.3c1.1.3 1.8 1.3 1.8 2.5 0 1.4-1.2 2.6-2.6 2.6-1.4 0-2.6-1.2-2.6-2.6 0-.3.1-.6.2-.9m2.4 4.2v5h10.4m-21.5-8.3l-5.2 4.6-3.3-7.2 6.5-1.3m324-9.9l15.3 7.3c.6.3.9 1.1.6 1.7l-2.8 6.1c-.3.7-1.1.9-1.8.6l-15.3-7.3c-.6-.3-.9-1.1-.6-1.7l2.8-6.1c.4-.6 1.2-.9 1.8-.6zm1.9 11.3c-1.1.3-1.8 1.3-1.8 2.5 0 1.4 1.2 2.6 2.6 2.6 1.4 0 2.6-1.2 2.6-2.6 0-.3-.1-.6-.2-.9m-2.4 4.2v5h-10.4m21.5-8.3l5.2 4.6 3.3-7.2-6.5-1.3M668 299.452s45.442 15.513 56.428-1.216c5.9-8.985-.2-17.236-.2-17.236" stroke="#E63331" stroke-linecap="round" stroke-linejoin="round" stroke-width="3"/><rect stroke="#1D1D1D" stroke-width="3" x="565" y="285" width="14" height="12" rx="4"/><rect stroke="#1D1D1D" stroke-width="3" x="646" y="285" width="14" height="12" rx="4"/><path stroke="#1D1D1D" stroke-width="3" stroke-linecap="round" stroke-linejoin="round" d="M667.427 314v-32.5h14.045l8.528-5-77.25-16.5L536 276.5l8.528 5h13.544V314"/><rect stroke="#1D1D1D" stroke-width="3" x="586" y="285" width="53" height="12" rx="4"/><path stroke="#1D1D1D" stroke-width="3" fill="#FFF" fill-rule="nonzero" stroke-linecap="round" stroke-linejoin="round" d="M547 339v-19.817L612 291l65 28.183V339"/><path d="M612 292v47m339.543-29V207h34.165L994 185H701l8.491 22h33.266v103z" stroke="#1D1D1D" stroke-width="3" stroke-linecap="round" stroke-linejoin="round"/><path d="M716 234h14a4 4 0 0 1 4 4v72h-22v-72a4 4 0 0 1 4-4z" stroke="#E63331" stroke-width="3" stroke-linecap="round" stroke-linejoin="round"/><path stroke="#E63331" stroke-width="3" stroke-linecap="round" stroke-linejoin="round" d="M720 244h8v28h-8z"/><rect stroke="#E63331" stroke-width="3" x="750" y="416" width="67" height="32" rx="4"/><path stroke="#E63331" stroke-width="3" stroke-linecap="round" stroke-linejoin="round" d="M775 415v-16h-6v16m18 0v-16h-6v16m18 0v-16h-6v16"/><path d="M759 425v14m6-14v14m6-14v14m6-14v14m6-14v14m6-14v14m6-14v14m6-14v14m6-14v14" stroke="#E63331" stroke-width="3"/><rect stroke="#E63331" stroke-width="3" fill="#E63331" x="783" y="456" width="36" height="16" rx="4"/><path d="M955.513 377.105h31.39L995 317H700l8.097 60.105h31.49V550.71c-3 5.009-4.699 10.92-4.699 17.23 0 18.833 15.195 34.06 33.989 34.06h156.747c18.793 0 33.988-15.026 33.988-33.86 0-6.21-4.299-16.829-4.299-16.829l.2-174.206z" stroke="#1D1D1D" stroke-width="3" stroke-linecap="round" stroke-linejoin="round"/><g transform="translate(756 225)" stroke-width="3"><path d="M140 30H0m34 30.1V.1M69 60V0m37 60.1V.1" stroke="#1D1D1D"/><rect stroke="#000" width="140" height="60" rx="4"/></g><path d="M1095 327h75c6.6 0 12 5.4 12 12v6" stroke="#000" stroke-width="2.996"/><path d="M498 663h-94c-13.2 0-24-10.8-24-24V412" stroke="#E63331" stroke-width="3"/><path d="M907 396v-57c0-6.6 5.4-12 12-12h176" stroke="#1D1D1D" stroke-width="3"/><path d="M907 534v-92" stroke="#E63331" stroke-width="3"/><rect stroke="#1D1D1D" stroke-width="3" x="874" y="396" width="64" height="46" rx="4"/><path d="M1088 497V370c0-6.6 5.4-12 12-12h6" stroke="#000" stroke-width="2.996"/><path d="M1104 507v-46c0-4.4-3.6-8-8-8s-8 3.6-8 8v46c0 4.4 3.6 8 8 8s8-3.6 8-8z" stroke="#000" stroke-width="2.963"/><path d="M1406.112 363h-272.605c-11.683 0-21.507 10.307-21.507 23.516v197.132c0 10.107 5.93 18.513 13.807 22.515 0 0 122.584 54.837 144.002 54.837 21.42 0 144.091-54.837 144.091-54.837 7.877-4.002 13.1-12.408 13.1-22.515V386.516c.088-13.21-9.205-23.516-20.888-23.516z" stroke="#000" stroke-width="3"/><ellipse stroke="#1D1D1D" stroke-width="6" fill="#FFF" fill-rule="nonzero" cx="1269.5" cy="362" rx="149.5" ry="23"/><path d="M0 371h346.022c4.494 0 15.978-5.946 15.978-14.37 0-14.406-24.633-21.177-73.898-20.315L0 327" stroke="#1D1D1D" stroke-width="3"/><g stroke="#E63331"><g transform="translate(1250 521)"><circle stroke-width="2.996" cx="20" cy="20" r="11"/><circle stroke-width="2.996" cx="20" cy="20" r="5"/><path d="M20 0v8m20 12h-8M0 20h8m12 12v8" stroke-linecap="round" stroke-linejoin="round" stroke-width="3"/></g><path d="M1284.142 526.858l-5.657 5.657m5.657 22.627l-5.657-5.657m-22.627-22.627l5.657 5.657m0 16.97l-5.657 5.657" stroke-linecap="round" stroke-linejoin="round" stroke-width="3"/></g><g fill-rule="nonzero"><path d="M806 568v-26c0-1.1-.9-2-2-2h-10c-1.1 0-2 .9-2 2v26c0 1.1.9 2 2 2h10c1.1 0 2-.9 2-2z" stroke="#E63331" stroke-width="2.963" fill="#E63331"/><path d="M805 563v-20c0-1.1-.923-2-2.051-2h-7.898c-1.128 0-2.051.9-2.051 2v20c0 1.1.923 2 2.051 2h7.898c1.128 0 2.051-.9 2.051-2z" fill="#FFF"/><path d="M802 552v-12h-6v12c0 1.1.9 2 2 2h2c1.1 0 2-.9 2-2z" fill="#E63331"/></g><g transform="translate(813 540)"><path d="M16 18V2c0-1.1-.9-2-2-2H2C.9 0 0 .9 0 2v16c0 1.1.9 2 2 2h12c1.1 0 2-.9 2-2z" stroke="#E63331" stroke-width="3" fill="#E63331"/><rect fill="#FFF" x="1" y="1" width="14" height="7" rx="2"/><path d="M8 30V18" stroke="#E63331" stroke-width="3" stroke-linecap="round" stroke-linejoin="round"/></g><g transform="translate(832 547)"><circle fill="#E63331" fill-rule="nonzero" cx="11" cy="14" r="9"/><circle fill="#FFF" fill-rule="nonzero" cx="11" cy="14" r="3"/><path d="M17 4V2c0-1.1-.9-2-2-2H7C5.9 0 5 .9 5 2v2c0 1.1.9 2 2 2h8c1.1 0 2-.9 2-2z" stroke="#E63331" stroke-width="3"/><path d="M8 22c0-1.1-.9-2-2-2H2c-1.1 0-2 .9-2 2s.9 2 2 2h4c1.1 0 2-.9 2-2zm14 0c0-1.1-.9-2-2-2h-4c-1.1 0-2 .9-2 2s.9 2 2 2h4c1.1 0 2-.9 2-2zm2-11v-1c0-.6-.4-1-1-1h-4c-.6 0-1 .4-1 1v1c0 .6.4 1 1 1h4c.6 0 1-.4 1-1z" fill="#E63331" fill-rule="nonzero"/></g><g transform="translate(387 74)"><path d="M66 .8H1.5c-.6 0-1 .4-1 1v13.7c0 .6.4 1 1 1H66c.6 0 1-.4 1-1V1.8c0-.5-.4-1-1-1z" stroke="#000" stroke-width="3" stroke-linecap="round" stroke-linejoin="round"/><circle fill="#000" fill-rule="nonzero" cx="8.3" cy="8.7" r="2"/><path d="M43.5 8.7h15.7" stroke="#000" stroke-width="3" stroke-linecap="round" stroke-linejoin="round"/></g><g transform="translate(387 59)"><path d="M66 .2H1.5c-.6 0-1 .4-1 1v13.7c0 .6.4 1 1 1H66c.6 0 1-.4 1-1V1.2c0-.6-.4-1-1-1z" stroke="#000" stroke-width="3" stroke-linecap="round" stroke-linejoin="round"/><circle fill="#000" fill-rule="nonzero" cx="8.3" cy="8" r="2"/><path d="M43.5 8h15.7" stroke="#000" stroke-width="3" stroke-linecap="round" stroke-linejoin="round"/></g><path d="M461.8 62.7c8.9-1.8 15.7-9.7 15.7-19.2 0-10.8-8.8-19.6-19.6-19.6h-.3C455.7 10.6 444.3.4 430.5.4c-15.1 0-27.4 12.3-27.4 27.4 0 1.3.1 2.7.3 3.9h-.3c-8.6 0-15.7 7-15.7 15.7 0 1.5.3 3 .7 4.4" stroke="#000" stroke-width="3" stroke-linecap="round" stroke-linejoin="round"/><g transform="translate(421 17)" stroke="#000" stroke-linecap="round" stroke-linejoin="round" stroke-width="3"><path d="M.7 28.7V12.4h17.7v16.3H.7m8.8-6.4v-3.4"/><circle cx="9.5" cy="18.9" r="1.1"/><path d="M2.9 12.4V7.2a6.7 6.7 0 0 1 13.4 0v5.2"/></g><g transform="translate(487 59)" stroke="#000" stroke-linecap="round" stroke-linejoin="round" stroke-width="3"><path d="M47.7 5C48.9 29.5 30 48.4 5.4 47.3M36.2 4.5C37.1 22.7 23 36.7 4.8 35.9m20-32c.6 11.9-8.6 21-20.4 20.4"/><circle cx="6.5" cy="6.1" r="6"/></g><g transform="translate(320 59)" stroke="#000" stroke-linecap="round" stroke-linejoin="round" stroke-width="3"><path d="M.3 5C-.9 29.5 18 48.4 42.6 47.3M11.8 4.5C10.9 22.7 25 36.7 43.2 35.9m-20-32c-.6 11.9 8.6 21 20.4 20.4"/><circle cx="41.5" cy="6.1" r="6"/></g><path d="M939 270v-20c0-1.1-.9-2-2-2h-16c-1.1 0-2 .9-2 2v20c0 1.1.9 2 2 2h16c1.1 0 2-.9 2-2z" stroke="#E63331" stroke-width="3"/><path d="M930.2 248v-4.5c0-1.1-.9-2-2-2h-4c-1.1 0-2 .9-2 2v4.5c0 1.1.9 2 2 2v5.1c-1.1 0-2 .9-2 2v4.5c0 1.1.9 2 2 2h4c1.1 0 2-.9 2-2V257c0-1.1-.9-2-2-2v-5c1.1 0 2-.9 2-2z" fill="#FFF" fill-rule="nonzero"/><path d="M930.2 248v-4.5c0-1.1-.9-2-2-2h-4c-1.1 0-2 .9-2 2v4.5c0 1.1.9 2 2 2v5.1c-1.1 0-2 .9-2 2v4.5c0 1.1.9 2 2 2h4c1.1 0 2-.9 2-2V257c0-1.1-.9-2-2-2v-5c1.1 0 2-.9 2-2z" stroke="#E63331" stroke-width="3"/><path d="M934 264c0 2.256-1.744 4-4 4-2.256 0-4-1.744-4-4" stroke="#E63331" stroke-width="3" stroke-linecap="round" stroke-linejoin="round"/><g opacity=".5" transform="translate(1061 389)"><mask id="b" fill="#fff"><use xlink:href="#a"/></mask><path d="M-17.2 10.1c3-2.9 8.9-2.9 11.8 0 3 2.9 8.9 2.9 11.8 0 3-2.9 8.9-2.9 11.8 0 3 2.9 8.9 2.9 11.8 0 3-2.9 8.9-2.9 11.8 0 3 2.9 8.9 2.9 11.8 0 3-2.9 8.9-2.9 11.8 0 3 2.9 8.9 2.9 11.8 0 3-2.9 8.9-2.9 11.8 0 3 2.9 8.9 2.9 11.8 0 3-2.9 8.9-2.9 11.8 0 3 2.9 8.9 2.9 11.8 0 3-2.9 8.9-2.9 11.8 0 3 2.9 8.9 2.9 11.8 0 3-2.9 8.9-2.9 11.8 0 3 2.9 8.9 2.9 11.8 0 3-2.9 8.9-2.9 11.8 0 3 2.9 8.9 2.9 11.8 0 3-2.9 8.9-2.9 11.8 0 3 2.9 8.9 2.9 11.8 0 3-2.9 8.9-2.9 11.8 0 3 2.9 8.9 2.9 11.8 0 3-2.9 8.9-2.9 11.8 0 3 2.9 8.9 2.9 11.8 0 3-2.9 8.9-2.9 11.8 0 3 2.9 8.9 2.9 11.8 0 3-2.9 8.9-2.9 11.8 0 3 2.9 8.9 2.9 11.8 0 3-2.9 8.9-2.9 11.8 0 3 2.9 8.9 2.9 11.8 0 3-2.9 8.9-2.9 11.8 0 3 2.9 8.9 2.9 11.8 0 3-2.9 8.9-2.9 11.8 0 3 2.9 8.9 2.9 11.8 0 3-2.9 8.9-2.9 11.8 0 3 2.9 8.9 2.9 11.8 0 3-2.9 8.9-2.9 11.8 0 3 2.9 8.9 2.9 11.8 0 3-2.9 8.9-2.9 11.8 0 3 2.9 8.9 2.9 11.8 0 3-2.9 8.9-2.9 11.8 0 3 2.9 8.9 2.9 11.8 0 3-2.9 8.9-2.9 11.8 0 3 2.9 8.9 2.9 11.8 0 3-2.9 8.9-2.9 11.8 0 3 2.9 8.9 2.9 11.8 0 3-2.9 8.9-2.9 11.8 0 3 2.9 8.9 2.9 11.8 0 3-2.9 8.9-2.9 11.8 0 3 2.9 8.9 2.9 11.8 0 3-2.9 8.9-2.9 11.8 0 3 2.9 8.9 2.9 11.8 0 3-2.9 8.9-2.9 11.8 0 3 2.9 8.9 2.9 11.8 0 3-2.9 8.9-2.9 11.8 0 3 2.9 8.9 2.9 11.8 0 3-2.9 8.9-2.9 11.8 0 3 2.9 8.9 2.9 11.8 0 3-2.9 8.9-2.9 11.8 0 3 2.9 8.9 2.9 11.8 0 3-2.9 8.9-2.9 11.8 0 3 2.9 8.9 2.9 11.8 0 3-2.9 8.9-2.9 11.8 0 3 2.9 8.9 2.9 11.8 0 3-2.9 8.9-2.9 11.8 0 3 2.9 8.9 2.9 11.8 0 3-2.9 8.9-2.9 11.8 0 3 2.9 8.9 2.9 11.8 0 3-2.9 8.9-2.9 11.8 0 3 2.9 8.9 2.9 11.8 0 3-2.9 8.9-2.9 11.8 0 3 2.9 8.9 2.9 11.8 0 3-2.9 8.9-2.9 11.8 0 3 2.9 8.9 2.9 11.8 0 3-2.9 8.9-2.9 11.8 0 3 2.9 8.9 2.9 11.8 0 3-2.9 8.9-2.9 11.8 0 3 2.9 8.9 2.9 11.8 0 3-2.9 8.9-2.9 11.8 0 3 2.9 8.9 2.9 11.8 0 3-2.9 8.9-2.9 11.8 0 3 2.9 8.9 2.9 11.8 0 3-2.9 8.9-2.9 11.8 0 3 2.9 8.9 2.9 11.8 0 3-2.9 8.9-2.9 11.8 0 3 2.9 8.9 2.9 11.8 0 3-2.9 8.9-2.9 11.8 0 3 2.9 8.9 2.9 11.8 0 3-2.9 8.9-2.9 11.8 0 3 2.9 8.9 2.9 11.8 0 3-2.9 8.9-2.9 11.8 0 3 2.9 8.9 2.9 11.8 0 3-2.9 8.9-2.9 11.8 0 3 2.9 8.9 2.9 11.8 0 3-2.9 8.9-2.9 11.8 0 3 2.9 8.9 2.9 11.8 0" stroke="#1D1D1D" stroke-width="3" mask="url(#b)"/></g><g opacity=".5" transform="translate(30 389)"><mask id="d" fill="#fff"><use xlink:href="#c"/></mask><path d="M-47.157 11.178l-2.086-2.156c3.585-3.465 10.42-3.465 13.886 0 2.415 2.335 7.38 2.335 9.714 0 3.585-3.465 10.42-3.465 13.886 0 2.415 2.335 7.38 2.335 9.714 0 3.585-3.465 10.42-3.465 13.886 0 2.415 2.335 7.38 2.335 9.714 0 3.585-3.465 10.42-3.465 13.886 0 2.415 2.335 7.38 2.335 9.714 0 3.585-3.465 10.42-3.465 13.886 0 2.415 2.335 7.38 2.335 9.714 0 3.585-3.465 10.42-3.465 13.886 0 2.415 2.335 7.38 2.335 9.714 0 3.585-3.465 10.42-3.465 13.886 0 2.415 2.335 7.38 2.335 9.714 0 3.585-3.465 10.42-3.465 13.886 0 2.415 2.335 7.38 2.335 9.714 0 3.585-3.465 10.42-3.465 13.886 0 2.415 2.335 7.38 2.335 9.714 0 3.585-3.465 10.42-3.465 13.886 0 2.415 2.335 7.38 2.335 9.714 0 3.585-3.465 10.42-3.465 13.886 0 2.415 2.335 7.38 2.335 9.714 0 3.585-3.465 10.42-3.465 13.886 0 2.415 2.335 7.38 2.335 9.714 0 3.585-3.465 10.42-3.465 13.886 0 2.415 2.335 7.38 2.335 9.714 0 3.585-3.465 10.42-3.465 13.886 0 2.415 2.335 7.38 2.335 9.714 0 3.585-3.465 10.42-3.465 13.886 0 2.415 2.335 7.38 2.335 9.714 0 3.585-3.465 10.42-3.465 13.886 0 2.415 2.335 7.38 2.335 9.714 0 3.585-3.465 10.42-3.465 13.886 0 2.415 2.335 7.38 2.335 9.714 0 3.585-3.465 10.42-3.465 13.886 0 2.415 2.335 7.38 2.335 9.714 0 3.585-3.465 10.42-3.465 13.886 0 2.415 2.335 7.38 2.335 9.714 0 3.585-3.465 10.42-3.465 13.886 0 2.415 2.335 7.38 2.335 9.714 0 3.585-3.465 10.42-3.465 13.886 0 2.415 2.335 7.38 2.335 9.714 0 3.585-3.465 10.42-3.465 13.886 0 2.415 2.335 7.38 2.335 9.714 0 3.585-3.465 10.42-3.465 13.886 0 2.415 2.335 7.38 2.335 9.714 0 3.585-3.465 10.42-3.465 13.886 0 2.415 2.335 7.38 2.335 9.714 0 3.585-3.465 10.42-3.465 13.886 0 2.415 2.335 7.38 2.335 9.714 0 3.585-3.465 10.42-3.465 13.886 0 2.415 2.335 7.38 2.335 9.714 0 3.585-3.465 10.42-3.465 13.886 0 2.415 2.335 7.38 2.335 9.714 0 3.585-3.465 10.42-3.465 13.886 0 2.415 2.335 7.38 2.335 9.714 0 3.585-3.465 10.42-3.465 13.886 0 2.415 2.335 7.38 2.335 9.714 0 3.585-3.465 10.42-3.465 13.886 0 2.415 2.335 7.38 2.335 9.714 0 3.585-3.465 10.42-3.465 13.886 0 2.415 2.335 7.38 2.335 9.714 0 3.585-3.465 10.42-3.465 13.886 0 2.415 2.335 7.38 2.335 9.714 0 3.585-3.465 10.42-3.465 13.886 0 2.415 2.335 7.38 2.335 9.714 0 3.585-3.465 10.42-3.465 13.886 0 2.415 2.335 7.38 2.335 9.714 0 3.585-3.465 10.42-3.465 13.886 0 2.415 2.335 7.38 2.335 9.714 0 3.585-3.465 10.42-3.465 13.886 0 2.415 2.335 7.38 2.335 9.714 0 3.585-3.465 10.42-3.465 13.886 0 2.415 2.335 7.38 2.335 9.714 0 3.585-3.465 10.42-3.465 13.886 0 2.415 2.335 7.38 2.335 9.714 0 3.585-3.465 10.42-3.465 13.886 0 2.415 2.335 7.38 2.335 9.714 0 3.585-3.465 10.42-3.465 13.886 0 2.415 2.335 7.38 2.335 9.714 0 3.585-3.465 10.42-3.465 13.886 0 2.415 2.335 7.38 2.335 9.714 0 3.585-3.465 10.42-3.465 13.886 0 2.415 2.335 7.38 2.335 9.714 0 3.585-3.465 10.42-3.465 13.886 0 2.415 2.335 7.38 2.335 9.714 0 3.585-3.465 10.42-3.465 13.886 0 2.415 2.335 7.38 2.335 9.714 0 3.585-3.465 10.42-3.465 13.886 0 2.415 2.335 7.38 2.335 9.714 0 3.585-3.465 10.42-3.465 13.886 0 2.415 2.335 7.38 2.335 9.714 0 3.585-3.465 10.42-3.465 13.886 0 2.415 2.335 7.38 2.335 9.714 0 3.585-3.465 10.42-3.465 13.886 0 2.415 2.335 7.38 2.335 9.696.017l2.122 2.122c-3.483 3.482-10.32 3.482-13.922 0-2.317-2.318-7.28-2.318-9.678 0-3.483 3.482-10.32 3.482-13.922 0-2.317-2.318-7.28-2.318-9.678 0-3.483 3.482-10.32 3.482-13.922 0-2.317-2.318-7.28-2.318-9.678 0-3.483 3.482-10.32 3.482-13.922 0-2.317-2.318-7.28-2.318-9.678 0-3.483 3.482-10.32 3.482-13.922 0-2.317-2.318-7.28-2.318-9.678 0-3.483 3.482-10.32 3.482-13.922 0-2.317-2.318-7.28-2.318-9.678 0-3.483 3.482-10.32 3.482-13.922 0-2.317-2.318-7.28-2.318-9.678 0-3.483 3.482-10.32 3.482-13.922 0-2.317-2.318-7.28-2.318-9.678 0-3.483 3.482-10.32 3.482-13.922 0-2.317-2.318-7.28-2.318-9.678 0-3.483 3.482-10.32 3.482-13.922 0-2.317-2.318-7.28-2.318-9.678 0-3.483 3.482-10.32 3.482-13.922 0-2.317-2.318-7.28-2.318-9.678 0-3.483 3.482-10.32 3.482-13.922 0-2.317-2.318-7.28-2.318-9.678 0-3.483 3.482-10.32 3.482-13.922 0-2.317-2.318-7.28-2.318-9.678 0-3.483 3.482-10.32 3.482-13.922 0-2.317-2.318-7.28-2.318-9.678 0-3.483 3.482-10.32 3.482-13.922 0-2.317-2.318-7.28-2.318-9.678 0-3.483 3.482-10.32 3.482-13.922 0-2.317-2.318-7.28-2.318-9.678 0-3.483 3.482-10.32 3.482-13.922 0-2.317-2.318-7.28-2.318-9.678 0-3.483 3.482-10.32 3.482-13.922 0-2.317-2.318-7.28-2.318-9.678 0-3.483 3.482-10.32 3.482-13.922 0-2.317-2.318-7.28-2.318-9.678 0-3.483 3.482-10.32 3.482-13.922 0-2.317-2.318-7.28-2.318-9.678 0-3.483 3.482-10.32 3.482-13.922 0-2.317-2.318-7.28-2.318-9.678 0-3.483 3.482-10.32 3.482-13.922 0-2.317-2.318-7.28-2.318-9.678 0-3.483 3.482-10.32 3.482-13.922 0-2.317-2.318-7.28-2.318-9.678 0-3.483 3.482-10.32 3.482-13.922 0-2.317-2.318-7.28-2.318-9.678 0-3.483 3.482-10.32 3.482-13.922 0-2.317-2.318-7.28-2.318-9.678 0-3.483 3.482-10.32 3.482-13.922 0-2.317-2.318-7.28-2.318-9.678 0-3.483 3.482-10.32 3.482-13.922 0-2.317-2.318-7.28-2.318-9.678 0-3.483 3.482-10.32 3.482-13.922 0-2.317-2.318-7.28-2.318-9.678 0-3.483 3.482-10.32 3.482-13.922 0-2.317-2.318-7.28-2.318-9.678 0-3.483 3.482-10.32 3.482-13.922 0-2.317-2.318-7.28-2.318-9.678 0-3.483 3.482-10.32 3.482-13.922 0-2.317-2.318-7.28-2.318-9.678 0-3.483 3.482-10.32 3.482-13.922 0-2.317-2.318-7.28-2.318-9.678 0-3.483 3.482-10.32 3.482-13.922 0-2.317-2.318-7.28-2.318-9.678 0-3.483 3.482-10.32 3.482-13.922 0-2.317-2.318-7.28-2.318-9.678 0-3.483 3.482-10.32 3.482-13.922 0-2.317-2.318-7.28-2.318-9.678 0-3.483 3.482-10.32 3.482-13.922 0-2.317-2.318-7.28-2.318-9.678 0-3.483 3.482-10.32 3.482-13.922 0-2.317-2.318-7.28-2.318-9.678 0-3.483 3.482-10.32 3.482-13.922 0-2.317-2.318-7.28-2.318-9.678 0-3.483 3.482-10.32 3.482-13.922 0-2.317-2.318-7.28-2.318-9.678 0-3.483 3.482-10.32 3.482-13.922 0-2.317-2.318-7.28-2.318-9.678 0-3.483 3.482-10.32 3.482-13.922 0-2.317-2.318-7.28-2.318-9.678 0-3.483 3.482-10.32 3.482-13.922 0-2.317-2.318-7.28-2.318-9.678 0-3.483 3.482-10.32 3.482-13.922 0-2.317-2.318-7.28-2.318-9.678 0-3.483 3.482-10.32 3.482-13.922 0-2.317-2.318-7.28-2.318-9.678 0-3.483 3.482-10.32 3.482-13.922 0-2.317-2.318-7.28-2.318-9.678 0-3.483 3.482-10.32 3.482-13.922 0-2.317-2.318-7.28-2.318-9.678 0-3.483 3.482-10.32 3.482-13.922 0-2.317-2.318-7.28-2.318-9.678 0-3.483 3.482-10.32 3.482-13.922 0-2.317-2.318-7.28-2.318-9.696.017z" fill="#1D1D1D" fill-rule="nonzero" mask="url(#d)"/></g><g opacity=".5" transform="translate(356 357)"><mask id="f" fill="#fff"><use xlink:href="#e"/></mask><path d="M-97.957 13.178l-2.086-2.156c3.585-3.465 10.42-3.465 13.886 0 2.415 2.335 7.38 2.335 9.714 0 3.585-3.465 10.42-3.465 13.886 0 2.415 2.335 7.38 2.335 9.714 0 3.585-3.465 10.42-3.465 13.886 0 2.415 2.335 7.38 2.335 9.714 0 3.585-3.465 10.42-3.465 13.886 0 2.415 2.335 7.38 2.335 9.714 0 3.585-3.465 10.42-3.465 13.886 0 2.415 2.335 7.38 2.335 9.714 0 3.585-3.465 10.42-3.465 13.886 0 2.415 2.335 7.38 2.335 9.714 0 3.585-3.465 10.42-3.465 13.886 0 2.415 2.335 7.38 2.335 9.714 0 3.585-3.465 10.42-3.465 13.886 0 2.415 2.335 7.38 2.335 9.714 0 3.585-3.465 10.42-3.465 13.886 0 2.415 2.335 7.38 2.335 9.714 0 3.585-3.465 10.42-3.465 13.886 0 2.415 2.335 7.38 2.335 9.714 0 3.585-3.465 10.42-3.465 13.886 0 2.415 2.335 7.38 2.335 9.714 0 3.585-3.465 10.42-3.465 13.886 0 2.415 2.335 7.38 2.335 9.714 0 3.585-3.465 10.42-3.465 13.886 0 2.415 2.335 7.38 2.335 9.714 0 3.585-3.465 10.42-3.465 13.886 0 2.415 2.335 7.38 2.335 9.714 0 3.585-3.465 10.42-3.465 13.886 0 2.415 2.335 7.38 2.335 9.714 0 3.585-3.465 10.42-3.465 13.886 0 2.415 2.335 7.38 2.335 9.714 0 3.585-3.465 10.42-3.465 13.886 0 2.415 2.335 7.38 2.335 9.714 0 3.585-3.465 10.42-3.465 13.886 0 2.415 2.335 7.38 2.335 9.714 0 3.585-3.465 10.42-3.465 13.886 0 2.415 2.335 7.38 2.335 9.714 0 3.585-3.465 10.42-3.465 13.886 0 2.415 2.335 7.38 2.335 9.714 0 3.585-3.465 10.42-3.465 13.886 0 2.415 2.335 7.38 2.335 9.714 0 3.585-3.465 10.42-3.465 13.886 0 2.415 2.335 7.38 2.335 9.714 0 3.585-3.465 10.42-3.465 13.886 0 2.415 2.335 7.38 2.335 9.714 0 3.585-3.465 10.42-3.465 13.886 0 2.415 2.335 7.38 2.335 9.714 0 3.585-3.465 10.42-3.465 13.886 0 2.415 2.335 7.38 2.335 9.714 0 3.585-3.465 10.42-3.465 13.886 0 2.415 2.335 7.38 2.335 9.714 0 3.585-3.465 10.42-3.465 13.886 0 2.415 2.335 7.38 2.335 9.714 0 3.585-3.465 10.42-3.465 13.886 0 2.415 2.335 7.38 2.335 9.714 0 3.585-3.465 10.42-3.465 13.886 0 2.415 2.335 7.38 2.335 9.714 0 3.585-3.465 10.42-3.465 13.886 0 2.415 2.335 7.38 2.335 9.714 0 3.585-3.465 10.42-3.465 13.886 0 2.415 2.335 7.38 2.335 9.714 0 3.585-3.465 10.42-3.465 13.886 0 2.415 2.335 7.38 2.335 9.714 0 3.585-3.465 10.42-3.465 13.886 0 2.415 2.335 7.38 2.335 9.714 0 3.585-3.465 10.42-3.465 13.886 0 2.415 2.335 7.38 2.335 9.714 0 3.585-3.465 10.42-3.465 13.886 0 2.415 2.335 7.38 2.335 9.714 0 3.585-3.465 10.42-3.465 13.886 0 2.415 2.335 7.38 2.335 9.714 0 3.585-3.465 10.42-3.465 13.886 0 2.415 2.335 7.38 2.335 9.714 0 3.585-3.465 10.42-3.465 13.886 0 2.415 2.335 7.38 2.335 9.714 0 3.585-3.465 10.42-3.465 13.886 0 2.415 2.335 7.38 2.335 9.714 0 3.585-3.465 10.42-3.465 13.886 0 2.415 2.335 7.38 2.335 9.714 0 3.585-3.465 10.42-3.465 13.886 0 2.415 2.335 7.38 2.335 9.714 0 3.585-3.465 10.42-3.465 13.886 0 2.415 2.335 7.38 2.335 9.714 0 3.585-3.465 10.42-3.465 13.886 0 2.415 2.335 7.38 2.335 9.714 0 3.585-3.465 10.42-3.465 13.886 0 2.415 2.335 7.38 2.335 9.714 0 3.585-3.465 10.42-3.465 13.886 0 2.415 2.335 7.38 2.335 9.714 0 3.585-3.465 10.42-3.465 13.886 0 2.415 2.335 7.38 2.335 9.714 0 3.585-3.465 10.42-3.465 13.886 0 2.415 2.335 7.38 2.335 9.714 0 3.585-3.465 10.42-3.465 13.886 0 2.415 2.335 7.38 2.335 9.696.017l2.122 2.122c-3.483 3.482-10.32 3.482-13.922 0-2.317-2.318-7.28-2.318-9.678 0-3.483 3.482-10.32 3.482-13.922 0-2.317-2.318-7.28-2.318-9.678 0-3.483 3.482-10.32 3.482-13.922 0-2.317-2.318-7.28-2.318-9.678 0-3.483 3.482-10.32 3.482-13.922 0-2.317-2.318-7.28-2.318-9.678 0-3.483 3.482-10.32 3.482-13.922 0-2.317-2.318-7.28-2.318-9.678 0-3.483 3.482-10.32 3.482-13.922 0-2.317-2.318-7.28-2.318-9.678 0-3.483 3.482-10.32 3.482-13.922 0-2.317-2.318-7.28-2.318-9.678 0-3.483 3.482-10.32 3.482-13.922 0-2.317-2.318-7.28-2.318-9.678 0-3.483 3.482-10.32 3.482-13.922 0-2.317-2.318-7.28-2.318-9.678 0-3.483 3.482-10.32 3.482-13.922 0-2.317-2.318-7.28-2.318-9.678 0-3.483 3.482-10.32 3.482-13.922 0-2.317-2.318-7.28-2.318-9.678 0-3.483 3.482-10.32 3.482-13.922 0-2.317-2.318-7.28-2.318-9.678 0-3.483 3.482-10.32 3.482-13.922 0-2.317-2.318-7.28-2.318-9.678 0-3.483 3.482-10.32 3.482-13.922 0-2.317-2.318-7.28-2.318-9.678 0-3.483 3.482-10.32 3.482-13.922 0-2.317-2.318-7.28-2.318-9.678 0-3.483 3.482-10.32 3.482-13.922 0-2.317-2.318-7.28-2.318-9.678 0-3.483 3.482-10.32 3.482-13.922 0-2.317-2.318-7.28-2.318-9.678 0-3.483 3.482-10.32 3.482-13.922 0-2.317-2.318-7.28-2.318-9.678 0-3.483 3.482-10.32 3.482-13.922 0-2.317-2.318-7.28-2.318-9.678 0-3.483 3.482-10.32 3.482-13.922 0-2.317-2.318-7.28-2.318-9.678 0-3.483 3.482-10.32 3.482-13.922 0-2.317-2.318-7.28-2.318-9.678 0-3.483 3.482-10.32 3.482-13.922 0-2.317-2.318-7.28-2.318-9.678 0-3.483 3.482-10.32 3.482-13.922 0-2.317-2.318-7.28-2.318-9.678 0-3.483 3.482-10.32 3.482-13.922 0-2.317-2.318-7.28-2.318-9.678 0-3.483 3.482-10.32 3.482-13.922 0-2.317-2.318-7.28-2.318-9.678 0-3.483 3.482-10.32 3.482-13.922 0-2.317-2.318-7.28-2.318-9.678 0-3.483 3.482-10.32 3.482-13.922 0-2.317-2.318-7.28-2.318-9.678 0-3.483 3.482-10.32 3.482-13.922 0-2.317-2.318-7.28-2.318-9.678 0-3.483 3.482-10.32 3.482-13.922 0-2.317-2.318-7.28-2.318-9.678 0-3.483 3.482-10.32 3.482-13.922 0-2.317-2.318-7.28-2.318-9.678 0-3.483 3.482-10.32 3.482-13.922 0-2.317-2.318-7.28-2.318-9.678 0-3.483 3.482-10.32 3.482-13.922 0-2.317-2.318-7.28-2.318-9.678 0-3.483 3.482-10.32 3.482-13.922 0-2.317-2.318-7.28-2.318-9.678 0-3.483 3.482-10.32 3.482-13.922 0-2.317-2.318-7.28-2.318-9.678 0-3.483 3.482-10.32 3.482-13.922 0-2.317-2.318-7.28-2.318-9.678 0-3.483 3.482-10.32 3.482-13.922 0-2.317-2.318-7.28-2.318-9.678 0-3.483 3.482-10.32 3.482-13.922 0-2.317-2.318-7.28-2.318-9.678 0-3.483 3.482-10.32 3.482-13.922 0-2.317-2.318-7.28-2.318-9.678 0-3.483 3.482-10.32 3.482-13.922 0-2.317-2.318-7.28-2.318-9.678 0-3.483 3.482-10.32 3.482-13.922 0-2.317-2.318-7.28-2.318-9.678 0-3.483 3.482-10.32 3.482-13.922 0-2.317-2.318-7.28-2.318-9.678 0-3.483 3.482-10.32 3.482-13.922 0-2.317-2.318-7.28-2.318-9.678 0-3.483 3.482-10.32 3.482-13.922 0-2.317-2.318-7.28-2.318-9.678 0-3.483 3.482-10.32 3.482-13.922 0-2.317-2.318-7.28-2.318-9.678 0-3.483 3.482-10.32 3.482-13.922 0-2.317-2.318-7.28-2.318-9.678 0-3.483 3.482-10.32 3.482-13.922 0-2.317-2.318-7.28-2.318-9.678 0-3.483 3.482-10.32 3.482-13.922 0-2.317-2.318-7.28-2.318-9.678 0-3.483 3.482-10.32 3.482-13.922 0-2.317-2.318-7.28-2.318-9.696.017z" fill="#1D1D1D" fill-rule="nonzero" mask="url(#f)"/></g><g opacity=".5" transform="translate(1120 357)"><mask id="h" fill="#fff"><use xlink:href="#g"/></mask><path d="M-155 12.1c3-2.9 8.9-2.9 11.8 0 3 2.9 8.9 2.9 11.8 0 3-2.9 8.9-2.9 11.8 0 3 2.9 8.9 2.9 11.8 0 3-2.9 8.9-2.9 11.8 0 3 2.9 8.9 2.9 11.8 0 3-2.9 8.9-2.9 11.8 0 3 2.9 8.9 2.9 11.8 0 3-2.9 8.9-2.9 11.8 0 3 2.9 8.9 2.9 11.8 0 3-2.9 8.9-2.9 11.8 0 3 2.9 8.9 2.9 11.8 0 3-2.9 8.9-2.9 11.8 0 3 2.9 8.9 2.9 11.8 0 3-2.9 8.9-2.9 11.8 0 3 2.9 8.9 2.9 11.8 0 3-2.9 8.9-2.9 11.8 0 3 2.9 8.9 2.9 11.8 0 3-2.9 8.9-2.9 11.8 0 3 2.9 8.9 2.9 11.8 0 3-2.9 8.9-2.9 11.8 0 3 2.9 8.9 2.9 11.8 0 3-2.9 8.9-2.9 11.8 0 3 2.9 8.9 2.9 11.8 0 3-2.9 8.9-2.9 11.8 0 3 2.9 8.9 2.9 11.8 0 3-2.9 8.9-2.9 11.8 0 3 2.9 8.9 2.9 11.8 0 3-2.9 8.9-2.9 11.8 0 3 2.9 8.9 2.9 11.8 0 3-2.9 8.9-2.9 11.8 0 3 2.9 8.9 2.9 11.8 0 3-2.9 8.9-2.9 11.8 0 3 2.9 8.9 2.9 11.8 0 3-2.9 8.9-2.9 11.8 0 3 2.9 8.9 2.9 11.8 0 3-2.9 8.9-2.9 11.8 0 3 2.9 8.9 2.9 11.8 0 3-2.9 8.9-2.9 11.8 0 3 2.9 8.9 2.9 11.8 0 3-2.9 8.9-2.9 11.8 0 3 2.9 8.9 2.9 11.8 0 3-2.9 8.9-2.9 11.8 0 3 2.9 8.9 2.9 11.8 0 3-2.9 8.9-2.9 11.8 0 3 2.9 8.9 2.9 11.8 0 3-2.9 8.9-2.9 11.8 0 3 2.9 8.9 2.9 11.8 0 3-2.9 8.9-2.9 11.8 0 3 2.9 8.9 2.9 11.8 0 3-2.9 8.9-2.9 11.8 0 3 2.9 8.9 2.9 11.8 0 3-2.9 8.9-2.9 11.8 0 3 2.9 8.9 2.9 11.8 0 3-2.9 8.9-2.9 11.8 0 3 2.9 8.9 2.9 11.8 0 3-2.9 8.9-2.9 11.8 0 3 2.9 8.9 2.9 11.8 0 3-2.9 8.9-2.9 11.8 0 3 2.9 8.9 2.9 11.8 0 3-2.9 8.9-2.9 11.8 0 3 2.9 8.9 2.9 11.8 0 3-2.9 8.9-2.9 11.8 0 3 2.9 8.9 2.9 11.8 0 3-2.9 8.9-2.9 11.8 0 3 2.9 8.9 2.9 11.8 0 3-2.9 8.9-2.9 11.8 0 3 2.9 8.9 2.9 11.8 0 3-2.9 8.9-2.9 11.8 0 3 2.9 8.9 2.9 11.8 0 3-2.9 8.9-2.9 11.8 0 3 2.9 8.9 2.9 11.8 0 3-2.9 8.9-2.9 11.8 0 3 2.9 8.9 2.9 11.8 0 3-2.9 8.9-2.9 11.8 0 3 2.9 8.9 2.9 11.8 0 3-2.9 8.9-2.9 11.8 0 3 2.9 8.9 2.9 11.8 0 3-2.9 8.9-2.9 11.8 0 3 2.9 8.9 2.9 11.8 0 3-2.9 8.9-2.9 11.8 0 3 2.9 8.9 2.9 11.8 0 3-2.9 8.9-2.9 11.8 0 3 2.9 8.9 2.9 11.8 0 3-2.9 8.9-2.9 11.8 0 3 2.9 8.9 2.9 11.8 0 3-2.9 8.9-2.9 11.8 0 3 2.9 8.9 2.9 11.8 0 3-2.9 8.9-2.9 11.8 0 3 2.9 8.9 2.9 11.8 0 3-2.9 8.9-2.9 11.8 0 3 2.9 8.9 2.9 11.8 0 3-2.9 8.9-2.9 11.8 0 3 2.9 8.9 2.9 11.8 0 3-2.9 8.9-2.9 11.8 0 3 2.9 8.9 2.9 11.8 0" stroke="#1D1D1D" stroke-width="3" mask="url(#h)"/></g><g opacity=".5" transform="translate(102 372)"><mask id="j" fill="#fff"><use xlink:href="#i"/></mask><path d="M-99.957 13.178l-2.086-2.156c3.585-3.465 10.42-3.465 13.886 0 2.415 2.335 7.38 2.335 9.714 0 3.585-3.465 10.42-3.465 13.886 0 2.415 2.335 7.38 2.335 9.714 0 3.585-3.465 10.42-3.465 13.886 0 2.415 2.335 7.38 2.335 9.714 0 3.585-3.465 10.42-3.465 13.886 0 2.415 2.335 7.38 2.335 9.714 0 3.585-3.465 10.42-3.465 13.886 0 2.415 2.335 7.38 2.335 9.714 0 3.585-3.465 10.42-3.465 13.886 0 2.415 2.335 7.38 2.335 9.714 0 3.585-3.465 10.42-3.465 13.886 0 2.415 2.335 7.38 2.335 9.714 0 3.585-3.465 10.42-3.465 13.886 0 2.415 2.335 7.38 2.335 9.714 0 3.585-3.465 10.42-3.465 13.886 0 2.415 2.335 7.38 2.335 9.714 0 3.585-3.465 10.42-3.465 13.886 0 2.415 2.335 7.38 2.335 9.714 0 3.585-3.465 10.42-3.465 13.886 0 2.415 2.335 7.38 2.335 9.714 0 3.585-3.465 10.42-3.465 13.886 0 2.415 2.335 7.38 2.335 9.714 0 3.585-3.465 10.42-3.465 13.886 0 2.415 2.335 7.38 2.335 9.714 0 3.585-3.465 10.42-3.465 13.886 0 2.415 2.335 7.38 2.335 9.714 0 3.585-3.465 10.42-3.465 13.886 0 2.415 2.335 7.38 2.335 9.714 0 3.585-3.465 10.42-3.465 13.886 0 2.415 2.335 7.38 2.335 9.714 0 3.585-3.465 10.42-3.465 13.886 0 2.415 2.335 7.38 2.335 9.714 0 3.585-3.465 10.42-3.465 13.886 0 2.415 2.335 7.38 2.335 9.714 0 3.585-3.465 10.42-3.465 13.886 0 2.415 2.335 7.38 2.335 9.714 0 3.585-3.465 10.42-3.465 13.886 0 2.415 2.335 7.38 2.335 9.714 0 3.585-3.465 10.42-3.465 13.886 0 2.415 2.335 7.38 2.335 9.714 0 3.585-3.465 10.42-3.465 13.886 0 2.415 2.335 7.38 2.335 9.714 0 3.585-3.465 10.42-3.465 13.886 0 2.415 2.335 7.38 2.335 9.714 0 3.585-3.465 10.42-3.465 13.886 0 2.415 2.335 7.38 2.335 9.714 0 3.585-3.465 10.42-3.465 13.886 0 2.415 2.335 7.38 2.335 9.714 0 3.585-3.465 10.42-3.465 13.886 0 2.415 2.335 7.38 2.335 9.714 0 3.585-3.465 10.42-3.465 13.886 0 2.415 2.335 7.38 2.335 9.714 0 3.585-3.465 10.42-3.465 13.886 0 2.415 2.335 7.38 2.335 9.714 0 3.585-3.465 10.42-3.465 13.886 0 2.415 2.335 7.38 2.335 9.714 0 3.585-3.465 10.42-3.465 13.886 0 2.415 2.335 7.38 2.335 9.714 0 3.585-3.465 10.42-3.465 13.886 0 2.415 2.335 7.38 2.335 9.714 0 3.585-3.465 10.42-3.465 13.886 0 2.415 2.335 7.38 2.335 9.714 0 3.585-3.465 10.42-3.465 13.886 0 2.415 2.335 7.38 2.335 9.714 0 3.585-3.465 10.42-3.465 13.886 0 2.415 2.335 7.38 2.335 9.714 0 3.585-3.465 10.42-3.465 13.886 0 2.415 2.335 7.38 2.335 9.714 0 3.585-3.465 10.42-3.465 13.886 0 2.415 2.335 7.38 2.335 9.714 0 3.585-3.465 10.42-3.465 13.886 0 2.415 2.335 7.38 2.335 9.714 0 3.585-3.465 10.42-3.465 13.886 0 2.415 2.335 7.38 2.335 9.714 0 3.585-3.465 10.42-3.465 13.886 0 2.415 2.335 7.38 2.335 9.714 0 3.585-3.465 10.42-3.465 13.886 0 2.415 2.335 7.38 2.335 9.714 0 3.585-3.465 10.42-3.465 13.886 0 2.415 2.335 7.38 2.335 9.714 0 3.585-3.465 10.42-3.465 13.886 0 2.415 2.335 7.38 2.335 9.714 0 3.585-3.465 10.42-3.465 13.886 0 2.415 2.335 7.38 2.335 9.714 0 3.585-3.465 10.42-3.465 13.886 0 2.415 2.335 7.38 2.335 9.714 0 3.585-3.465 10.42-3.465 13.886 0 2.415 2.335 7.38 2.335 9.714 0 3.585-3.465 10.42-3.465 13.886 0 2.415 2.335 7.38 2.335 9.714 0 3.585-3.465 10.42-3.465 13.886 0 2.415 2.335 7.38 2.335 9.714 0 3.585-3.465 10.42-3.465 13.886 0 2.415 2.335 7.38 2.335 9.696.017l2.122 2.122c-3.483 3.482-10.32 3.482-13.922 0-2.317-2.318-7.28-2.318-9.678 0-3.483 3.482-10.32 3.482-13.922 0-2.317-2.318-7.28-2.318-9.678 0-3.483 3.482-10.32 3.482-13.922 0-2.317-2.318-7.28-2.318-9.678 0-3.483 3.482-10.32 3.482-13.922 0-2.317-2.318-7.28-2.318-9.678 0-3.483 3.482-10.32 3.482-13.922 0-2.317-2.318-7.28-2.318-9.678 0-3.483 3.482-10.32 3.482-13.922 0-2.317-2.318-7.28-2.318-9.678 0-3.483 3.482-10.32 3.482-13.922 0-2.317-2.318-7.28-2.318-9.678 0-3.483 3.482-10.32 3.482-13.922 0-2.317-2.318-7.28-2.318-9.678 0-3.483 3.482-10.32 3.482-13.922 0-2.317-2.318-7.28-2.318-9.678 0-3.483 3.482-10.32 3.482-13.922 0-2.317-2.318-7.28-2.318-9.678 0-3.483 3.482-10.32 3.482-13.922 0-2.317-2.318-7.28-2.318-9.678 0-3.483 3.482-10.32 3.482-13.922 0-2.317-2.318-7.28-2.318-9.678 0-3.483 3.482-10.32 3.482-13.922 0-2.317-2.318-7.28-2.318-9.678 0-3.483 3.482-10.32 3.482-13.922 0-2.317-2.318-7.28-2.318-9.678 0-3.483 3.482-10.32 3.482-13.922 0-2.317-2.318-7.28-2.318-9.678 0-3.483 3.482-10.32 3.482-13.922 0-2.317-2.318-7.28-2.318-9.678 0-3.483 3.482-10.32 3.482-13.922 0-2.317-2.318-7.28-2.318-9.678 0-3.483 3.482-10.32 3.482-13.922 0-2.317-2.318-7.28-2.318-9.678 0-3.483 3.482-10.32 3.482-13.922 0-2.317-2.318-7.28-2.318-9.678 0-3.483 3.482-10.32 3.482-13.922 0-2.317-2.318-7.28-2.318-9.678 0-3.483 3.482-10.32 3.482-13.922 0-2.317-2.318-7.28-2.318-9.678 0-3.483 3.482-10.32 3.482-13.922 0-2.317-2.318-7.28-2.318-9.678 0-3.483 3.482-10.32 3.482-13.922 0-2.317-2.318-7.28-2.318-9.678 0-3.483 3.482-10.32 3.482-13.922 0-2.317-2.318-7.28-2.318-9.678 0-3.483 3.482-10.32 3.482-13.922 0-2.317-2.318-7.28-2.318-9.678 0-3.483 3.482-10.32 3.482-13.922 0-2.317-2.318-7.28-2.318-9.678 0-3.483 3.482-10.32 3.482-13.922 0-2.317-2.318-7.28-2.318-9.678 0-3.483 3.482-10.32 3.482-13.922 0-2.317-2.318-7.28-2.318-9.678 0-3.483 3.482-10.32 3.482-13.922 0-2.317-2.318-7.28-2.318-9.678 0-3.483 3.482-10.32 3.482-13.922 0-2.317-2.318-7.28-2.318-9.678 0-3.483 3.482-10.32 3.482-13.922 0-2.317-2.318-7.28-2.318-9.678 0-3.483 3.482-10.32 3.482-13.922 0-2.317-2.318-7.28-2.318-9.678 0-3.483 3.482-10.32 3.482-13.922 0-2.317-2.318-7.28-2.318-9.678 0-3.483 3.482-10.32 3.482-13.922 0-2.317-2.318-7.28-2.318-9.678 0-3.483 3.482-10.32 3.482-13.922 0-2.317-2.318-7.28-2.318-9.678 0-3.483 3.482-10.32 3.482-13.922 0-2.317-2.318-7.28-2.318-9.678 0-3.483 3.482-10.32 3.482-13.922 0-2.317-2.318-7.28-2.318-9.678 0-3.483 3.482-10.32 3.482-13.922 0-2.317-2.318-7.28-2.318-9.678 0-3.483 3.482-10.32 3.482-13.922 0-2.317-2.318-7.28-2.318-9.678 0-3.483 3.482-10.32 3.482-13.922 0-2.317-2.318-7.28-2.318-9.678 0-3.483 3.482-10.32 3.482-13.922 0-2.317-2.318-7.28-2.318-9.678 0-3.483 3.482-10.32 3.482-13.922 0-2.317-2.318-7.28-2.318-9.678 0-3.483 3.482-10.32 3.482-13.922 0-2.317-2.318-7.28-2.318-9.678 0-3.483 3.482-10.32 3.482-13.922 0-2.317-2.318-7.28-2.318-9.678 0-3.483 3.482-10.32 3.482-13.922 0-2.317-2.318-7.28-2.318-9.678 0-3.483 3.482-10.32 3.482-13.922 0-2.317-2.318-7.28-2.318-9.678 0-3.483 3.482-10.32 3.482-13.922 0-2.317-2.318-7.28-2.318-9.678 0-3.483 3.482-10.32 3.482-13.922 0-2.317-2.318-7.28-2.318-9.696.017z" fill="#1D1D1D" fill-rule="nonzero" mask="url(#j)"/></g><g opacity=".5" transform="translate(759 371)"><mask id="l" fill="#fff"><use xlink:href="#k"/></mask><path d="M-499 13.1c3-2.9 8.9-2.9 11.8 0 3 2.9 8.9 2.9 11.8 0 3-2.9 8.9-2.9 11.8 0 3 2.9 8.9 2.9 11.8 0 3-2.9 8.9-2.9 11.8 0 3 2.9 8.9 2.9 11.8 0 3-2.9 8.9-2.9 11.8 0 3 2.9 8.9 2.9 11.8 0 3-2.9 8.9-2.9 11.8 0 3 2.9 8.9 2.9 11.8 0 3-2.9 8.9-2.9 11.8 0 3 2.9 8.9 2.9 11.8 0 3-2.9 8.9-2.9 11.8 0 3 2.9 8.9 2.9 11.8 0 3-2.9 8.9-2.9 11.8 0 3 2.9 8.9 2.9 11.8 0 3-2.9 8.9-2.9 11.8 0 3 2.9 8.9 2.9 11.8 0 3-2.9 8.9-2.9 11.8 0 3 2.9 8.9 2.9 11.8 0 3-2.9 8.9-2.9 11.8 0 3 2.9 8.9 2.9 11.8 0 3-2.9 8.9-2.9 11.8 0 3 2.9 8.9 2.9 11.8 0 3-2.9 8.9-2.9 11.8 0 3 2.9 8.9 2.9 11.8 0 3-2.9 8.9-2.9 11.8 0 3 2.9 8.9 2.9 11.8 0 3-2.9 8.9-2.9 11.8 0 3 2.9 8.9 2.9 11.8 0 3-2.9 8.9-2.9 11.8 0 3 2.9 8.9 2.9 11.8 0 3-2.9 8.9-2.9 11.8 0 3 2.9 8.9 2.9 11.8 0 3-2.9 8.9-2.9 11.8 0 3 2.9 8.9 2.9 11.8 0 3-2.9 8.9-2.9 11.8 0 3 2.9 8.9 2.9 11.8 0 3-2.9 8.9-2.9 11.8 0 3 2.9 8.9 2.9 11.8 0 3-2.9 8.9-2.9 11.8 0 3 2.9 8.9 2.9 11.8 0 3-2.9 8.9-2.9 11.8 0 3 2.9 8.9 2.9 11.8 0 3-2.9 8.9-2.9 11.8 0 3 2.9 8.9 2.9 11.8 0 3-2.9 8.9-2.9 11.8 0 3 2.9 8.9 2.9 11.8 0 3-2.9 8.9-2.9 11.8 0 3 2.9 8.9 2.9 11.8 0 3-2.9 8.9-2.9 11.8 0 3 2.9 8.9 2.9 11.8 0 3-2.9 8.9-2.9 11.8 0 3 2.9 8.9 2.9 11.8 0 3-2.9 8.9-2.9 11.8 0 3 2.9 8.9 2.9 11.8 0 3-2.9 8.9-2.9 11.8 0 3 2.9 8.9 2.9 11.8 0 3-2.9 8.9-2.9 11.8 0 3 2.9 8.9 2.9 11.8 0 3-2.9 8.9-2.9 11.8 0 3 2.9 8.9 2.9 11.8 0 3-2.9 8.9-2.9 11.8 0 3 2.9 8.9 2.9 11.8 0 3-2.9 8.9-2.9 11.8 0 3 2.9 8.9 2.9 11.8 0 3-2.9 8.9-2.9 11.8 0 3 2.9 8.9 2.9 11.8 0 3-2.9 8.9-2.9 11.8 0 3 2.9 8.9 2.9 11.8 0 3-2.9 8.9-2.9 11.8 0 3 2.9 8.9 2.9 11.8 0 3-2.9 8.9-2.9 11.8 0 3 2.9 8.9 2.9 11.8 0 3-2.9 8.9-2.9 11.8 0 3 2.9 8.9 2.9 11.8 0 3-2.9 8.9-2.9 11.8 0 3 2.9 8.9 2.9 11.8 0a6.928 6.928 0 0 1 1.385-1.03" stroke="#1D1D1D" stroke-width="3" mask="url(#l)"/></g><g opacity=".5" transform="translate(1362 371)"><mask id="n" fill="#fff"><use xlink:href="#m"/></mask><path d="M-764 13.1c3-2.9 8.9-2.9 11.8 0 3 2.9 8.9 2.9 11.8 0 3-2.9 8.9-2.9 11.8 0 3 2.9 8.9 2.9 11.8 0 3-2.9 8.9-2.9 11.8 0 3 2.9 8.9 2.9 11.8 0 3-2.9 8.9-2.9 11.8 0 3 2.9 8.9 2.9 11.8 0 3-2.9 8.9-2.9 11.8 0 3 2.9 8.9 2.9 11.8 0 3-2.9 8.9-2.9 11.8 0 3 2.9 8.9 2.9 11.8 0 3-2.9 8.9-2.9 11.8 0 3 2.9 8.9 2.9 11.8 0 3-2.9 8.9-2.9 11.8 0 3 2.9 8.9 2.9 11.8 0 3-2.9 8.9-2.9 11.8 0 3 2.9 8.9 2.9 11.8 0 3-2.9 8.9-2.9 11.8 0 3 2.9 8.9 2.9 11.8 0 3-2.9 8.9-2.9 11.8 0 3 2.9 8.9 2.9 11.8 0 3-2.9 8.9-2.9 11.8 0 3 2.9 8.9 2.9 11.8 0 3-2.9 8.9-2.9 11.8 0 3 2.9 8.9 2.9 11.8 0 3-2.9 8.9-2.9 11.8 0 3 2.9 8.9 2.9 11.8 0 3-2.9 8.9-2.9 11.8 0 3 2.9 8.9 2.9 11.8 0 3-2.9 8.9-2.9 11.8 0 3 2.9 8.9 2.9 11.8 0 3-2.9 8.9-2.9 11.8 0 3 2.9 8.9 2.9 11.8 0 3-2.9 8.9-2.9 11.8 0 3 2.9 8.9 2.9 11.8 0 3-2.9 8.9-2.9 11.8 0 3 2.9 8.9 2.9 11.8 0 3-2.9 8.9-2.9 11.8 0 3 2.9 8.9 2.9 11.8 0 3-2.9 8.9-2.9 11.8 0 3 2.9 8.9 2.9 11.8 0 3-2.9 8.9-2.9 11.8 0 3 2.9 8.9 2.9 11.8 0 3-2.9 8.9-2.9 11.8 0 3 2.9 8.9 2.9 11.8 0 3-2.9 8.9-2.9 11.8 0 3 2.9 8.9 2.9 11.8 0 3-2.9 8.9-2.9 11.8 0 3 2.9 8.9 2.9 11.8 0 3-2.9 8.9-2.9 11.8 0 3 2.9 8.9 2.9 11.8 0 3-2.9 8.9-2.9 11.8 0 3 2.9 8.9 2.9 11.8 0 3-2.9 8.9-2.9 11.8 0 3 2.9 8.9 2.9 11.8 0 3-2.9 8.9-2.9 11.8 0 3 2.9 8.9 2.9 11.8 0 3-2.9 8.9-2.9 11.8 0 3 2.9 8.9 2.9 11.8 0 3-2.9 8.9-2.9 11.8 0 3 2.9 8.9 2.9 11.8 0 3-2.9 8.9-2.9 11.8 0 3 2.9 8.9 2.9 11.8 0 3-2.9 8.9-2.9 11.8 0 3 2.9 8.9 2.9 11.8 0 3-2.9 8.9-2.9 11.8 0 3 2.9 8.9 2.9 11.8 0 3-2.9 8.9-2.9 11.8 0 3 2.9 8.9 2.9 11.8 0 3-2.9 8.9-2.9 11.8 0 3 2.9 8.9 2.9 11.8 0 3-2.9 8.9-2.9 11.8 0 3 2.9 8.9 2.9 11.8 0 3-2.9 8.9-2.9 11.8 0 3 2.9 8.9 2.9 11.8 0 3-2.9 8.9-2.9 11.8 0 3 2.9 8.9 2.9 11.8 0a6.928 6.928 0 0 1 1.385-1.03" stroke="#1D1D1D" stroke-width="3" mask="url(#n)"/></g><path stroke="#1D1D1D" stroke-width="3" d="M0 155h207l32.5 145H252"/><path d="M197 166v-20" stroke="#000" stroke-width="3"/><path d="M913 465h-12m12 5h-12m12 5h-12" stroke="#E63331" stroke-width="3"/><g transform="translate(871 458)" stroke-width="3" stroke="#E63331"><rect y="1" width="30" height="52" rx="4"/><path d="M6 .217v15.826M30 17.5H0m30 18H0m30-6H0m30-6H0M12 .217v15.826M18 .217v15.826M24 .217v15.826M10 35.957v17m10-17v17"/></g><g transform="translate(913 458)" stroke-width="3" stroke="#E63331"><rect y="1" width="30" height="52" rx="4"/><path d="M6 .217v15.826M30 17.5H0m30 18H0m30-6H0m30-6H0M12 .217v15.826M18 .217v15.826M24 .217v15.826M10 35.957v17m10-17v17"/></g><g transform="translate(871 517)" stroke-width="3" stroke="#E63331"><rect y="1" width="30" height="52" rx="4"/><path d="M6 .217v15.826M30 17.5H0m30 18H0m30-6H0m30-6H0M12 .217v15.826M18 .217v15.826M24 .217v15.826M10 35.957v17m10-17v17"/></g><g transform="translate(913 517)" stroke-width="3" stroke="#E63331"><rect y="1" width="30" height="52" rx="4"/><path d="M6 .217v15.826M30 17.5H0m30 18H0m30-6H0m30-6H0M12 .217v15.826M18 .217v15.826M24 .217v15.826M10 35.957v17m10-17v17"/></g><path d="M912 524h-11m11 5h-11m11 5h-11" stroke="#E63331" stroke-width="3"/><g transform="translate(783 501)"><rect stroke="#E63331" stroke-width="3" fill="#E63331" width="72" height="18" rx="4"/><path d="M4 6v10m6-14v14m6-14v14" stroke="#FFF" stroke-width="3"/><path d="M25 2v14M35 2v14M45 2v14M55 2v14M65 2v14" stroke="#FFF" stroke-width="5"/></g><g transform="translate(783 478)" stroke-width="3"><rect stroke="#E63331" fill="#E63331" width="51" height="17" rx="4"/><path d="M4 4v8m6-8v8m4 1h34" stroke="#FFF"/></g><path stroke="#1D1D1D" stroke-width="3" fill="#FFF" stroke-linecap="round" stroke-linejoin="round" d="M33 349l54.87-146.91 12.93-86.29L121.5 45l20.7 70.8 12.93 86.29L210 349h-8.85l-53.1-34.96h-53.1L41.85 349z"/><path d="M48 314h148M89 202h66m-81 41h96" stroke="#1D1D1D" stroke-width="3" stroke-linecap="square"/><path d="M196 314L73 245m0-2l82-39m-1-3l-57-55m0-1l45-28" stroke="#1D1D1D" stroke-width="3"/><path stroke="#1D1D1D" stroke-width="3" stroke-linejoin="round" d="M142.934 116.144L228 146H15l85.466-30z"/><path stroke="#1D1D1D" stroke-width="3" d="M0 161h55l184.5 149H252"/><path d="M718 361h-12c-13.2 0-24 10.8-24 24v44m36-68h17c13.2 0 24 10.8 24 24v30M497 663h161c13.2 0 24-10.8 24-24V428" stroke="#E63331" stroke-width="3"/><g stroke="#E63331"><path stroke-width="3" fill="#FFF" fill-rule="nonzero" d="M251.3 281.1h67.8v68h-67.8z"/><path d="M262.4 325.8v-44.7m11.4 44.7v-44.7m11.3 44.7v-44.7m11.3 44.7v-44.7m11.4 44.7v-44.7m11.3 58.8h-67.8" stroke-width="3"/><path d="M319.1 328.6h-67.8" stroke-width="6"/></g><path d="M1221 306h-84c-13.2 0-24 10.8-24 24v5" stroke="#E63331" stroke-width="3"/><text opacity=".5" font-family="ProximaNovaA-Bold, Proxima Nova Alt" font-size="16" font-weight="bold" fill="#1D1D1D"><tspan x="540.547" y="171">Elektrisk</tspan> <tspan x="534.273" y="189">servicebåt</tspan></text><g transform="translate(569 207)"><path d="M3 3v47" stroke="#8E8E8E" stroke-width="2"/><circle fill="#8E8E8E" cx="3" cy="3" r="3"/><circle fill="#8E8E8E" cx="3" cy="50" r="3"/></g><g transform="translate(782 529)"><path d="M3 2.91v96" stroke="#8E8E8E" stroke-width="2"/><circle fill="#8E8E8E" cx="3" cy="3" r="3"/><circle fill="#8E8E8E" cx="3" cy="100" r="3"/></g><g transform="translate(757 458)"><path d="M3 2.441v167" stroke="#8E8E8E" stroke-width="2"/><circle fill="#8E8E8E" cx="3" cy="3" r="3"/><circle fill="#8E8E8E" cx="3" cy="171" r="3"/></g><g transform="translate(284 207)"><path d="M3 3v58" stroke="#8E8E8E" stroke-width="2"/><circle fill="#8E8E8E" cx="3" cy="3" r="3"/><circle fill="#8E8E8E" cx="3" cy="61" r="3"/></g><text font-family="ProximaNovaA-Bold, Proxima Nova Alt" font-size="16" font-weight="bold" fill="#8E8E8E"><tspan x="266.32" y="171">200V</tspan> <tspan x="251.184" y="189">2000KVA</tspan></text><path d="M469.617 639.703l3.36-3.375h1.984V647h-2.274v-7.742l-1.78 1.804-1.29-1.359zm7.203 4a7.648 7.648 0 0 1-.265-2.031c0-.708.088-1.383.265-2.024.177-.64.44-1.224.79-1.75a3.813 3.813 0 0 1 1.39-1.257c.578-.313 1.234-.47 1.969-.47.734 0 1.39.157 1.969.47a3.813 3.813 0 0 1 1.39 1.257c.35.526.612 1.11.79 1.75.176.641.265 1.316.265 2.024s-.089 1.384-.266 2.027a6.111 6.111 0 0 1-.789 1.758c-.349.529-.812.95-1.39 1.266-.579.315-1.235.472-1.97.472-.734 0-1.39-.157-1.968-.472a3.833 3.833 0 0 1-1.39-1.266 6.12 6.12 0 0 1-.79-1.754zm2.055-2.031c0 .687.066 1.285.2 1.793.132.508.359.92.679 1.238.32.318.725.477 1.215.477.49 0 .894-.16 1.215-.477.32-.318.546-.73.68-1.238.132-.508.198-1.106.198-1.793 0-.688-.065-1.283-.195-1.785-.13-.503-.355-.912-.676-1.227-.32-.315-.727-.472-1.222-.472-.37 0-.693.087-.969.261a1.795 1.795 0 0 0-.652.746 4.31 4.31 0 0 0-.356 1.098 7.382 7.382 0 0 0-.117 1.379zm7.86 2.031a7.648 7.648 0 0 1-.266-2.031c0-.708.088-1.383.265-2.024.177-.64.44-1.224.79-1.75a3.813 3.813 0 0 1 1.39-1.257c.578-.313 1.234-.47 1.969-.47.734 0 1.39.157 1.969.47a3.813 3.813 0 0 1 1.39 1.257c.35.526.612 1.11.79 1.75.176.641.265 1.316.265 2.024s-.089 1.384-.266 2.027a6.111 6.111 0 0 1-.789 1.758c-.349.529-.812.95-1.39 1.266-.579.315-1.235.472-1.97.472-.734 0-1.39-.157-1.968-.472a3.833 3.833 0 0 1-1.39-1.266 6.12 6.12 0 0 1-.79-1.754zm2.054-2.031c0 .687.066 1.285.2 1.793.132.508.359.92.679 1.238.32.318.725.477 1.215.477.49 0 .894-.16 1.215-.477.32-.318.547-.73.68-1.238.132-.508.199-1.106.199-1.793 0-.688-.066-1.283-.196-1.785-.13-.503-.355-.912-.676-1.227-.32-.315-.727-.472-1.222-.472-.37 0-.693.087-.969.261a1.795 1.795 0 0 0-.652.746 4.31 4.31 0 0 0-.356 1.098 7.382 7.382 0 0 0-.117 1.379zm7.86 2.031a7.648 7.648 0 0 1-.266-2.031c0-.708.088-1.383.265-2.024a6.07 6.07 0 0 1 .79-1.75 3.813 3.813 0 0 1 1.39-1.257c.578-.313 1.234-.47 1.969-.47.734 0 1.39.157 1.969.47a3.813 3.813 0 0 1 1.39 1.257c.35.526.612 1.11.79 1.75.176.641.265 1.316.265 2.024s-.089 1.384-.266 2.027a6.111 6.111 0 0 1-.789 1.758c-.349.529-.812.95-1.39 1.266-.579.315-1.235.472-1.97.472-.734 0-1.39-.157-1.968-.472a3.833 3.833 0 0 1-1.39-1.266 6.12 6.12 0 0 1-.79-1.754zm2.054-2.031c0 .687.067 1.285.2 1.793.132.508.359.92.679 1.238.32.318.725.477 1.215.477.49 0 .894-.16 1.215-.477.32-.318.547-.73.68-1.238.132-.508.199-1.106.199-1.793 0-.688-.065-1.283-.196-1.785-.13-.503-.355-.912-.675-1.227-.32-.315-.728-.472-1.223-.472-.37 0-.693.087-.969.261a1.795 1.795 0 0 0-.652.746 4.31 4.31 0 0 0-.356 1.098 7.382 7.382 0 0 0-.117 1.379zm11.633 2.32v-1.726h12.375v1.726h-12.375zm17.133-4.289l3.36-3.375h1.984V647h-2.274v-7.742l-1.781 1.804-1.29-1.359zm7.203 4a7.648 7.648 0 0 1-.266-2.031c0-.708.089-1.383.266-2.024.177-.64.44-1.224.789-1.75a3.813 3.813 0 0 1 1.39-1.257c.579-.313 1.235-.47 1.97-.47.734 0 1.39.157 1.968.47a3.813 3.813 0 0 1 1.39 1.257c.35.526.613 1.11.79 1.75.177.641.265 1.316.265 2.024s-.088 1.384-.265 2.027a6.111 6.111 0 0 1-.79 1.758 3.83 3.83 0 0 1-1.39 1.266c-.578.315-1.234.472-1.969.472-.734 0-1.39-.157-1.968-.472a3.833 3.833 0 0 1-1.391-1.266 6.12 6.12 0 0 1-.79-1.754zm2.055-2.031c0 .687.066 1.285.199 1.793s.36.92.68 1.238c.32.318.725.477 1.214.477.49 0 .895-.16 1.215-.477.32-.318.547-.73.68-1.238s.2-1.106.2-1.793c0-.688-.066-1.283-.196-1.785-.13-.503-.356-.912-.676-1.227-.32-.315-.728-.472-1.223-.472-.37 0-.692.087-.968.261a1.795 1.795 0 0 0-.653.746 4.31 4.31 0 0 0-.355 1.098 7.382 7.382 0 0 0-.117 1.379zm7.46 4.195c0-.349.125-.65.375-.902a1.21 1.21 0 0 1 .891-.38c.396 0 .732.148 1.008.442.276.295.414.692.414 1.192 0 .588-.147 1.142-.441 1.66a4.037 4.037 0 0 1-1.207 1.316l-.875-.726a2.6 2.6 0 0 0 .765-.653c.245-.294.399-.576.461-.847a.933.933 0 0 1-.297.047c-.307 0-.566-.108-.777-.325-.211-.216-.317-.49-.317-.824zm3.805-2.164a7.648 7.648 0 0 1-.265-2.031c0-.708.088-1.383.265-2.024.177-.64.44-1.224.79-1.75a3.813 3.813 0 0 1 1.39-1.257c.578-.313 1.234-.47 1.969-.47.734 0 1.39.157 1.968.47a3.813 3.813 0 0 1 1.391 1.257c.349.526.612 1.11.79 1.75.176.641.265 1.316.265 2.024s-.089 1.384-.266 2.027a6.111 6.111 0 0 1-.789 1.758c-.349.529-.812.95-1.39 1.266-.579.315-1.235.472-1.97.472-.734 0-1.39-.157-1.968-.472a3.833 3.833 0 0 1-1.39-1.266 6.12 6.12 0 0 1-.79-1.754zm2.055-2.031c0 .687.066 1.285.2 1.793.132.508.358.92.679 1.238.32.318.725.477 1.215.477.49 0 .894-.16 1.214-.477.32-.318.547-.73.68-1.238s.2-1.106.2-1.793c0-.688-.066-1.283-.196-1.785-.13-.503-.355-.912-.676-1.227-.32-.315-.728-.472-1.222-.472-.37 0-.693.087-.97.261a1.795 1.795 0 0 0-.651.746 4.31 4.31 0 0 0-.356 1.098 7.382 7.382 0 0 0-.117 1.379zm7.86 2.031a7.648 7.648 0 0 1-.266-2.031c0-.708.088-1.383.265-2.024.177-.64.44-1.224.79-1.75a3.813 3.813 0 0 1 1.39-1.257c.578-.313 1.234-.47 1.969-.47.734 0 1.39.157 1.968.47a3.813 3.813 0 0 1 1.391 1.257c.349.526.612 1.11.79 1.75.176.641.265 1.316.265 2.024s-.089 1.384-.266 2.027a6.111 6.111 0 0 1-.789 1.758c-.349.529-.812.95-1.39 1.266-.579.315-1.235.472-1.97.472-.734 0-1.39-.157-1.968-.472a3.833 3.833 0 0 1-1.39-1.266 6.12 6.12 0 0 1-.79-1.754zm2.054-2.031c0 .687.066 1.285.2 1.793.132.508.359.92.679 1.238.32.318.725.477 1.215.477.49 0 .894-.16 1.215-.477.32-.318.546-.73.68-1.238.132-.508.198-1.106.198-1.793 0-.688-.065-1.283-.195-1.785-.13-.503-.355-.912-.676-1.227-.32-.315-.728-.472-1.222-.472-.37 0-.693.087-.97.261a1.795 1.795 0 0 0-.651.746 4.31 4.31 0 0 0-.356 1.098 7.382 7.382 0 0 0-.117 1.379zm7.86 2.031a7.648 7.648 0 0 1-.266-2.031c0-.708.088-1.383.265-2.024.177-.64.44-1.224.79-1.75a3.813 3.813 0 0 1 1.39-1.257c.578-.313 1.234-.47 1.969-.47.734 0 1.39.157 1.968.47a3.813 3.813 0 0 1 1.391 1.257c.35.526.612 1.11.79 1.75.176.641.265 1.316.265 2.024s-.089 1.384-.266 2.027a6.112 6.112 0 0 1-.789 1.758c-.349.529-.812.95-1.39 1.266-.579.315-1.235.472-1.97.472-.734 0-1.39-.157-1.968-.472a3.833 3.833 0 0 1-1.39-1.266 6.12 6.12 0 0 1-.79-1.754zm2.054-2.031c0 .687.066 1.285.2 1.793.132.508.359.92.679 1.238.32.318.725.477 1.215.477.49 0 .894-.16 1.215-.477.32-.318.546-.73.68-1.238.132-.508.198-1.106.198-1.793 0-.688-.065-1.283-.195-1.785-.13-.503-.355-.912-.676-1.227-.32-.315-.727-.472-1.222-.472-.37 0-.693.087-.969.261a1.795 1.795 0 0 0-.652.746 4.31 4.31 0 0 0-.356 1.098 7.382 7.382 0 0 0-.117 1.379zM577.93 647v-7.727h2.03v.993c.21-.276.55-.543 1.02-.801a3.102 3.102 0 0 1 1.512-.387c.557 0 1.018.121 1.383.363.365.243.617.585.758 1.028.245-.375.61-.7 1.094-.977a3.104 3.104 0 0 1 1.562-.414c.724 0 1.284.195 1.68.586.396.39.593.974.593 1.75V647h-2.046v-4.883c0-.38-.094-.68-.282-.898-.187-.219-.479-.328-.875-.328-.328 0-.634.088-.918.265a2.278 2.278 0 0 0-.675.625V647h-2.055v-4.883c0-.818-.383-1.226-1.149-1.226a1.69 1.69 0 0 0-.91.265 2.475 2.475 0 0 0-.691.625V647h-2.031z" fill="#8E8E8E"/><path d="M452 643.5h11m-7.174 3.5L452 643.5m0 0l3.826-3.5M608 643.5h-11m7.174 3.5l3.826-3.5m0 0l-3.826-3.5" stroke="#8E8E8E" stroke-linecap="round" stroke-linejoin="round" stroke-width="1.8"/><text font-family="ProximaNovaA-Bold, Proxima Nova Alt" font-size="16" font-weight="bold" fill="#8E8E8E"><tspan x="622.109" y="114">DC400V</tspan> <tspan x="624.746" y="132">150KVA</tspan></text><text font-family="ProximaNovaA-Bold, Proxima Nova Alt" font-size="16" font-weight="bold" fill="#8E8E8E"><tspan x="991.5" y="116">Telecom</tspan></text><text font-family="ProximaNovaA-Bold, Proxima Nova Alt" font-size="16" font-weight="bold" fill="#8E8E8E"><tspan x="722.352" y="656">22KV</tspan></text><text font-family="ProximaNovaA-Bold, Proxima Nova Alt" font-size="16" font-weight="bold" fill="#8E8E8E"><tspan x="782.363" y="656">PMS</tspan></text><text font-family="ProximaNovaA-Bold, Proxima Nova Alt" font-size="16" font-weight="bold" fill="#8E8E8E"><tspan x="835.383" y="656">Motor</tspan></text><text font-family="ProximaNovaA-Bold, Proxima Nova Alt" font-size="16" font-weight="bold" fill="#8E8E8E"><tspan x="888.402" y="423">Feed</tspan></text><text font-family="ProximaNovaA-Bold, Proxima Nova Alt" font-size="16" font-weight="bold" fill="#8E8E8E"><tspan x="902.563" y="656">Converters</tspan></text><g opacity=".5" transform="translate(362 341)"><mask id="p" fill="#fff"><use xlink:href="#o"/></mask><path d="M-106.957 13.178l-2.086-2.156c3.585-3.465 10.42-3.465 13.886 0 2.415 2.335 7.38 2.335 9.714 0 3.585-3.465 10.42-3.465 13.886 0 2.415 2.335 7.38 2.335 9.714 0 3.585-3.465 10.42-3.465 13.886 0 2.415 2.335 7.38 2.335 9.714 0 3.585-3.465 10.42-3.465 13.886 0 2.415 2.335 7.38 2.335 9.714 0 3.585-3.465 10.42-3.465 13.886 0 2.415 2.335 7.38 2.335 9.714 0 3.585-3.465 10.42-3.465 13.886 0 2.415 2.335 7.38 2.335 9.714 0 3.585-3.465 10.42-3.465 13.886 0 2.415 2.335 7.38 2.335 9.714 0 3.585-3.465 10.42-3.465 13.886 0 2.415 2.335 7.38 2.335 9.714 0 3.585-3.465 10.42-3.465 13.886 0 2.415 2.335 7.38 2.335 9.714 0 3.585-3.465 10.42-3.465 13.886 0 2.415 2.335 7.38 2.335 9.714 0 3.585-3.465 10.42-3.465 13.886 0 2.415 2.335 7.38 2.335 9.714 0 3.585-3.465 10.42-3.465 13.886 0 2.415 2.335 7.38 2.335 9.714 0 3.585-3.465 10.42-3.465 13.886 0 2.415 2.335 7.38 2.335 9.714 0 3.585-3.465 10.42-3.465 13.886 0 2.415 2.335 7.38 2.335 9.714 0 3.585-3.465 10.42-3.465 13.886 0 2.415 2.335 7.38 2.335 9.714 0 3.585-3.465 10.42-3.465 13.886 0 2.415 2.335 7.38 2.335 9.714 0 3.585-3.465 10.42-3.465 13.886 0 2.415 2.335 7.38 2.335 9.714 0 3.585-3.465 10.42-3.465 13.886 0 2.415 2.335 7.38 2.335 9.714 0 3.585-3.465 10.42-3.465 13.886 0 2.415 2.335 7.38 2.335 9.714 0 3.585-3.465 10.42-3.465 13.886 0 2.415 2.335 7.38 2.335 9.714 0 3.585-3.465 10.42-3.465 13.886 0 2.415 2.335 7.38 2.335 9.714 0 3.585-3.465 10.42-3.465 13.886 0 2.415 2.335 7.38 2.335 9.714 0 3.585-3.465 10.42-3.465 13.886 0 2.415 2.335 7.38 2.335 9.714 0 3.585-3.465 10.42-3.465 13.886 0 2.415 2.335 7.38 2.335 9.714 0 3.585-3.465 10.42-3.465 13.886 0 2.415 2.335 7.38 2.335 9.714 0 3.585-3.465 10.42-3.465 13.886 0 2.415 2.335 7.38 2.335 9.714 0 3.585-3.465 10.42-3.465 13.886 0 2.415 2.335 7.38 2.335 9.714 0 3.585-3.465 10.42-3.465 13.886 0 2.415 2.335 7.38 2.335 9.714 0 3.585-3.465 10.42-3.465 13.886 0 2.415 2.335 7.38 2.335 9.714 0 3.585-3.465 10.42-3.465 13.886 0 2.415 2.335 7.38 2.335 9.714 0 3.585-3.465 10.42-3.465 13.886 0 2.415 2.335 7.38 2.335 9.714 0 3.585-3.465 10.42-3.465 13.886 0 2.415 2.335 7.38 2.335 9.714 0 3.585-3.465 10.42-3.465 13.886 0 2.415 2.335 7.38 2.335 9.714 0 3.585-3.465 10.42-3.465 13.886 0 2.415 2.335 7.38 2.335 9.714 0 3.585-3.465 10.42-3.465 13.886 0 2.415 2.335 7.38 2.335 9.714 0 3.585-3.465 10.42-3.465 13.886 0 2.415 2.335 7.38 2.335 9.714 0 3.585-3.465 10.42-3.465 13.886 0 2.415 2.335 7.38 2.335 9.714 0 3.585-3.465 10.42-3.465 13.886 0 2.415 2.335 7.38 2.335 9.714 0 3.585-3.465 10.42-3.465 13.886 0 2.415 2.335 7.38 2.335 9.714 0 3.585-3.465 10.42-3.465 13.886 0 2.415 2.335 7.38 2.335 9.714 0 3.585-3.465 10.42-3.465 13.886 0 2.415 2.335 7.38 2.335 9.714 0 3.585-3.465 10.42-3.465 13.886 0 2.415 2.335 7.38 2.335 9.714 0 3.585-3.465 10.42-3.465 13.886 0 2.415 2.335 7.38 2.335 9.714 0 3.585-3.465 10.42-3.465 13.886 0 2.415 2.335 7.38 2.335 9.714 0 3.585-3.465 10.42-3.465 13.886 0 2.415 2.335 7.38 2.335 9.714 0 3.585-3.465 10.42-3.465 13.886 0 2.415 2.335 7.38 2.335 9.714 0 3.585-3.465 10.42-3.465 13.886 0 2.415 2.335 7.38 2.335 9.714 0 3.585-3.465 10.42-3.465 13.886 0 2.415 2.335 7.38 2.335 9.696.017l2.122 2.122c-3.483 3.482-10.32 3.482-13.922 0-2.317-2.318-7.28-2.318-9.678 0-3.483 3.482-10.32 3.482-13.922 0-2.317-2.318-7.28-2.318-9.678 0-3.483 3.482-10.32 3.482-13.922 0-2.317-2.318-7.28-2.318-9.678 0-3.483 3.482-10.32 3.482-13.922 0-2.317-2.318-7.28-2.318-9.678 0-3.483 3.482-10.32 3.482-13.922 0-2.317-2.318-7.28-2.318-9.678 0-3.483 3.482-10.32 3.482-13.922 0-2.317-2.318-7.28-2.318-9.678 0-3.483 3.482-10.32 3.482-13.922 0-2.317-2.318-7.28-2.318-9.678 0-3.483 3.482-10.32 3.482-13.922 0-2.317-2.318-7.28-2.318-9.678 0-3.483 3.482-10.32 3.482-13.922 0-2.317-2.318-7.28-2.318-9.678 0-3.483 3.482-10.32 3.482-13.922 0-2.317-2.318-7.28-2.318-9.678 0-3.483 3.482-10.32 3.482-13.922 0-2.317-2.318-7.28-2.318-9.678 0-3.483 3.482-10.32 3.482-13.922 0-2.317-2.318-7.28-2.318-9.678 0-3.483 3.482-10.32 3.482-13.922 0-2.317-2.318-7.28-2.318-9.678 0-3.483 3.482-10.32 3.482-13.922 0-2.317-2.318-7.28-2.318-9.678 0-3.483 3.482-10.32 3.482-13.922 0-2.317-2.318-7.28-2.318-9.678 0-3.483 3.482-10.32 3.482-13.922 0-2.317-2.318-7.28-2.318-9.678 0-3.483 3.482-10.32 3.482-13.922 0-2.317-2.318-7.28-2.318-9.678 0-3.483 3.482-10.32 3.482-13.922 0-2.317-2.318-7.28-2.318-9.678 0-3.483 3.482-10.32 3.482-13.922 0-2.317-2.318-7.28-2.318-9.678 0-3.483 3.482-10.32 3.482-13.922 0-2.317-2.318-7.28-2.318-9.678 0-3.483 3.482-10.32 3.482-13.922 0-2.317-2.318-7.28-2.318-9.678 0-3.483 3.482-10.32 3.482-13.922 0-2.317-2.318-7.28-2.318-9.678 0-3.483 3.482-10.32 3.482-13.922 0-2.317-2.318-7.28-2.318-9.678 0-3.483 3.482-10.32 3.482-13.922 0-2.317-2.318-7.28-2.318-9.678 0-3.483 3.482-10.32 3.482-13.922 0-2.317-2.318-7.28-2.318-9.678 0-3.483 3.482-10.32 3.482-13.922 0-2.317-2.318-7.28-2.318-9.678 0-3.483 3.482-10.32 3.482-13.922 0-2.317-2.318-7.28-2.318-9.678 0-3.483 3.482-10.32 3.482-13.922 0-2.317-2.318-7.28-2.318-9.678 0-3.483 3.482-10.32 3.482-13.922 0-2.317-2.318-7.28-2.318-9.678 0-3.483 3.482-10.32 3.482-13.922 0-2.317-2.318-7.28-2.318-9.678 0-3.483 3.482-10.32 3.482-13.922 0-2.317-2.318-7.28-2.318-9.678 0-3.483 3.482-10.32 3.482-13.922 0-2.317-2.318-7.28-2.318-9.678 0-3.483 3.482-10.32 3.482-13.922 0-2.317-2.318-7.28-2.318-9.678 0-3.483 3.482-10.32 3.482-13.922 0-2.317-2.318-7.28-2.318-9.678 0-3.483 3.482-10.32 3.482-13.922 0-2.317-2.318-7.28-2.318-9.678 0-3.483 3.482-10.32 3.482-13.922 0-2.317-2.318-7.28-2.318-9.678 0-3.483 3.482-10.32 3.482-13.922 0-2.317-2.318-7.28-2.318-9.678 0-3.483 3.482-10.32 3.482-13.922 0-2.317-2.318-7.28-2.318-9.678 0-3.483 3.482-10.32 3.482-13.922 0-2.317-2.318-7.28-2.318-9.678 0-3.483 3.482-10.32 3.482-13.922 0-2.317-2.318-7.28-2.318-9.678 0-3.483 3.482-10.32 3.482-13.922 0-2.317-2.318-7.28-2.318-9.678 0-3.483 3.482-10.32 3.482-13.922 0-2.317-2.318-7.28-2.318-9.678 0-3.483 3.482-10.32 3.482-13.922 0-2.317-2.318-7.28-2.318-9.678 0-3.483 3.482-10.32 3.482-13.922 0-2.317-2.318-7.28-2.318-9.678 0-3.483 3.482-10.32 3.482-13.922 0-2.317-2.318-7.28-2.318-9.678 0-3.483 3.482-10.32 3.482-13.922 0-2.317-2.318-7.28-2.318-9.678 0-3.483 3.482-10.32 3.482-13.922 0-2.317-2.318-7.28-2.318-9.678 0-3.483 3.482-10.32 3.482-13.922 0-2.317-2.318-7.28-2.318-9.696.017z" fill="#1D1D1D" fill-rule="nonzero" mask="url(#p)"/></g><path d="M1110 341H850c-13.2 0-24 10.8-24 24v118" stroke="#E63331" stroke-width="3" stroke-linecap="round" stroke-linejoin="round"/><g transform="translate(1102 335)"><rect stroke="#E63331" stroke-width="3" fill="#E63331" width="22" height="53" rx="4"/><rect fill="#FFF" x="5" y="4" width="12" height="20" rx="2"/></g><rect stroke="#1D1D1D" stroke-width="3" fill="#1D1D1D" x="1158" y="337" width="46" height="20" rx="4"/><path d="M319 329h37c13.2 0 24 10.8 24 24v62" stroke="#E63331" stroke-width="3"/><g opacity=".5" transform="translate(1199 341)"><mask id="r" fill="#fff"><use xlink:href="#q"/></mask><path d="M-343 12.1c3-2.9 8.9-2.9 11.8 0 3 2.9 8.9 2.9 11.8 0 3-2.9 8.9-2.9 11.8 0 3 2.9 8.9 2.9 11.8 0 3-2.9 8.9-2.9 11.8 0 3 2.9 8.9 2.9 11.8 0 3-2.9 8.9-2.9 11.8 0 3 2.9 8.9 2.9 11.8 0 3-2.9 8.9-2.9 11.8 0 3 2.9 8.9 2.9 11.8 0 3-2.9 8.9-2.9 11.8 0 3 2.9 8.9 2.9 11.8 0 3-2.9 8.9-2.9 11.8 0 3 2.9 8.9 2.9 11.8 0 3-2.9 8.9-2.9 11.8 0 3 2.9 8.9 2.9 11.8 0 3-2.9 8.9-2.9 11.8 0 3 2.9 8.9 2.9 11.8 0 3-2.9 8.9-2.9 11.8 0 3 2.9 8.9 2.9 11.8 0 3-2.9 8.9-2.9 11.8 0 3 2.9 8.9 2.9 11.8 0 3-2.9 8.9-2.9 11.8 0 3 2.9 8.9 2.9 11.8 0 3-2.9 8.9-2.9 11.8 0 3 2.9 8.9 2.9 11.8 0 3-2.9 8.9-2.9 11.8 0 3 2.9 8.9 2.9 11.8 0 3-2.9 8.9-2.9 11.8 0 3 2.9 8.9 2.9 11.8 0 3-2.9 8.9-2.9 11.8 0 3 2.9 8.9 2.9 11.8 0 3-2.9 8.9-2.9 11.8 0 3 2.9 8.9 2.9 11.8 0 3-2.9 8.9-2.9 11.8 0 3 2.9 8.9 2.9 11.8 0 3-2.9 8.9-2.9 11.8 0 3 2.9 8.9 2.9 11.8 0 3-2.9 8.9-2.9 11.8 0 3 2.9 8.9 2.9 11.8 0 3-2.9 8.9-2.9 11.8 0 3 2.9 8.9 2.9 11.8 0 3-2.9 8.9-2.9 11.8 0 3 2.9 8.9 2.9 11.8 0 3-2.9 8.9-2.9 11.8 0 3 2.9 8.9 2.9 11.8 0 3-2.9 8.9-2.9 11.8 0 3 2.9 8.9 2.9 11.8 0 3-2.9 8.9-2.9 11.8 0 3 2.9 8.9 2.9 11.8 0 3-2.9 8.9-2.9 11.8 0 3 2.9 8.9 2.9 11.8 0 3-2.9 8.9-2.9 11.8 0 3 2.9 8.9 2.9 11.8 0 3-2.9 8.9-2.9 11.8 0 3 2.9 8.9 2.9 11.8 0 3-2.9 8.9-2.9 11.8 0 3 2.9 8.9 2.9 11.8 0 3-2.9 8.9-2.9 11.8 0 3 2.9 8.9 2.9 11.8 0 3-2.9 8.9-2.9 11.8 0 3 2.9 8.9 2.9 11.8 0 3-2.9 8.9-2.9 11.8 0 3 2.9 8.9 2.9 11.8 0 3-2.9 8.9-2.9 11.8 0 3 2.9 8.9 2.9 11.8 0 3-2.9 8.9-2.9 11.8 0 3 2.9 8.9 2.9 11.8 0 3-2.9 8.9-2.9 11.8 0 3 2.9 8.9 2.9 11.8 0 3-2.9 8.9-2.9 11.8 0 3 2.9 8.9 2.9 11.8 0 3-2.9 8.9-2.9 11.8 0 3 2.9 8.9 2.9 11.8 0 3-2.9 8.9-2.9 11.8 0 3 2.9 8.9 2.9 11.8 0 3-2.9 8.9-2.9 11.8 0 3 2.9 8.9 2.9 11.8 0 3-2.9 8.9-2.9 11.8 0 3 2.9 8.9 2.9 11.8 0 3-2.9 8.9-2.9 11.8 0 3 2.9 8.9 2.9 11.8 0 3-2.9 8.9-2.9 11.8 0 3 2.9 8.9 2.9 11.8 0 3-2.9 8.9-2.9 11.8 0 3 2.9 8.9 2.9 11.8 0 3-2.9 8.9-2.9 11.8 0 3 2.9 8.9 2.9 11.8 0 3-2.9 8.9-2.9 11.8 0 3 2.9 8.9 2.9 11.8 0 3-2.9 8.9-2.9 11.8 0 3 2.9 8.9 2.9 11.8 0 3-2.9 8.9-2.9 11.8 0 3 2.9 8.9 2.9 11.8 0 3-2.9 8.9-2.9 11.8 0 3 2.9 8.9 2.9 11.8 0" stroke="#1D1D1D" stroke-width="3" mask="url(#r)"/></g><path d="M45 166v-20" stroke="#1D1D1D" stroke-width="3"/><path d="M1199 306h47c13.2 0 24 10.8 24 24v182" stroke="#E63331" stroke-width="3" stroke-linecap="round" stroke-linejoin="round"/><g transform="translate(651 150)"><path stroke="#8E8E8E" stroke-width="2" d="M3 3v97.067h44.5"/><circle fill="#8E8E8E" cx="48" cy="100" r="3"/><circle fill="#8E8E8E" cx="3" cy="3" r="3"/></g><g transform="translate(651 150)"><path stroke="#8E8E8E" stroke-width="2" d="M3 3v97.067h44.5"/><circle fill="#8E8E8E" cx="48" cy="100" r="3"/><circle fill="#8E8E8E" cx="3" cy="3" r="3"/></g><g transform="translate(796 581)"><path d="M3 3v44" stroke="#8E8E8E" stroke-width="2"/><circle fill="#8E8E8E" cx="3" cy="3" r="3"/><circle fill="#8E8E8E" cx="3" cy="48" r="3"/></g><g transform="translate(836 581)"><path d="M3 3v44" stroke="#8E8E8E" stroke-width="2"/><circle fill="#8E8E8E" cx="3" cy="3" r="3"/><circle fill="#8E8E8E" cx="3" cy="48" r="3"/></g><g transform="translate(904 581)"><path d="M3 3v44" stroke="#8E8E8E" stroke-width="2"/><circle fill="#8E8E8E" cx="3" cy="3" r="3"/><circle fill="#8E8E8E" cx="3" cy="48" r="3"/></g><path d="M1037 179h13" stroke="#8E8E8E" stroke-width="2"/><circle fill="#8E8E8E" cx="1037" cy="179" r="3"/></g></svg>