<svg width="1440" height="667" viewBox="0 0 1440 667" xmlns="http://www.w3.org/2000/svg" xmlns:xlink="http://www.w3.org/1999/xlink"><title>Group 25</title><defs><path id="a" d="M0 .4h399v22.1H0z"/><path id="c" d="M0 .4h585v22.1H0z"/><path id="e" d="M0 .4h750.1v22.1H0z"/><path id="g" d="M0 .4h341v22.1H0z"/><path id="i" d="M0 .4h656v22.1H0z"/><path id="k" d="M0 .4h431v22.1H0z"/><path id="m" d="M0 .4h98v22.1H0z"/><path id="o" d="M0 .4h743v22.1H0z"/><path id="q" d="M0 .4h200v22.1H0z"/></defs><g transform="translate(-4 2)" fill="none" fill-rule="evenodd"><g transform="matrix(-1 0 0 1 1052 131)"><path stroke="#8E8E8E" stroke-width="2" d="M3 4v123.067h84.5"/><circle fill="#8E8E8E" cx="86" cy="127" r="3"/><circle fill="#8E8E8E" cx="3" cy="3" r="3"/></g><path d="M693.4 162.9l-15.3 7.3c-.6.3-.9 1.1-.6 1.7l2.8 6.1c.3.7 1.1.9 1.8.6l15.3-7.3c.6-.3.9-1.1.6-1.7l-2.8-6.1c-.4-.6-1.2-.9-1.8-.6zm-1.9 11.3c1.1.3 1.8 1.3 1.8 2.5 0 1.4-1.2 2.6-2.6 2.6-1.4 0-2.6-1.2-2.6-2.6 0-.3.1-.6.2-.9m2.4 4.2v5h10.4m-21.5-8.3l-5.2 4.6-3.3-7.2 6.5-1.3m324-9.9l15.3 7.3c.6.3.9 1.1.6 1.7l-2.8 6.1c-.3.7-1.1.9-1.8.6l-15.3-7.3c-.6-.3-.9-1.1-.6-1.7l2.8-6.1c.4-.6 1.2-.9 1.8-.6zm1.9 11.3c-1.1.3-1.8 1.3-1.8 2.5 0 1.4 1.2 2.6 2.6 2.6 1.4 0 2.6-1.2 2.6-2.6 0-.3-.1-.6-.2-.9m-2.4 4.2v5h-10.4m21.5-8.3l5.2 4.6 3.3-7.2-6.5-1.3M668 299.452s45.442 15.513 56.428-1.216c5.9-8.985-.2-17.236-.2-17.236" stroke="#E63331" stroke-linecap="round" stroke-linejoin="round" stroke-width="3"/><rect stroke="#1D1D1D" stroke-width="3" x="565" y="285" width="14" height="12" rx="4"/><rect stroke="#1D1D1D" stroke-width="3" x="646" y="285" width="14" height="12" rx="4"/><path stroke="#1D1D1D" stroke-width="3" stroke-linecap="round" stroke-linejoin="round" d="M667.427 314v-32.5h14.045l8.528-5-77.25-16.5L536 276.5l8.528 5h13.544V314"/><rect stroke="#1D1D1D" stroke-width="3" x="586" y="285" width="53" height="12" rx="4"/><path stroke="#1D1D1D" stroke-width="3" fill="#FFF" fill-rule="nonzero" stroke-linecap="round" stroke-linejoin="round" d="M547 339v-19.817L612 291l65 28.183V339"/><path d="M612 292v47m339.543-29V207h34.165L994 185H701l8.491 22h33.266v103z" stroke="#1D1D1D" stroke-width="3" stroke-linecap="round" stroke-linejoin="round"/><path d="M716 234h14a4 4 0 0 1 4 4v72h-22v-72a4 4 0 0 1 4-4z" stroke="#E63331" stroke-width="3" stroke-linecap="round" stroke-linejoin="round"/><path stroke="#E63331" stroke-width="3" stroke-linecap="round" stroke-linejoin="round" d="M720 244h8v28h-8z"/><rect stroke="#E63331" stroke-width="3" x="750" y="416" width="67" height="32" rx="4"/><path stroke="#E63331" stroke-width="3" stroke-linecap="round" stroke-linejoin="round" d="M775 415v-16h-6v16m18 0v-16h-6v16m18 0v-16h-6v16"/><path d="M759 425v14m6-14v14m6-14v14m6-14v14m6-14v14m6-14v14m6-14v14m6-14v14m6-14v14" stroke="#E63331" stroke-width="3"/><rect stroke="#E63331" stroke-width="3" fill="#E63331" x="783" y="456" width="36" height="16" rx="4"/><path d="M955.513 377.105h31.39L995 317H700l8.097 60.105h31.49V550.71c-3 5.009-4.699 10.92-4.699 17.23 0 18.833 15.195 34.06 33.989 34.06h156.747c18.793 0 33.988-15.026 33.988-33.86 0-6.21-4.299-16.829-4.299-16.829l.2-174.206z" stroke="#1D1D1D" stroke-width="3" stroke-linecap="round" stroke-linejoin="round"/><g transform="translate(756 225)" stroke-width="3"><path d="M140 30H0m34 30.1V.1M69 60V0m37 60.1V.1" stroke="#1D1D1D"/><rect stroke="#000" width="140" height="60" rx="4"/></g><path d="M1095 327h75c6.6 0 12 5.4 12 12v6" stroke="#000" stroke-width="2.996"/><path d="M498 663h-94c-13.2 0-24-10.8-24-24V412" stroke="#E63331" stroke-width="3"/><path d="M907 396v-57c0-6.6 5.4-12 12-12h176" stroke="#1D1D1D" stroke-width="3"/><path d="M907 534v-92" stroke="#E63331" stroke-width="3"/><rect stroke="#1D1D1D" stroke-width="3" x="874" y="396" width="64" height="46" rx="4"/><path d="M1088 497V370c0-6.6 5.4-12 12-12h6" stroke="#000" stroke-width="2.996"/><path d="M1104 507v-46c0-4.4-3.6-8-8-8s-8 3.6-8 8v46c0 4.4 3.6 8 8 8s8-3.6 8-8z" stroke="#000" stroke-width="2.963"/><path d="M1406.112 363h-272.605c-11.683 0-21.507 10.307-21.507 23.516v197.132c0 10.107 5.93 18.513 13.807 22.515 0 0 122.584 54.837 144.002 54.837 21.42 0 144.091-54.837 144.091-54.837 7.877-4.002 13.1-12.408 13.1-22.515V386.516c.088-13.21-9.205-23.516-20.888-23.516z" stroke="#000" stroke-width="3"/><ellipse stroke="#1D1D1D" stroke-width="6" fill="#FFF" fill-rule="nonzero" cx="1269.5" cy="362" rx="149.5" ry="23"/><path d="M0 371h346.022c4.494 0 15.978-5.946 15.978-14.37 0-14.406-24.633-21.177-73.898-20.315L0 327" stroke="#1D1D1D" stroke-width="3"/><g stroke="#E63331"><g transform="translate(1250 521)"><circle stroke-width="2.996" cx="20" cy="20" r="11"/><circle stroke-width="2.996" cx="20" cy="20" r="5"/><path d="M20 0v8m20 12h-8M0 20h8m12 12v8" stroke-linecap="round" stroke-linejoin="round" stroke-width="3"/></g><path d="M1284.142 526.858l-5.657 5.657m5.657 22.627l-5.657-5.657m-22.627-22.627l5.657 5.657m0 16.97l-5.657 5.657" stroke-linecap="round" stroke-linejoin="round" stroke-width="3"/></g><g fill-rule="nonzero"><path d="M806 568v-26c0-1.1-.9-2-2-2h-10c-1.1 0-2 .9-2 2v26c0 1.1.9 2 2 2h10c1.1 0 2-.9 2-2z" stroke="#E63331" stroke-width="2.963" fill="#E63331"/><path d="M805 563v-20c0-1.1-.923-2-2.051-2h-7.898c-1.128 0-2.051.9-2.051 2v20c0 1.1.923 2 2.051 2h7.898c1.128 0 2.051-.9 2.051-2z" fill="#FFF"/><path d="M802 552v-12h-6v12c0 1.1.9 2 2 2h2c1.1 0 2-.9 2-2z" fill="#E63331"/></g><g transform="translate(813 540)"><path d="M16 18V2c0-1.1-.9-2-2-2H2C.9 0 0 .9 0 2v16c0 1.1.9 2 2 2h12c1.1 0 2-.9 2-2z" stroke="#E63331" stroke-width="3" fill="#E63331"/><rect fill="#FFF" x="1" y="1" width="14" height="7" rx="2"/><path d="M8 30V18" stroke="#E63331" stroke-width="3" stroke-linecap="round" stroke-linejoin="round"/></g><g transform="translate(832 547)"><circle fill="#E63331" fill-rule="nonzero" cx="11" cy="14" r="9"/><circle fill="#FFF" fill-rule="nonzero" cx="11" cy="14" r="3"/><path d="M17 4V2c0-1.1-.9-2-2-2H7C5.9 0 5 .9 5 2v2c0 1.1.9 2 2 2h8c1.1 0 2-.9 2-2z" stroke="#E63331" stroke-width="3"/><path d="M8 22c0-1.1-.9-2-2-2H2c-1.1 0-2 .9-2 2s.9 2 2 2h4c1.1 0 2-.9 2-2zm14 0c0-1.1-.9-2-2-2h-4c-1.1 0-2 .9-2 2s.9 2 2 2h4c1.1 0 2-.9 2-2zm2-11v-1c0-.6-.4-1-1-1h-4c-.6 0-1 .4-1 1v1c0 .6.4 1 1 1h4c.6 0 1-.4 1-1z" fill="#E63331" fill-rule="nonzero"/></g><g transform="translate(387 74)"><path d="M66 .8H1.5c-.6 0-1 .4-1 1v13.7c0 .6.4 1 1 1H66c.6 0 1-.4 1-1V1.8c0-.5-.4-1-1-1z" stroke="#000" stroke-width="3" stroke-linecap="round" stroke-linejoin="round"/><circle fill="#000" fill-rule="nonzero" cx="8.3" cy="8.7" r="2"/><path d="M43.5 8.7h15.7" stroke="#000" stroke-width="3" stroke-linecap="round" stroke-linejoin="round"/></g><g transform="translate(387 59)"><path d="M66 .2H1.5c-.6 0-1 .4-1 1v13.7c0 .6.4 1 1 1H66c.6 0 1-.4 1-1V1.2c0-.6-.4-1-1-1z" stroke="#000" stroke-width="3" stroke-linecap="round" stroke-linejoin="round"/><circle fill="#000" fill-rule="nonzero" cx="8.3" cy="8" r="2"/><path d="M43.5 8h15.7" stroke="#000" stroke-width="3" stroke-linecap="round" stroke-linejoin="round"/></g><path d="M461.8 62.7c8.9-1.8 15.7-9.7 15.7-19.2 0-10.8-8.8-19.6-19.6-19.6h-.3C455.7 10.6 444.3.4 430.5.4c-15.1 0-27.4 12.3-27.4 27.4 0 1.3.1 2.7.3 3.9h-.3c-8.6 0-15.7 7-15.7 15.7 0 1.5.3 3 .7 4.4" stroke="#000" stroke-width="3" stroke-linecap="round" stroke-linejoin="round"/><g transform="translate(421 17)" stroke="#000" stroke-linecap="round" stroke-linejoin="round" stroke-width="3"><path d="M.7 28.7V12.4h17.7v16.3H.7m8.8-6.4v-3.4"/><circle cx="9.5" cy="18.9" r="1.1"/><path d="M2.9 12.4V7.2a6.7 6.7 0 0 1 13.4 0v5.2"/></g><g transform="translate(487 59)" stroke="#000" stroke-linecap="round" stroke-linejoin="round" stroke-width="3"><path d="M47.7 5C48.9 29.5 30 48.4 5.4 47.3M36.2 4.5C37.1 22.7 23 36.7 4.8 35.9m20-32c.6 11.9-8.6 21-20.4 20.4"/><circle cx="6.5" cy="6.1" r="6"/></g><g transform="translate(320 59)" stroke="#000" stroke-linecap="round" stroke-linejoin="round" stroke-width="3"><path d="M.3 5C-.9 29.5 18 48.4 42.6 47.3M11.8 4.5C10.9 22.7 25 36.7 43.2 35.9m-20-32c-.6 11.9 8.6 21 20.4 20.4"/><circle cx="41.5" cy="6.1" r="6"/></g><path d="M939 270v-20c0-1.1-.9-2-2-2h-16c-1.1 0-2 .9-2 2v20c0 1.1.9 2 2 2h16c1.1 0 2-.9 2-2z" stroke="#E63331" stroke-width="3"/><path d="M930.2 248v-4.5c0-1.1-.9-2-2-2h-4c-1.1 0-2 .9-2 2v4.5c0 1.1.9 2 2 2v5.1c-1.1 0-2 .9-2 2v4.5c0 1.1.9 2 2 2h4c1.1 0 2-.9 2-2V257c0-1.1-.9-2-2-2v-5c1.1 0 2-.9 2-2z" fill="#FFF" fill-rule="nonzero"/><path d="M930.2 248v-4.5c0-1.1-.9-2-2-2h-4c-1.1 0-2 .9-2 2v4.5c0 1.1.9 2 2 2v5.1c-1.1 0-2 .9-2 2v4.5c0 1.1.9 2 2 2h4c1.1 0 2-.9 2-2V257c0-1.1-.9-2-2-2v-5c1.1 0 2-.9 2-2z" stroke="#E63331" stroke-width="3"/><path d="M934 264c0 2.256-1.744 4-4 4-2.256 0-4-1.744-4-4" stroke="#E63331" stroke-width="3" stroke-linecap="round" stroke-linejoin="round"/><g opacity=".5" transform="translate(1061 389)"><mask id="b" fill="#fff"><use xlink:href="#a"/></mask><path d="M-17.2 10.1c3-2.9 8.9-2.9 11.8 0 3 2.9 8.9 2.9 11.8 0 3-2.9 8.9-2.9 11.8 0 3 2.9 8.9 2.9 11.8 0 3-2.9 8.9-2.9 11.8 0 3 2.9 8.9 2.9 11.8 0 3-2.9 8.9-2.9 11.8 0 3 2.9 8.9 2.9 11.8 0 3-2.9 8.9-2.9 11.8 0 3 2.9 8.9 2.9 11.8 0 3-2.9 8.9-2.9 11.8 0 3 2.9 8.9 2.9 11.8 0 3-2.9 8.9-2.9 11.8 0 3 2.9 8.9 2.9 11.8 0 3-2.9 8.9-2.9 11.8 0 3 2.9 8.9 2.9 11.8 0 3-2.9 8.9-2.9 11.8 0 3 2.9 8.9 2.9 11.8 0 3-2.9 8.9-2.9 11.8 0 3 2.9 8.9 2.9 11.8 0 3-2.9 8.9-2.9 11.8 0 3 2.9 8.9 2.9 11.8 0 3-2.9 8.9-2.9 11.8 0 3 2.9 8.9 2.9 11.8 0 3-2.9 8.9-2.9 11.8 0 3 2.9 8.9 2.9 11.8 0 3-2.9 8.9-2.9 11.8 0 3 2.9 8.9 2.9 11.8 0 3-2.9 8.9-2.9 11.8 0 3 2.9 8.9 2.9 11.8 0 3-2.9 8.9-2.9 11.8 0 3 2.9 8.9 2.9 11.8 0 3-2.9 8.9-2.9 11.8 0 3 2.9 8.9 2.9 11.8 0 3-2.9 8.9-2.9 11.8 0 3 2.9 8.9 2.9 11.8 0 3-2.9 8.9-2.9 11.8 0 3 2.9 8.9 2.9 11.8 0 3-2.9 8.9-2.9 11.8 0 3 2.9 8.9 2.9 11.8 0 3-2.9 8.9-2.9 11.8 0 3 2.9 8.9 2.9 11.8 0 3-2.9 8.9-2.9 11.8 0 3 2.9 8.9 2.9 11.8 0 3-2.9 8.9-2.9 11.8 0 3 2.9 8.9 2.9 11.8 0 3-2.9 8.9-2.9 11.8 0 3 2.9 8.9 2.9 11.8 0 3-2.9 8.9-2.9 11.8 0 3 2.9 8.9 2.9 11.8 0 3-2.9 8.9-2.9 11.8 0 3 2.9 8.9 2.9 11.8 0 3-2.9 8.9-2.9 11.8 0 3 2.9 8.9 2.9 11.8 0 3-2.9 8.9-2.9 11.8 0 3 2.9 8.9 2.9 11.8 0 3-2.9 8.9-2.9 11.8 0 3 2.9 8.9 2.9 11.8 0 3-2.9 8.9-2.9 11.8 0 3 2.9 8.9 2.9 11.8 0 3-2.9 8.9-2.9 11.8 0 3 2.9 8.9 2.9 11.8 0 3-2.9 8.9-2.9 11.8 0 3 2.9 8.9 2.9 11.8 0 3-2.9 8.9-2.9 11.8 0 3 2.9 8.9 2.9 11.8 0 3-2.9 8.9-2.9 11.8 0 3 2.9 8.9 2.9 11.8 0 3-2.9 8.9-2.9 11.8 0 3 2.9 8.9 2.9 11.8 0 3-2.9 8.9-2.9 11.8 0 3 2.9 8.9 2.9 11.8 0 3-2.9 8.9-2.9 11.8 0 3 2.9 8.9 2.9 11.8 0 3-2.9 8.9-2.9 11.8 0 3 2.9 8.9 2.9 11.8 0 3-2.9 8.9-2.9 11.8 0 3 2.9 8.9 2.9 11.8 0 3-2.9 8.9-2.9 11.8 0 3 2.9 8.9 2.9 11.8 0 3-2.9 8.9-2.9 11.8 0 3 2.9 8.9 2.9 11.8 0 3-2.9 8.9-2.9 11.8 0 3 2.9 8.9 2.9 11.8 0 3-2.9 8.9-2.9 11.8 0 3 2.9 8.9 2.9 11.8 0 3-2.9 8.9-2.9 11.8 0 3 2.9 8.9 2.9 11.8 0 3-2.9 8.9-2.9 11.8 0 3 2.9 8.9 2.9 11.8 0 3-2.9 8.9-2.9 11.8 0 3 2.9 8.9 2.9 11.8 0 3-2.9 8.9-2.9 11.8 0 3 2.9 8.9 2.9 11.8 0 3-2.9 8.9-2.9 11.8 0 3 2.9 8.9 2.9 11.8 0" stroke="#1D1D1D" stroke-width="3" mask="url(#b)"/></g><g opacity=".5" transform="translate(30 389)"><mask id="d" fill="#fff"><use xlink:href="#c"/></mask><path d="M-48.2 10.1c3-2.9 8.9-2.9 11.8 0 3 2.9 8.9 2.9 11.8 0 3-2.9 8.9-2.9 11.8 0 3 2.9 8.9 2.9 11.8 0 3-2.9 8.9-2.9 11.8 0 3 2.9 8.9 2.9 11.8 0 3-2.9 8.9-2.9 11.8 0 3 2.9 8.9 2.9 11.8 0 3-2.9 8.9-2.9 11.8 0 3 2.9 8.9 2.9 11.8 0 3-2.9 8.9-2.9 11.8 0 3 2.9 8.9 2.9 11.8 0 3-2.9 8.9-2.9 11.8 0 3 2.9 8.9 2.9 11.8 0 3-2.9 8.9-2.9 11.8 0 3 2.9 8.9 2.9 11.8 0 3-2.9 8.9-2.9 11.8 0 3 2.9 8.9 2.9 11.8 0 3-2.9 8.9-2.9 11.8 0 3 2.9 8.9 2.9 11.8 0 3-2.9 8.9-2.9 11.8 0 3 2.9 8.9 2.9 11.8 0 3-2.9 8.9-2.9 11.8 0 3 2.9 8.9 2.9 11.8 0 3-2.9 8.9-2.9 11.8 0 3 2.9 8.9 2.9 11.8 0 3-2.9 8.9-2.9 11.8 0 3 2.9 8.9 2.9 11.8 0 3-2.9 8.9-2.9 11.8 0 3 2.9 8.9 2.9 11.8 0 3-2.9 8.9-2.9 11.8 0 3 2.9 8.9 2.9 11.8 0 3-2.9 8.9-2.9 11.8 0 3 2.9 8.9 2.9 11.8 0 3-2.9 8.9-2.9 11.8 0 3 2.9 8.9 2.9 11.8 0 3-2.9 8.9-2.9 11.8 0 3 2.9 8.9 2.9 11.8 0 3-2.9 8.9-2.9 11.8 0 3 2.9 8.9 2.9 11.8 0 3-2.9 8.9-2.9 11.8 0 3 2.9 8.9 2.9 11.8 0 3-2.9 8.9-2.9 11.8 0 3 2.9 8.9 2.9 11.8 0 3-2.9 8.9-2.9 11.8 0 3 2.9 8.9 2.9 11.8 0 3-2.9 8.9-2.9 11.8 0 3 2.9 8.9 2.9 11.8 0 3-2.9 8.9-2.9 11.8 0 3 2.9 8.9 2.9 11.8 0 3-2.9 8.9-2.9 11.8 0 3 2.9 8.9 2.9 11.8 0 3-2.9 8.9-2.9 11.8 0 3 2.9 8.9 2.9 11.8 0 3-2.9 8.9-2.9 11.8 0 3 2.9 8.9 2.9 11.8 0 3-2.9 8.9-2.9 11.8 0 3 2.9 8.9 2.9 11.8 0 3-2.9 8.9-2.9 11.8 0 3 2.9 8.9 2.9 11.8 0 3-2.9 8.9-2.9 11.8 0 3 2.9 8.9 2.9 11.8 0 3-2.9 8.9-2.9 11.8 0 3 2.9 8.9 2.9 11.8 0 3-2.9 8.9-2.9 11.8 0 3 2.9 8.9 2.9 11.8 0 3-2.9 8.9-2.9 11.8 0 3 2.9 8.9 2.9 11.8 0 3-2.9 8.9-2.9 11.8 0 3 2.9 8.9 2.9 11.8 0 3-2.9 8.9-2.9 11.8 0 3 2.9 8.9 2.9 11.8 0 3-2.9 8.9-2.9 11.8 0 3 2.9 8.9 2.9 11.8 0 3-2.9 8.9-2.9 11.8 0 3 2.9 8.9 2.9 11.8 0 3-2.9 8.9-2.9 11.8 0 3 2.9 8.9 2.9 11.8 0 3-2.9 8.9-2.9 11.8 0 3 2.9 8.9 2.9 11.8 0 3-2.9 8.9-2.9 11.8 0 3 2.9 8.9 2.9 11.8 0 3-2.9 8.9-2.9 11.8 0 3 2.9 8.9 2.9 11.8 0 3-2.9 8.9-2.9 11.8 0 3 2.9 8.9 2.9 11.8 0 3-2.9 8.9-2.9 11.8 0 3 2.9 8.9 2.9 11.8 0 3-2.9 8.9-2.9 11.8 0 3 2.9 8.9 2.9 11.8 0 3-2.9 8.9-2.9 11.8 0 3 2.9 8.9 2.9 11.8 0 3-2.9 8.9-2.9 11.8 0 3 2.9 8.9 2.9 11.8 0 3-2.9 8.9-2.9 11.8 0 3 2.9 8.9 2.9 11.8 0" stroke="#1D1D1D" stroke-width="3" mask="url(#d)"/></g><g opacity=".5" transform="translate(356 357)"><mask id="f" fill="#fff"><use xlink:href="#e"/></mask><path d="M-99 12.1c3-2.9 8.9-2.9 11.8 0 3 2.9 8.9 2.9 11.8 0 3-2.9 8.9-2.9 11.8 0 3 2.9 8.9 2.9 11.8 0 3-2.9 8.9-2.9 11.8 0 3 2.9 8.9 2.9 11.8 0 3-2.9 8.9-2.9 11.8 0 3 2.9 8.9 2.9 11.8 0 3-2.9 8.9-2.9 11.8 0 3 2.9 8.9 2.9 11.8 0 3-2.9 8.9-2.9 11.8 0 3 2.9 8.9 2.9 11.8 0 3-2.9 8.9-2.9 11.8 0 3 2.9 8.9 2.9 11.8 0 3-2.9 8.9-2.9 11.8 0 3 2.9 8.9 2.9 11.8 0 3-2.9 8.9-2.9 11.8 0 3 2.9 8.9 2.9 11.8 0 3-2.9 8.9-2.9 11.8 0 3 2.9 8.9 2.9 11.8 0 3-2.9 8.9-2.9 11.8 0 3 2.9 8.9 2.9 11.8 0 3-2.9 8.9-2.9 11.8 0 3 2.9 8.9 2.9 11.8 0 3-2.9 8.9-2.9 11.8 0 3 2.9 8.9 2.9 11.8 0 3-2.9 8.9-2.9 11.8 0 3 2.9 8.9 2.9 11.8 0 3-2.9 8.9-2.9 11.8 0 3 2.9 8.9 2.9 11.8 0 3-2.9 8.9-2.9 11.8 0 3 2.9 8.9 2.9 11.8 0 3-2.9 8.9-2.9 11.8 0 3 2.9 8.9 2.9 11.8 0 3-2.9 8.9-2.9 11.8 0 3 2.9 8.9 2.9 11.8 0 3-2.9 8.9-2.9 11.8 0 3 2.9 8.9 2.9 11.8 0 3-2.9 8.9-2.9 11.8 0 3 2.9 8.9 2.9 11.8 0 3-2.9 8.9-2.9 11.8 0 3 2.9 8.9 2.9 11.8 0 3-2.9 8.9-2.9 11.8 0 3 2.9 8.9 2.9 11.8 0 3-2.9 8.9-2.9 11.8 0 3 2.9 8.9 2.9 11.8 0 3-2.9 8.9-2.9 11.8 0 3 2.9 8.9 2.9 11.8 0 3-2.9 8.9-2.9 11.8 0 3 2.9 8.9 2.9 11.8 0 3-2.9 8.9-2.9 11.8 0 3 2.9 8.9 2.9 11.8 0 3-2.9 8.9-2.9 11.8 0 3 2.9 8.9 2.9 11.8 0 3-2.9 8.9-2.9 11.8 0 3 2.9 8.9 2.9 11.8 0 3-2.9 8.9-2.9 11.8 0 3 2.9 8.9 2.9 11.8 0 3-2.9 8.9-2.9 11.8 0 3 2.9 8.9 2.9 11.8 0 3-2.9 8.9-2.9 11.8 0 3 2.9 8.9 2.9 11.8 0 3-2.9 8.9-2.9 11.8 0 3 2.9 8.9 2.9 11.8 0 3-2.9 8.9-2.9 11.8 0 3 2.9 8.9 2.9 11.8 0 3-2.9 8.9-2.9 11.8 0 3 2.9 8.9 2.9 11.8 0 3-2.9 8.9-2.9 11.8 0 3 2.9 8.9 2.9 11.8 0 3-2.9 8.9-2.9 11.8 0 3 2.9 8.9 2.9 11.8 0 3-2.9 8.9-2.9 11.8 0 3 2.9 8.9 2.9 11.8 0 3-2.9 8.9-2.9 11.8 0 3 2.9 8.9 2.9 11.8 0 3-2.9 8.9-2.9 11.8 0 3 2.9 8.9 2.9 11.8 0 3-2.9 8.9-2.9 11.8 0 3 2.9 8.9 2.9 11.8 0 3-2.9 8.9-2.9 11.8 0 3 2.9 8.9 2.9 11.8 0 3-2.9 8.9-2.9 11.8 0 3 2.9 8.9 2.9 11.8 0 3-2.9 8.9-2.9 11.8 0 3 2.9 8.9 2.9 11.8 0 3-2.9 8.9-2.9 11.8 0 3 2.9 8.9 2.9 11.8 0 3-2.9 8.9-2.9 11.8 0 3 2.9 8.9 2.9 11.8 0 3-2.9 8.9-2.9 11.8 0 3 2.9 8.9 2.9 11.8 0 3-2.9 8.9-2.9 11.8 0 3 2.9 8.9 2.9 11.8 0 3-2.9 8.9-2.9 11.8 0 3 2.9 8.9 2.9 11.8 0" stroke="#1D1D1D" stroke-width="3" mask="url(#f)"/></g><g opacity=".5" transform="translate(1120 357)"><mask id="h" fill="#fff"><use xlink:href="#g"/></mask><path d="M-155 12.1c3-2.9 8.9-2.9 11.8 0 3 2.9 8.9 2.9 11.8 0 3-2.9 8.9-2.9 11.8 0 3 2.9 8.9 2.9 11.8 0 3-2.9 8.9-2.9 11.8 0 3 2.9 8.9 2.9 11.8 0 3-2.9 8.9-2.9 11.8 0 3 2.9 8.9 2.9 11.8 0 3-2.9 8.9-2.9 11.8 0 3 2.9 8.9 2.9 11.8 0 3-2.9 8.9-2.9 11.8 0 3 2.9 8.9 2.9 11.8 0 3-2.9 8.9-2.9 11.8 0 3 2.9 8.9 2.9 11.8 0 3-2.9 8.9-2.9 11.8 0 3 2.9 8.9 2.9 11.8 0 3-2.9 8.9-2.9 11.8 0 3 2.9 8.9 2.9 11.8 0 3-2.9 8.9-2.9 11.8 0 3 2.9 8.9 2.9 11.8 0 3-2.9 8.9-2.9 11.8 0 3 2.9 8.9 2.9 11.8 0 3-2.9 8.9-2.9 11.8 0 3 2.9 8.9 2.9 11.8 0 3-2.9 8.9-2.9 11.8 0 3 2.9 8.9 2.9 11.8 0 3-2.9 8.9-2.9 11.8 0 3 2.9 8.9 2.9 11.8 0 3-2.9 8.9-2.9 11.8 0 3 2.9 8.9 2.9 11.8 0 3-2.9 8.9-2.9 11.8 0 3 2.9 8.9 2.9 11.8 0 3-2.9 8.9-2.9 11.8 0 3 2.9 8.9 2.9 11.8 0 3-2.9 8.9-2.9 11.8 0 3 2.9 8.9 2.9 11.8 0 3-2.9 8.9-2.9 11.8 0 3 2.9 8.9 2.9 11.8 0 3-2.9 8.9-2.9 11.8 0 3 2.9 8.9 2.9 11.8 0 3-2.9 8.9-2.9 11.8 0 3 2.9 8.9 2.9 11.8 0 3-2.9 8.9-2.9 11.8 0 3 2.9 8.9 2.9 11.8 0 3-2.9 8.9-2.9 11.8 0 3 2.9 8.9 2.9 11.8 0 3-2.9 8.9-2.9 11.8 0 3 2.9 8.9 2.9 11.8 0 3-2.9 8.9-2.9 11.8 0 3 2.9 8.9 2.9 11.8 0 3-2.9 8.9-2.9 11.8 0 3 2.9 8.9 2.9 11.8 0 3-2.9 8.9-2.9 11.8 0 3 2.9 8.9 2.9 11.8 0 3-2.9 8.9-2.9 11.8 0 3 2.9 8.9 2.9 11.8 0 3-2.9 8.9-2.9 11.8 0 3 2.9 8.9 2.9 11.8 0 3-2.9 8.9-2.9 11.8 0 3 2.9 8.9 2.9 11.8 0 3-2.9 8.9-2.9 11.8 0 3 2.9 8.9 2.9 11.8 0 3-2.9 8.9-2.9 11.8 0 3 2.9 8.9 2.9 11.8 0 3-2.9 8.9-2.9 11.8 0 3 2.9 8.9 2.9 11.8 0 3-2.9 8.9-2.9 11.8 0 3 2.9 8.9 2.9 11.8 0 3-2.9 8.9-2.9 11.8 0 3 2.9 8.9 2.9 11.8 0 3-2.9 8.9-2.9 11.8 0 3 2.9 8.9 2.9 11.8 0 3-2.9 8.9-2.9 11.8 0 3 2.9 8.9 2.9 11.8 0 3-2.9 8.9-2.9 11.8 0 3 2.9 8.9 2.9 11.8 0 3-2.9 8.9-2.9 11.8 0 3 2.9 8.9 2.9 11.8 0 3-2.9 8.9-2.9 11.8 0 3 2.9 8.9 2.9 11.8 0 3-2.9 8.9-2.9 11.8 0 3 2.9 8.9 2.9 11.8 0 3-2.9 8.9-2.9 11.8 0 3 2.9 8.9 2.9 11.8 0 3-2.9 8.9-2.9 11.8 0 3 2.9 8.9 2.9 11.8 0 3-2.9 8.9-2.9 11.8 0 3 2.9 8.9 2.9 11.8 0 3-2.9 8.9-2.9 11.8 0 3 2.9 8.9 2.9 11.8 0 3-2.9 8.9-2.9 11.8 0 3 2.9 8.9 2.9 11.8 0 3-2.9 8.9-2.9 11.8 0 3 2.9 8.9 2.9 11.8 0 3-2.9 8.9-2.9 11.8 0 3 2.9 8.9 2.9 11.8 0" stroke="#1D1D1D" stroke-width="3" mask="url(#h)"/></g><g opacity=".5" transform="translate(102 372)"><mask id="j" fill="#fff"><use xlink:href="#i"/></mask><path d="M-101 12.1c3-2.9 8.9-2.9 11.8 0 3 2.9 8.9 2.9 11.8 0 3-2.9 8.9-2.9 11.8 0 3 2.9 8.9 2.9 11.8 0 3-2.9 8.9-2.9 11.8 0 3 2.9 8.9 2.9 11.8 0 3-2.9 8.9-2.9 11.8 0 3 2.9 8.9 2.9 11.8 0 3-2.9 8.9-2.9 11.8 0 3 2.9 8.9 2.9 11.8 0 3-2.9 8.9-2.9 11.8 0 3 2.9 8.9 2.9 11.8 0 3-2.9 8.9-2.9 11.8 0 3 2.9 8.9 2.9 11.8 0 3-2.9 8.9-2.9 11.8 0 3 2.9 8.9 2.9 11.8 0 3-2.9 8.9-2.9 11.8 0 3 2.9 8.9 2.9 11.8 0 3-2.9 8.9-2.9 11.8 0 3 2.9 8.9 2.9 11.8 0 3-2.9 8.9-2.9 11.8 0 3 2.9 8.9 2.9 11.8 0 3-2.9 8.9-2.9 11.8 0 3 2.9 8.9 2.9 11.8 0 3-2.9 8.9-2.9 11.8 0 3 2.9 8.9 2.9 11.8 0 3-2.9 8.9-2.9 11.8 0 3 2.9 8.9 2.9 11.8 0 3-2.9 8.9-2.9 11.8 0 3 2.9 8.9 2.9 11.8 0 3-2.9 8.9-2.9 11.8 0 3 2.9 8.9 2.9 11.8 0 3-2.9 8.9-2.9 11.8 0 3 2.9 8.9 2.9 11.8 0 3-2.9 8.9-2.9 11.8 0 3 2.9 8.9 2.9 11.8 0 3-2.9 8.9-2.9 11.8 0 3 2.9 8.9 2.9 11.8 0 3-2.9 8.9-2.9 11.8 0 3 2.9 8.9 2.9 11.8 0 3-2.9 8.9-2.9 11.8 0 3 2.9 8.9 2.9 11.8 0 3-2.9 8.9-2.9 11.8 0 3 2.9 8.9 2.9 11.8 0 3-2.9 8.9-2.9 11.8 0 3 2.9 8.9 2.9 11.8 0 3-2.9 8.9-2.9 11.8 0 3 2.9 8.9 2.9 11.8 0 3-2.9 8.9-2.9 11.8 0 3 2.9 8.9 2.9 11.8 0 3-2.9 8.9-2.9 11.8 0 3 2.9 8.9 2.9 11.8 0 3-2.9 8.9-2.9 11.8 0 3 2.9 8.9 2.9 11.8 0 3-2.9 8.9-2.9 11.8 0 3 2.9 8.9 2.9 11.8 0 3-2.9 8.9-2.9 11.8 0 3 2.9 8.9 2.9 11.8 0 3-2.9 8.9-2.9 11.8 0 3 2.9 8.9 2.9 11.8 0 3-2.9 8.9-2.9 11.8 0 3 2.9 8.9 2.9 11.8 0 3-2.9 8.9-2.9 11.8 0 3 2.9 8.9 2.9 11.8 0 3-2.9 8.9-2.9 11.8 0 3 2.9 8.9 2.9 11.8 0 3-2.9 8.9-2.9 11.8 0 3 2.9 8.9 2.9 11.8 0 3-2.9 8.9-2.9 11.8 0 3 2.9 8.9 2.9 11.8 0 3-2.9 8.9-2.9 11.8 0 3 2.9 8.9 2.9 11.8 0 3-2.9 8.9-2.9 11.8 0 3 2.9 8.9 2.9 11.8 0 3-2.9 8.9-2.9 11.8 0 3 2.9 8.9 2.9 11.8 0 3-2.9 8.9-2.9 11.8 0 3 2.9 8.9 2.9 11.8 0 3-2.9 8.9-2.9 11.8 0 3 2.9 8.9 2.9 11.8 0 3-2.9 8.9-2.9 11.8 0 3 2.9 8.9 2.9 11.8 0 3-2.9 8.9-2.9 11.8 0 3 2.9 8.9 2.9 11.8 0 3-2.9 8.9-2.9 11.8 0 3 2.9 8.9 2.9 11.8 0 3-2.9 8.9-2.9 11.8 0 3 2.9 8.9 2.9 11.8 0 3-2.9 8.9-2.9 11.8 0 3 2.9 8.9 2.9 11.8 0 3-2.9 8.9-2.9 11.8 0 3 2.9 8.9 2.9 11.8 0 3-2.9 8.9-2.9 11.8 0 3 2.9 8.9 2.9 11.8 0 3-2.9 8.9-2.9 11.8 0 3 2.9 8.9 2.9 11.8 0" stroke="#1D1D1D" stroke-width="3" mask="url(#j)"/></g><g opacity=".5" transform="translate(759 371)"><mask id="l" fill="#fff"><use xlink:href="#k"/></mask><path d="M-499 13.1c3-2.9 8.9-2.9 11.8 0 3 2.9 8.9 2.9 11.8 0 3-2.9 8.9-2.9 11.8 0 3 2.9 8.9 2.9 11.8 0 3-2.9 8.9-2.9 11.8 0 3 2.9 8.9 2.9 11.8 0 3-2.9 8.9-2.9 11.8 0 3 2.9 8.9 2.9 11.8 0 3-2.9 8.9-2.9 11.8 0 3 2.9 8.9 2.9 11.8 0 3-2.9 8.9-2.9 11.8 0 3 2.9 8.9 2.9 11.8 0 3-2.9 8.9-2.9 11.8 0 3 2.9 8.9 2.9 11.8 0 3-2.9 8.9-2.9 11.8 0 3 2.9 8.9 2.9 11.8 0 3-2.9 8.9-2.9 11.8 0 3 2.9 8.9 2.9 11.8 0 3-2.9 8.9-2.9 11.8 0 3 2.9 8.9 2.9 11.8 0 3-2.9 8.9-2.9 11.8 0 3 2.9 8.9 2.9 11.8 0 3-2.9 8.9-2.9 11.8 0 3 2.9 8.9 2.9 11.8 0 3-2.9 8.9-2.9 11.8 0 3 2.9 8.9 2.9 11.8 0 3-2.9 8.9-2.9 11.8 0 3 2.9 8.9 2.9 11.8 0 3-2.9 8.9-2.9 11.8 0 3 2.9 8.9 2.9 11.8 0 3-2.9 8.9-2.9 11.8 0 3 2.9 8.9 2.9 11.8 0 3-2.9 8.9-2.9 11.8 0 3 2.9 8.9 2.9 11.8 0 3-2.9 8.9-2.9 11.8 0 3 2.9 8.9 2.9 11.8 0 3-2.9 8.9-2.9 11.8 0 3 2.9 8.9 2.9 11.8 0 3-2.9 8.9-2.9 11.8 0 3 2.9 8.9 2.9 11.8 0 3-2.9 8.9-2.9 11.8 0 3 2.9 8.9 2.9 11.8 0 3-2.9 8.9-2.9 11.8 0 3 2.9 8.9 2.9 11.8 0 3-2.9 8.9-2.9 11.8 0 3 2.9 8.9 2.9 11.8 0 3-2.9 8.9-2.9 11.8 0 3 2.9 8.9 2.9 11.8 0 3-2.9 8.9-2.9 11.8 0 3 2.9 8.9 2.9 11.8 0 3-2.9 8.9-2.9 11.8 0 3 2.9 8.9 2.9 11.8 0 3-2.9 8.9-2.9 11.8 0 3 2.9 8.9 2.9 11.8 0 3-2.9 8.9-2.9 11.8 0 3 2.9 8.9 2.9 11.8 0 3-2.9 8.9-2.9 11.8 0 3 2.9 8.9 2.9 11.8 0 3-2.9 8.9-2.9 11.8 0 3 2.9 8.9 2.9 11.8 0 3-2.9 8.9-2.9 11.8 0 3 2.9 8.9 2.9 11.8 0 3-2.9 8.9-2.9 11.8 0 3 2.9 8.9 2.9 11.8 0 3-2.9 8.9-2.9 11.8 0 3 2.9 8.9 2.9 11.8 0 3-2.9 8.9-2.9 11.8 0 3 2.9 8.9 2.9 11.8 0 3-2.9 8.9-2.9 11.8 0 3 2.9 8.9 2.9 11.8 0 3-2.9 8.9-2.9 11.8 0 3 2.9 8.9 2.9 11.8 0 3-2.9 8.9-2.9 11.8 0 3 2.9 8.9 2.9 11.8 0 3-2.9 8.9-2.9 11.8 0 3 2.9 8.9 2.9 11.8 0 3-2.9 8.9-2.9 11.8 0 3 2.9 8.9 2.9 11.8 0a6.928 6.928 0 0 1 1.385-1.03" stroke="#1D1D1D" stroke-width="3" mask="url(#l)"/></g><g opacity=".5" transform="translate(1362 371)"><mask id="n" fill="#fff"><use xlink:href="#m"/></mask><path d="M-764 13.1c3-2.9 8.9-2.9 11.8 0 3 2.9 8.9 2.9 11.8 0 3-2.9 8.9-2.9 11.8 0 3 2.9 8.9 2.9 11.8 0 3-2.9 8.9-2.9 11.8 0 3 2.9 8.9 2.9 11.8 0 3-2.9 8.9-2.9 11.8 0 3 2.9 8.9 2.9 11.8 0 3-2.9 8.9-2.9 11.8 0 3 2.9 8.9 2.9 11.8 0 3-2.9 8.9-2.9 11.8 0 3 2.9 8.9 2.9 11.8 0 3-2.9 8.9-2.9 11.8 0 3 2.9 8.9 2.9 11.8 0 3-2.9 8.9-2.9 11.8 0 3 2.9 8.9 2.9 11.8 0 3-2.9 8.9-2.9 11.8 0 3 2.9 8.9 2.9 11.8 0 3-2.9 8.9-2.9 11.8 0 3 2.9 8.9 2.9 11.8 0 3-2.9 8.9-2.9 11.8 0 3 2.9 8.9 2.9 11.8 0 3-2.9 8.9-2.9 11.8 0 3 2.9 8.9 2.9 11.8 0 3-2.9 8.9-2.9 11.8 0 3 2.9 8.9 2.9 11.8 0 3-2.9 8.9-2.9 11.8 0 3 2.9 8.9 2.9 11.8 0 3-2.9 8.9-2.9 11.8 0 3 2.9 8.9 2.9 11.8 0 3-2.9 8.9-2.9 11.8 0 3 2.9 8.9 2.9 11.8 0 3-2.9 8.9-2.9 11.8 0 3 2.9 8.9 2.9 11.8 0 3-2.9 8.9-2.9 11.8 0 3 2.9 8.9 2.9 11.8 0 3-2.9 8.9-2.9 11.8 0 3 2.9 8.9 2.9 11.8 0 3-2.9 8.9-2.9 11.8 0 3 2.9 8.9 2.9 11.8 0 3-2.9 8.9-2.9 11.8 0 3 2.9 8.9 2.9 11.8 0 3-2.9 8.9-2.9 11.8 0 3 2.9 8.9 2.9 11.8 0 3-2.9 8.9-2.9 11.8 0 3 2.9 8.9 2.9 11.8 0 3-2.9 8.9-2.9 11.8 0 3 2.9 8.9 2.9 11.8 0 3-2.9 8.9-2.9 11.8 0 3 2.9 8.9 2.9 11.8 0 3-2.9 8.9-2.9 11.8 0 3 2.9 8.9 2.9 11.8 0 3-2.9 8.9-2.9 11.8 0 3 2.9 8.9 2.9 11.8 0 3-2.9 8.9-2.9 11.8 0 3 2.9 8.9 2.9 11.8 0 3-2.9 8.9-2.9 11.8 0 3 2.9 8.9 2.9 11.8 0 3-2.9 8.9-2.9 11.8 0 3 2.9 8.9 2.9 11.8 0 3-2.9 8.9-2.9 11.8 0 3 2.9 8.9 2.9 11.8 0 3-2.9 8.9-2.9 11.8 0 3 2.9 8.9 2.9 11.8 0 3-2.9 8.9-2.9 11.8 0 3 2.9 8.9 2.9 11.8 0 3-2.9 8.9-2.9 11.8 0 3 2.9 8.9 2.9 11.8 0 3-2.9 8.9-2.9 11.8 0 3 2.9 8.9 2.9 11.8 0 3-2.9 8.9-2.9 11.8 0 3 2.9 8.9 2.9 11.8 0 3-2.9 8.9-2.9 11.8 0 3 2.9 8.9 2.9 11.8 0 3-2.9 8.9-2.9 11.8 0 3 2.9 8.9 2.9 11.8 0 3-2.9 8.9-2.9 11.8 0 3 2.9 8.9 2.9 11.8 0a6.928 6.928 0 0 1 1.385-1.03" stroke="#1D1D1D" stroke-width="3" mask="url(#n)"/></g><path stroke="#1D1D1D" stroke-width="3" d="M0 155h207l32.5 145H252"/><path d="M197 166v-20" stroke="#000" stroke-width="3"/><path d="M913 465h-12m12 5h-12m12 5h-12" stroke="#E63331" stroke-width="3"/><g transform="translate(871 458)" stroke-width="3" stroke="#E63331"><rect y="1" width="30" height="52" rx="4"/><path d="M6 .217v15.826M30 17.5H0m30 18H0m30-6H0m30-6H0M12 .217v15.826M18 .217v15.826M24 .217v15.826M10 35.957v17m10-17v17"/></g><g transform="translate(913 458)" stroke-width="3" stroke="#E63331"><rect y="1" width="30" height="52" rx="4"/><path d="M6 .217v15.826M30 17.5H0m30 18H0m30-6H0m30-6H0M12 .217v15.826M18 .217v15.826M24 .217v15.826M10 35.957v17m10-17v17"/></g><g transform="translate(871 517)" stroke-width="3" stroke="#E63331"><rect y="1" width="30" height="52" rx="4"/><path d="M6 .217v15.826M30 17.5H0m30 18H0m30-6H0m30-6H0M12 .217v15.826M18 .217v15.826M24 .217v15.826M10 35.957v17m10-17v17"/></g><g transform="translate(913 517)" stroke-width="3" stroke="#E63331"><rect y="1" width="30" height="52" rx="4"/><path d="M6 .217v15.826M30 17.5H0m30 18H0m30-6H0m30-6H0M12 .217v15.826M18 .217v15.826M24 .217v15.826M10 35.957v17m10-17v17"/></g><path d="M912 524h-11m11 5h-11m11 5h-11" stroke="#E63331" stroke-width="3"/><g transform="translate(783 501)"><rect stroke="#E63331" stroke-width="3" fill="#E63331" width="72" height="18" rx="4"/><path d="M4 6v10m6-14v14m6-14v14" stroke="#FFF" stroke-width="3"/><path d="M25 2v14M35 2v14M45 2v14M55 2v14M65 2v14" stroke="#FFF" stroke-width="5"/></g><g transform="translate(783 478)" stroke-width="3"><rect stroke="#E63331" fill="#E63331" width="51" height="17" rx="4"/><path d="M4 4v8m6-8v8m4 1h34" stroke="#FFF"/></g><path stroke="#1D1D1D" stroke-width="3" fill="#FFF" stroke-linecap="round" stroke-linejoin="round" d="M33 349l54.87-146.91 12.93-86.29L121.5 45l20.7 70.8 12.93 86.29L210 349h-8.85l-53.1-34.96h-53.1L41.85 349z"/><path d="M48 314h148M89 202h66m-81 41h96" stroke="#1D1D1D" stroke-width="3" stroke-linecap="square"/><path d="M196 314L73 245m0-2l82-39m-1-3l-57-55m0-1l45-28" stroke="#1D1D1D" stroke-width="3"/><path stroke="#1D1D1D" stroke-width="3" stroke-linejoin="round" d="M142.934 116.144L228 146H15l85.466-30z"/><path stroke="#1D1D1D" stroke-width="3" d="M0 161h55l184.5 149H252"/><path d="M718 361h-12c-13.2 0-24 10.8-24 24v44m36-68h17c13.2 0 24 10.8 24 24v30M497 663h161c13.2 0 24-10.8 24-24V428" stroke="#E63331" stroke-width="3"/><g stroke="#E63331"><path stroke-width="3" fill="#FFF" fill-rule="nonzero" d="M251.3 281.1h67.8v68h-67.8z"/><path d="M262.4 325.8v-44.7m11.4 44.7v-44.7m11.3 44.7v-44.7m11.3 44.7v-44.7m11.4 44.7v-44.7m11.3 58.8h-67.8" stroke-width="3"/><path d="M319.1 328.6h-67.8" stroke-width="6"/></g><path d="M1221 306h-84c-13.2 0-24 10.8-24 24v5" stroke="#E63331" stroke-width="3"/><path d="M541.602 171v-10.672h7.554v2h-5.281v2.242h5.164v2h-5.164V169h5.281v2h-7.554zm9.273-1.938v-8.734h2.031v8.195c0 .25.063.456.188.618a.616.616 0 0 0 .515.242c.146 0 .286-.024.418-.07a.652.652 0 0 0 .285-.172l.438 1.554c-.37.334-.935.5-1.695.5-.709 0-1.249-.18-1.621-.543-.373-.362-.559-.892-.559-1.59zm4.273-1.937c0-.745.17-1.424.508-2.04a3.804 3.804 0 0 1 1.43-1.464 3.988 3.988 0 0 1 2.062-.543c1.157 0 2.09.392 2.801 1.176.711.784 1.067 1.806 1.067 3.066v.477h-5.743c.073.5.305.914.696 1.242.39.328.9.492 1.531.492.344 0 .712-.069 1.105-.207.394-.138.707-.321.942-.55l.906 1.343c-.375.344-.845.61-1.41.797a5.582 5.582 0 0 1-1.77.281c-1.192 0-2.178-.373-2.957-1.12-.778-.748-1.168-1.731-1.168-2.95zm2.11-.734h3.804a1.797 1.797 0 0 0-.14-.57 2.032 2.032 0 0 0-.332-.524c-.143-.167-.34-.3-.59-.402a2.246 2.246 0 0 0-.852-.153c-.302 0-.572.05-.812.149-.24.099-.432.23-.578.394-.146.164-.26.339-.344.524a1.872 1.872 0 0 0-.156.582zm7.226 4.609v-10.672h2.032v6.383l2.93-3.438h2.491l-3.054 3.5 3.156 4.227h-2.547l-2.047-2.977-.93.993V171h-2.03zm7.703-5.953v-1.774h1.282v-2.117h2.031v2.117h1.57v1.774h-1.57v3.476c0 .25.062.456.188.618a.616.616 0 0 0 .515.242c.146 0 .287-.024.422-.07a.653.653 0 0 0 .29-.172l.429 1.554c-.37.334-.935.5-1.696.5-.708 0-1.248-.18-1.62-.543-.373-.362-.56-.892-.56-1.59v-4.015h-1.28zm6.274 5.953v-7.727h2.031v1.04a3.65 3.65 0 0 1 1.113-.883 2.882 2.882 0 0 1 1.356-.352v1.984a2.696 2.696 0 0 0-.563-.046c-.343 0-.705.087-1.086.261-.38.175-.653.382-.82.621V171h-2.031zm5.914-8.914a1.186 1.186 0 0 1-.352-.86c0-.333.119-.617.356-.851.237-.234.52-.352.848-.352.338 0 .626.118.863.352.237.234.355.518.355.852 0 .333-.118.618-.355.855a1.175 1.175 0 0 1-.863.356c-.329 0-.612-.118-.852-.352zm-.156 8.914v-7.727h2.031V171h-2.031zm3.375-1.008l.883-1.469c.302.287.707.537 1.214.75.508.214.994.32 1.457.32.428 0 .75-.073.97-.222a.689.689 0 0 0 .327-.598c0-.166-.084-.304-.254-.414a2.078 2.078 0 0 0-.656-.257 19.486 19.486 0 0 0-.89-.184 7.883 7.883 0 0 1-.977-.246 4.204 4.204 0 0 1-.89-.399 1.846 1.846 0 0 1-.657-.691c-.17-.3-.254-.655-.254-1.066 0-.683.281-1.26.844-1.73.562-.472 1.336-.708 2.32-.708 1.188 0 2.224.352 3.11 1.055l-.82 1.445c-.245-.255-.575-.469-.989-.64a3.36 3.36 0 0 0-1.3-.258c-.365 0-.658.07-.88.21-.221.141-.332.32-.332.54 0 .135.065.248.196.34.13.09.303.161.52.21l.734.168c.273.063.554.124.843.184.29.06.57.154.844.281.273.128.518.275.734.442.217.166.39.393.52.68.13.286.195.617.195.992 0 .729-.298 1.322-.894 1.78-.597.46-1.418.688-2.465.688a5.803 5.803 0 0 1-1.926-.32c-.612-.214-1.121-.508-1.527-.883zM595.89 171v-10.672h2.03v6.383l2.93-3.438h2.493l-3.055 3.5 3.156 4.227h-2.547l-2.046-2.977-.93.993V171h-2.031zm-61.282 16.992l.883-1.469c.302.287.707.537 1.215.75.508.214.994.32 1.457.32.427 0 .75-.073.969-.222a.689.689 0 0 0 .328-.598c0-.166-.085-.304-.254-.414a2.078 2.078 0 0 0-.656-.257 19.486 19.486 0 0 0-.89-.184 7.883 7.883 0 0 1-.977-.246 4.204 4.204 0 0 1-.891-.399 1.846 1.846 0 0 1-.656-.691c-.17-.3-.254-.655-.254-1.066 0-.683.281-1.26.844-1.73.562-.472 1.335-.708 2.32-.708 1.187 0 2.224.352 3.11 1.055l-.821 1.445c-.245-.255-.574-.469-.988-.64a3.36 3.36 0 0 0-1.301-.258c-.365 0-.658.07-.879.21-.221.141-.332.32-.332.54 0 .135.065.248.195.34.13.09.304.161.52.21l.734.168c.274.063.555.124.844.184.289.06.57.154.844.281.273.128.518.275.734.442.216.166.39.393.52.68.13.286.195.617.195.992 0 .729-.298 1.322-.895 1.78-.596.46-1.418.688-2.465.688a5.803 5.803 0 0 1-1.925-.32c-.612-.214-1.121-.508-1.528-.883zm7.805-2.867c0-.745.17-1.424.508-2.04a3.804 3.804 0 0 1 1.43-1.464 3.988 3.988 0 0 1 2.062-.543c1.156 0 2.09.392 2.8 1.176.712.784 1.067 1.806 1.067 3.066v.477h-5.742c.073.5.305.914.695 1.242.391.328.901.492 1.532.492.343 0 .712-.069 1.105-.207.393-.138.707-.321.942-.55l.906 1.343c-.375.344-.845.61-1.41.797a5.582 5.582 0 0 1-1.77.281c-1.193 0-2.178-.373-2.957-1.12-.779-.748-1.168-1.731-1.168-2.95zm2.11-.734h3.804a1.797 1.797 0 0 0-.14-.57 2.032 2.032 0 0 0-.333-.524c-.143-.167-.34-.3-.59-.402a2.246 2.246 0 0 0-.85-.153c-.303 0-.574.05-.813.149a1.55 1.55 0 0 0-.579.394c-.145.164-.26.339-.343.524a1.872 1.872 0 0 0-.157.582zM551.75 189v-7.727h2.031v1.04a3.65 3.65 0 0 1 1.114-.883 2.882 2.882 0 0 1 1.355-.352v1.984a2.696 2.696 0 0 0-.563-.046 2.61 2.61 0 0 0-1.085.261c-.38.175-.654.382-.82.621V189h-2.032zm4.656-7.727h2.172l2.016 5.375 2.031-5.375h2.18L561.703 189h-2.195l-3.102-7.727zm9.461-1.187a1.186 1.186 0 0 1-.351-.86c0-.333.118-.617.355-.851.237-.234.52-.352.848-.352.338 0 .626.118.863.352.237.234.356.518.356.852 0 .333-.119.618-.356.855a1.175 1.175 0 0 1-.863.356 1.18 1.18 0 0 1-.852-.352zm-.156 8.914v-7.727h2.031V189h-2.031zm3.555-3.875c0-1.182.385-2.152 1.156-2.91.77-.758 1.75-1.137 2.937-1.137 1.355 0 2.373.464 3.055 1.39l-1.328 1.25c-.37-.551-.914-.827-1.633-.827-.62 0-1.124.205-1.512.617-.388.411-.582.95-.582 1.617 0 .672.194 1.216.582 1.633.388.416.892.625 1.512.625.698 0 1.242-.281 1.633-.844l1.328 1.242a3.477 3.477 0 0 1-1.203 1.012c-.505.268-1.122.402-1.852.402-1.187 0-2.166-.381-2.937-1.144-.771-.763-1.156-1.738-1.156-2.926zm7.976 0c0-.745.17-1.424.508-2.04a3.804 3.804 0 0 1 1.43-1.464 3.988 3.988 0 0 1 2.062-.543c1.156 0 2.09.392 2.801 1.176.71.784 1.066 1.806 1.066 3.066v.477h-5.742c.073.5.305.914.696 1.242.39.328.9.492 1.53.492.345 0 .713-.069 1.106-.207.393-.138.707-.321.942-.55l.906 1.343c-.375.344-.845.61-1.41.797a5.582 5.582 0 0 1-1.77.281c-1.193 0-2.178-.373-2.957-1.12-.778-.748-1.168-1.731-1.168-2.95zm2.11-.734h3.804a1.797 1.797 0 0 0-.14-.57 2.032 2.032 0 0 0-.332-.524c-.144-.167-.34-.3-.59-.402a2.246 2.246 0 0 0-.852-.153c-.302 0-.573.05-.812.149-.24.099-.433.23-.578.394-.146.164-.26.339-.344.524a1.872 1.872 0 0 0-.156.582zm7.226 4.609v-10.672h2.031v3.938a2.95 2.95 0 0 1 1.063-.887c.411-.2.851-.3 1.32-.3 1.005 0 1.828.365 2.469 1.097.64.732.96 1.715.96 2.949 0 1.266-.32 2.26-.96 2.984-.64.724-1.464 1.086-2.469 1.086-.958 0-1.752-.396-2.383-1.187V189h-2.03zm2.031-2.477c.177.25.431.456.762.618.33.161.663.242.996.242.584 0 1.055-.209 1.414-.625.36-.417.54-.961.54-1.633 0-.667-.18-1.206-.54-1.617-.36-.412-.83-.617-1.414-.617-.333 0-.665.083-.996.25-.33.166-.585.38-.762.64v2.742zm6.852-1.398c0-1.234.319-2.217.957-2.95.638-.731 1.46-1.097 2.465-1.097.969 0 1.763.396 2.383 1.188v-.993h2.047V189h-2.047v-.992c-.63.791-1.425 1.187-2.383 1.187-1 0-1.82-.362-2.461-1.086-.64-.724-.961-1.718-.961-2.984zm2.094 0c0 .672.182 1.216.547 1.633.364.416.838.625 1.421.625.339 0 .672-.082 1-.246.329-.164.576-.374.743-.63v-2.726c-.167-.255-.414-.467-.743-.636a2.16 2.16 0 0 0-1-.254c-.583 0-1.057.205-1.421.617-.365.411-.547.95-.547 1.617zm.508-6.57c0-.464.165-.86.496-1.188a1.62 1.62 0 0 1 1.183-.492c.464 0 .857.164 1.18.492.323.328.484.724.484 1.188 0 .458-.161.853-.484 1.183a1.585 1.585 0 0 1-1.18.496c-.458 0-.853-.165-1.183-.496a1.616 1.616 0 0 1-.496-1.183zm1.156-.532a.727.727 0 0 0-.227.532.72.72 0 0 0 .223.527.72.72 0 0 0 .527.223.71.71 0 0 0 .528-.22.73.73 0 0 0 .214-.53.743.743 0 0 0-.214-.535.704.704 0 0 0-.528-.223.719.719 0 0 0-.523.226zm5.242 5.024v-1.774h1.281v-2.117h2.031v2.117h1.57v1.774h-1.57v3.476c0 .25.063.456.188.618a.616.616 0 0 0 .516.242 1.3 1.3 0 0 0 .421-.07.653.653 0 0 0 .29-.172l.43 1.554c-.37.334-.936.5-1.696.5-.708 0-1.249-.18-1.621-.543-.373-.362-.559-.892-.559-1.59v-4.015h-1.281z" fill="#1D1D1D" opacity=".5"/><g transform="translate(569 207)"><path d="M3 3v47" stroke="#8E8E8E" stroke-width="2"/><circle fill="#8E8E8E" cx="3" cy="3" r="3"/><circle fill="#8E8E8E" cx="3" cy="50" r="3"/></g><g transform="translate(782 529)"><path d="M3 2.91v96" stroke="#8E8E8E" stroke-width="2"/><circle fill="#8E8E8E" cx="3" cy="3" r="3"/><circle fill="#8E8E8E" cx="3" cy="100" r="3"/></g><g transform="translate(757 458)"><path d="M3 2.441v167" stroke="#8E8E8E" stroke-width="2"/><circle fill="#8E8E8E" cx="3" cy="3" r="3"/><circle fill="#8E8E8E" cx="3" cy="171" r="3"/></g><g transform="translate(284 207)"><path d="M3 3v58" stroke="#8E8E8E" stroke-width="2"/><circle fill="#8E8E8E" cx="3" cy="3" r="3"/><circle fill="#8E8E8E" cx="3" cy="61" r="3"/></g><path d="M266.836 161.914a4.712 4.712 0 0 1 1.844-1.305 6.046 6.046 0 0 1 2.265-.437c.766 0 1.456.134 2.07.402a3.394 3.394 0 0 1 1.465 1.184c.362.52.543 1.127.543 1.82 0 .87-.345 1.724-1.035 2.563-.69.838-1.77 1.791-3.238 2.859h4.352v2h-8.032v-1.79a180.37 180.37 0 0 0 1.946-1.452c.5-.38.983-.762 1.449-1.145.466-.383.825-.698 1.078-.945.253-.247.477-.5.672-.758.195-.258.328-.488.398-.691.07-.203.106-.417.106-.64 0-.449-.168-.793-.504-1.032-.336-.24-.744-.36-1.223-.36-1.13 0-2.086.41-2.867 1.227l-1.29-1.5zm9.89 5.79a7.648 7.648 0 0 1-.265-2.032c0-.708.088-1.383.266-2.024.177-.64.44-1.224.789-1.75a3.813 3.813 0 0 1 1.39-1.257c.578-.313 1.235-.47 1.969-.47s1.39.157 1.969.47a3.813 3.813 0 0 1 1.39 1.257c.35.526.612 1.11.79 1.75.177.641.265 1.316.265 2.024s-.088 1.384-.266 2.027a6.112 6.112 0 0 1-.789 1.758c-.349.529-.812.95-1.39 1.266-.578.315-1.235.472-1.969.472s-1.39-.157-1.969-.472a3.833 3.833 0 0 1-1.39-1.266 6.12 6.12 0 0 1-.79-1.754zm2.055-2.032c0 .687.067 1.285.2 1.793.132.508.359.92.68 1.238.32.318.724.477 1.214.477s.895-.16 1.215-.477c.32-.318.547-.73.68-1.238.132-.508.199-1.106.199-1.793 0-.688-.065-1.283-.196-1.785-.13-.503-.355-.912-.675-1.227-.32-.315-.728-.472-1.223-.472-.37 0-.693.087-.969.261a1.795 1.795 0 0 0-.652.746 4.31 4.31 0 0 0-.356 1.098 7.382 7.382 0 0 0-.117 1.379zm7.86 2.031a7.648 7.648 0 0 1-.266-2.031c0-.708.089-1.383.266-2.024.177-.64.44-1.224.789-1.75a3.813 3.813 0 0 1 1.39-1.257c.578-.313 1.235-.47 1.97-.47.733 0 1.39.157 1.968.47a3.813 3.813 0 0 1 1.39 1.257c.35.526.612 1.11.79 1.75.177.641.265 1.316.265 2.024s-.088 1.384-.265 2.027a6.111 6.111 0 0 1-.79 1.758c-.349.529-.812.95-1.39 1.266-.578.315-1.235.472-1.969.472s-1.39-.157-1.969-.472a3.833 3.833 0 0 1-1.39-1.266 6.12 6.12 0 0 1-.79-1.754zm2.054-2.031c0 .687.067 1.285.2 1.793.132.508.359.92.68 1.238.32.318.724.477 1.214.477s.895-.16 1.215-.477c.32-.318.547-.73.68-1.238.132-.508.199-1.106.199-1.793 0-.688-.065-1.283-.195-1.785-.13-.503-.356-.912-.676-1.227-.32-.315-.728-.472-1.223-.472-.37 0-.693.087-.969.261a1.795 1.795 0 0 0-.652.746 4.31 4.31 0 0 0-.356 1.098 7.382 7.382 0 0 0-.117 1.379zm6.985-5.344h2.578l2.953 8.195 2.96-8.195h2.579L302.64 171h-2.85l-4.11-10.672zm-43.98 19.586a4.712 4.712 0 0 1 1.843-1.305 6.046 6.046 0 0 1 2.266-.437c.765 0 1.455.134 2.07.402a3.394 3.394 0 0 1 1.465 1.184c.362.52.543 1.127.543 1.82 0 .87-.345 1.724-1.035 2.563-.69.838-1.77 1.791-3.239 2.859h4.352v2h-8.031v-1.79a180.37 180.37 0 0 0 1.945-1.452c.5-.38.983-.762 1.45-1.145a17.59 17.59 0 0 0 1.077-.945c.253-.247.477-.5.672-.758.195-.258.328-.488.399-.691.07-.203.105-.417.105-.64 0-.449-.168-.793-.504-1.032-.336-.24-.743-.36-1.223-.36-1.13 0-2.085.41-2.867 1.227l-1.289-1.5zm9.89 5.79a7.648 7.648 0 0 1-.266-2.032c0-.708.089-1.383.266-2.024.177-.64.44-1.224.789-1.75a3.813 3.813 0 0 1 1.39-1.257c.579-.313 1.235-.47 1.97-.47.734 0 1.39.157 1.968.47a3.813 3.813 0 0 1 1.39 1.257c.35.526.613 1.11.79 1.75.177.641.265 1.316.265 2.024s-.088 1.384-.265 2.027a6.111 6.111 0 0 1-.79 1.758 3.83 3.83 0 0 1-1.39 1.266c-.578.315-1.234.472-1.969.472-.734 0-1.39-.157-1.968-.472a3.833 3.833 0 0 1-1.391-1.266 6.12 6.12 0 0 1-.79-1.754zm2.055-2.032c0 .687.066 1.285.199 1.793s.36.92.68 1.238c.32.318.725.477 1.214.477.49 0 .895-.16 1.215-.477.32-.318.547-.73.68-1.238s.199-1.106.199-1.793c0-.688-.065-1.283-.195-1.785-.13-.503-.356-.912-.676-1.227-.32-.315-.728-.472-1.223-.472-.37 0-.692.087-.968.261a1.795 1.795 0 0 0-.653.746 4.31 4.31 0 0 0-.355 1.098 7.382 7.382 0 0 0-.117 1.379zm7.859 2.031a7.648 7.648 0 0 1-.266-2.031c0-.708.089-1.383.266-2.024.177-.64.44-1.224.789-1.75a3.813 3.813 0 0 1 1.39-1.257c.579-.313 1.235-.47 1.97-.47.734 0 1.39.157 1.968.47a3.813 3.813 0 0 1 1.39 1.257c.35.526.613 1.11.79 1.75.177.641.265 1.316.265 2.024s-.088 1.384-.265 2.027a6.111 6.111 0 0 1-.79 1.758 3.83 3.83 0 0 1-1.39 1.266c-.578.315-1.234.472-1.969.472-.734 0-1.39-.157-1.968-.472a3.833 3.833 0 0 1-1.391-1.266 6.12 6.12 0 0 1-.79-1.754zm2.055-2.031c0 .687.066 1.285.199 1.793s.36.92.68 1.238c.32.318.725.477 1.214.477.49 0 .895-.16 1.215-.477.32-.318.547-.73.68-1.238s.2-1.106.2-1.793c0-.688-.066-1.283-.196-1.785-.13-.503-.356-.912-.676-1.227-.32-.315-.728-.472-1.223-.472-.37 0-.692.087-.968.261a1.795 1.795 0 0 0-.653.746 4.31 4.31 0 0 0-.355 1.098 7.382 7.382 0 0 0-.117 1.379zm7.859 2.031a7.648 7.648 0 0 1-.266-2.031c0-.708.089-1.383.266-2.024.177-.64.44-1.224.789-1.75a3.813 3.813 0 0 1 1.39-1.257c.579-.313 1.235-.47 1.97-.47.734 0 1.39.157 1.968.47a3.813 3.813 0 0 1 1.39 1.257c.35.526.613 1.11.79 1.75.177.641.265 1.316.265 2.024s-.088 1.384-.265 2.027a6.111 6.111 0 0 1-.79 1.758 3.83 3.83 0 0 1-1.39 1.266c-.578.315-1.234.472-1.969.472-.734 0-1.39-.157-1.968-.472a3.833 3.833 0 0 1-1.391-1.266 6.12 6.12 0 0 1-.789-1.754zm2.055-2.031c0 .687.066 1.285.199 1.793s.36.92.68 1.238c.32.318.725.477 1.214.477.49 0 .895-.16 1.215-.477.32-.318.547-.73.68-1.238s.2-1.106.2-1.793c0-.688-.066-1.283-.196-1.785-.13-.503-.356-.912-.676-1.227-.32-.315-.728-.472-1.223-.472-.37 0-.692.087-.968.261a1.795 1.795 0 0 0-.653.746 4.31 4.31 0 0 0-.355 1.098 7.382 7.382 0 0 0-.117 1.379zm8.101 5.328v-10.672h2.274v4.75l3.773-4.75h2.805l-4.242 5.008 4.53 5.664h-2.804l-3.234-4.29-.828 1.009V189h-2.274zm9.055-10.672h2.578l2.953 8.195 2.961-8.195h2.578L307.59 189h-2.85l-4.11-10.672zM310.816 189l4.11-10.672h2.851l4.11 10.672h-2.578l-.672-1.805h-4.57l-.672 1.805h-2.579zm3.868-3.805h3.328l-1.664-4.593-1.664 4.593z" fill="#8E8E8E"/><text font-family="ProximaNovaA-Bold, Proxima Nova Alt" font-size="16" font-weight="bold" fill="#8E8E8E" transform="translate(452 633)"><tspan x="17.438" y="14">1000 — 10,000m</tspan></text><path d="M452 643.5h11m-7.174 3.5L452 643.5m0 0l3.826-3.5M608 643.5h-11m7.174 3.5l3.826-3.5m0 0l-3.826-3.5" stroke="#8E8E8E" stroke-linecap="round" stroke-linejoin="round" stroke-width="1.8"/><path d="M623.164 114v-10.672h4.211c1.677 0 3.04.49 4.09 1.469 1.05.979 1.574 2.265 1.574 3.86 0 1.062-.238 2-.715 2.812a4.8 4.8 0 0 1-1.996 1.875c-.854.437-1.833.656-2.937.656h-4.227zm2.274-2h1.937c.682 0 1.281-.154 1.797-.46a2.999 2.999 0 0 0 1.16-1.212 3.59 3.59 0 0 0 .387-1.672c0-.974-.292-1.772-.875-2.394-.584-.623-1.401-.934-2.453-.934h-1.953V112zm8.703-3.328c0-1.078.25-2.04.75-2.883a5.129 5.129 0 0 1 2.047-1.953c.864-.458 1.83-.688 2.898-.688.562 0 1.085.072 1.566.215a4.27 4.27 0 0 1 1.258.594c.357.253.667.526.93.82.263.295.493.621.691.98l-1.953.962a2.857 2.857 0 0 0-1.023-1.11 2.663 2.663 0 0 0-1.47-.437c-.973 0-1.776.33-2.41.992-.632.662-.948 1.497-.948 2.508 0 1.01.316 1.848.949 2.512.633.664 1.436.996 2.41.996.526 0 1.016-.147 1.469-.442a2.885 2.885 0 0 0 1.023-1.113l1.953.945a5.85 5.85 0 0 1-.691.98 5.309 5.309 0 0 1-.926.825c-.36.255-.78.456-1.262.602a5.384 5.384 0 0 1-1.566.218 6.174 6.174 0 0 1-2.246-.406 5.529 5.529 0 0 1-1.813-1.121 5.072 5.072 0 0 1-1.199-1.75 5.71 5.71 0 0 1-.437-2.246zm10.836 3.117V110l4.242-6.672h3.133v6.461h1.375v2h-1.375V114h-2.266v-2.21h-5.11zm2.226-2h2.883v-4.445l-2.883 4.445zm7.735.914a7.648 7.648 0 0 1-.266-2.031c0-.708.088-1.383.265-2.024a6.07 6.07 0 0 1 .79-1.75 3.813 3.813 0 0 1 1.39-1.257c.578-.313 1.235-.47 1.969-.47s1.39.157 1.969.47a3.813 3.813 0 0 1 1.39 1.257c.35.526.612 1.11.79 1.75.176.641.265 1.316.265 2.024s-.089 1.384-.266 2.027a6.111 6.111 0 0 1-.789 1.758c-.349.529-.812.95-1.39 1.266-.578.315-1.235.472-1.97.472-.733 0-1.39-.157-1.968-.472a3.833 3.833 0 0 1-1.39-1.266 6.12 6.12 0 0 1-.79-1.754zm2.054-2.031c0 .687.067 1.285.2 1.793.132.508.359.92.68 1.238.32.318.724.477 1.214.477s.894-.16 1.215-.477c.32-.318.547-.73.68-1.238.132-.508.199-1.106.199-1.793 0-.688-.065-1.283-.196-1.785-.13-.503-.355-.912-.675-1.227-.32-.315-.728-.472-1.223-.472-.37 0-.693.087-.969.261a1.795 1.795 0 0 0-.652.746 4.31 4.31 0 0 0-.356 1.098 7.382 7.382 0 0 0-.117 1.379zm7.86 2.031a7.648 7.648 0 0 1-.266-2.031c0-.708.088-1.383.266-2.024.177-.64.44-1.224.789-1.75a3.813 3.813 0 0 1 1.39-1.257c.578-.313 1.235-.47 1.969-.47s1.39.157 1.969.47a3.813 3.813 0 0 1 1.39 1.257c.35.526.612 1.11.79 1.75.177.641.265 1.316.265 2.024s-.088 1.384-.266 2.027a6.112 6.112 0 0 1-.789 1.758c-.349.529-.812.95-1.39 1.266-.578.315-1.235.472-1.969.472s-1.39-.157-1.969-.472a3.833 3.833 0 0 1-1.39-1.266 6.12 6.12 0 0 1-.79-1.754zm2.054-2.031c0 .687.067 1.285.2 1.793.132.508.359.92.68 1.238.32.318.724.477 1.214.477s.895-.16 1.215-.477c.32-.318.547-.73.68-1.238.132-.508.199-1.106.199-1.793 0-.688-.065-1.283-.196-1.785-.13-.503-.355-.912-.675-1.227-.32-.315-.728-.472-1.223-.472-.37 0-.693.087-.969.261a1.795 1.795 0 0 0-.652.746 4.31 4.31 0 0 0-.356 1.098 7.382 7.382 0 0 0-.117 1.379zm6.985-5.344h2.578l2.953 8.195 2.96-8.195h2.579L680.85 114H678l-4.11-10.672zm-48.965 21.375l3.36-3.375h1.984V132h-2.274v-7.742l-1.781 1.805-1.29-1.36zm7.172 5.89l1.265-1.585c.75.781 1.696 1.172 2.836 1.172.615 0 1.1-.151 1.453-.453.355-.303.532-.68.532-1.133 0-.48-.171-.864-.512-1.153-.341-.289-.811-.433-1.41-.433-.886 0-1.633.289-2.242.867l-1.586-.438v-6.109h7.328v2h-5.055v2.61c.27-.271.612-.489 1.023-.653a3.553 3.553 0 0 1 1.329-.246c.609 0 1.171.135 1.687.406s.935.673 1.258 1.207c.323.534.484 1.147.484 1.84 0 1.125-.389 2.024-1.168 2.696-.778.671-1.813 1.007-3.105 1.007-1.76 0-3.133-.534-4.117-1.601zm9.757-1.89a7.648 7.648 0 0 1-.265-2.031c0-.708.088-1.383.265-2.024a6.07 6.07 0 0 1 .79-1.75 3.813 3.813 0 0 1 1.39-1.257c.578-.313 1.235-.47 1.969-.47s1.39.157 1.969.47a3.813 3.813 0 0 1 1.39 1.257c.35.526.612 1.11.79 1.75.176.641.265 1.316.265 2.024s-.089 1.384-.266 2.027a6.111 6.111 0 0 1-.789 1.758c-.349.529-.812.95-1.39 1.266-.578.315-1.235.472-1.97.472-.733 0-1.39-.157-1.968-.472a3.833 3.833 0 0 1-1.39-1.266 6.12 6.12 0 0 1-.79-1.754zm2.055-2.031c0 .687.067 1.285.2 1.793.132.508.359.92.68 1.238.32.318.724.477 1.214.477s.894-.16 1.215-.477c.32-.318.547-.73.68-1.238.132-.508.199-1.106.199-1.793 0-.688-.065-1.283-.196-1.785-.13-.503-.355-.912-.675-1.227-.32-.315-.728-.472-1.223-.472-.37 0-.693.087-.969.261a1.795 1.795 0 0 0-.652.746 4.31 4.31 0 0 0-.356 1.098 7.382 7.382 0 0 0-.117 1.379zm8.102 5.328v-10.672h2.273v4.75l3.774-4.75h2.804l-4.242 5.008 4.531 5.664h-2.804l-3.235-4.29-.828 1.009V132h-2.273zm9.054-10.672h2.579l2.953 8.195 2.96-8.195h2.579L668.027 132h-2.851l-4.11-10.672zM671.254 132l4.11-10.672h2.85l4.11 10.672h-2.578l-.672-1.805h-4.57l-.672 1.805h-2.578zm3.867-3.805h3.328l-1.664-4.593-1.664 4.593zm316.777-20.867v-2h8.516v2h-3.11V116h-2.28v-8.672h-3.126zm7.852 4.797c0-.745.17-1.424.508-2.04a3.804 3.804 0 0 1 1.43-1.464 3.988 3.988 0 0 1 2.062-.543c1.156 0 2.09.392 2.8 1.176.712.784 1.067 1.806 1.067 3.066v.477h-5.742c.073.5.305.914.695 1.242.39.328.901.492 1.532.492.343 0 .712-.069 1.105-.207.393-.138.707-.321.941-.55l.907 1.343c-.375.344-.845.61-1.41.797a5.582 5.582 0 0 1-1.77.281c-1.193 0-2.178-.373-2.957-1.12-.779-.748-1.168-1.731-1.168-2.95zm2.11-.734h3.804a1.797 1.797 0 0 0-.14-.57 2.032 2.032 0 0 0-.333-.524c-.143-.167-.34-.3-.59-.402a2.246 2.246 0 0 0-.851-.153c-.302 0-.573.05-.813.149-.24.099-.432.23-.578.394-.145.164-.26.339-.343.524a1.872 1.872 0 0 0-.157.582zm7.226 2.671v-8.734h2.031v8.195c0 .25.063.456.188.618a.616.616 0 0 0 .515.242c.146 0 .285-.024.418-.07a.652.652 0 0 0 .285-.172l.438 1.554c-.37.334-.935.5-1.695.5-.709 0-1.25-.18-1.621-.543-.373-.362-.56-.892-.56-1.59zm4.273-1.937c0-.745.17-1.424.508-2.04a3.804 3.804 0 0 1 1.43-1.464 3.988 3.988 0 0 1 2.062-.543c1.157 0 2.09.392 2.801 1.176.711.784 1.067 1.806 1.067 3.066v.477h-5.743c.073.5.305.914.696 1.242.39.328.9.492 1.53.492.345 0 .713-.069 1.106-.207.394-.138.707-.321.942-.55l.906 1.343c-.375.344-.845.61-1.41.797a5.582 5.582 0 0 1-1.77.281c-1.192 0-2.178-.373-2.957-1.12-.778-.748-1.168-1.731-1.168-2.95zm2.11-.734h3.804a1.797 1.797 0 0 0-.14-.57 2.032 2.032 0 0 0-.332-.524c-.143-.167-.34-.3-.59-.402a2.246 2.246 0 0 0-.852-.153c-.302 0-.573.05-.812.149-.24.099-.432.23-.578.394-.146.164-.26.339-.344.524a1.872 1.872 0 0 0-.156.582zm6.734.734c0-1.182.386-2.152 1.156-2.91.771-.758 1.75-1.137 2.938-1.137 1.354 0 2.372.464 3.055 1.39l-1.329 1.25c-.37-.551-.914-.827-1.632-.827-.62 0-1.124.205-1.512.617-.388.411-.582.95-.582 1.617 0 .672.194 1.216.582 1.633.388.416.892.625 1.512.625.698 0 1.242-.281 1.632-.844l1.329 1.242a3.477 3.477 0 0 1-1.204 1.012c-.505.268-1.122.402-1.851.402-1.188 0-2.167-.381-2.938-1.144-.77-.763-1.156-1.738-1.156-2.926zm8.453 2.031a4.357 4.357 0 0 1-.476-2.031c0-.74.16-1.413.48-2.02a3.7 3.7 0 0 1 1.422-1.468c.628-.373 1.353-.559 2.176-.559.828 0 1.557.186 2.187.559.63.372 1.106.862 1.426 1.468.32.607.48 1.28.48 2.02s-.16 1.415-.48 2.027a3.705 3.705 0 0 1-1.426 1.48c-.63.376-1.36.563-2.187.563-.823 0-1.548-.187-2.176-.562a3.747 3.747 0 0 1-1.426-1.477zm1.633-2.031c0 .635.176 1.17.527 1.605.352.435.832.653 1.442.653.614 0 1.099-.216 1.453-.649.354-.432.531-.968.531-1.609 0-.63-.177-1.16-.531-1.59-.354-.43-.839-.644-1.453-.644-.61 0-1.09.214-1.442.644-.351.43-.527.96-.527 1.59zm7.578 3.875v-7.727h2.031v.993c.209-.276.549-.543 1.02-.801a3.102 3.102 0 0 1 1.512-.387c.557 0 1.018.121 1.382.363.365.243.618.585.758 1.028.245-.375.61-.7 1.094-.977a3.104 3.104 0 0 1 1.563-.414c.724 0 1.283.195 1.68.586.395.39.593.974.593 1.75V116h-2.047v-4.883c0-.38-.094-.68-.281-.898-.188-.219-.48-.328-.875-.328-.328 0-.634.088-.918.265a2.27 2.27 0 0 0-.676.625V116h-2.055v-4.883c0-.818-.382-1.226-1.148-1.226a1.69 1.69 0 0 0-.91.265 2.475 2.475 0 0 0-.692.625V116h-2.03zm-317 530.914a4.712 4.712 0 0 1 1.844-1.305 6.046 6.046 0 0 1 2.266-.437c.765 0 1.455.134 2.07.402a3.394 3.394 0 0 1 1.465 1.184c.362.52.543 1.127.543 1.82 0 .87-.345 1.724-1.035 2.563-.69.838-1.77 1.791-3.239 2.859h4.352v2h-8.031v-1.79a180.38 180.38 0 0 0 1.945-1.452c.5-.38.983-.762 1.45-1.145a17.59 17.59 0 0 0 1.077-.945c.253-.247.477-.5.672-.758.195-.258.328-.488.399-.691.07-.203.105-.417.105-.64 0-.449-.168-.793-.504-1.032-.336-.24-.743-.36-1.223-.36-1.13 0-2.085.41-2.867 1.227l-1.289-1.5zm9.594 0a4.712 4.712 0 0 1 1.844-1.305 6.046 6.046 0 0 1 2.265-.437c.766 0 1.456.134 2.07.402a3.394 3.394 0 0 1 1.465 1.184c.362.52.543 1.127.543 1.82 0 .87-.345 1.724-1.035 2.563-.69.838-1.77 1.791-3.238 2.859h4.352v2h-8.032v-1.79a180.38 180.38 0 0 0 1.946-1.452c.5-.38.983-.762 1.449-1.145.466-.383.825-.698 1.078-.945.253-.247.477-.5.672-.758.195-.258.328-.488.398-.691.07-.203.106-.417.106-.64 0-.449-.168-.793-.504-1.032-.336-.24-.744-.36-1.223-.36-1.13 0-2.086.41-2.867 1.227l-1.29-1.5zM742.594 656v-10.672h2.273v4.75l3.774-4.75h2.804l-4.242 5.008 4.531 5.664h-2.804l-3.235-4.29-.828 1.009V656h-2.273zm9.054-10.672h2.579l2.953 8.195 2.96-8.195h2.579L758.609 656h-2.851l-4.11-10.672zM783.418 656v-10.672h4.992c.563 0 1.074.091 1.535.274.461.182.839.43 1.133.742.294.312.521.676.68 1.09.159.414.238.858.238 1.332 0 .468-.08.908-.238 1.32a3.313 3.313 0 0 1-.684 1.09 3.105 3.105 0 0 1-1.133.746 4.11 4.11 0 0 1-1.53.273h-2.72V656h-2.273zm2.273-5.805h2.399c.458 0 .837-.13 1.137-.39.299-.26.449-.607.449-1.04 0-.437-.15-.786-.45-1.046-.299-.26-.678-.39-1.136-.39h-2.399v2.866zm7.727 5.805v-10.672h3.187l2.586 6.672 2.594-6.672h3.203V656H802.7v-7.695L799.691 656h-.992l-3.008-7.695V656h-2.273zm12.945-1.508l1.25-1.773c.412.432.908.784 1.489 1.054.58.271 1.214.407 1.902.407.599 0 1.057-.114 1.375-.34.318-.227.476-.51.476-.848a.737.737 0 0 0-.265-.566 1.799 1.799 0 0 0-.695-.367 31.2 31.2 0 0 0-2.11-.547 5.92 5.92 0 0 1-1.129-.375 5.021 5.021 0 0 1-.98-.57 2.343 2.343 0 0 1-.696-.88 2.914 2.914 0 0 1-.265-1.273c0-.917.368-1.686 1.105-2.309.737-.622 1.718-.933 2.942-.933 1.708 0 3.096.495 4.164 1.484l-1.266 1.696a4.267 4.267 0 0 0-1.445-.872 4.849 4.849 0 0 0-1.656-.293c-.474 0-.844.096-1.11.286a.899.899 0 0 0-.398.77c0 .197.087.369.261.515.175.146.407.259.696.34.289.08.617.169.984.265.367.097.741.19 1.121.278.38.088.754.217 1.121.386.368.17.696.365.985.586.289.222.52.517.695.887.175.37.262.792.262 1.266 0 1.02-.366 1.847-1.098 2.48-.732.633-1.788.95-3.168.95-1.896 0-3.411-.568-4.547-1.704zM836.438 656v-10.672h3.187l2.586 6.672 2.594-6.672h3.203V656h-2.29v-7.695L842.712 656h-.992l-3.008-7.695V656h-2.274zm13.617-1.844a4.357 4.357 0 0 1-.477-2.031c0-.74.16-1.413.48-2.02a3.7 3.7 0 0 1 1.422-1.468c.628-.373 1.353-.559 2.176-.559.828 0 1.558.186 2.188.559a3.7 3.7 0 0 1 1.426 1.468c.32.607.48 1.28.48 2.02s-.16 1.415-.48 2.027a3.705 3.705 0 0 1-1.426 1.48c-.63.376-1.36.563-2.188.563-.823 0-1.548-.187-2.176-.562a3.747 3.747 0 0 1-1.425-1.477zm1.633-2.031c0 .635.175 1.17.527 1.605.351.435.832.653 1.441.653.615 0 1.1-.216 1.453-.649.355-.432.532-.968.532-1.609 0-.63-.177-1.16-.532-1.59-.354-.43-.838-.644-1.453-.644-.61 0-1.09.214-1.441.644-.352.43-.528.96-.528 1.59zm6.71-2.078v-1.774h1.282v-2.117h2.03v2.117h1.571v1.774h-1.57v3.476c0 .25.062.456.187.618a.616.616 0 0 0 .516.242c.146 0 .287-.024.422-.07a.653.653 0 0 0 .289-.172l.43 1.554c-.37.334-.935.5-1.696.5-.708 0-1.248-.18-1.62-.543-.373-.362-.56-.892-.56-1.59v-4.015h-1.28zm6.258 4.11a4.357 4.357 0 0 1-.476-2.032c0-.74.16-1.413.48-2.02a3.7 3.7 0 0 1 1.422-1.468c.628-.373 1.353-.559 2.176-.559.828 0 1.557.186 2.187.559.63.372 1.106.862 1.426 1.468.32.607.48 1.28.48 2.02s-.16 1.415-.48 2.027a3.705 3.705 0 0 1-1.426 1.48c-.63.376-1.36.563-2.187.563-.823 0-1.548-.187-2.176-.562a3.747 3.747 0 0 1-1.426-1.477zm1.633-2.032c0 .635.176 1.17.527 1.605.352.435.832.653 1.442.653.614 0 1.099-.216 1.453-.649.354-.432.531-.968.531-1.609 0-.63-.177-1.16-.531-1.59-.354-.43-.839-.644-1.453-.644-.61 0-1.09.214-1.442.644-.351.43-.527.96-.527 1.59zm7.578 3.875v-7.727h2.031v1.04a3.65 3.65 0 0 1 1.114-.883 2.882 2.882 0 0 1 1.355-.352v1.985a2.696 2.696 0 0 0-.562-.047 2.61 2.61 0 0 0-1.086.261c-.38.175-.654.382-.82.621V656h-2.032zm15.59-233v-10.672h7.555v2h-5.282v2.242h5.165v2h-5.165V423h-2.273zm8.594-3.875c0-.745.169-1.424.508-2.04a3.804 3.804 0 0 1 1.43-1.464 3.988 3.988 0 0 1 2.062-.543c1.156 0 2.09.392 2.8 1.176.712.784 1.067 1.806 1.067 3.066v.477h-5.742c.073.5.304.914.695 1.242.39.328.901.492 1.531.492.344 0 .713-.069 1.106-.207.393-.138.707-.321.941-.55l.906 1.343c-.375.344-.845.61-1.41.797a5.582 5.582 0 0 1-1.77.281c-1.192 0-2.178-.373-2.956-1.12-.779-.748-1.168-1.731-1.168-2.95zm2.11-.734h3.804a1.797 1.797 0 0 0-.14-.57 2.032 2.032 0 0 0-.333-.524c-.143-.167-.34-.3-.59-.402a2.246 2.246 0 0 0-.851-.153c-.302 0-.573.05-.813.149-.24.099-.432.23-.578.394-.146.164-.26.339-.344.524a1.872 1.872 0 0 0-.156.582zm6.734.734c0-.745.169-1.424.507-2.04a3.804 3.804 0 0 1 1.43-1.464 3.988 3.988 0 0 1 2.063-.543c1.156 0 2.09.392 2.8 1.176.711.784 1.067 1.806 1.067 3.066v.477h-5.742c.072.5.304.914.695 1.242.39.328.9.492 1.531.492.344 0 .712-.069 1.106-.207.393-.138.707-.321.941-.55l.906 1.343c-.375.344-.845.61-1.41.797a5.582 5.582 0 0 1-1.77.281c-1.192 0-2.178-.373-2.957-1.12-.778-.748-1.167-1.731-1.167-2.95zm2.109-.734h3.805a1.797 1.797 0 0 0-.141-.57 2.032 2.032 0 0 0-.332-.524c-.143-.167-.34-.3-.59-.402a2.246 2.246 0 0 0-.851-.153c-.303 0-.573.05-.813.149-.24.099-.432.23-.578.394-.146.164-.26.339-.344.524a1.872 1.872 0 0 0-.156.582zm6.734.734c0-1.234.32-2.217.957-2.95.638-.731 1.46-1.097 2.465-1.097.469 0 .909.1 1.32.3.412.201.766.497 1.063.888v-3.938h2.047V423h-2.047v-.992c-.63.791-1.425 1.187-2.383 1.187-1 0-1.82-.362-2.46-1.086-.641-.724-.962-1.718-.962-2.984zm2.094 0c0 .672.182 1.216.547 1.633.364.416.838.625 1.422.625.338 0 .672-.082 1-.246.328-.164.575-.374.742-.63v-2.741c-.167-.256-.414-.465-.742-.63a2.214 2.214 0 0 0-1-.245c-.584 0-1.058.205-1.422.617-.365.411-.547.95-.547 1.617zM903.11 650.672c0-1.078.25-2.04.75-2.883a5.129 5.129 0 0 1 2.046-1.953c.865-.458 1.831-.688 2.899-.688.562 0 1.084.072 1.566.215a4.27 4.27 0 0 1 1.258.594c.357.253.667.526.93.82.263.295.493.621.691.98l-1.953.962a2.857 2.857 0 0 0-1.024-1.11 2.663 2.663 0 0 0-1.468-.437c-.974 0-1.778.33-2.41.992-.633.662-.95 1.497-.95 2.508 0 1.01.317 1.848.95 2.512.632.664 1.436.996 2.41.996.526 0 1.015-.147 1.468-.442a2.885 2.885 0 0 0 1.024-1.113l1.953.945a5.85 5.85 0 0 1-.691.98 5.309 5.309 0 0 1-.926.825c-.36.255-.78.456-1.262.602a5.384 5.384 0 0 1-1.566.218 6.174 6.174 0 0 1-2.246-.406 5.529 5.529 0 0 1-1.813-1.121 5.072 5.072 0 0 1-1.2-1.75 5.71 5.71 0 0 1-.437-2.246zm11.43 3.484a4.357 4.357 0 0 1-.477-2.031c0-.74.16-1.413.48-2.02a3.7 3.7 0 0 1 1.422-1.468c.627-.373 1.353-.559 2.176-.559.828 0 1.557.186 2.187.559.63.372 1.106.862 1.426 1.468.32.607.48 1.28.48 2.02s-.16 1.415-.48 2.027a3.705 3.705 0 0 1-1.426 1.48c-.63.376-1.36.563-2.187.563-.823 0-1.549-.187-2.176-.562a3.747 3.747 0 0 1-1.426-1.477zm1.632-2.031c0 .635.176 1.17.527 1.605.352.435.832.653 1.442.653.614 0 1.099-.216 1.453-.649.354-.432.531-.968.531-1.609 0-.63-.177-1.16-.531-1.59-.354-.43-.839-.644-1.453-.644-.61 0-1.09.214-1.442.644-.351.43-.527.96-.527 1.59zM923.75 656v-7.727h2.031v.993c.282-.329.658-.608 1.13-.84a3.52 3.52 0 0 1 1.573-.348c.834 0 1.464.218 1.891.652.427.435.64 1.04.64 1.817V656h-2.046v-4.672c0-.51-.124-.877-.371-1.101-.248-.224-.6-.336-1.059-.336-.37 0-.706.084-1.008.254a2.45 2.45 0 0 0-.75.636V656h-2.031zm8.156-7.727h2.172l2.016 5.375 2.031-5.375h2.18L937.203 656h-2.195l-3.102-7.727zm8.813 3.852c0-.745.169-1.424.508-2.04a3.804 3.804 0 0 1 1.43-1.464 3.988 3.988 0 0 1 2.062-.543c1.156 0 2.09.392 2.8 1.176.711.784 1.067 1.806 1.067 3.066v.477h-5.742c.073.5.304.914.695 1.242.39.328.901.492 1.531.492.344 0 .713-.069 1.106-.207.393-.138.707-.321.941-.55l.906 1.343c-.375.344-.845.61-1.41.797a5.582 5.582 0 0 1-1.77.281c-1.192 0-2.178-.373-2.956-1.12-.779-.748-1.168-1.731-1.168-2.95zm2.11-.734h3.804a1.797 1.797 0 0 0-.14-.57 2.032 2.032 0 0 0-.333-.524c-.143-.167-.34-.3-.59-.402a2.246 2.246 0 0 0-.851-.153c-.302 0-.573.05-.813.149-.24.099-.432.23-.578.394-.146.164-.26.339-.344.524a1.872 1.872 0 0 0-.156.582zm7.226 4.609v-7.727h2.03v1.04a3.65 3.65 0 0 1 1.114-.883 2.882 2.882 0 0 1 1.356-.352v1.985a2.696 2.696 0 0 0-.563-.047 2.61 2.61 0 0 0-1.086.261c-.38.175-.653.382-.82.621V656h-2.031zm4.89-5.953v-1.774h1.282v-2.117h2.03v2.117h1.571v1.774h-1.57v3.476c0 .25.062.456.187.618a.616.616 0 0 0 .516.242c.146 0 .286-.024.422-.07a.653.653 0 0 0 .289-.172l.43 1.554c-.37.334-.935.5-1.696.5-.708 0-1.248-.18-1.62-.543-.373-.362-.56-.892-.56-1.59v-4.015h-1.28zm5.782 2.078c0-.745.169-1.424.507-2.04a3.804 3.804 0 0 1 1.43-1.464 3.988 3.988 0 0 1 2.063-.543c1.156 0 2.09.392 2.8 1.176.711.784 1.067 1.806 1.067 3.066v.477h-5.742c.072.5.304.914.695 1.242.39.328.9.492 1.531.492.344 0 .712-.069 1.106-.207.393-.138.707-.321.941-.55l.906 1.343c-.375.344-.845.61-1.41.797a5.582 5.582 0 0 1-1.77.281c-1.192 0-2.178-.373-2.956-1.12-.78-.748-1.168-1.731-1.168-2.95zm2.109-.734h3.805a1.797 1.797 0 0 0-.141-.57 2.032 2.032 0 0 0-.332-.524c-.143-.167-.34-.3-.59-.402a2.246 2.246 0 0 0-.851-.153c-.303 0-.573.05-.813.149-.24.099-.432.23-.578.394-.146.164-.26.339-.344.524a1.872 1.872 0 0 0-.156.582zm7.226 4.609v-7.727h2.032v1.04a3.65 3.65 0 0 1 1.113-.883 2.882 2.882 0 0 1 1.356-.352v1.985a2.696 2.696 0 0 0-.563-.047 2.61 2.61 0 0 0-1.086.261c-.38.175-.654.382-.82.621V656h-2.032zm5.086-1.008l.883-1.469c.302.287.707.537 1.215.75.508.214.994.32 1.457.32.427 0 .75-.073.969-.222a.689.689 0 0 0 .328-.598c0-.166-.085-.304-.254-.414a2.078 2.078 0 0 0-.656-.257 19.487 19.487 0 0 0-.89-.184 7.883 7.883 0 0 1-.977-.246 4.204 4.204 0 0 1-.891-.399 1.846 1.846 0 0 1-.656-.691c-.17-.3-.254-.655-.254-1.066 0-.683.281-1.26.844-1.73.562-.472 1.336-.708 2.32-.708 1.187 0 2.224.352 3.11 1.055l-.821 1.445c-.245-.255-.574-.469-.988-.64a3.36 3.36 0 0 0-1.301-.258c-.365 0-.658.07-.879.21-.221.141-.332.32-.332.54 0 .135.065.248.195.34.13.09.304.161.52.21l.734.168c.274.063.555.124.844.184.289.06.57.154.844.281.273.128.518.275.734.442.216.166.39.393.52.68.13.286.195.617.195.992 0 .729-.298 1.322-.895 1.78-.596.46-1.418.688-2.464.688a5.803 5.803 0 0 1-1.926-.32c-.612-.214-1.121-.508-1.528-.883z" fill="#8E8E8E"/><g opacity=".5" transform="translate(362 341)"><mask id="p" fill="#fff"><use xlink:href="#o"/></mask><path d="M-108 12.1c3-2.9 8.9-2.9 11.8 0 3 2.9 8.9 2.9 11.8 0 3-2.9 8.9-2.9 11.8 0 3 2.9 8.9 2.9 11.8 0 3-2.9 8.9-2.9 11.8 0 3 2.9 8.9 2.9 11.8 0 3-2.9 8.9-2.9 11.8 0 3 2.9 8.9 2.9 11.8 0 3-2.9 8.9-2.9 11.8 0 3 2.9 8.9 2.9 11.8 0 3-2.9 8.9-2.9 11.8 0 3 2.9 8.9 2.9 11.8 0 3-2.9 8.9-2.9 11.8 0 3 2.9 8.9 2.9 11.8 0 3-2.9 8.9-2.9 11.8 0 3 2.9 8.9 2.9 11.8 0 3-2.9 8.9-2.9 11.8 0 3 2.9 8.9 2.9 11.8 0 3-2.9 8.9-2.9 11.8 0 3 2.9 8.9 2.9 11.8 0 3-2.9 8.9-2.9 11.8 0 3 2.9 8.9 2.9 11.8 0 3-2.9 8.9-2.9 11.8 0 3 2.9 8.9 2.9 11.8 0 3-2.9 8.9-2.9 11.8 0 3 2.9 8.9 2.9 11.8 0 3-2.9 8.9-2.9 11.8 0 3 2.9 8.9 2.9 11.8 0 3-2.9 8.9-2.9 11.8 0 3 2.9 8.9 2.9 11.8 0 3-2.9 8.9-2.9 11.8 0 3 2.9 8.9 2.9 11.8 0 3-2.9 8.9-2.9 11.8 0 3 2.9 8.9 2.9 11.8 0 3-2.9 8.9-2.9 11.8 0 3 2.9 8.9 2.9 11.8 0 3-2.9 8.9-2.9 11.8 0 3 2.9 8.9 2.9 11.8 0 3-2.9 8.9-2.9 11.8 0 3 2.9 8.9 2.9 11.8 0 3-2.9 8.9-2.9 11.8 0 3 2.9 8.9 2.9 11.8 0 3-2.9 8.9-2.9 11.8 0 3 2.9 8.9 2.9 11.8 0 3-2.9 8.9-2.9 11.8 0 3 2.9 8.9 2.9 11.8 0 3-2.9 8.9-2.9 11.8 0 3 2.9 8.9 2.9 11.8 0 3-2.9 8.9-2.9 11.8 0 3 2.9 8.9 2.9 11.8 0 3-2.9 8.9-2.9 11.8 0 3 2.9 8.9 2.9 11.8 0 3-2.9 8.9-2.9 11.8 0 3 2.9 8.9 2.9 11.8 0 3-2.9 8.9-2.9 11.8 0 3 2.9 8.9 2.9 11.8 0 3-2.9 8.9-2.9 11.8 0 3 2.9 8.9 2.9 11.8 0 3-2.9 8.9-2.9 11.8 0 3 2.9 8.9 2.9 11.8 0 3-2.9 8.9-2.9 11.8 0 3 2.9 8.9 2.9 11.8 0 3-2.9 8.9-2.9 11.8 0 3 2.9 8.9 2.9 11.8 0 3-2.9 8.9-2.9 11.8 0 3 2.9 8.9 2.9 11.8 0 3-2.9 8.9-2.9 11.8 0 3 2.9 8.9 2.9 11.8 0 3-2.9 8.9-2.9 11.8 0 3 2.9 8.9 2.9 11.8 0 3-2.9 8.9-2.9 11.8 0 3 2.9 8.9 2.9 11.8 0 3-2.9 8.9-2.9 11.8 0 3 2.9 8.9 2.9 11.8 0 3-2.9 8.9-2.9 11.8 0 3 2.9 8.9 2.9 11.8 0 3-2.9 8.9-2.9 11.8 0 3 2.9 8.9 2.9 11.8 0 3-2.9 8.9-2.9 11.8 0 3 2.9 8.9 2.9 11.8 0 3-2.9 8.9-2.9 11.8 0 3 2.9 8.9 2.9 11.8 0 3-2.9 8.9-2.9 11.8 0 3 2.9 8.9 2.9 11.8 0 3-2.9 8.9-2.9 11.8 0 3 2.9 8.9 2.9 11.8 0 3-2.9 8.9-2.9 11.8 0 3 2.9 8.9 2.9 11.8 0 3-2.9 8.9-2.9 11.8 0 3 2.9 8.9 2.9 11.8 0 3-2.9 8.9-2.9 11.8 0 3 2.9 8.9 2.9 11.8 0 3-2.9 8.9-2.9 11.8 0 3 2.9 8.9 2.9 11.8 0 3-2.9 8.9-2.9 11.8 0 3 2.9 8.9 2.9 11.8 0" stroke="#1D1D1D" stroke-width="3" mask="url(#p)"/></g><path d="M1110 341H850c-13.2 0-24 10.8-24 24v118" stroke="#E63331" stroke-width="3" stroke-linecap="round" stroke-linejoin="round"/><g transform="translate(1102 335)"><rect stroke="#E63331" stroke-width="3" fill="#E63331" width="22" height="53" rx="4"/><rect fill="#FFF" x="5" y="4" width="12" height="20" rx="2"/></g><rect stroke="#1D1D1D" stroke-width="3" fill="#1D1D1D" x="1158" y="337" width="46" height="20" rx="4"/><path d="M319 329h37c13.2 0 24 10.8 24 24v62" stroke="#E63331" stroke-width="3"/><g opacity=".5" transform="translate(1199 341)"><mask id="r" fill="#fff"><use xlink:href="#q"/></mask><path d="M-343 12.1c3-2.9 8.9-2.9 11.8 0 3 2.9 8.9 2.9 11.8 0 3-2.9 8.9-2.9 11.8 0 3 2.9 8.9 2.9 11.8 0 3-2.9 8.9-2.9 11.8 0 3 2.9 8.9 2.9 11.8 0 3-2.9 8.9-2.9 11.8 0 3 2.9 8.9 2.9 11.8 0 3-2.9 8.9-2.9 11.8 0 3 2.9 8.9 2.9 11.8 0 3-2.9 8.9-2.9 11.8 0 3 2.9 8.9 2.9 11.8 0 3-2.9 8.9-2.9 11.8 0 3 2.9 8.9 2.9 11.8 0 3-2.9 8.9-2.9 11.8 0 3 2.9 8.9 2.9 11.8 0 3-2.9 8.9-2.9 11.8 0 3 2.9 8.9 2.9 11.8 0 3-2.9 8.9-2.9 11.8 0 3 2.9 8.9 2.9 11.8 0 3-2.9 8.9-2.9 11.8 0 3 2.9 8.9 2.9 11.8 0 3-2.9 8.9-2.9 11.8 0 3 2.9 8.9 2.9 11.8 0 3-2.9 8.9-2.9 11.8 0 3 2.9 8.9 2.9 11.8 0 3-2.9 8.9-2.9 11.8 0 3 2.9 8.9 2.9 11.8 0 3-2.9 8.9-2.9 11.8 0 3 2.9 8.9 2.9 11.8 0 3-2.9 8.9-2.9 11.8 0 3 2.9 8.9 2.9 11.8 0 3-2.9 8.9-2.9 11.8 0 3 2.9 8.9 2.9 11.8 0 3-2.9 8.9-2.9 11.8 0 3 2.9 8.9 2.9 11.8 0 3-2.9 8.9-2.9 11.8 0 3 2.9 8.9 2.9 11.8 0 3-2.9 8.9-2.9 11.8 0 3 2.9 8.9 2.9 11.8 0 3-2.9 8.9-2.9 11.8 0 3 2.9 8.9 2.9 11.8 0 3-2.9 8.9-2.9 11.8 0 3 2.9 8.9 2.9 11.8 0 3-2.9 8.9-2.9 11.8 0 3 2.9 8.9 2.9 11.8 0 3-2.9 8.9-2.9 11.8 0 3 2.9 8.9 2.9 11.8 0 3-2.9 8.9-2.9 11.8 0 3 2.9 8.9 2.9 11.8 0 3-2.9 8.9-2.9 11.8 0 3 2.9 8.9 2.9 11.8 0 3-2.9 8.9-2.9 11.8 0 3 2.9 8.9 2.9 11.8 0 3-2.9 8.9-2.9 11.8 0 3 2.9 8.9 2.9 11.8 0 3-2.9 8.9-2.9 11.8 0 3 2.9 8.9 2.9 11.8 0 3-2.9 8.9-2.9 11.8 0 3 2.9 8.9 2.9 11.8 0 3-2.9 8.9-2.9 11.8 0 3 2.9 8.9 2.9 11.8 0 3-2.9 8.9-2.9 11.8 0 3 2.9 8.9 2.9 11.8 0 3-2.9 8.9-2.9 11.8 0 3 2.9 8.9 2.9 11.8 0 3-2.9 8.9-2.9 11.8 0 3 2.9 8.9 2.9 11.8 0 3-2.9 8.9-2.9 11.8 0 3 2.9 8.9 2.9 11.8 0 3-2.9 8.9-2.9 11.8 0 3 2.9 8.9 2.9 11.8 0 3-2.9 8.9-2.9 11.8 0 3 2.9 8.9 2.9 11.8 0 3-2.9 8.9-2.9 11.8 0 3 2.9 8.9 2.9 11.8 0 3-2.9 8.9-2.9 11.8 0 3 2.9 8.9 2.9 11.8 0 3-2.9 8.9-2.9 11.8 0 3 2.9 8.9 2.9 11.8 0 3-2.9 8.9-2.9 11.8 0 3 2.9 8.9 2.9 11.8 0 3-2.9 8.9-2.9 11.8 0 3 2.9 8.9 2.9 11.8 0 3-2.9 8.9-2.9 11.8 0 3 2.9 8.9 2.9 11.8 0 3-2.9 8.9-2.9 11.8 0 3 2.9 8.9 2.9 11.8 0 3-2.9 8.9-2.9 11.8 0 3 2.9 8.9 2.9 11.8 0 3-2.9 8.9-2.9 11.8 0 3 2.9 8.9 2.9 11.8 0 3-2.9 8.9-2.9 11.8 0 3 2.9 8.9 2.9 11.8 0 3-2.9 8.9-2.9 11.8 0 3 2.9 8.9 2.9 11.8 0" stroke="#1D1D1D" stroke-width="3" mask="url(#r)"/></g><path d="M45 166v-20" stroke="#1D1D1D" stroke-width="3"/><path d="M1199 306h47c13.2 0 24 10.8 24 24v182" stroke="#E63331" stroke-width="3" stroke-linecap="round" stroke-linejoin="round"/><g transform="translate(651 150)"><path stroke="#8E8E8E" stroke-width="2" d="M3 3v97.067h44.5"/><circle fill="#8E8E8E" cx="48" cy="100" r="3"/><circle fill="#8E8E8E" cx="3" cy="3" r="3"/></g><g transform="translate(651 150)"><path stroke="#8E8E8E" stroke-width="2" d="M3 3v97.067h44.5"/><circle fill="#8E8E8E" cx="48" cy="100" r="3"/><circle fill="#8E8E8E" cx="3" cy="3" r="3"/></g><g transform="translate(796 581)"><path d="M3 3v44" stroke="#8E8E8E" stroke-width="2"/><circle fill="#8E8E8E" cx="3" cy="3" r="3"/><circle fill="#8E8E8E" cx="3" cy="48" r="3"/></g><g transform="translate(836 581)"><path d="M3 3v44" stroke="#8E8E8E" stroke-width="2"/><circle fill="#8E8E8E" cx="3" cy="3" r="3"/><circle fill="#8E8E8E" cx="3" cy="48" r="3"/></g><g transform="translate(904 581)"><path d="M3 3v44" stroke="#8E8E8E" stroke-width="2"/><circle fill="#8E8E8E" cx="3" cy="3" r="3"/><circle fill="#8E8E8E" cx="3" cy="48" r="3"/></g><path d="M1037 179h13" stroke="#8E8E8E" stroke-width="2"/><circle fill="#8E8E8E" cx="1037" cy="179" r="3"/></g></svg>