<svg xmlns="http://www.w3.org/2000/svg" width="28" height="32" viewBox="0 0 28 32"><title>wealth</title><path d="M16.789 31.662a.676.676 0 0 1-.676-.676v-3.38c0-.373.303-.676.676-.676h6.761c.373 0 .676.303.676.676v3.38a.676.676 0 0 1-.676.676h-6.761zm.676-1.352h5.408v-2.028h-5.408v2.028zm5.634-2.704a.676.676 0 0 1-1.352 0v-1.725c0-.18.072-.353.2-.48l.203-.201.534-.529c.553-.548 1.106-1.095 1.621-1.607a1223.5 1223.5 0 0 0 1.948-1.935v-8.066a1.288 1.288 0 0 0-.247.204c-.731.753-1.218 2.613-1.218 5.889a.676.676 0 0 1-.198.478l-3.345 3.345c-.48.48-1.289.032-1.137-.629l.777-3.386c.212-.885-.285-1.141-.676-.534-.116.18-.253.449-.404.789-.141.32-.291.695-.446 1.114a39.727 39.727 0 0 0-.564 1.642c-.063.196-.12.379-.171.542l-.034.11v4.98a.676.676 0 0 1-1.352 0v-5.079c0-.065.009-.13.028-.192l.065-.215a46.08 46.08 0 0 1 .759-2.256c.164-.443.324-.844.477-1.191.176-.399.343-.725.503-.974 1.261-1.958 3.676-.71 3.129 1.574l-.25 1.089 1.486-1.486c.029-3.427.595-5.516 1.598-6.549.621-.64 1.327-.809 1.944-.684.075.015.135.032.18.049a.676.676 0 0 1 .445.636v9.084a.676.676 0 0 1-.198.478 1437.28 1437.28 0 0 1-3.773 3.744l-.535.529-.002 1.445zM4.394 31.662a.676.676 0 0 1-.676-.676v-3.38c0-.373.303-.676.676-.676h6.761c.373 0 .676.303.676.676v3.38a.676.676 0 0 1-.676.676H4.394zm.676-1.352h5.408v-2.028H5.07v2.028zm-1.504-7.408l.159.16a147.69 147.69 0 0 1 2.286 2.354c.12.126.186.292.186.466v1.725a.676.676 0 0 1-1.352 0v-1.454l-.513-.534a165.607 165.607 0 0 0-1.567-1.604l-.157-.158c-.929-.933-1.64-1.613-2.021-1.923a.674.674 0 0 1-.249-.524v-9.084c0-.284.178-.539.446-.636.045-.016.106-.034.18-.049.617-.125 1.323.044 1.944.684 1.003 1.034 1.569 3.122 1.598 6.549l1.486 1.486-.248-1.082c-.548-2.29 1.867-3.538 3.128-1.58.16.249.326.575.503.974.154.348.313.748.477 1.191a41.516 41.516 0 0 1 .824 2.471.656.656 0 0 1 .028.192v5.079a.676.676 0 0 1-1.352 0v-4.98l-.034-.11a39.727 39.727 0 0 0-.735-2.184 19.788 19.788 0 0 0-.446-1.114 6.183 6.183 0 0 0-.403-.789c-.391-.607-.888-.351-.675.54l.775 3.38c.152.662-.657 1.109-1.137.629l-3.345-3.345a.676.676 0 0 1-.198-.478c0-3.276-.487-5.136-1.218-5.889a1.326 1.326 0 0 0-.247-.204v8.034c.44.388 1.079 1.005 1.876 1.806zM22.764 5.408c.372 0 .673.303.673.676s-.301.676-.673.676H5.18c-.372 0-.673-.303-.673-.676s.301-.676.673-.676h17.584zm-.866.726L18.371 1.37H9.574L6.047 6.134l7.926 9.265 7.926-9.265zm-8.434 10.758L4.672 6.615a.695.695 0 0 1-.03-.862L8.7.273A.668.668 0 0 1 9.237 0h9.468c.211 0 .41.101.537.273l4.058 5.48a.695.695 0 0 1-.03.862l-8.792 10.277a.665.665 0 0 1-1.015 0zM11.293 5.974l3.543 10.248c.124.358-.072.747-.437.869s-.762-.07-.886-.429L9.96 6.386l-.017-.058-1.36-5.48C8.492.48 8.722.11 9.096.02s.753.136.844.504l1.353 5.451zm5.488 0l1.31-5.456c.088-.367.444-.59.794-.497s.563.464.475.831l-1.315 5.48-.013.047-3.235 10.276c-.113.359-.483.555-.826.436s-.53-.506-.417-.865l3.227-10.253z"/></svg>